<?xml version="1.0" encoding="UTF-8" standalone="no"?>
<!-- Created with Inkscape (http://www.inkscape.org/) -->

<svg
   xmlns:dc="http://purl.org/dc/elements/1.1/"
   xmlns:cc="http://creativecommons.org/ns#"
   xmlns:rdf="http://www.w3.org/1999/02/22-rdf-syntax-ns#"
   xmlns:svg="http://www.w3.org/2000/svg"
   xmlns="http://www.w3.org/2000/svg"
   xmlns:sodipodi="http://sodipodi.sourceforge.net/DTD/sodipodi-0.dtd"
   xmlns:inkscape="http://www.inkscape.org/namespaces/inkscape"
   width="194.33328mm"
   height="156.884mm"
   viewBox="0 0 688.58249 555.8882"
   id="svg4796"
   version="1.1"
   inkscape:version="0.91 r13725"
   sodipodi:docname="AlBe.svg">
  <defs
     id="defs4798" />
  <sodipodi:namedview
     id="base"
     pagecolor="#ffffff"
     bordercolor="#666666"
     borderopacity="1.0"
     inkscape:pageopacity="0.0"
     inkscape:pageshadow="2"
     inkscape:zoom="1.6532101"
     inkscape:cx="393.95997"
     inkscape:cy="277.94409"
     inkscape:document-units="px"
     inkscape:current-layer="layer1"
     showgrid="false"
     fit-margin-top="0"
     fit-margin-left="0"
     fit-margin-right="0"
     fit-margin-bottom="0"
     inkscape:window-width="1920"
     inkscape:window-height="1056"
     inkscape:window-x="0"
     inkscape:window-y="24"
     inkscape:window-maximized="1" />
  <metadata
     id="metadata4801">
    <rdf:RDF>
      <cc:Work
         rdf:about="">
        <dc:format>image/svg+xml</dc:format>
        <dc:type
           rdf:resource="http://purl.org/dc/dcmitype/StillImage" />
        <dc:title></dc:title>
      </cc:Work>
    </rdf:RDF>
  </metadata>
  <g
     inkscape:label="Layer 1"
     inkscape:groupmode="layer"
     id="layer1"
     transform="translate(565.43408,-197.27526)">
    <path
       d="m -100.6384,416.47526 c -23.5,-9.1125 -45.9,-20.225 -70.5125,-27.3375 -24.6,-7.125 -50.825,-11.5625 -77.15,-15.3625 -26.325,-3.7875 -53.3625,-5.675 -80.775,-7.425 -27.4125,-1.7625 -55.4625,-2.3625 -83.7125,-3.125 -28.2375,-0.7625 -57,-1.07517 -85.75,-1.4375 -12.5637,-0.15834 -29.17724,-0.28568 -41.81782,-0.39243"
       style="fill:none;stroke:#006411;stroke-width:1.25;stroke-linecap:round;stroke-linejoin:round;stroke-miterlimit:10;stroke-dasharray:none;stroke-opacity:1"
       id="path3122"
       inkscape:connector-curvature="0"
       sodipodi:nodetypes="cccccsc" />
    <path
       d="m 30.036598,531.76276 0,0 0,0 0,0 c 0,-0.0125 0,-0.025 -0.0125,-0.05 l -0.075,-0.075 c -0.025,-0.0375 -0.1,-0.125 -0.2125,-0.2625 -0.1,-0.1375 -0.3125,-0.425 -0.6375,-0.8375 -0.325,-0.425 -0.9875,-1.3 -1.9875,-2.5875 -1.1,-1.4 -2.9375,-3.9125 -6.05,-7.675 -3.7,-4.475 -7.8375,-10.475 -16.8249996,-19.9375 -9.2375,-9.7375 -21.1750004,-24.55 -38.6500004,-38.525 -17.4875,-13.975 -44.15,-30.225 -66.224998,-45.3375"
       style="fill:none;stroke:#006411;stroke-width:1.25;stroke-linecap:round;stroke-linejoin:round;stroke-miterlimit:10;stroke-dasharray:none;stroke-opacity:1"
       id="path3124"
       inkscape:connector-curvature="0"
       sodipodi:nodetypes="ccccccccccccc" />
    <path
       d="m -55.000902,301.33776 0,0 0,0 0,0 c -0.0125,0 -0.05,-0.025 -0.05,0 -0.0125,0.0375 0.025,0.1625 0,0.2375 -0.0125,0.05 -0.075,0.1125 -0.1375,0.2375 -0.05,0.125 -0.2,0.4875 -0.4,0.9625 -0.2,0.4875 -0.775,1.925 -1.5375,3.8375 -0.7875,1.9625 -3.0125,7.5625 -6,15.1125 -3,7.575 -11.475,29.0375 -22.975,58.05 -11.5,29 -44.037498,111.0625 -88.074998,222.125 -14.15941,35.70628 -27.63202,73.768 -47.42543,123.68263"
       style="fill:none;stroke:#dd0806;stroke-width:1.25;stroke-linecap:round;stroke-linejoin:round;stroke-miterlimit:10;stroke-dasharray:none;stroke-opacity:1"
       id="path3100"
       inkscape:connector-curvature="0"
       sodipodi:nodetypes="ccccccccccccc" />
    <path
       d="m -540.85361,725.03422 645.98961,0 0,-527.21793 -645.98961,0 z"
       style="fill:none;stroke:#000000;stroke-width:1.08206749;stroke-linecap:butt;stroke-linejoin:round;stroke-miterlimit:10;stroke-dasharray:none;stroke-opacity:1"
       id="path3018"
       inkscape:connector-curvature="0"
       sodipodi:nodetypes="ccccc" />
    <path
       d="m -540.76965,724.95026 0,-527.05001"
       style="fill:none;stroke:#898989;stroke-width:0.625;stroke-linecap:butt;stroke-linejoin:round;stroke-miterlimit:10;stroke-dasharray:none;stroke-opacity:1"
       id="path3020"
       inkscape:connector-curvature="0"
       sodipodi:nodetypes="cc" />
    <path
       d="m -540.76965,724.95026 628.968748,0"
       style="fill:none;stroke:#898989;stroke-width:0.625;stroke-linecap:butt;stroke-linejoin:round;stroke-miterlimit:10;stroke-dasharray:none;stroke-opacity:1"
       id="path3022"
       inkscape:connector-curvature="0"
       sodipodi:nodetypes="cc" />
    <path
       d="m -540.76965,724.95026 0,3.975 m 210.24375,-3.975 0,3.975 m 210.3,-3.975 0,3.975 m 210.149998,-3.975 0,3.975"
       style="fill:none;stroke:#898989;stroke-width:0.625;stroke-linecap:butt;stroke-linejoin:round;stroke-miterlimit:10;stroke-dasharray:none;stroke-opacity:1"
       id="path3024"
       inkscape:connector-curvature="0"
       sodipodi:nodetypes="cccccccc" />
    <path
       d="m -540.76965,558.70026 8.7025,0"
       style="fill:none;stroke:#000000;stroke-width:1.25;stroke-linecap:butt;stroke-linejoin:round;stroke-miterlimit:10;stroke-dasharray:none;stroke-opacity:1"
       id="path3034"
       inkscape:connector-curvature="0"
       sodipodi:nodetypes="cc" />
    <path
       d="m -540.76965,392.48776 8.7025,0"
       style="fill:none;stroke:#000000;stroke-width:1.25;stroke-linecap:butt;stroke-linejoin:round;stroke-miterlimit:10;stroke-dasharray:none;stroke-opacity:1"
       id="path3044"
       inkscape:connector-curvature="0"
       sodipodi:nodetypes="cc" />
    <path
       d="m -540.76965,295.10025 8.7025,0"
       style="fill:none;stroke:#000000;stroke-width:1.25;stroke-linecap:butt;stroke-linejoin:round;stroke-miterlimit:10;stroke-dasharray:none;stroke-opacity:1"
       id="path3054"
       inkscape:connector-curvature="0"
       sodipodi:nodetypes="cc" />
    <path
       d="m -540.76965,258.16275 8.7025,0"
       style="fill:none;stroke:#000000;stroke-width:1.25;stroke-linecap:butt;stroke-linejoin:round;stroke-miterlimit:10;stroke-dasharray:none;stroke-opacity:1"
       id="path3064"
       inkscape:connector-curvature="0"
       sodipodi:nodetypes="cc" />
    <path
       d="m -435.6259,246.65025 0,0 0,0 0,0 0,0.2375 c 0,0.0125 -0.025,-0.0125 -0.025,0 -0.025,0.025 -0.0625,0.1125 -0.125,0.2375 -0.05,0.1125 -0.2125,0.475 -0.4,0.9625 -0.2125,0.5375 -0.75,2.05 -1.55,4.075 -0.7875,1.9875 -3.0125,7.5625 -6.0125,15.1125 -3,7.5375 -11.525,28.9 -22.9875,57.81251 -10.36406,26.12421 -35.7844,93.39671 -73.34291,188.14028"
       style="fill:none;stroke:#dd0806;stroke-width:1.25;stroke-linecap:round;stroke-linejoin:round;stroke-miterlimit:10;stroke-dasharray:none;stroke-opacity:1"
       id="path3080"
       inkscape:connector-curvature="0"
       sodipodi:nodetypes="ccccsccccccc" />
    <path
       d="m -234.5759,255.03775 0,0 0,0 0,0 -0.0375,0 c 0,0 -0.025,-0.0125 -0.025,0 -0.0125,0.025 -0.05,0.125 -0.1,0.25 -0.05,0.1125 -0.225,0.4625 -0.4125,0.95 -0.2125,0.5375 -0.7625,2.05 -1.5625,4.0875 -0.775,1.975 -3.0125,7.55 -6.0125,15.1125 -3,7.575 -11.4625,29.02501 -22.975,58.05001 -11.4875,28.9625 -44.0375,110.9875 -88.05,222 -17.82536,44.95938 -40.90425,103.16992 -67.25541,169.63437"
       style="fill:none;stroke:#dd0806;stroke-width:1.25;stroke-linecap:round;stroke-linejoin:round;stroke-miterlimit:10;stroke-dasharray:none;stroke-opacity:1"
       id="path3090"
       inkscape:connector-curvature="0"
       sodipodi:nodetypes="ccccccccccscc" />
    <path
       d="m -146.3259,531.63776 c -23.4875,-9.15 -45.8625,-20.3 -70.4625,-27.4375 -24.6125,-7.1375 -50.875,-11.5875 -77.2,-15.375 -26.325,-3.7875 -53.3625,-5.6 -80.7625,-7.3375 -27.4,-1.75 -55.4375,-2.3625 -83.675,-3.125 -28.2375,-0.7625 -52.99875,-1.075 -81.7575,-1.4375"
       style="fill:none;stroke:#006411;stroke-width:1.25;stroke-linecap:round;stroke-linejoin:round;stroke-miterlimit:10;stroke-dasharray:none;stroke-opacity:1"
       id="path3110"
       inkscape:connector-curvature="0"
       sodipodi:nodetypes="ccscsc" />
    <path
       id="path4260"
       style="fill:#ffffff;fill-opacity:1;stroke:#000000;stroke-width:1.25;stroke-linecap:round;stroke-linejoin:round;stroke-miterlimit:10;stroke-dasharray:none;stroke-opacity:1"
       d="m -321.00241,475.69622 c -1.275,-4.55 -2.5375,-9.875 -3.85,-13.6625 -1.3125,-3.8 -2.7875,-7.0375 -4.025,-9.125 -1.225,-2.05 -2.5,-3.35 -3.4125,-3.35 -0.8375,0 -1.75,1.4 -2.1375,3.35 -0.425,2.1625 -0.575,5.725 -0.425,9.6 0.1625,3.875 0.6625,8.875 1.375,13.675 0.7,4.7875 1.7625,10.3125 2.875,15.0875 1.125,4.775 2.5375,9.7375 3.8375,13.55 1.3125,3.8125 2.7875,7.2125 4.025,9.3125 1.2125,2.0375 2.5375,3.2875 3.45,3.2625 0.8625,-0.0375 1.7625,-1.475 2.15,-3.4875 0.425,-2.1625 0.55,-5.6375 0.4,-9.5 -0.1625,-3.85 -0.6375,-8.8625 -1.35,-13.6375 -0.7125,-4.7875 -1.9375,-10.05 -2.9125,-15.075"
       inkscape:connector-curvature="0"
       sodipodi:nodetypes="cccsccccccccccc" />
    <path
       d="m -15.600902,646.90026 0,0 0,0 0,0 c -0.0125,-0.0125 -0.0125,-0.025 -0.0375,-0.05 0,-0.0125 -0.025,-0.0375 -0.05,-0.075 -0.0375,-0.0375 -0.1,-0.125 -0.2,-0.2625 -0.1125,-0.1375 -0.325,-0.425 -0.65,-0.8375 -0.3375,-0.4375 -1,-1.3 -2.0125,-2.5875 -1.1,-1.4 -2.925,-3.9125 -6.0375,-7.675 -3.7,-4.475 -7.85,-10.475 -16.825,-19.9375 -9.25,-9.7375 -21.1875,-24.525 -38.675,-38.5 -17.4875,-13.975 -44.162498,-30.225 -66.237498,-45.3375"
       style="fill:none;stroke:#006411;stroke-width:1.25;stroke-linecap:round;stroke-linejoin:round;stroke-miterlimit:10;stroke-dasharray:none;stroke-opacity:1"
       id="path3112"
       inkscape:connector-curvature="0"
       sodipodi:nodetypes="cccccccccccsc" />
    <path
       d="m -472.6759,251.92525 c 5.0875,-0.9625 11.7125,-1.6 15.275,-2.875 3.575,-1.2875 4.5875,-3.125 6.125,-4.8 1.55,-1.675 2.05,-3.9625 3.175,-5.275 1.1125,-1.325 2.3,-2.525 3.5375,-2.6375 1.225,-0.125 2.675,0.8375 3.825,1.9125 1.1625,1.0875 2.3375,3.275 3.125,4.5625 0.7875,1.275 1.275,2.475 1.6125,3.1125 0.1875,0.3625 0.3375,0.65 0.375,0.725 l 0,0 0,0 0,0 0,0"
       style="fill:none;stroke:#dd0806;stroke-width:1.25;stroke-linecap:round;stroke-linejoin:round;stroke-miterlimit:10;stroke-dasharray:none;stroke-opacity:1"
       id="path3126"
       inkscape:connector-curvature="0"
       sodipodi:nodetypes="ccccccccccccc" />
    <path
       d="m -539.9134,254.56275 c 19.17,-0.2 14.005,-0.275 29.2125,-0.7125 15.2,-0.45 25.35,-1.2875 38.025,-1.925"
       style="fill:none;stroke:#dd0806;stroke-width:1.25;stroke-linecap:round;stroke-linejoin:round;stroke-miterlimit:10;stroke-dasharray:none;stroke-opacity:1"
       id="path3136"
       inkscape:connector-curvature="0"
       sodipodi:nodetypes="ccc" />
    <path
       d="m -415.6634,255.52525 c 15.6,0 31.8875,-0.0375 46.8,0 14.9,0.0375 29.5125,0.1625 42.6125,0.2375 13.1125,0.075 25.65,0.2375 36.0375,0.2375 10.3875,0 19.475,0 26.3,-0.2375 6.8125,-0.2375 11.2625,-0.475 14.65,-1.2 3.1625,-0.675 4.3625,-2.1875 5.6625,-3.1125 1.4,-1 1.825,-2.4375 2.7125,-2.8875 0.8875,-0.4375 1.8,-0.275 2.6,0.25 0.8,0.5125 1.625,1.9875 2.2,2.875 0.5625,0.875 0.9375,1.875 1.1875,2.4 0.175,0.35 0.25,0.6125 0.2875,0.7125 0.0375,0.1125 0.025,0.1875 0.0375,0.2375"
       style="fill:none;stroke:#dd0806;stroke-width:1.25;stroke-linecap:round;stroke-linejoin:round;stroke-miterlimit:10;stroke-dasharray:none;stroke-opacity:1"
       id="path3138"
       inkscape:connector-curvature="0"
       sodipodi:nodetypes="csssccccccccc" />
    <path
       d="m -539.89465,253.87356 c 22.89375,0 35.79375,1.36419 58.15625,1.41419 22.375,0.0375 44.05,0.15 66.075,0.2375"
       style="fill:none;stroke:#dd0806;stroke-width:1.25;stroke-linecap:round;stroke-linejoin:round;stroke-miterlimit:10;stroke-dasharray:none;stroke-opacity:1"
       id="path3148"
       inkscape:connector-curvature="0"
       sodipodi:nodetypes="ccc" />
    <path
       d="m -409.0384,255.76275 c 17.2625,0.1625 34.625,0.275 51.7875,0.475 17.175,0.2 34.3375,0.4 51.2375,0.725 16.9,0.325 33.75,0.6375 50.175,1.2 16.4375,0.5625 32.8,1.1625 48.425,2.1625 15.625,1 31.075,2.2 45.35,3.8375 14.2625,1.6375 28.1625,3.55 40.25,5.9875 12.1,2.45 23.362498,5.4875 32.312498,8.6375 8.9625,3.1625 16.2,7.275 21.4,10.3125 5.2125,3.0375 7.7625,6.0875 9.825,7.925 1.5,1.33751 2.175,2.61251 2.55,3.11251 0.35,0.45 0.5125,0.825 0.5875,0.9625 0.0625,0.1125 0.075,0.2 0.0875,0.2375"
       style="fill:none;stroke:#dd0806;stroke-width:1.25;stroke-linecap:round;stroke-linejoin:round;stroke-miterlimit:10;stroke-dasharray:none;stroke-opacity:1"
       id="path3150"
       inkscape:connector-curvature="0"
       sodipodi:nodetypes="csscscccccccc" />
    <path
       d="m -540.45215,255.28775 c 23.29875,0.0375 38.58875,0.15 61.82625,0.2375 23.2375,0.075 46.3875,0.1625 69.5875,0.2375"
       style="fill:none;stroke:#dd0806;stroke-width:1.25;stroke-linecap:round;stroke-linejoin:round;stroke-miterlimit:10;stroke-dasharray:none;stroke-opacity:1"
       id="path3160"
       inkscape:connector-curvature="0"
       sodipodi:nodetypes="ccc" />
    <path
       d="m 75.699098,416.71276 0,0 0,0 0,0 -0.0125,0 c 0,0 -0.025,-0.0125 -0.025,0 -0.025,0.025 -0.0625,0.125 -0.1125,0.25 -0.05,0.1125 -0.2125,0.4625 -0.4125,0.95 -0.2,0.5375 -0.75,2.05 -1.55,4.0875 -0.7875,1.975 -3.0125,7.55 -6.0125,15.1125 -3,7.55 -11.475,28.975 -22.975,57.95 -11.4875,28.975 -48.0499996,119.0375 -92.075,230.0875"
       style="fill:none;stroke:#dd0806;stroke-width:1.25;stroke-linecap:round;stroke-linejoin:round;stroke-miterlimit:10;stroke-dasharray:none;stroke-opacity:1"
       id="path3170"
       inkscape:connector-curvature="0"
       sodipodi:nodetypes="cccccccccccc" />
    <path
       d="m -408.3134,255.76275 c 17.4625,0.1625 34.95,0.275 52.3875,0.475 17.45,0.2 34.8875,0.3625 52.2625,0.725 17.375,0.3625 34.7375,0.8 52,1.4375 17.2625,0.6375 34.5,1.275 51.5625,2.4 17.0625,1.125 34.0875,2.325 50.8,4.3125 16.7,2 33.3625,4.325 49.462498,7.6875 16.1125,3.35 32.1125,6.9875 47.175,12.4625 15.0625,5.4875 29.8625,11.9625 43.2000004,20.40001 13.3375,8.425 26.1374996,19.1 36.8249996,30.2125 10.6875,11.125 20.1875,25.3125 27.3,36.4625 7.1125,11.1625 11.975,23.35 15.375,30.4625 2.8625,5.975 3.6375,8.8125 5.0375,12.2375"
       style="fill:none;stroke:#000000;stroke-width:2.5;stroke-linecap:round;stroke-linejoin:round;stroke-miterlimit:10;stroke-dasharray:none;stroke-opacity:1"
       id="path3172"
       inkscape:connector-curvature="0"
       sodipodi:nodetypes="csssscccccccc" />
    <path
       d="m -540.2834,255.28775 c 23.34625,0.0375 38.695,0.15 62.02,0.2375 23.3375,0.075 46.6375,0.1625 69.95,0.2375"
       style="fill:none;stroke:#000000;stroke-width:2.5;stroke-linecap:round;stroke-linejoin:round;stroke-miterlimit:10;stroke-dasharray:none;stroke-opacity:1"
       id="path3182"
       inkscape:connector-curvature="0"
       sodipodi:nodetypes="ccc" />
    <path
       d="m -55.000902,301.33776 c -23.5,-9.11251 -45.887498,-20.22501 -70.499998,-27.35001 -24.6,-7.1125 -50.8375,-11.55 -77.15,-15.35 -26.325,-3.8 -53.3625,-5.675 -80.775,-7.4375 -27.4125,-1.75 -55.475,-2.35 -83.7125,-3.1125 -28.2375,-0.7625 -56.9625,-1.075 -85.725,-1.4375 -28.75,-0.3625 -57.8,-0.5625 -86.8175,-0.725"
       style="fill:none;stroke:#000000;stroke-width:2.5;stroke-linecap:round;stroke-linejoin:round;stroke-miterlimit:10;stroke-dasharray:none;stroke-opacity:1"
       id="path3192"
       inkscape:connector-curvature="0"
       sodipodi:nodetypes="ccccssc" />
    <path
       d="m 75.699098,416.71276 0,0 0,0 c 0,0 -0.0125,0.0125 -0.0125,0 0,-0.0375 0,-0.2 -0.025,-0.2375 0,-0.025 -0.0375,0.025 -0.0625,0 -0.025,-0.025 -0.1125,-0.1125 -0.2,-0.2375 -0.1125,-0.1625 -0.2875,-0.5 -0.65,-0.9625 -0.3125,-0.4 -1.0125,-1.175 -1.9875,-2.4 -1.1,-1.375 -2.9375,-3.9125 -6.05,-7.675 -3.7,-4.45 -7.85,-10.45 -16.8125,-19.9 -9.25,-9.7625 -21.1875,-24.6375 -38.675,-38.625 -17.4749996,-13.9875 -44.15,-30.225 -66.225,-45.3375"
       style="fill:none;stroke:#000000;stroke-width:2.5;stroke-linecap:round;stroke-linejoin:round;stroke-miterlimit:10;stroke-dasharray:none;stroke-opacity:1"
       id="path3194"
       inkscape:connector-curvature="0"
       sodipodi:nodetypes="cccscsccccccc" />
    <text
       style="font-size:15px"
       id="text3204"
       x="-565.77588"
       y="563.02527">
      <tspan
         style="font-variant:normal;font-weight:normal;font-size:20px;font-family:Calibri;-inkscape-font-specification:Calibri;writing-mode:lr-tb;fill:#000000;fill-opacity:1;fill-rule:nonzero;stroke:none"
         x="-565.77588"
         y="563.02527"
         id="tspan3206">2</tspan>
    </text>
    <text
       style="font-size:15px"
       id="text3216"
       x="-565.77588"
       y="396.78778">
      <tspan
         style="font-variant:normal;font-weight:normal;font-size:20px;font-family:Calibri;-inkscape-font-specification:Calibri;writing-mode:lr-tb;fill:#000000;fill-opacity:1;fill-rule:nonzero;stroke:none"
         x="-565.77588"
         y="396.78778"
         id="tspan3218">4</tspan>
    </text>
    <text
       style="font-size:15px"
       id="text3228"
       x="-565.77588"
       y="299.37524">
      <tspan
         style="font-variant:normal;font-weight:normal;font-size:20px;font-family:Calibri;-inkscape-font-specification:Calibri;writing-mode:lr-tb;fill:#000000;fill-opacity:1;fill-rule:nonzero;stroke:none"
         x="-565.77588"
         y="299.37524"
         id="tspan3230">6</tspan>
    </text>
    <text
       style="font-size:15px"
       id="text3240"
       x="-565.77588"
       y="262.42523">
      <tspan
         style="font-variant:normal;font-weight:normal;font-size:20px;font-family:Calibri;-inkscape-font-specification:Calibri;writing-mode:lr-tb;fill:#000000;fill-opacity:1;fill-rule:nonzero;stroke:none"
         x="-565.77588"
         y="262.42523"
         id="tspan3242">7</tspan>
    </text>
    <text
       transform="matrix(0.37972322,-0.92510014,0.92510014,0.37972322,0,0)"
       id="text3252"
       sodipodi:linespacing="125%"
       style="font-size:15px;line-height:125%"
       x="-691.70081"
       y="226.38589">
      <tspan
         sodipodi:role="line"
         id="tspan3468"
         x="-691.70081"
         y="226.38589"
         style="font-size:20px">0cm/ka</tspan>
    </text>
    <text
       transform="matrix(0.37008481,-0.92899797,0.92899797,0.37008481,0,0)"
       id="text3264"
       sodipodi:linespacing="125%"
       style="font-size:15px;line-height:125%"
       x="-690.44476"
       y="53.015549">
      <tspan
         sodipodi:role="line"
         id="tspan3466"
         x="-690.44476"
         y="53.015549"
         style="font-size:20px">0.1cm/ka</tspan>
    </text>
    <text
       transform="matrix(0.36655318,-0.9303971,0.9303971,0.36655318,0,0)"
       id="text3276"
       sodipodi:linespacing="125%"
       style="font-size:15px;line-height:125%"
       x="-715.13251"
       y="-132.36818">
      <tspan
         sodipodi:role="line"
         id="tspan3464"
         x="-715.13251"
         y="-132.36818"
         style="font-size:20px">1cm/ka</tspan>
    </text>
    <text
       transform="matrix(0.37784998,-0.92586683,0.92586683,0.37784998,0,0)"
       id="text3288"
       sodipodi:linespacing="125%"
       style="font-size:14.99999905px;line-height:125%"
       x="-617.94958"
       y="-284.63202">
      <tspan
         sodipodi:role="line"
         id="tspan3462"
         x="-617.94958"
         y="-284.63202"
         style="font-size:20px">10cm/ka</tspan>
    </text>
    <text
       transform="matrix(0.80069094,0.59907764,-0.59907764,0.80069094,0,0)"
       id="text3300"
       sodipodi:linespacing="125%"
       style="font-size:15px;line-height:125%"
       x="181.3828"
       y="383.63574">
      <tspan
         sodipodi:role="line"
         id="tspan3470"
         x="181.3828"
         y="383.63574"
         style="font-size:20px">1Ma burial</tspan>
    </text>
    <text
       transform="matrix(0.78333064,0.62160527,-0.62160527,0.78333064,0,0)"
       id="text3312"
       sodipodi:linespacing="125%"
       style="font-size:15px;line-height:125%"
       x="231.17207"
       y="496.67422">
      <tspan
         sodipodi:role="line"
         id="tspan3472"
         x="231.17207"
         y="496.67422"
         style="font-size:20px">2Ma burial</tspan>
    </text>
    <text
       id="text3324"
       sodipodi:linespacing="125%"
       style="font-size:15px;line-height:125%"
       x="-9.4334917"
       y="301.51566">
      <tspan
         sodipodi:role="line"
         id="tspan3484"
         x="-9.4334917"
         y="301.51566"
         style="font-size:20px">1Ma</tspan>
    </text>
    <text
       id="text3336"
       sodipodi:linespacing="125%"
       style="font-size:15px;line-height:125%"
       x="38.065105"
       y="343.13919">
      <tspan
         sodipodi:role="line"
         id="tspan3486"
         x="38.065105"
         y="343.13919"
         style="font-size:20px">2Ma</tspan>
    </text>
    <text
       id="text3384"
       sodipodi:linespacing="125%"
       style="font-size:15px;line-height:125%"
       x="-544.57593"
       y="752.88025">
      <tspan
         sodipodi:role="line"
         id="tspan3474"
         x="-544.57593"
         y="752.88025"
         style="font-size:20px">10<tspan
   style="font-size:10.40008545px;baseline-shift:super"
   id="tspan3202">${^4}$</tspan>
</tspan>
    </text>
    <text
       id="text3396"
       sodipodi:linespacing="125%"
       style="font-size:15px;line-height:125%"
       x="-343.4884"
       y="752.88025">
      <tspan
         sodipodi:role="line"
         id="tspan3476"
         x="-343.4884"
         y="752.88025"
         style="font-size:20px">10<tspan
   style="font-size:10.40008545px;baseline-shift:super"
   id="tspan3204">$^{5}$</tspan>
</tspan>
    </text>
    <text
       id="text3408"
       sodipodi:linespacing="125%"
       style="font-size:15px;line-height:125%"
       x="-132.40089"
       y="752.88025">
      <tspan
         sodipodi:role="line"
         id="tspan3478"
         x="-132.40089"
         y="752.88025"
         style="font-size:20px">10<tspan
   style="font-size:10.40008545px;baseline-shift:super"
   id="tspan3207">$^{6}$</tspan>
</tspan>
    </text>
    <text
       id="text3420"
       sodipodi:linespacing="125%"
       style="font-size:15px;line-height:125%"
       x="56.724224"
       y="752.88025">
      <tspan
         sodipodi:role="line"
         id="tspan3480"
         x="56.724224"
         y="752.88025"
         style="font-size:20px">10<tspan
   style="font-size:10.40008545px;baseline-shift:super"
   id="tspan3209">$^{7}$</tspan>
</tspan>
    </text>
    <text
       transform="matrix(-4.4e-8,-1,1,-4.4e-8,0,0)"
       id="text3444"
       sodipodi:linespacing="125%"
       x="-708.28027"
       y="-506.94501"
       style="font-size:15px;line-height:125%">
      <tspan
         sodipodi:role="line"
         id="tspan3460"
         x="-708.28027"
         y="-506.94501"
         style="font-size:20px">$^{26}$Al /$^{10}$Be</tspan>
    </text>
    <text
       id="text3456"
       sodipodi:linespacing="125%"
       style="font-size:15px;line-height:125%"
       x="-27.906147"
       y="716.15045">
      <tspan
         sodipodi:role="line"
         id="tspan3482"
         x="-27.906147"
         y="716.15045"
         style="font-size:20px"><tspan
   style="font-size:10.40008545px;baseline-shift:super"
   id="tspan3211">$^{10}$</tspan>
Be[at/g]</tspan>
    </text>
    <path
       id="path4256"
       style="fill:#ffffff;fill-opacity:1;stroke:#000000;stroke-width:1.25;stroke-linecap:round;stroke-linejoin:round;stroke-miterlimit:10;stroke-dasharray:none;stroke-opacity:1"
       d="m 33.787028,328.56679 c -1.275,-4.475 -2.5375,-9.6375 -3.85,-13.425 -1.3125,-3.8 -2.775,-7.2375 -4.0125,-9.3625 -1.2125,-2.0625 -2.5125,-3.4 -3.425,-3.35 -0.875,0.0375 -1.725,1.5375 -2.125,3.5875 -0.4375,2.1625 -0.6125,5.525 -0.4625,9.3625 0.1625,3.8375 0.6875,8.875 1.4125,13.675 0.7125,4.7875 1.75,10.3125 2.875,15.1125 1.125,4.7875 2.55,9.875 3.8625,13.6625 1.325,3.8 2.7875,7.0375 4.025,9.125 1.225,2.05 2.5,3.35 3.425,3.35 0.8375,0 1.75,-1.4 2.1375,-3.35 0.425,-2.1625 0.575,-5.725 0.4125,-9.6 -0.1625,-3.875 -0.6625,-8.875 -1.375,-13.675 -0.7125,-4.8 -1.925,-10.075 -2.9,-15.1125"
       inkscape:connector-curvature="0"
       sodipodi:nodetypes="ccccccccccscssc" />
    <text
       id="text3372"
       sodipodi:linespacing="125%"
       x="23.416668"
       y="341.96997"
       style="font-size:15px;line-height:125%">
      <tspan
         sodipodi:role="line"
         id="tspan5892"
         style="font-size:20px"
         x="23.416668"
         y="341.96997">a</tspan>
    </text>
    <text
       id="text3360"
       sodipodi:linespacing="125%"
       x="-332.00879"
       y="490.00497"
       style="font-size:15px;line-height:125%">
      <tspan
         sodipodi:role="line"
         id="tspan5896"
         style="font-size:20px"
         x="-332.00879"
         y="490.00497">c</tspan>
    </text>
    <path
       id="path4258"
       style="fill:#ffffff;fill-opacity:1;stroke:#000000;stroke-width:1.25;stroke-linecap:round;stroke-linejoin:round;stroke-miterlimit:10;stroke-dasharray:none;stroke-opacity:1"
       d="m -51.109252,293.66481 c -1.2875,-4.475 -2.5375,-9.6375 -3.85,-13.4375 -1.3,-3.7875 -2.775,-7.2375 -4.0125,-9.35 -1.2,-2.0625 -2.5,-3.4 -3.4,-3.3625 -0.8625,0.0375 -1.75,1.5375 -2.15,3.6 -0.425,2.2 -0.575,5.7625 -0.4125,9.6 0.1625,3.8375 0.6625,8.675 1.375,13.425 0.7125,4.76251 1.7875,10.32501 2.9,15.11251 1.125,4.8 2.4875,9.8375 3.8,13.675 1.3,3.8375 2.8125,7.275 4.0625,9.3625 1.1875,1.975 2.525,3.15 3.4125,3.1125 0.8375,-0.0375 1.775,-1.4 2.1625,-3.3625 0.425,-2.15 0.55,-5.7125 0.4,-9.5875 -0.1625,-3.875 -0.625,-8.875 -1.3375,-13.675 -0.7125,-4.8 -1.975,-10.075 -2.95,-15.11251"
       inkscape:connector-curvature="0"
       sodipodi:nodetypes="cccccscccccccsc" />
    <text
       id="text3348"
       sodipodi:linespacing="125%"
       x="-62.518696"
       y="307.66956"
       style="font-size:15px;line-height:125%">
      <tspan
         sodipodi:role="line"
         id="tspan5894"
         style="font-size:20px"
         x="-62.518696"
         y="307.66956">b</tspan>
    </text>
  </g>
</svg>
