<?xml version="1.0" encoding="UTF-8" standalone="no"?>
<!-- Created with Inkscape (http://www.inkscape.org/) -->

<svg
   xmlns:dc="http://purl.org/dc/elements/1.1/"
   xmlns:cc="http://creativecommons.org/ns#"
   xmlns:rdf="http://www.w3.org/1999/02/22-rdf-syntax-ns#"
   xmlns:svg="http://www.w3.org/2000/svg"
   xmlns="http://www.w3.org/2000/svg"
   xmlns:sodipodi="http://sodipodi.sourceforge.net/DTD/sodipodi-0.dtd"
   xmlns:inkscape="http://www.inkscape.org/namespaces/inkscape"
   id="svg2"
   version="1.1"
   inkscape:version="0.91 r13725"
   xml:space="preserve"
   width="388.20654"
   height="211.77773"
   viewBox="0 0 388.20654 211.77772"
   sodipodi:docname="AMS.svg"><metadata
     id="metadata8"><rdf:RDF><cc:Work
         rdf:about=""><dc:format>image/svg+xml</dc:format><dc:type
           rdf:resource="http://purl.org/dc/dcmitype/StillImage" /><dc:title /></cc:Work></rdf:RDF></metadata><defs
     id="defs6" /><sodipodi:namedview
     pagecolor="#ffffff"
     bordercolor="#666666"
     borderopacity="1"
     objecttolerance="10"
     gridtolerance="10"
     guidetolerance="10"
     inkscape:pageopacity="0"
     inkscape:pageshadow="2"
     inkscape:window-width="1920"
     inkscape:window-height="1056"
     id="namedview4"
     showgrid="false"
     inkscape:zoom="3.1861166"
     inkscape:cx="192.21032"
     inkscape:cy="93.785235"
     inkscape:window-x="0"
     inkscape:window-y="24"
     inkscape:window-maximized="1"
     inkscape:current-layer="g10"
     fit-margin-top="0"
     fit-margin-left="0"
     fit-margin-right="0"
     fit-margin-bottom="0" /><g
     id="g10"
     inkscape:groupmode="layer"
     inkscape:label="AMS"
     transform="matrix(1.25,0,0,-1.25,-6.9966255,211.76576)"><path
       inkscape:connector-curvature="0"
       id="path14"
       style="fill:#acc2e3;fill-opacity:1;fill-rule:nonzero;stroke:none"
       d="m 24.883,143.832 29.769,0 0,-11.676 -18.093,-17.98 -11.559,0 -0.117,29.656" /><path
       inkscape:connector-curvature="0"
       id="path16"
       style="fill:none;stroke:#231f20;stroke-width:0.5;stroke-linecap:butt;stroke-linejoin:miter;stroke-miterlimit:4;stroke-dasharray:none;stroke-opacity:1"
       d="m 24.883,143.832 29.769,0 0,-11.676 -18.093,-17.98 -11.559,0 -0.117,29.656 z" /><path
       inkscape:connector-curvature="0"
       id="path18"
       style="fill:#acc2e3;fill-opacity:1;fill-rule:nonzero;stroke:none"
       d="m 161.137,68.293 -23.938,0 c -5.719,0 -6.187,2.801 -6.187,5.254 l 0,40.863 c 0,4.434 -2.801,5.953 -4.903,5.953 l -23.414,0 c -3.254,0 -5.89,2.641 -5.89,5.895 l 0,22.656 c 0,3.254 2.636,5.891 5.89,5.891 l 39.528,0 0.933,1.168 10.172,0 0.934,-1.168 39.519,0 c 3.262,0 5.895,-2.637 5.895,-5.891 l 0,-22.656 c 0,-3.254 -2.633,-5.895 -5.895,-5.895 l -23.406,0 c -2.102,0 -4.906,-1.519 -4.906,-5.953 l 0,-40.863 c 0,-2.219 -1.18,-5.254 -4.332,-5.254" /><path
       inkscape:connector-curvature="0"
       id="path20"
       style="fill:none;stroke:#231f20;stroke-width:0.5;stroke-linecap:butt;stroke-linejoin:miter;stroke-miterlimit:4;stroke-dasharray:none;stroke-opacity:1"
       d="m 161.137,68.293 -23.938,0 c -5.719,0 -6.187,2.801 -6.187,5.254 l 0,40.863 c 0,4.434 -2.801,5.953 -4.903,5.953 l -23.414,0 c -3.254,0 -5.89,2.641 -5.89,5.895 l 0,22.656 c 0,3.254 2.636,5.891 5.89,5.891 l 39.528,0 0.933,1.168 10.172,0 0.934,-1.168 39.519,0 c 3.262,0 5.895,-2.637 5.895,-5.891 l 0,-22.656 c 0,-3.254 -2.633,-5.895 -5.895,-5.895 l -23.406,0 c -2.102,0 -4.906,-1.519 -4.906,-5.953 l 0,-40.863 c 0,-2.219 -1.18,-5.254 -4.332,-5.254 z" /><path
       inkscape:connector-curvature="0"
       id="path22"
       style="fill:#acc2e3;fill-opacity:1;fill-rule:nonzero;stroke:none"
       d="m 276.23,110.926 -12.632,10 9.132,11.535 12.633,-10 -9.133,-11.535" /><path
       inkscape:connector-curvature="0"
       id="path24"
       style="fill:none;stroke:#231f20;stroke-width:0.5;stroke-linecap:butt;stroke-linejoin:miter;stroke-miterlimit:4;stroke-dasharray:none;stroke-opacity:1"
       d="m 276.23,110.926 -12.632,10 9.132,11.535 12.633,-10 -9.133,-11.535 z" /><path
       inkscape:connector-curvature="0"
       id="path26"
       style="fill:#acc2e3;fill-opacity:1;fill-rule:nonzero;stroke:none"
       d="m 289.281,70.629 -2.258,15.953 14.563,2.063 2.262,-15.953 -14.567,-2.063" /><path
       inkscape:connector-curvature="0"
       id="path28"
       style="fill:none;stroke:#231f20;stroke-width:0.5;stroke-linecap:butt;stroke-linejoin:miter;stroke-miterlimit:4;stroke-dasharray:none;stroke-opacity:1"
       d="m 289.281,70.629 -2.258,15.953 14.563,2.063 2.262,-15.953 -14.567,-2.063 z" /><path
       inkscape:connector-curvature="0"
       id="path30"
       style="fill:#acc2e3;fill-opacity:1;fill-rule:nonzero;stroke:none"
       d="m 58.301,23.063 1.738,1.711 8.211,-2.301 8.645,-8.789 -13.559,-13.34 -8.398,8.539 -2.415,8.496 1.786,1.754" /><path
       inkscape:connector-curvature="0"
       id="path32"
       style="fill:none;stroke:#231f20;stroke-width:0.5;stroke-linecap:butt;stroke-linejoin:miter;stroke-miterlimit:4;stroke-dasharray:none;stroke-opacity:1"
       d="m 58.301,23.063 1.738,1.711 8.211,-2.301 8.645,-8.789 -13.559,-13.34 -8.398,8.539 -2.415,8.496 1.786,1.754 M 71.117,8.004 69.109,6.027 l -5.433,5.524 2.008,1.976 5.433,-5.523 z m -4.445,6.027 -3.52,-3.457 -1.48,1.508 3.516,3.457 1.484,-1.508 z m -7.93,-4.726 8.551,9.316 c -2.75,2.289 -6.871,1.832 -8.551,0.153 -1.68,-1.68 -3.664,-5.954 0,-9.469 z m -0.461,10.535 4.582,-5.801 -5.648,4.43 1.066,1.371 z M 43.016,9.832 l -10.078,0 0,10.078 10.078,0 0,-10.078 z m -2.598,5.043 c 0,-1.437 -1.16,-2.598 -2.598,-2.598 -1.429,0 -2.593,1.161 -2.593,2.598 0,1.43 1.164,2.594 2.593,2.594 1.438,0 2.598,-1.164 2.598,-2.594 z m 2.598,-0.461 0,-0.914 -2.903,0 0,2.442 2.903,0 0,-1.528 z m 18.472,0.238 -18.781,0" /><path
       inkscape:connector-curvature="0"
       id="path34"
       style="fill:none;stroke:#231f20;stroke-width:0.5;stroke-linecap:butt;stroke-linejoin:miter;stroke-miterlimit:4;stroke-dasharray:1.1552, 1.1552;stroke-dashoffset:0;stroke-opacity:1"
       d="m 50.953,14.801 c 0,-3.625 -0.887,-6.563 -1.984,-6.563 -1.094,0 -1.985,2.938 -1.985,6.563 0,3.629 0.891,6.57 1.985,6.57 1.097,0 1.984,-2.941 1.984,-6.57 z" /><path
       inkscape:connector-curvature="0"
       id="path36"
       style="fill:none;stroke:#231f20;stroke-width:0.5;stroke-linecap:butt;stroke-linejoin:miter;stroke-miterlimit:4;stroke-dasharray:1.1552, 0.5776;stroke-dashoffset:0;stroke-opacity:1"
       d="m 50.586,32.192 c 0.027,-0.915 0.25,-2.895 0.25,-2.895 l 7.461,-8.301 M 45.02,26.625 c 0.914,-0.031 2.894,-0.25 2.894,-0.25 l 8.305,-7.461" /><path
       inkscape:connector-curvature="0"
       id="path38"
       style="fill:none;stroke:#231f20;stroke-width:0.5;stroke-linecap:butt;stroke-linejoin:miter;stroke-miterlimit:4;stroke-dasharray:none;stroke-opacity:1"
       d="m 43.777,22.438 3.055,3.359 m 4.734,5.344 3.512,3.972 m -13.82,-10.156 3.054,3.36 m 4.735,5.343 3.512,3.969 m 4.05,-0.781 c 0.86,-0.731 1.184,-1.762 0.723,-2.301 -0.461,-0.543 -1.527,-0.387 -2.391,0.348 -0.855,0.73 -1.179,1.761 -0.718,2.3 0.461,0.539 1.527,0.387 2.386,-0.347 z m 8.176,11.457 c 0.383,0.449 1.113,0.496 1.871,0.191 0.336,-0.137 0.676,-0.34 0.992,-0.609 1.032,-0.879 1.418,-2.117 0.868,-2.762 m -14.293,-7.93 4.289,4.481 1.633,0.297 2.195,2.578 c 0.23,0.414 1.039,0.187 1.328,-0.059 m -6.258,-10.015 4.293,4.48 0.035,1.656 2.196,2.579 c 0.375,0.292 0.023,1.054 -0.266,1.3 m 7.098,6.754 -4.11,-2.75 m 4.11,2.75 -2.204,-4.656 M 57.457,19.254 c 0,0 -8.641,9.223 -17.633,17.863 -8.988,8.641 -9.57,20.2 -9.57,20.2 l 0,57.441 c 0,12.379 10.039,23.234 24.398,23.234 l 169.879,0 c 2.571,0 8.41,-1.398 14.012,-2.8 5.605,-1.399 30.242,-8.172 30.242,-8.172 0,0 9.692,-0.934 9.692,-21.016 M 49.117,38.703 C 49.078,32.578 42.855,27.895 38.848,27.027 l -0.192,0.165 c 0.352,4.089 4.203,10.859 10.278,11.675 l 0.183,-0.164 z m -22.133,16.86 c 0,-5.836 4.668,-14.36 8.52,-17.977 m -2.449,18.793 c 0.23,-4.203 3.734,-11.789 6.656,-14.824 m -16.465,26.035 4.672,0 m 9.105,0 -4.668,0 m -9.109,15.644 4.672,0 m 9.105,0 -4.668,0 m -7.597,21.485 3.16,0 m 7.644,0 -3.207,0 m 31.754,38.539 0,-3.164 m 0,-7.645 0,3.211 M 32.82,71.094 l 0,3.969 3.153,0 0,-3.969 m 33.031,65.219 3.969,-0.067 -0.051,-3.152 -3.973,0.066 m 32.543,7.059 0,5.695 7.121,0 0,-5.75 m -8.871,5.75 0,-5.75 m 4.086,5.75 0,-5.75 m 2.453,5.75 0,-5.75 m 4.668,5.75 0,-5.75 m 2.102,5.75 0,-5.75 m 2.101,5.75 0,-5.75 m 2.106,5.75 0,-5.75 m 2.097,5.75 0,-5.75 m 2.106,5.75 0,-5.75 m 2.101,5.75 0,-5.75 m 2.102,5.75 0,-5.75 m 2.098,5.75 0,-5.75 m 2.105,5.75 0,-5.75 m 2.102,5.75 0,-5.75 m 2.101,5.75 0,-5.75 m -32.578,-4.394 0,-5.696 7.121,0 0,5.75 m -8.871,-5.75 0,5.75 m 4.086,-5.75 0,5.75 m 2.453,-5.75 0,5.75 m 4.668,-5.75 0,5.75 m 2.102,-5.75 0,5.75 m 2.101,-5.75 0,5.75 m 2.106,-5.75 0,5.75 m 2.097,-5.75 0,5.75 m 2.106,-5.75 0,5.75 m 2.101,-5.75 0,5.75 m 2.102,-5.75 0,5.75 m 2.098,-5.75 0,5.75 m 2.105,-5.75 0,5.75 m 2.102,-5.75 0,5.75 m 2.101,-5.75 0,5.75 m 54.582,10.09 0,-5.75 m 7.121,0.055 0,5.695 m 1.75,0 0,-5.75 m -4.085,5.75 0,-5.75 m -2.454,5.75 0,-5.75 m -4.668,5.75 0,-5.75 m -2.101,5.75 0,-5.75 m -2.102,5.75 0,-5.75 m -2.105,5.75 0,-5.75 m -2.098,5.75 0,-5.75 m -2.101,5.75 0,-5.75 m -2.106,5.75 0,-5.75 m -2.098,5.75 0,-5.75 m -2.101,5.75 0,-5.75 m -2.106,5.75 0,-5.75 m -2.097,5.75 0,-5.75 m -2.106,5.75 0,-5.75 m 25.457,-10.09 0,5.75 m 7.121,-0.054 0,-5.696 m 1.75,0 0,5.75 m -4.085,-5.75 0,5.75 m -2.454,-5.75 0,5.75 m -4.668,-5.75 0,5.75 m -2.101,-5.75 0,5.75 m -2.102,-5.75 0,5.75 m -2.105,-5.75 0,5.75 m -2.098,-5.75 0,5.75 m -2.101,-5.75 0,5.75 m -2.106,-5.75 0,5.75 m -2.098,-5.75 0,5.75 m -2.101,-5.75 0,5.75 m -2.106,-5.75 0,5.75 m -2.097,-5.75 0,5.75 m -2.106,-5.75 0,5.75 M 38.773,87.117 c -4.25,-4.156 -13.816,-3.343 -16.578,0.192 l 0,0.011 c 2.805,3.504 12.375,4.207 16.578,0 l 0,-0.203 z m 46.258,44.711 c -3.179,3.254 -2.558,10.578 0.149,12.688 l 0.008,0 c 2.683,-2.145 3.218,-9.469 0,-12.688 l -0.157,0 z m 125.36,0 c -3.18,3.254 -2.559,10.578 0.144,12.688 l 0.012,0 c 2.68,-2.145 3.219,-9.469 0,-12.688 l -0.156,0 z M 43.363,73.195 l -4.937,0" /><path
       inkscape:connector-curvature="0"
       id="path40"
       style="fill:#656263;fill-opacity:1;fill-rule:nonzero;stroke:none"
       d="m 36.98,73.195 c 0.774,0.286 1.731,0.774 2.325,1.289 l -0.469,-1.289 0.469,-1.293 c -0.594,0.516 -1.551,1.008 -2.325,1.293" /><path
       inkscape:connector-curvature="0"
       id="path42"
       style="fill:none;stroke:#231f20;stroke-width:0.5;stroke-linecap:butt;stroke-linejoin:miter;stroke-miterlimit:4;stroke-dasharray:none;stroke-opacity:1"
       d="m 36.98,73.195 c 0.774,0.286 1.731,0.774 2.325,1.289 l -0.469,-1.289 0.469,-1.293 c -0.594,0.516 -1.551,1.008 -2.325,1.293 z" /><path
       inkscape:connector-curvature="0"
       id="path44"
       style="fill:#656263;fill-opacity:1;fill-rule:nonzero;stroke:none"
       d="m 45.18,73.195 -2.703,-1.105 0.64,1.105 -0.64,1.106 2.703,-1.106" /><path
       inkscape:connector-curvature="0"
       id="path46"
       style="fill:none;stroke:#231f20;stroke-width:0.5;stroke-linecap:butt;stroke-linejoin:miter;stroke-miterlimit:4;stroke-dasharray:none;stroke-opacity:1"
       d="m 45.18,73.195 -2.703,-1.105 0.64,1.105 -0.64,1.106 2.703,-1.106 z m 24.886,56.207 0,-4.937" /><path
       inkscape:connector-curvature="0"
       id="path48"
       style="fill:#656263;fill-opacity:1;fill-rule:nonzero;stroke:none"
       d="m 70.066,123.016 c -0.289,0.773 -0.773,1.734 -1.293,2.324 l 1.293,-0.465 1.289,0.465 c -0.515,-0.59 -1.003,-1.551 -1.289,-2.324" /><path
       inkscape:connector-curvature="0"
       id="path50"
       style="fill:none;stroke:#231f20;stroke-width:0.5;stroke-linecap:butt;stroke-linejoin:miter;stroke-miterlimit:4;stroke-dasharray:none;stroke-opacity:1"
       d="m 70.066,123.016 c -0.289,0.773 -0.773,1.734 -1.293,2.324 l 1.293,-0.465 1.289,0.465 c -0.515,-0.59 -1.003,-1.551 -1.289,-2.324 z" /><path
       inkscape:connector-curvature="0"
       id="path52"
       style="fill:#656263;fill-opacity:1;fill-rule:nonzero;stroke:none"
       d="m 70.066,131.219 1.106,-2.707 -1.106,0.644 -1.105,-0.644 1.105,2.707" /><path
       inkscape:connector-curvature="0"
       id="path54"
       style="fill:none;stroke:#231f20;stroke-width:0.5;stroke-linecap:butt;stroke-linejoin:miter;stroke-miterlimit:4;stroke-dasharray:none;stroke-opacity:1"
       d="m 70.066,131.219 1.106,-2.707 -1.106,0.644 -1.105,-0.644 1.105,2.707 z m 35.028,-1.399 c -0.117,-0.816 -0.586,-2.218 0.582,-2.683 1.168,-0.469 2.453,-1.403 2.453,-3.27 m 0.629,0 2.269,0 -1.101,-4.554 -3.574,0 -1.098,4.554 3.504,0 z m 6.375,-3.621 -13.074,0 0,-8.64 13.074,0 0,8.64 z m 45.297,24.051 -1.75,1.285 -20.543,0 -1.754,-1.285 m 24.265,-13.074 -1.75,-1.285 -20.761,0 -1.754,1.285 m 21.347,7.937 3.153,0 0,1.051 -0.699,0.469 -23.332,0 -0.704,-0.469 0,-1.051 3.153,0 m 15.16,-0.113 -11.891,0 m 14.028,-10.512 -18.461,0 m 16.324,7.942 -11.891,0 m 26.739,-56.278 -3.618,0 m 3.618,-5.254 -3.618,0 m -7.961,61.649 3.036,0 0,-1.402 -1.051,-0.7 -10.246,0 c 1.051,-0.816 0.789,-3.269 -1.196,-3.269 l 0.489,0 c -1.985,0 -2.246,2.453 -1.2,3.269 l -10.246,0 -1.05,0.7 0,1.402 3.035,0" /><path
       inkscape:connector-curvature="0"
       id="path56"
       style="fill:none;stroke:#231f20;stroke-width:0.5;stroke-linecap:butt;stroke-linejoin:bevel;stroke-miterlimit:4;stroke-dasharray:none;stroke-opacity:1"
       d="m 156.598,126.086 -16.664,0 16.664,-5.254 -16.664,-3.621 16.664,-4.902 -16.664,-4.086 16.664,-5.141 -16.664,-3.617 16.664,-4.789 -16.664,-3.969 16.664,-4.902 -16.664,-3.621 16.664,-4.668 -16.664,-4.086" /><path
       inkscape:connector-curvature="0"
       id="path58"
       style="fill:none;stroke:#231f20;stroke-width:0.5;stroke-linecap:butt;stroke-linejoin:miter;stroke-miterlimit:4;stroke-dasharray:none;stroke-opacity:1"
       d="m 139.934,71.442 16.664,0 m -16.664,56.042 0,-3.503 m 0,-5.25 0,-3.504 m 0,-5.254 0,-3.504 m 0,-5.375 0,-3.504 m 0,-5.02 0,-3.503 m 0,-5.02 0,-3.504 m 16.664,-1.633 0,-3.504 m 0,12.145 0,-3.504 m 0,12.258 0,-3.504 m -10.965,-16.141 0.969,-3.367" /><path
       inkscape:connector-curvature="0"
       id="path60"
       style="fill:#231f20;fill-opacity:1;fill-rule:nonzero;stroke:none"
       d="m 145.91,74.914 c -0.699,-0.461 -1.535,-1.164 -2.008,-1.812 l 0.168,1.386 -0.758,1.172 c 0.708,-0.375 1.766,-0.64 2.598,-0.746" /><path
       inkscape:connector-curvature="0"
       id="path62"
       style="fill:none;stroke:#231f20;stroke-width:0.5;stroke-linecap:butt;stroke-linejoin:miter;stroke-miterlimit:4;stroke-dasharray:none;stroke-opacity:1"
       d="m 149.691,77.52 0.797,3.414" /><path
       inkscape:connector-curvature="0"
       id="path64"
       style="fill:#231f20;fill-opacity:1;fill-rule:nonzero;stroke:none"
       d="m 150.301,79.184 c 0.836,0.058 1.91,0.265 2.637,0.601 l -0.825,-1.129 0.086,-1.394 c -0.429,0.676 -1.226,1.422 -1.898,1.922" /><path
       inkscape:connector-curvature="0"
       id="path66"
       style="fill:none;stroke:#231f20;stroke-width:0.5;stroke-linecap:butt;stroke-linejoin:miter;stroke-miterlimit:4;stroke-dasharray:none;stroke-opacity:1"
       d="m 145.633,85.215 0.969,-3.367" /><path
       inkscape:connector-curvature="0"
       id="path68"
       style="fill:#231f20;fill-opacity:1;fill-rule:nonzero;stroke:none"
       d="m 145.91,83.469 c -0.699,-0.461 -1.535,-1.164 -2.008,-1.813 l 0.168,1.387 -0.758,1.172 c 0.708,-0.375 1.766,-0.641 2.598,-0.746" /><path
       inkscape:connector-curvature="0"
       id="path70"
       style="fill:none;stroke:#231f20;stroke-width:0.5;stroke-linecap:butt;stroke-linejoin:miter;stroke-miterlimit:4;stroke-dasharray:none;stroke-opacity:1"
       d="m 149.691,86.078 0.797,3.41" /><path
       inkscape:connector-curvature="0"
       id="path72"
       style="fill:#231f20;fill-opacity:1;fill-rule:nonzero;stroke:none"
       d="m 150.301,87.738 c 0.836,0.063 1.91,0.266 2.637,0.602 l -0.825,-1.129 0.086,-1.394 c -0.429,0.675 -1.226,1.421 -1.898,1.921" /><path
       inkscape:connector-curvature="0"
       id="path74"
       style="fill:none;stroke:#231f20;stroke-width:0.5;stroke-linecap:butt;stroke-linejoin:miter;stroke-miterlimit:4;stroke-dasharray:none;stroke-opacity:1"
       d="m 145.633,93.875 0.969,-3.363" /><path
       inkscape:connector-curvature="0"
       id="path76"
       style="fill:#231f20;fill-opacity:1;fill-rule:nonzero;stroke:none"
       d="m 145.91,92.129 c -0.699,-0.461 -1.535,-1.164 -2.008,-1.812 l 0.168,1.386 -0.758,1.176 c 0.708,-0.379 1.766,-0.641 2.598,-0.75" /><path
       inkscape:connector-curvature="0"
       id="path78"
       style="fill:none;stroke:#231f20;stroke-width:0.5;stroke-linecap:butt;stroke-linejoin:miter;stroke-miterlimit:4;stroke-dasharray:none;stroke-opacity:1"
       d="m 149.691,94.738 0.797,3.414" /><path
       inkscape:connector-curvature="0"
       id="path80"
       style="fill:#231f20;fill-opacity:1;fill-rule:nonzero;stroke:none"
       d="m 150.301,96.402 c 0.836,0.059 1.91,0.266 2.637,0.602 l -0.825,-1.129 0.086,-1.394 c -0.429,0.671 -1.226,1.421 -1.898,1.921" /><path
       inkscape:connector-curvature="0"
       id="path82"
       style="fill:none;stroke:#231f20;stroke-width:0.5;stroke-linecap:butt;stroke-linejoin:miter;stroke-miterlimit:4;stroke-dasharray:none;stroke-opacity:1"
       d="m 145.633,102.434 0.969,-3.367" /><path
       inkscape:connector-curvature="0"
       id="path84"
       style="fill:#231f20;fill-opacity:1;fill-rule:nonzero;stroke:none"
       d="m 145.91,100.684 c -0.699,-0.457 -1.535,-1.164 -2.008,-1.813 l 0.168,1.391 -0.758,1.172 c 0.708,-0.375 1.766,-0.641 2.598,-0.75" /><path
       inkscape:connector-curvature="0"
       id="path86"
       style="fill:none;stroke:#231f20;stroke-width:0.5;stroke-linecap:butt;stroke-linejoin:miter;stroke-miterlimit:4;stroke-dasharray:none;stroke-opacity:1"
       d="m 149.691,103.297 0.797,3.41" /><path
       inkscape:connector-curvature="0"
       id="path88"
       style="fill:#231f20;fill-opacity:1;fill-rule:nonzero;stroke:none"
       d="m 150.301,104.957 c 0.836,0.059 1.91,0.266 2.637,0.602 l -0.825,-1.129 0.086,-1.395 c -0.429,0.676 -1.226,1.422 -1.898,1.922" /><path
       inkscape:connector-curvature="0"
       id="path90"
       style="fill:none;stroke:#231f20;stroke-width:0.5;stroke-linecap:butt;stroke-linejoin:miter;stroke-miterlimit:4;stroke-dasharray:none;stroke-opacity:1"
       d="m 145.633,111.629 0.969,-3.367" /><path
       inkscape:connector-curvature="0"
       id="path92"
       style="fill:#231f20;fill-opacity:1;fill-rule:nonzero;stroke:none"
       d="m 145.91,109.883 c -0.699,-0.461 -1.535,-1.164 -2.008,-1.813 l 0.168,1.387 -0.758,1.172 c 0.708,-0.375 1.766,-0.641 2.598,-0.746" /><path
       inkscape:connector-curvature="0"
       id="path94"
       style="fill:none;stroke:#231f20;stroke-width:0.5;stroke-linecap:butt;stroke-linejoin:miter;stroke-miterlimit:4;stroke-dasharray:none;stroke-opacity:1"
       d="m 149.691,112.492 0.797,3.41" /><path
       inkscape:connector-curvature="0"
       id="path96"
       style="fill:#231f20;fill-opacity:1;fill-rule:nonzero;stroke:none"
       d="m 150.301,114.152 c 0.836,0.063 1.91,0.266 2.637,0.602 l -0.825,-1.129 0.086,-1.394 c -0.429,0.675 -1.226,1.425 -1.898,1.921" /><path
       inkscape:connector-curvature="0"
       id="path98"
       style="fill:none;stroke:#231f20;stroke-width:0.5;stroke-linecap:butt;stroke-linejoin:miter;stroke-miterlimit:4;stroke-dasharray:none;stroke-opacity:1"
       d="m 145.633,120.293 0.969,-3.367" /><path
       inkscape:connector-curvature="0"
       id="path100"
       style="fill:#231f20;fill-opacity:1;fill-rule:nonzero;stroke:none"
       d="m 145.91,118.547 c -0.699,-0.461 -1.535,-1.168 -2.008,-1.816 l 0.168,1.39 -0.758,1.172 c 0.708,-0.375 1.766,-0.641 2.598,-0.746" /><path
       inkscape:connector-curvature="0"
       id="path102"
       style="fill:none;stroke:#231f20;stroke-width:0.5;stroke-linecap:butt;stroke-linejoin:miter;stroke-miterlimit:4;stroke-dasharray:none;stroke-opacity:1"
       d="m 149.691,121.156 0.797,3.411" /><path
       inkscape:connector-curvature="0"
       id="path104"
       style="fill:#231f20;fill-opacity:1;fill-rule:nonzero;stroke:none"
       d="m 150.301,122.813 c 0.836,0.062 1.91,0.269 2.637,0.605 l -0.825,-1.129 0.086,-1.398 c -0.429,0.679 -1.226,1.426 -1.898,1.922" /><path
       inkscape:connector-curvature="0"
       id="path106"
       style="fill:none;stroke:#231f20;stroke-width:0.5;stroke-linecap:butt;stroke-linejoin:miter;stroke-miterlimit:4;stroke-dasharray:none;stroke-opacity:1"
       d="m 156.598,104.828 0,-3.504 m 0,12.61 0,-3.5 m 0,12.258 0,-3.504 m 0,10.043 0,-3.504 m -16.664,-50.438 0,-4.898 m 16.664,2.804 0,-2.804 m -21.614,55.226 0,-16.929 2.215,-37.36 m 24.871,54.289 0,-16.929 -2.218,-37.36 m 28.722,6.301 c 0,-5.414 -4.39,-9.805 -9.808,-9.805 -5.414,0 -9.805,4.391 -9.805,9.805 0,5.418 4.391,9.809 9.805,9.809 5.418,0 9.808,-4.391 9.808,-9.809 z m 80.328,49.391 c 8.871,-2.336 11.91,-7.825 15.762,-16.348 l 10.039,-22.531 c 1.285,-2.688 2.453,-9.578 0.82,-17.75 -1.636,-8.172 -7.125,-33.625 -7.125,-33.625 m -4.668,65.734 -4.671,14.945 c -1.168,3.153 -4.786,7.239 -6.539,8.172 m -16.254,2.364 3.734,-0.957 -0.816,-3.168 -3.731,0.957 m 29.024,-18.524 1.101,-3.691 -3.133,-0.938 -1.101,3.692 m -1.301,4.308 0.109,-3.851 -3.269,-0.09 -0.106,3.851 m -56.445,30.641 5.137,-0.234 c 0,0 8.289,-1.282 12.961,-2.45 m -18.098,-1.515 5.137,-0.235 c 0,0 8.289,-1.285 12.961,-2.453 m 15.879,-0.699 1.168,3.617 m -2.34,-7.472 -1.164,-3.969 m 32.105,-26.035 3.387,1.984 m 2.801,1.281 3.621,2.106 m -1.41,-56.344 c 3.793,-1.84 5.89,-6.684 4.793,-11.699 -1.247,-5.735 -6.196,-9.524 -11.047,-8.465 -4.848,1.059 -7.766,6.563 -6.52,12.297 1.098,5.016 5.024,8.543 9.235,8.641 l 0.105,0.195 0.844,3.879 3.539,-0.77 -0.848,-3.879 -0.101,-0.199 z m -5.543,-3.23 -2.043,-9.352 m 7.746,8.109 -2.043,-9.355 m -0.504,-3.953 -6.16,1.344 0.472,2.168 6.16,-1.344 -0.472,-2.168 z" /><path
       inkscape:connector-curvature="0"
       id="path108"
       style="fill:none;stroke:#231f20;stroke-width:0.30000001;stroke-linecap:butt;stroke-linejoin:miter;stroke-miterlimit:4;stroke-dasharray:none;stroke-opacity:1"
       d="m 104.531,148.785 -23.785,11.301 m 98.703,-48.164 -24.379,20.215 m -36.863,-39.242 25.566,10.703 m -44,-76.114 -35.675,-8.917 M 100.961,4.297 63.5,6.672" /><text
       id="text110"
       style="font-variant:normal;font-weight:normal;font-size:6.80000019px;font-family:'DejaVu Sans';-inkscape-font-specification:DejaVuSans;writing-mode:lr-tb;fill:#000000;fill-opacity:1;fill-rule:nonzero;stroke:none"
       transform="scale(1,-1)"
       x="36.739922"
       y="-164.2462"><tspan
         id="tspan112"
         sodipodi:role="line"
         y="-164.2462"
         x="36.739922">Pre-selection electrode</tspan></text>
<path
       inkscape:connector-curvature="0"
       id="path114"
       style="fill:none;stroke:#231f20;stroke-width:0.30000001;stroke-linecap:butt;stroke-linejoin:miter;stroke-miterlimit:4;stroke-dasharray:none;stroke-opacity:1"
       d="m 149.129,139.867 20.809,20.219" /><text
       id="text116"
       style="font-variant:normal;font-weight:normal;font-size:6.80000019px;font-family:'DejaVu Sans';-inkscape-font-specification:DejaVuSans;writing-mode:lr-tb;fill:#000000;fill-opacity:1;fill-rule:nonzero;stroke:none"
       transform="scale(1,-1)"
       x="160.75075"
       y="-164.2462"><tspan
         id="tspan170"
         sodipodi:role="line"
         y="-164.2462"
         x="160.75075">Stripping canal</tspan></text>
<text
       id="text4785"
       style="font-variant:normal;font-weight:normal;font-size:6.80000019px;font-family:'DejaVu Sans';-inkscape-font-specification:DejaVuSans;writing-mode:lr-tb;fill:#000000;fill-opacity:1;fill-rule:nonzero;stroke:none"
       transform="scale(1,-1)"
       x="177.57375"
       y="-103.48257"><tspan
         id="tspan4839"
         sodipodi:role="line"
         y="-103.48257"
         x="177.57375">Stripping gas</tspan></text>
<text
       id="text5533"
       style="font-variant:normal;font-weight:normal;font-size:6.80000019px;font-family:'DejaVu Sans';-inkscape-font-specification:DejaVuSans;writing-mode:lr-tb;fill:#000000;fill-opacity:1;fill-rule:nonzero;stroke:none"
       transform="scale(1,-1)"
       x="74.124908"
       y="-61.550655"><tspan
         id="tspan5553"
         sodipodi:role="line"
         y="-61.550655"
         x="74.124908" /><tspan
         id="tspan5587"
         sodipodi:role="line"
         y="-53.050655"
         x="74.124908">Microscope</tspan></text>
<text
       id="text6047"
       style="font-variant:normal;font-weight:normal;font-size:6.80000019px;font-family:'DejaVu Sans';-inkscape-font-specification:DejaVuSans;writing-mode:lr-tb;fill:#000000;fill-opacity:1;fill-rule:nonzero;stroke:none"
       transform="scale(1,-1)"
       x="103.75346"
       y="-25.895966"><tspan
         id="tspan6101"
         sodipodi:role="line"
         y="-25.895966"
         x="103.75346">Extraction electrode</tspan></text>
<text
       y="-1.8318032"
       x="104.00454"
       transform="scale(1,-1)"
       style="font-variant:normal;font-weight:normal;font-size:6.80000019px;font-family:'DejaVu Sans';-inkscape-font-specification:DejaVuSans;writing-mode:lr-tb;fill:#000000;fill-opacity:1;fill-rule:nonzero;stroke:none"
       id="text6599"><tspan
         x="104.00454"
         y="-1.8318032"
         sodipodi:role="line"
         id="tspan6601">Sample holder</tspan></text>
<text
       id="text6888"
       style="font-variant:normal;font-weight:normal;font-size:6.80000019px;font-family:'DejaVu Sans';-inkscape-font-specification:DejaVuSans;writing-mode:lr-tb;fill:#000000;fill-opacity:1;fill-rule:nonzero;stroke:none"
       transform="scale(1,-1)"
       x="190.12819"
       y="-86.659592"><tspan
         id="tspan6942"
         sodipodi:role="line"
         y="-86.659592"
         x="190.12819">pump</tspan></text>
<text
       xml:space="preserve"
       style="font-style:normal;font-weight:normal;font-size:6.80000019px;line-height:125%;font-family:sans-serif;letter-spacing:0px;word-spacing:0px;fill:#000000;fill-opacity:1;stroke:none;stroke-width:1px;stroke-linecap:butt;stroke-linejoin:miter;stroke-opacity:1"
       x="45.447178"
       y="-1.5065321"
       id="text7476"
       sodipodi:linespacing="125%"
       transform="scale(1,-1)"><tspan
         sodipodi:role="line"
         id="tspan7478"
         x="45.447178"
         y="-1.5065321">L1</tspan></text>
<text
       xml:space="preserve"
       style="font-style:normal;font-weight:normal;font-size:6.80000019px;line-height:125%;font-family:sans-serif;letter-spacing:0px;word-spacing:0px;fill:#000000;fill-opacity:1;stroke:none;stroke-width:1px;stroke-linecap:butt;stroke-linejoin:miter;stroke-opacity:1"
       x="48.711334"
       y="-116.50546"
       id="text4272"
       sodipodi:linespacing="125%"
       transform="scale(1,-1)"><tspan
         sodipodi:role="line"
         id="tspan4274"
         x="48.711334"
         y="-116.50546">M1</tspan></text>
<text
       transform="scale(1,-1)"
       sodipodi:linespacing="125%"
       id="text4276"
       y="-113.30546"
       x="66.311317"
       style="font-style:normal;font-weight:normal;font-size:6.80000019px;line-height:125%;font-family:sans-serif;letter-spacing:0px;word-spacing:0px;fill:#000000;fill-opacity:1;stroke:none;stroke-width:1px;stroke-linecap:butt;stroke-linejoin:miter;stroke-opacity:1"
       xml:space="preserve"><tspan
         y="-113.30546"
         x="66.311317"
         id="tspan4278"
         sodipodi:role="line">F2</tspan></text>
<text
       xml:space="preserve"
       style="font-style:normal;font-weight:normal;font-size:6.80000019px;line-height:125%;font-family:sans-serif;letter-spacing:0px;word-spacing:0px;fill:#000000;fill-opacity:1;stroke:none;stroke-width:1px;stroke-linecap:butt;stroke-linejoin:miter;stroke-opacity:1"
       x="81.189751"
       y="-123.4425"
       id="text4280"
       sodipodi:linespacing="125%"
       transform="scale(1,-1)"
       inkscape:transform-center-x="-0.31386171"
       inkscape:transform-center-y="-14.437639"><tspan
         sodipodi:role="line"
         id="tspan4282"
         x="81.189751"
         y="-123.4425">L4</tspan></text>
<text
       inkscape:transform-center-y="-14.437639"
       inkscape:transform-center-x="-0.31386171"
       transform="scale(1,-1)"
       sodipodi:linespacing="125%"
       id="text4284"
       y="-123.44251"
       x="206.23225"
       style="font-style:normal;font-weight:normal;font-size:6.80000019px;line-height:125%;font-family:sans-serif;letter-spacing:0px;word-spacing:0px;fill:#000000;fill-opacity:1;stroke:none;stroke-width:1px;stroke-linecap:butt;stroke-linejoin:miter;stroke-opacity:1"
       xml:space="preserve"><tspan
         y="-123.44251"
         x="206.23225"
         id="tspan4286"
         sodipodi:role="line">L5</tspan></text>
<text
       xml:space="preserve"
       style="font-style:normal;font-weight:normal;font-size:6.80000019px;line-height:125%;font-family:sans-serif;letter-spacing:0px;word-spacing:0px;fill:#000000;fill-opacity:1;stroke:none;stroke-width:1px;stroke-linecap:butt;stroke-linejoin:miter;stroke-opacity:1"
       x="250.76854"
       y="-115.40766"
       id="text4288"
       sodipodi:linespacing="125%"
       transform="scale(1,-1)"
       inkscape:transform-center-x="-0.31386171"
       inkscape:transform-center-y="-14.437639"><tspan
         sodipodi:role="line"
         id="tspan4290"
         x="250.76854"
         y="-115.40766">F3</tspan></text>
<text
       inkscape:transform-center-y="-14.437639"
       inkscape:transform-center-x="-0.31386171"
       transform="scale(1,-1)"
       sodipodi:linespacing="125%"
       id="text4292"
       y="-125.32846"
       x="285.41888"
       style="font-style:normal;font-weight:normal;font-size:6.80000019px;line-height:125%;font-family:sans-serif;letter-spacing:0px;word-spacing:0px;fill:#000000;fill-opacity:1;stroke:none;stroke-width:1px;stroke-linecap:butt;stroke-linejoin:miter;stroke-opacity:1"
       xml:space="preserve"><tspan
         y="-125.32846"
         x="285.41888"
         id="tspan4294"
         sodipodi:role="line">M5</tspan></text>
<text
       xml:space="preserve"
       style="font-style:normal;font-weight:normal;font-size:6.80000019px;line-height:125%;font-family:sans-serif;letter-spacing:0px;word-spacing:0px;fill:#000000;fill-opacity:1;stroke:none;stroke-width:1px;stroke-linecap:butt;stroke-linejoin:miter;stroke-opacity:1"
       x="272.20462"
       y="-93.317352"
       id="text4296"
       sodipodi:linespacing="125%"
       transform="scale(1,-1)"
       inkscape:transform-center-x="-0.31386171"
       inkscape:transform-center-y="-14.437639"><tspan
         sodipodi:role="line"
         id="tspan4298"
         x="272.20462"
         y="-93.317352">F5</tspan></text>
<text
       inkscape:transform-center-y="-14.437639"
       inkscape:transform-center-x="-0.31386171"
       transform="scale(1,-1)"
       sodipodi:linespacing="125%"
       id="text4300"
       y="-103.20329"
       x="262.97845"
       style="font-style:normal;font-weight:normal;font-size:6.80000019px;line-height:125%;font-family:sans-serif;letter-spacing:0px;word-spacing:0px;fill:#000000;fill-opacity:1;stroke:none;stroke-width:1px;stroke-linecap:butt;stroke-linejoin:miter;stroke-opacity:1"
       xml:space="preserve"><tspan
         y="-103.20329"
         x="262.97845"
         id="tspan4302"
         sodipodi:role="line">F4</tspan></text>
<text
       xml:space="preserve"
       style="font-style:normal;font-weight:normal;font-size:6.80000019px;line-height:125%;font-family:sans-serif;letter-spacing:0px;word-spacing:0px;fill:#000000;fill-opacity:1;stroke:none;stroke-width:1px;stroke-linecap:butt;stroke-linejoin:miter;stroke-opacity:1"
       x="306.51038"
       y="-74.106224"
       id="text4304"
       sodipodi:linespacing="125%"
       transform="scale(1,-1)"
       inkscape:transform-center-x="-0.31386171"
       inkscape:transform-center-y="-14.437639"><tspan
         sodipodi:role="line"
         id="tspan4306"
         x="306.51038"
         y="-74.106224">M3</tspan></text>
<text
       inkscape:transform-center-y="-14.437639"
       inkscape:transform-center-x="-0.31386171"
       transform="scale(1,-1)"
       sodipodi:linespacing="125%"
       id="text4308"
       y="-102.90622"
       x="37.710396"
       style="font-style:normal;font-weight:normal;font-size:6.80000019px;line-height:125%;font-family:sans-serif;letter-spacing:0px;word-spacing:0px;fill:#000000;fill-opacity:1;stroke:none;stroke-width:1px;stroke-linecap:butt;stroke-linejoin:miter;stroke-opacity:1"
       xml:space="preserve"><tspan
         y="-102.90622"
         x="37.710396"
         id="tspan4310"
         sodipodi:role="line">L3</tspan></text>
<text
       xml:space="preserve"
       style="font-style:normal;font-weight:normal;font-size:6.80000019px;line-height:125%;font-family:sans-serif;letter-spacing:0px;word-spacing:0px;fill:#000000;fill-opacity:1;stroke:none;stroke-width:1px;stroke-linecap:butt;stroke-linejoin:miter;stroke-opacity:1"
       x="48.367798"
       y="-70.532372"
       id="text4312"
       sodipodi:linespacing="125%"
       transform="scale(1,-1)"
       inkscape:transform-center-x="-0.31386171"
       inkscape:transform-center-y="-14.437639"><tspan
         sodipodi:role="line"
         id="tspan4314"
         x="48.367798"
         y="-70.532372">F1</tspan></text>
<text
       inkscape:transform-center-y="-14.437639"
       inkscape:transform-center-x="-0.31386171"
       transform="scale(1,-1)"
       sodipodi:linespacing="125%"
       id="text4316"
       y="-48.132362"
       x="37.167809"
       style="font-style:normal;font-weight:normal;font-size:6.80000019px;line-height:125%;font-family:sans-serif;letter-spacing:0px;word-spacing:0px;fill:#000000;fill-opacity:1;stroke:none;stroke-width:1px;stroke-linecap:butt;stroke-linejoin:miter;stroke-opacity:1"
       xml:space="preserve"><tspan
         y="-48.132362"
         x="37.167809"
         id="tspan4318"
         sodipodi:role="line">E1</tspan></text>
<text
       xml:space="preserve"
       style="font-style:normal;font-weight:normal;font-size:6.80000019px;line-height:125%;font-family:sans-serif;letter-spacing:0px;word-spacing:0px;fill:#000000;fill-opacity:1;stroke:none;stroke-width:1px;stroke-linecap:butt;stroke-linejoin:miter;stroke-opacity:1"
       x="21.167809"
       y="-32.132362"
       id="text4320"
       sodipodi:linespacing="125%"
       transform="scale(1,-1)"
       inkscape:transform-center-x="-0.31386171"
       inkscape:transform-center-y="-14.437639"><tspan
         sodipodi:role="line"
         id="tspan4322"
         x="21.167809"
         y="-32.132362">L2</tspan></text>
<flowRoot
       xml:space="preserve"
       id="flowRoot4240"
       style="font-style:normal;font-weight:normal;font-size:8.5px;line-height:125%;font-family:sans-serif;text-align:center;letter-spacing:0px;word-spacing:0px;text-anchor:middle;fill:#000000;fill-opacity:1;stroke:none;stroke-width:1px;stroke-linecap:butt;stroke-linejoin:miter;stroke-opacity:1"
       transform="matrix(0.8,0,0,-0.8,34.507437,149.07437)"><flowRegion
         id="flowRegion4242"><rect
           id="rect4244"
           width="35.466373"
           height="26.36438"
           x="-47.079258"
           y="154.96875"
           style="text-align:center;text-anchor:middle" /></flowRegion><flowPara
         id="flowPara4246">Cesium</flowPara><flowPara
         id="flowPara4248">gun</flowPara></flowRoot><flowRoot
       xml:space="preserve"
       id="flowRoot4250"
       style="font-style:normal;font-weight:normal;font-size:8.5px;line-height:125%;font-family:sans-serif;letter-spacing:0px;word-spacing:0px;fill:#000000;fill-opacity:1;stroke:none;stroke-width:1px;stroke-linecap:butt;stroke-linejoin:miter;stroke-opacity:1"
       transform="matrix(0.8,0,0,-0.8,24.7973,169.41261)"><flowRegion
         id="flowRegion4252"><rect
           id="rect4254"
           width="41.429745"
           height="28.247553"
           x="71.246605"
           y="86.860764" /></flowRegion><flowPara
         id="flowPara4256"
         style="text-align:center;text-anchor:middle">Voltage</flowPara><flowPara
         id="flowPara4258"
         style="text-align:center;text-anchor:middle">multiplier</flowPara></flowRoot><flowRoot
       xml:space="preserve"
       id="flowRoot4260"
       style="font-style:normal;font-weight:normal;font-size:8.5px;line-height:125%;font-family:sans-serif;letter-spacing:0px;word-spacing:0px;fill:#000000;fill-opacity:1;stroke:none;stroke-width:1px;stroke-linecap:butt;stroke-linejoin:miter;stroke-opacity:1"
       transform="matrix(0.8,0,0,-0.8,43.9973,167.81261)"><flowRegion
         id="flowRegion4262"><rect
           id="rect4264"
           width="47.706978"
           height="43.626778"
           x="236.96559"
           y="145.86676" /></flowRegion><flowPara
         id="flowPara4266"
         style="text-align:center;text-anchor:middle">Gas</flowPara><flowPara
         id="flowPara4268"
         style="text-align:center;text-anchor:middle">ionisation</flowPara><flowPara
         id="flowPara4270"
         style="text-align:center;text-anchor:middle">detector</flowPara></flowRoot></g></svg>