<?xml version="1.0" encoding="UTF-8" standalone="no"?>
<!-- Created with Inkscape (http://www.inkscape.org/) -->

<svg
   xmlns:dc="http://purl.org/dc/elements/1.1/"
   xmlns:cc="http://creativecommons.org/ns#"
   xmlns:rdf="http://www.w3.org/1999/02/22-rdf-syntax-ns#"
   xmlns:svg="http://www.w3.org/2000/svg"
   xmlns="http://www.w3.org/2000/svg"
   xmlns:sodipodi="http://sodipodi.sourceforge.net/DTD/sodipodi-0.dtd"
   xmlns:inkscape="http://www.inkscape.org/namespaces/inkscape"
   id="svg2"
   version="1.1"
   inkscape:version="0.91 r13725"
   width="630.80005"
   height="204.4102"
   xml:space="preserve"
   sodipodi:docname="bullseye.svg"><metadata
     id="metadata8"><rdf:RDF><cc:Work
         rdf:about=""><dc:format>image/svg+xml</dc:format><dc:type
           rdf:resource="http://purl.org/dc/dcmitype/StillImage" /><dc:title></dc:title></cc:Work></rdf:RDF></metadata><defs
     id="defs6"><marker
       inkscape:stockid="Arrow1Lend"
       orient="auto"
       refY="0"
       refX="0"
       id="Arrow1Lend"
       style="overflow:visible"><path
         id="path4612"
         d="M 0,0 5,-5 -12.5,0 5,5 0,0 Z"
         style="fill-rule:evenodd;stroke:#000000;stroke-width:1pt"
         transform="matrix(-0.8,0,0,-0.8,-10,0)"
         inkscape:connector-curvature="0" /></marker><clipPath
       clipPathUnits="userSpaceOnUse"
       id="clipPath110"><path
         d="m 0,251.87 251.8,0 0,251.87 -251.8,0 0,-251.87 z"
         id="path112"
         inkscape:connector-curvature="0" /></clipPath><clipPath
       clipPathUnits="userSpaceOnUse"
       id="clipPath126"><path
         d="m 49,312.82 177.7,0 0,141.91 -177.7,0 0,-141.91 z"
         id="path128"
         inkscape:connector-curvature="0" /></clipPath><clipPath
       clipPathUnits="userSpaceOnUse"
       id="clipPath182"><path
         d="m 300.8,312.82 177.7,0 0,141.91 -177.7,0 0,-141.91 z"
         id="path184"
         inkscape:connector-curvature="0" /></clipPath><clipPath
       clipPathUnits="userSpaceOnUse"
       id="clipPath282"><path
         d="m 251.8,251.87 251.8,0 0,251.87 -251.8,0 0,-251.87 z"
         id="path284"
         inkscape:connector-curvature="0" /></clipPath><clipPath
       clipPathUnits="userSpaceOnUse"
       id="clipPath298"><path
         d="m 300.8,312.82 177.7,0 0,141.91 -177.7,0 0,-141.91 z"
         id="path300"
         inkscape:connector-curvature="0" /></clipPath><clipPath
       clipPathUnits="userSpaceOnUse"
       id="clipPath354"><path
         d="m 49,60.96 177.7,0 0,141.91 -177.7,0 0,-141.91 z"
         id="path356"
         inkscape:connector-curvature="0" /></clipPath><clipPath
       clipPathUnits="userSpaceOnUse"
       id="clipPath454"><path
         d="m 0,0 251.8,0 0,251.87 L 0,251.87 0,0 Z"
         id="path456"
         inkscape:connector-curvature="0" /></clipPath><clipPath
       clipPathUnits="userSpaceOnUse"
       id="clipPath470"><path
         d="m 49,60.96 177.7,0 0,141.91 -177.7,0 0,-141.91 z"
         id="path472"
         inkscape:connector-curvature="0" /></clipPath><clipPath
       clipPathUnits="userSpaceOnUse"
       id="clipPath526"><path
         d="m 300.8,60.96 177.7,0 0,141.91 -177.7,0 0,-141.91 z"
         id="path528"
         inkscape:connector-curvature="0" /></clipPath><clipPath
       clipPathUnits="userSpaceOnUse"
       id="clipPath626"><path
         d="m 251.8,0 251.8,0 0,251.87 -251.8,0 0,-251.87 z"
         id="path628"
         inkscape:connector-curvature="0" /></clipPath><clipPath
       clipPathUnits="userSpaceOnUse"
       id="clipPath642"><path
         d="m 300.8,60.96 177.7,0 0,141.91 -177.7,0 0,-141.91 z"
         id="path644"
         inkscape:connector-curvature="0" /></clipPath></defs><sodipodi:namedview
     pagecolor="#ffffff"
     bordercolor="#666666"
     borderopacity="1"
     objecttolerance="10"
     gridtolerance="10"
     guidetolerance="10"
     inkscape:pageopacity="0"
     inkscape:pageshadow="2"
     inkscape:window-width="1920"
     inkscape:window-height="1056"
     id="namedview4"
     showgrid="false"
     fit-margin-top="0"
     fit-margin-left="0"
     fit-margin-right="0"
     fit-margin-bottom="0"
     inkscape:zoom="1.1594433"
     inkscape:cx="390.88926"
     inkscape:cy="-78.929501"
     inkscape:window-x="0"
     inkscape:window-y="24"
     inkscape:window-maximized="1"
     inkscape:current-layer="g10" /><g
     id="g10"
     inkscape:groupmode="layer"
     inkscape:label="bullseye"
     transform="matrix(1.25,0,0,-1.25,-89.293703,277.87169)"><g
       id="g12" /><path
       d="m 99.23,132.58 c 0,15.08 12.34,27.42 27.42,27.42 15.09,0 27.43,-12.34 27.43,-27.42 0,-15.08 -12.34,-27.43 -27.43,-27.43 -15.08,0 -27.42,12.35 -27.42,27.43"
       style="fill:none;stroke:#000000;stroke-width:0.75;stroke-linecap:round;stroke-linejoin:round;stroke-miterlimit:10;stroke-dasharray:none;stroke-opacity:1"
       id="path130"
       inkscape:connector-curvature="0" /><path
       d="m 71.81,132.58 c 0,30.16 24.68,54.84 54.84,54.84 30.17,0 54.85,-24.68 54.85,-54.84 0,-30.17 -24.68,-54.85 -54.85,-54.85 -30.16,0 -54.84,24.68 -54.84,54.85"
       style="fill:none;stroke:#000000;stroke-width:0.75;stroke-linecap:round;stroke-linejoin:round;stroke-miterlimit:10;stroke-dasharray:none;stroke-opacity:1"
       id="path132"
       inkscape:connector-curvature="0" /><g
       transform="scale(1,-1)"
       style=""
       id="text134"><path
         d="m 126.6952,-135.3208 c -1.5504,0 -2.7892,1.2084 -2.7892,2.7208 0,1.5352 1.2236,2.7664 2.7436,2.7664 1.5124,0 2.7436,-1.2312 2.7436,-2.7436 0,-1.4972 -1.2312,-2.7436 -2.698,-2.7436 z"
         style="font-variant:normal;font-weight:normal;font-size:7.5999999px;font-family:ZapfDingbats;-inkscape-font-specification:ZapfDingbats;writing-mode:lr-tb;fill:none;stroke:#000000;stroke-width:0.75;stroke-linecap:round;stroke-linejoin:round;stroke-miterlimit:10;stroke-dasharray:none;stroke-opacity:1"
         id="path4362" /></g><g
       transform="scale(1,-1)"
       style=""
       id="text138"><path
         d="m 134.34427,-133.65112 c -0.84456,0 -1.51938,0.65826 -1.51938,1.48212 0,0.83628 0.66654,1.50696 1.49454,1.50696 0.82386,0 1.49454,-0.67068 1.49454,-1.49454 0,-0.81558 -0.67068,-1.49454 -1.4697,-1.49454 z"
         style="font-variant:normal;font-weight:normal;font-size:4.13999987px;font-family:ZapfDingbats;-inkscape-font-specification:ZapfDingbats;writing-mode:lr-tb;fill:#000000;fill-opacity:1;fill-rule:nonzero;stroke:#000000;stroke-width:0.75;stroke-linecap:round;stroke-linejoin:round;stroke-miterlimit:10;stroke-dasharray:none;stroke-opacity:1"
         id="path4359" /></g><g
       transform="scale(1,-1)"
       style=""
       id="text142"><path
         d="m 116.44428,-142.04111 c -0.84456,0 -1.51938,0.65826 -1.51938,1.48212 0,0.83628 0.66654,1.50696 1.49454,1.50696 0.82386,0 1.49454,-0.67068 1.49454,-1.49454 0,-0.81558 -0.67068,-1.49454 -1.4697,-1.49454 z"
         style="font-variant:normal;font-weight:normal;font-size:4.13999987px;font-family:ZapfDingbats;-inkscape-font-specification:ZapfDingbats;writing-mode:lr-tb;fill:#000000;fill-opacity:1;fill-rule:nonzero;stroke:#000000;stroke-width:0.75;stroke-linecap:round;stroke-linejoin:round;stroke-miterlimit:10;stroke-dasharray:none;stroke-opacity:1"
         id="path4356" /></g><g
       transform="scale(1,-1)"
       style=""
       id="text146"><path
         d="m 138.98429,-139.72111 c -0.84456,0 -1.51938,0.65826 -1.51938,1.48212 0,0.83628 0.66654,1.50696 1.49454,1.50696 0.82386,0 1.49454,-0.67068 1.49454,-1.49454 0,-0.81558 -0.67068,-1.49454 -1.4697,-1.49454 z"
         style="font-variant:normal;font-weight:normal;font-size:4.13999987px;font-family:ZapfDingbats;-inkscape-font-specification:ZapfDingbats;writing-mode:lr-tb;fill:#000000;fill-opacity:1;fill-rule:nonzero;stroke:#000000;stroke-width:0.75;stroke-linecap:round;stroke-linejoin:round;stroke-miterlimit:10;stroke-dasharray:none;stroke-opacity:1"
         id="path4353" /></g><g
       transform="scale(1,-1)"
       style=""
       id="text150"><path
         d="m 123.12428,-134.69111 c -0.84456,0 -1.51938,0.65826 -1.51938,1.48212 0,0.83628 0.66654,1.50696 1.49454,1.50696 0.82386,0 1.49454,-0.67068 1.49454,-1.49454 0,-0.81558 -0.67068,-1.49454 -1.4697,-1.49454 z"
         style="font-variant:normal;font-weight:normal;font-size:4.13999987px;font-family:ZapfDingbats;-inkscape-font-specification:ZapfDingbats;writing-mode:lr-tb;fill:#000000;fill-opacity:1;fill-rule:nonzero;stroke:#000000;stroke-width:0.75;stroke-linecap:round;stroke-linejoin:round;stroke-miterlimit:10;stroke-dasharray:none;stroke-opacity:1"
         id="path4350" /></g><g
       transform="scale(1,-1)"
       style=""
       id="text154"><path
         d="m 128.22428,-145.84112 c -0.84456,0 -1.51938,0.65826 -1.51938,1.48212 0,0.83628 0.66654,1.50696 1.49454,1.50696 0.82386,0 1.49454,-0.67068 1.49454,-1.49454 0,-0.81558 -0.67068,-1.49454 -1.4697,-1.49454 z"
         style="font-variant:normal;font-weight:normal;font-size:4.13999987px;font-family:ZapfDingbats;-inkscape-font-specification:ZapfDingbats;writing-mode:lr-tb;fill:#000000;fill-opacity:1;fill-rule:nonzero;stroke:#000000;stroke-width:0.75;stroke-linecap:round;stroke-linejoin:round;stroke-miterlimit:10;stroke-dasharray:none;stroke-opacity:1"
         id="path4332" /></g><g
       transform="scale(1,-1)"
       style=""
       id="text158"><path
         d="m 126.21428,-140.28113 c -0.84456,0 -1.51938,0.65826 -1.51938,1.48212 0,0.83628 0.66654,1.50696 1.49454,1.50696 0.82386,0 1.49454,-0.67068 1.49454,-1.49454 0,-0.81558 -0.67068,-1.49454 -1.4697,-1.49454 z"
         style="font-variant:normal;font-weight:normal;font-size:4.13999987px;font-family:ZapfDingbats;-inkscape-font-specification:ZapfDingbats;writing-mode:lr-tb;fill:#000000;fill-opacity:1;fill-rule:nonzero;stroke:#000000;stroke-width:0.75;stroke-linecap:round;stroke-linejoin:round;stroke-miterlimit:10;stroke-dasharray:none;stroke-opacity:1"
         id="path4347" /></g><g
       transform="scale(1,-1)"
       style=""
       id="text162"><path
         d="m 127.54428,-126.85112 c -0.84456,0 -1.51938,0.65826 -1.51938,1.48212 0,0.83628 0.66654,1.50696 1.49454,1.50696 0.82386,0 1.49454,-0.67068 1.49454,-1.49454 0,-0.81558 -0.67068,-1.49454 -1.4697,-1.49454 z"
         style="font-variant:normal;font-weight:normal;font-size:4.13999987px;font-family:ZapfDingbats;-inkscape-font-specification:ZapfDingbats;writing-mode:lr-tb;fill:#000000;fill-opacity:1;fill-rule:nonzero;stroke:#000000;stroke-width:0.75;stroke-linecap:round;stroke-linejoin:round;stroke-miterlimit:10;stroke-dasharray:none;stroke-opacity:1"
         id="path4344" /></g><g
       transform="scale(1,-1)"
       style=""
       id="text166"><path
         d="m 144.52428,-134.81112 c -0.84456,0 -1.51938,0.65826 -1.51938,1.48212 0,0.83628 0.66654,1.50696 1.49454,1.50696 0.82386,0 1.49454,-0.67068 1.49454,-1.49454 0,-0.81558 -0.67068,-1.49454 -1.4697,-1.49454 z"
         style="font-variant:normal;font-weight:normal;font-size:4.13999987px;font-family:ZapfDingbats;-inkscape-font-specification:ZapfDingbats;writing-mode:lr-tb;fill:#000000;fill-opacity:1;fill-rule:nonzero;stroke:#000000;stroke-width:0.75;stroke-linecap:round;stroke-linejoin:round;stroke-miterlimit:10;stroke-dasharray:none;stroke-opacity:1"
         id="path4341" /></g><g
       transform="scale(1,-1)"
       style=""
       id="text170"><path
         d="m 121.86428,-134.89113 c -0.84456,0 -1.51938,0.65826 -1.51938,1.48212 0,0.83628 0.66654,1.50696 1.49454,1.50696 0.82386,0 1.49454,-0.67068 1.49454,-1.49454 0,-0.81558 -0.67068,-1.49454 -1.4697,-1.49454 z"
         style="font-variant:normal;font-weight:normal;font-size:4.13999987px;font-family:ZapfDingbats;-inkscape-font-specification:ZapfDingbats;writing-mode:lr-tb;fill:#000000;fill-opacity:1;fill-rule:nonzero;stroke:#000000;stroke-width:0.75;stroke-linecap:round;stroke-linejoin:round;stroke-miterlimit:10;stroke-dasharray:none;stroke-opacity:1"
         id="path4338" /></g><g
       transform="scale(1,-1)"
       style=""
       id="text174"><path
         d="m 138.52428,-136.70112 c -0.84456,0 -1.51938,0.65826 -1.51938,1.48212 0,0.83628 0.66654,1.50696 1.49454,1.50696 0.82386,0 1.49454,-0.67068 1.49454,-1.49454 0,-0.81558 -0.67068,-1.49454 -1.4697,-1.49454 z"
         style="font-variant:normal;font-weight:normal;font-size:4.13999987px;font-family:ZapfDingbats;-inkscape-font-specification:ZapfDingbats;writing-mode:lr-tb;fill:#000000;fill-opacity:1;fill-rule:nonzero;stroke:#000000;stroke-width:0.75;stroke-linecap:round;stroke-linejoin:round;stroke-miterlimit:10;stroke-dasharray:none;stroke-opacity:1"
         id="path4335" /></g><g
       id="g178"><g
         id="g180"
         clip-path="url(#clipPath182)" /></g><path
       d="m 493.43,130.98 c 0,15.08 12.34,27.42 27.42,27.42 15.09,0 27.43,-12.34 27.43,-27.42 0,-15.08 -12.34,-27.43 -27.43,-27.43 -15.08,0 -27.42,12.35 -27.42,27.43"
       style="fill:none;stroke:#000000;stroke-width:0.75;stroke-linecap:round;stroke-linejoin:round;stroke-miterlimit:10;stroke-dasharray:none;stroke-opacity:1"
       id="path302"
       inkscape:connector-curvature="0" /><path
       d="m 466.01,130.98 c 0,30.16 24.68,54.84 54.84,54.84 30.17,0 54.85,-24.68 54.85,-54.84 0,-30.17 -24.68,-54.85 -54.85,-54.85 -30.16,0 -54.84,24.68 -54.84,54.85"
       style="fill:none;stroke:#000000;stroke-width:0.75;stroke-linecap:round;stroke-linejoin:round;stroke-miterlimit:10;stroke-dasharray:none;stroke-opacity:1"
       id="path304"
       inkscape:connector-curvature="0" /><g
       transform="scale(1,-1)"
       style=""
       id="text306"><path
         d="m 520.90518,-133.7208 c -1.5504,0 -2.7892,1.2084 -2.7892,2.7208 0,1.5352 1.2236,2.7664 2.7436,2.7664 1.5124,0 2.7436,-1.2312 2.7436,-2.7436 0,-1.4972 -1.2312,-2.7436 -2.698,-2.7436 z"
         style="font-variant:normal;font-weight:normal;font-size:7.5999999px;font-family:ZapfDingbats;-inkscape-font-specification:ZapfDingbats;writing-mode:lr-tb;fill:none;stroke:#000000;stroke-width:0.75;stroke-linecap:round;stroke-linejoin:round;stroke-miterlimit:10;stroke-dasharray:none;stroke-opacity:1"
         id="path4504" /></g><g
       transform="scale(1,-1)"
       style=""
       id="text310"><path
         d="m 546.22428,-154.21112 c -0.84456,0 -1.51938,0.65826 -1.51938,1.48212 0,0.83628 0.66654,1.50696 1.49454,1.50696 0.82386,0 1.49454,-0.67068 1.49454,-1.49454 0,-0.81558 -0.67068,-1.49454 -1.4697,-1.49454 z"
         style="font-variant:normal;font-weight:normal;font-size:4.13999987px;font-family:ZapfDingbats;-inkscape-font-specification:ZapfDingbats;writing-mode:lr-tb;fill:#000000;fill-opacity:1;fill-rule:nonzero;stroke:#000000;stroke-width:0.75;stroke-linecap:round;stroke-linejoin:round;stroke-miterlimit:10;stroke-dasharray:none;stroke-opacity:1"
         id="path4501" /></g><g
       transform="scale(1,-1)"
       style=""
       id="text314"><path
         d="m 538.01426,-156.47111 c -0.84456,0 -1.51938,0.65826 -1.51938,1.48212 0,0.83628 0.66654,1.50696 1.49454,1.50696 0.82386,0 1.49454,-0.67068 1.49454,-1.49454 0,-0.81558 -0.67068,-1.49454 -1.4697,-1.49454 z"
         style="font-variant:normal;font-weight:normal;font-size:4.13999987px;font-family:ZapfDingbats;-inkscape-font-specification:ZapfDingbats;writing-mode:lr-tb;fill:#000000;fill-opacity:1;fill-rule:nonzero;stroke:#000000;stroke-width:0.75;stroke-linecap:round;stroke-linejoin:round;stroke-miterlimit:10;stroke-dasharray:none;stroke-opacity:1"
         id="path4498" /></g><g
       transform="scale(1,-1)"
       style=""
       id="text318"><path
         d="m 553.33426,-157.04112 c -0.84456,0 -1.51938,0.65826 -1.51938,1.48212 0,0.83628 0.66654,1.50696 1.49454,1.50696 0.82386,0 1.49454,-0.67068 1.49454,-1.49454 0,-0.81558 -0.67068,-1.49454 -1.4697,-1.49454 z"
         style="font-variant:normal;font-weight:normal;font-size:4.13999987px;font-family:ZapfDingbats;-inkscape-font-specification:ZapfDingbats;writing-mode:lr-tb;fill:#000000;fill-opacity:1;fill-rule:nonzero;stroke:#000000;stroke-width:0.75;stroke-linecap:round;stroke-linejoin:round;stroke-miterlimit:10;stroke-dasharray:none;stroke-opacity:1"
         id="path4495" /></g><g
       transform="scale(1,-1)"
       style=""
       id="text322"><path
         d="m 555.33426,-155.36111 c -0.84456,0 -1.51938,0.65826 -1.51938,1.48212 0,0.83628 0.66654,1.50696 1.49454,1.50696 0.82386,0 1.49454,-0.67068 1.49454,-1.49454 0,-0.81558 -0.67068,-1.49454 -1.4697,-1.49454 z"
         style="font-variant:normal;font-weight:normal;font-size:4.13999987px;font-family:ZapfDingbats;-inkscape-font-specification:ZapfDingbats;writing-mode:lr-tb;fill:#000000;fill-opacity:1;fill-rule:nonzero;stroke:#000000;stroke-width:0.75;stroke-linecap:round;stroke-linejoin:round;stroke-miterlimit:10;stroke-dasharray:none;stroke-opacity:1"
         id="path4492" /></g><g
       transform="scale(1,-1)"
       style=""
       id="text326"><path
         d="m 559.4943,-156.81112 c -0.84456,0 -1.51938,0.65826 -1.51938,1.48212 0,0.83628 0.66654,1.50696 1.49454,1.50696 0.82386,0 1.49454,-0.67068 1.49454,-1.49454 0,-0.81558 -0.67068,-1.49454 -1.4697,-1.49454 z"
         style="font-variant:normal;font-weight:normal;font-size:4.13999987px;font-family:ZapfDingbats;-inkscape-font-specification:ZapfDingbats;writing-mode:lr-tb;fill:#000000;fill-opacity:1;fill-rule:nonzero;stroke:#000000;stroke-width:0.75;stroke-linecap:round;stroke-linejoin:round;stroke-miterlimit:10;stroke-dasharray:none;stroke-opacity:1"
         id="path4489" /></g><g
       transform="scale(1,-1)"
       style=""
       id="text330"><path
         d="m 557.92429,-158.47111 c -0.84456,0 -1.51938,0.65826 -1.51938,1.48212 0,0.83628 0.66654,1.50696 1.49454,1.50696 0.82386,0 1.49454,-0.67068 1.49454,-1.49454 0,-0.81558 -0.67068,-1.49454 -1.4697,-1.49454 z"
         style="font-variant:normal;font-weight:normal;font-size:4.13999987px;font-family:ZapfDingbats;-inkscape-font-specification:ZapfDingbats;writing-mode:lr-tb;fill:#000000;fill-opacity:1;fill-rule:nonzero;stroke:#000000;stroke-width:0.75;stroke-linecap:round;stroke-linejoin:round;stroke-miterlimit:10;stroke-dasharray:none;stroke-opacity:1"
         id="path4486" /></g><g
       transform="scale(1,-1)"
       style=""
       id="text334"><path
         d="m 548.08426,-146.57112 c -0.84456,0 -1.51938,0.65826 -1.51938,1.48212 0,0.83628 0.66654,1.50696 1.49454,1.50696 0.82386,0 1.49454,-0.67068 1.49454,-1.49454 0,-0.81558 -0.67068,-1.49454 -1.4697,-1.49454 z"
         style="font-variant:normal;font-weight:normal;font-size:4.13999987px;font-family:ZapfDingbats;-inkscape-font-specification:ZapfDingbats;writing-mode:lr-tb;fill:#000000;fill-opacity:1;fill-rule:nonzero;stroke:#000000;stroke-width:0.75;stroke-linecap:round;stroke-linejoin:round;stroke-miterlimit:10;stroke-dasharray:none;stroke-opacity:1"
         id="path4483" /></g><g
       transform="scale(1,-1)"
       style=""
       id="text338"><path
         d="m 558.60428,-148.79112 c -0.84456,0 -1.51938,0.65826 -1.51938,1.48212 0,0.83628 0.66654,1.50696 1.49454,1.50696 0.82386,0 1.49454,-0.67068 1.49454,-1.49454 0,-0.81558 -0.67068,-1.49454 -1.4697,-1.49454 z"
         style="font-variant:normal;font-weight:normal;font-size:4.13999987px;font-family:ZapfDingbats;-inkscape-font-specification:ZapfDingbats;writing-mode:lr-tb;fill:#000000;fill-opacity:1;fill-rule:nonzero;stroke:#000000;stroke-width:0.75;stroke-linecap:round;stroke-linejoin:round;stroke-miterlimit:10;stroke-dasharray:none;stroke-opacity:1"
         id="path4480" /></g><g
       transform="scale(1,-1)"
       style=""
       id="text342"><path
         d="m 551.29428,-154.00113 c -0.84456,0 -1.51938,0.65826 -1.51938,1.48212 0,0.83628 0.66654,1.50696 1.49454,1.50696 0.82386,0 1.49454,-0.67068 1.49454,-1.49454 0,-0.81558 -0.67068,-1.49454 -1.4697,-1.49454 z"
         style="font-variant:normal;font-weight:normal;font-size:4.13999987px;font-family:ZapfDingbats;-inkscape-font-specification:ZapfDingbats;writing-mode:lr-tb;fill:#000000;fill-opacity:1;fill-rule:nonzero;stroke:#000000;stroke-width:0.75;stroke-linecap:round;stroke-linejoin:round;stroke-miterlimit:10;stroke-dasharray:none;stroke-opacity:1"
         id="path4477" /></g><g
       transform="scale(1,-1)"
       style=""
       id="text346"><path
         d="m 545.27427,-154.37112 c -0.84456,0 -1.51938,0.65826 -1.51938,1.48212 0,0.83628 0.66654,1.50696 1.49454,1.50696 0.82386,0 1.49454,-0.67068 1.49454,-1.49454 0,-0.81558 -0.67068,-1.49454 -1.4697,-1.49454 z"
         style="font-variant:normal;font-weight:normal;font-size:4.13999987px;font-family:ZapfDingbats;-inkscape-font-specification:ZapfDingbats;writing-mode:lr-tb;fill:#000000;fill-opacity:1;fill-rule:nonzero;stroke:#000000;stroke-width:0.75;stroke-linecap:round;stroke-linejoin:round;stroke-miterlimit:10;stroke-dasharray:none;stroke-opacity:1"
         id="path4474" /></g><g
       id="g350"><g
         id="g352"
         clip-path="url(#clipPath354)" /></g><path
       d="m 228.83,131.91 c 0,15.08 12.34,27.42 27.42,27.42 15.09,0 27.43,-12.34 27.43,-27.42 0,-15.08 -12.34,-27.42 -27.43,-27.42 -15.08,0 -27.42,12.34 -27.42,27.42"
       style="fill:none;stroke:#000000;stroke-width:0.75;stroke-linecap:round;stroke-linejoin:round;stroke-miterlimit:10;stroke-dasharray:none;stroke-opacity:1"
       id="path474"
       inkscape:connector-curvature="0" /><path
       d="m 201.41,131.91 c 0,30.16 24.68,54.85 54.84,54.85 30.17,0 54.85,-24.69 54.85,-54.85 0,-30.17 -24.68,-54.85 -54.85,-54.85 -30.16,0 -54.84,24.68 -54.84,54.85"
       style="fill:none;stroke:#000000;stroke-width:0.75;stroke-linecap:round;stroke-linejoin:round;stroke-miterlimit:10;stroke-dasharray:none;stroke-opacity:1"
       id="path476"
       inkscape:connector-curvature="0" /><g
       transform="scale(1,-1)"
       style=""
       id="text478"><path
         d="m 256.29521,-134.6508 c -1.5504,0 -2.7892,1.2084 -2.7892,2.7208 0,1.5352 1.2236,2.7664 2.7436,2.7664 1.5124,0 2.7436,-1.2312 2.7436,-2.7436 0,-1.4972 -1.2312,-2.7436 -2.698,-2.7436 z"
         style="font-variant:normal;font-weight:normal;font-size:7.5999999px;font-family:ZapfDingbats;-inkscape-font-specification:ZapfDingbats;writing-mode:lr-tb;fill:none;stroke:#000000;stroke-width:0.75;stroke-linecap:round;stroke-linejoin:round;stroke-miterlimit:10;stroke-dasharray:none;stroke-opacity:1"
         id="path4422" /></g><g
       transform="scale(1,-1)"
       style=""
       id="text482"><path
         d="m 264.55429,-117.73112 c -0.84456,0 -1.51938,0.65826 -1.51938,1.48212 0,0.83628 0.66654,1.50696 1.49454,1.50696 0.82386,0 1.49454,-0.67068 1.49454,-1.49454 0,-0.81558 -0.67068,-1.49454 -1.4697,-1.49454 z"
         style="font-variant:normal;font-weight:normal;font-size:4.13999987px;font-family:ZapfDingbats;-inkscape-font-specification:ZapfDingbats;writing-mode:lr-tb;fill:#000000;fill-opacity:1;fill-rule:nonzero;stroke:#000000;stroke-width:0.75;stroke-linecap:round;stroke-linejoin:round;stroke-miterlimit:10;stroke-dasharray:none;stroke-opacity:1"
         id="path4419" /></g><g
       transform="scale(1,-1)"
       style=""
       id="text486"><path
         d="m 211.49428,-129.39112 c -0.84456,0 -1.51938,0.65826 -1.51938,1.48212 0,0.83628 0.66654,1.50696 1.49454,1.50696 0.82386,0 1.49454,-0.67068 1.49454,-1.49454 0,-0.81558 -0.67068,-1.49454 -1.4697,-1.49454 z"
         style="font-variant:normal;font-weight:normal;font-size:4.13999987px;font-family:ZapfDingbats;-inkscape-font-specification:ZapfDingbats;writing-mode:lr-tb;fill:#000000;fill-opacity:1;fill-rule:nonzero;stroke:#000000;stroke-width:0.75;stroke-linecap:round;stroke-linejoin:round;stroke-miterlimit:10;stroke-dasharray:none;stroke-opacity:1"
         id="path4416" /></g><g
       transform="scale(1,-1)"
       style=""
       id="text490"><path
         d="m 257.64428,-140.44111 c -0.84456,0 -1.51938,0.65826 -1.51938,1.48212 0,0.83628 0.66654,1.50696 1.49454,1.50696 0.82386,0 1.49454,-0.67068 1.49454,-1.49454 0,-0.81558 -0.67068,-1.49454 -1.4697,-1.49454 z"
         style="font-variant:normal;font-weight:normal;font-size:4.13999987px;font-family:ZapfDingbats;-inkscape-font-specification:ZapfDingbats;writing-mode:lr-tb;fill:#000000;fill-opacity:1;fill-rule:nonzero;stroke:#000000;stroke-width:0.75;stroke-linecap:round;stroke-linejoin:round;stroke-miterlimit:10;stroke-dasharray:none;stroke-opacity:1"
         id="path4413" /></g><g
       transform="scale(1,-1)"
       style=""
       id="text494"><path
         d="m 251.05428,-151.86111 c -0.84456,0 -1.51938,0.65826 -1.51938,1.48212 0,0.83628 0.66654,1.50696 1.49454,1.50696 0.82386,0 1.49454,-0.67068 1.49454,-1.49454 0,-0.81558 -0.67068,-1.49454 -1.4697,-1.49454 z"
         style="font-variant:normal;font-weight:normal;font-size:4.13999987px;font-family:ZapfDingbats;-inkscape-font-specification:ZapfDingbats;writing-mode:lr-tb;fill:#000000;fill-opacity:1;fill-rule:nonzero;stroke:#000000;stroke-width:0.75;stroke-linecap:round;stroke-linejoin:round;stroke-miterlimit:10;stroke-dasharray:none;stroke-opacity:1"
         id="path4410" /></g><g
       transform="scale(1,-1)"
       style=""
       id="text498"><path
         d="m 280.18427,-129.84112 c -0.84456,0 -1.51938,0.65826 -1.51938,1.48212 0,0.83628 0.66654,1.50696 1.49454,1.50696 0.82386,0 1.49454,-0.67068 1.49454,-1.49454 0,-0.81558 -0.67068,-1.49454 -1.4697,-1.49454 z"
         style="font-variant:normal;font-weight:normal;font-size:4.13999987px;font-family:ZapfDingbats;-inkscape-font-specification:ZapfDingbats;writing-mode:lr-tb;fill:#000000;fill-opacity:1;fill-rule:nonzero;stroke:#000000;stroke-width:0.75;stroke-linecap:round;stroke-linejoin:round;stroke-miterlimit:10;stroke-dasharray:none;stroke-opacity:1"
         id="path4407" /></g><g
       transform="scale(1,-1)"
       style=""
       id="text502"><path
         d="m 247.60428,-109.54112 c -0.84456,0 -1.51938,0.65826 -1.51938,1.48212 0,0.83628 0.66654,1.50696 1.49454,1.50696 0.82386,0 1.49454,-0.67068 1.49454,-1.49454 0,-0.81558 -0.67068,-1.49454 -1.4697,-1.49454 z"
         style="font-variant:normal;font-weight:normal;font-size:4.13999987px;font-family:ZapfDingbats;-inkscape-font-specification:ZapfDingbats;writing-mode:lr-tb;fill:#000000;fill-opacity:1;fill-rule:nonzero;stroke:#000000;stroke-width:0.75;stroke-linecap:round;stroke-linejoin:round;stroke-miterlimit:10;stroke-dasharray:none;stroke-opacity:1"
         id="path4404" /></g><g
       transform="scale(1,-1)"
       style=""
       id="text506"><path
         d="m 256.20427,-135.43112 c -0.84456,0 -1.51938,0.65826 -1.51938,1.48212 0,0.83628 0.66654,1.50696 1.49454,1.50696 0.82386,0 1.49454,-0.67068 1.49454,-1.49454 0,-0.81558 -0.67068,-1.49454 -1.4697,-1.49454 z"
         style="font-variant:normal;font-weight:normal;font-size:4.13999987px;font-family:ZapfDingbats;-inkscape-font-specification:ZapfDingbats;writing-mode:lr-tb;fill:#000000;fill-opacity:1;fill-rule:nonzero;stroke:#000000;stroke-width:0.75;stroke-linecap:round;stroke-linejoin:round;stroke-miterlimit:10;stroke-dasharray:none;stroke-opacity:1"
         id="path4401" /></g><g
       transform="scale(1,-1)"
       style=""
       id="text510"><path
         d="m 294.0546,-163.76124 c -0.84456,0 -1.51938,0.65826 -1.51938,1.48212 0,0.83628 0.66654,1.50696 1.49454,1.50696 0.82386,0 1.49454,-0.67068 1.49454,-1.49454 0,-0.81558 -0.67068,-1.49454 -1.4697,-1.49454 z"
         style="font-variant:normal;font-weight:normal;font-size:4.13999987px;font-family:ZapfDingbats;-inkscape-font-specification:ZapfDingbats;writing-mode:lr-tb;fill:#000000;fill-opacity:1;fill-rule:nonzero;stroke:#000000;stroke-width:0.75;stroke-linecap:round;stroke-linejoin:round;stroke-miterlimit:10;stroke-dasharray:none;stroke-opacity:1"
         id="path4398" /></g><g
       transform="scale(1,-1)"
       style=""
       id="text514"><path
         d="m 280.09433,-94.74114 c -0.84456,0 -1.51938,0.65826 -1.51938,1.48212 0,0.83628 0.66654,1.50696 1.49454,1.50696 0.82386,0 1.49454,-0.67068 1.49454,-1.49454 0,-0.81558 -0.67068,-1.49454 -1.4697,-1.49454 z"
         style="font-variant:normal;font-weight:normal;font-size:4.13999987px;font-family:ZapfDingbats;-inkscape-font-specification:ZapfDingbats;writing-mode:lr-tb;fill:#000000;fill-opacity:1;fill-rule:nonzero;stroke:#000000;stroke-width:0.75;stroke-linecap:round;stroke-linejoin:round;stroke-miterlimit:10;stroke-dasharray:none;stroke-opacity:1"
         id="path4395" /></g><g
       transform="scale(1,-1)"
       style=""
       id="text518"><path
         d="m 237.44419,-165.48125 c -0.84456,0 -1.51938,0.65826 -1.51938,1.48212 0,0.83628 0.66654,1.50696 1.49454,1.50696 0.82386,0 1.49454,-0.67068 1.49454,-1.49454 0,-0.81558 -0.67068,-1.49454 -1.4697,-1.49454 z"
         style="font-variant:normal;font-weight:normal;font-size:4.13999987px;font-family:ZapfDingbats;-inkscape-font-specification:ZapfDingbats;writing-mode:lr-tb;fill:#000000;fill-opacity:1;fill-rule:nonzero;stroke:#000000;stroke-width:0.75;stroke-linecap:round;stroke-linejoin:round;stroke-miterlimit:10;stroke-dasharray:none;stroke-opacity:1"
         id="path4392" /></g><g
       id="g522"><g
         id="g524"
         clip-path="url(#clipPath526)" /></g><path
       d="m 362.23,131.91 c 0,15.08 12.34,27.42 27.42,27.42 15.09,0 27.43,-12.34 27.43,-27.42 0,-15.08 -12.34,-27.42 -27.43,-27.42 -15.08,0 -27.42,12.34 -27.42,27.42"
       style="fill:none;stroke:#000000;stroke-width:0.75;stroke-linecap:round;stroke-linejoin:round;stroke-miterlimit:10;stroke-dasharray:none;stroke-opacity:1"
       id="path646"
       inkscape:connector-curvature="0" /><path
       d="m 334.81,131.91 c 0,30.16 24.68,54.85 54.84,54.85 30.17,0 54.85,-24.69 54.85,-54.85 0,-30.17 -24.68,-54.85 -54.85,-54.85 -30.16,0 -54.84,24.68 -54.84,54.85"
       style="fill:none;stroke:#000000;stroke-width:0.75;stroke-linecap:round;stroke-linejoin:round;stroke-miterlimit:10;stroke-dasharray:none;stroke-opacity:1"
       id="path648"
       inkscape:connector-curvature="0" /><g
       transform="scale(1,-1)"
       style=""
       id="text650"><path
         d="m 389.70519,-134.6508 c -1.5504,0 -2.7892,1.2084 -2.7892,2.7208 0,1.5352 1.2236,2.7664 2.7436,2.7664 1.5124,0 2.7436,-1.2312 2.7436,-2.7436 0,-1.4972 -1.2312,-2.7436 -2.698,-2.7436 z"
         style="font-variant:normal;font-weight:normal;font-size:7.5999999px;font-family:ZapfDingbats;-inkscape-font-specification:ZapfDingbats;writing-mode:lr-tb;fill:none;stroke:#000000;stroke-width:0.75;stroke-linecap:round;stroke-linejoin:round;stroke-miterlimit:10;stroke-dasharray:none;stroke-opacity:1"
         id="path4389" /></g><g
       transform="scale(1,-1)"
       style=""
       id="text654"><path
         d="m 376.77427,-175.99112 c -0.84456,0 -1.51938,0.65826 -1.51938,1.48212 0,0.83628 0.66654,1.50696 1.49454,1.50696 0.82386,0 1.49454,-0.67068 1.49454,-1.49454 0,-0.81558 -0.67068,-1.49454 -1.4697,-1.49454 z"
         style="font-variant:normal;font-weight:normal;font-size:4.13999987px;font-family:ZapfDingbats;-inkscape-font-specification:ZapfDingbats;writing-mode:lr-tb;fill:#000000;fill-opacity:1;fill-rule:nonzero;stroke:#000000;stroke-width:0.75;stroke-linecap:round;stroke-linejoin:round;stroke-miterlimit:10;stroke-dasharray:none;stroke-opacity:1"
         id="path4386" /></g><g
       transform="scale(1,-1)"
       style=""
       id="text658"><path
         d="m 416.84427,-189.45112 c -0.84456,0 -1.51938,0.65826 -1.51938,1.48212 0,0.83628 0.66654,1.50696 1.49454,1.50696 0.82386,0 1.49454,-0.67068 1.49454,-1.49454 0,-0.81558 -0.67068,-1.49454 -1.4697,-1.49454 z"
         style="font-variant:normal;font-weight:normal;font-size:4.13999987px;font-family:ZapfDingbats;-inkscape-font-specification:ZapfDingbats;writing-mode:lr-tb;fill:#000000;fill-opacity:1;fill-rule:nonzero;stroke:#000000;stroke-width:0.75;stroke-linecap:round;stroke-linejoin:round;stroke-miterlimit:10;stroke-dasharray:none;stroke-opacity:1"
         id="path4383" /></g><g
       transform="scale(1,-1)"
       style=""
       id="text666"><path
         d="m 431.30429,-137.05112 c -0.84456,0 -1.51938,0.65826 -1.51938,1.48212 0,0.83628 0.66654,1.50696 1.49454,1.50696 0.82386,0 1.49454,-0.67068 1.49454,-1.49454 0,-0.81558 -0.67068,-1.49454 -1.4697,-1.49454 z"
         style="font-variant:normal;font-weight:normal;font-size:4.13999987px;font-family:ZapfDingbats;-inkscape-font-specification:ZapfDingbats;writing-mode:lr-tb;fill:#000000;fill-opacity:1;fill-rule:nonzero;stroke:#000000;stroke-width:0.75;stroke-linecap:round;stroke-linejoin:round;stroke-miterlimit:10;stroke-dasharray:none;stroke-opacity:1"
         id="path4380" /></g><g
       transform="scale(1,-1)"
       style=""
       id="text674"><path
         d="m 382.12427,-169.60112 c -0.84456,0 -1.51938,0.65826 -1.51938,1.48212 0,0.83628 0.66654,1.50696 1.49454,1.50696 0.82386,0 1.49454,-0.67068 1.49454,-1.49454 0,-0.81558 -0.67068,-1.49454 -1.4697,-1.49454 z"
         style="font-variant:normal;font-weight:normal;font-size:4.13999987px;font-family:ZapfDingbats;-inkscape-font-specification:ZapfDingbats;writing-mode:lr-tb;fill:#000000;fill-opacity:1;fill-rule:nonzero;stroke:#000000;stroke-width:0.75;stroke-linecap:round;stroke-linejoin:round;stroke-miterlimit:10;stroke-dasharray:none;stroke-opacity:1"
         id="path4377" /></g><g
       transform="scale(1,-1)"
       style=""
       id="text678"><path
         d="m 406.86429,-158.44111 c -0.84456,0 -1.51938,0.65826 -1.51938,1.48212 0,0.83628 0.66654,1.50696 1.49454,1.50696 0.82386,0 1.49454,-0.67068 1.49454,-1.49454 0,-0.81558 -0.67068,-1.49454 -1.4697,-1.49454 z"
         style="font-variant:normal;font-weight:normal;font-size:4.13999987px;font-family:ZapfDingbats;-inkscape-font-specification:ZapfDingbats;writing-mode:lr-tb;fill:#000000;fill-opacity:1;fill-rule:nonzero;stroke:#000000;stroke-width:0.75;stroke-linecap:round;stroke-linejoin:round;stroke-miterlimit:10;stroke-dasharray:none;stroke-opacity:1"
         id="path4374" /></g><g
       transform="scale(1,-1)"
       style=""
       id="text682"><path
         d="m 376.40427,-149.93112 c -0.84456,0 -1.51938,0.65826 -1.51938,1.48212 0,0.83628 0.66654,1.50696 1.49454,1.50696 0.82386,0 1.49454,-0.67068 1.49454,-1.49454 0,-0.81558 -0.67068,-1.49454 -1.4697,-1.49454 z"
         style="font-variant:normal;font-weight:normal;font-size:4.13999987px;font-family:ZapfDingbats;-inkscape-font-specification:ZapfDingbats;writing-mode:lr-tb;fill:#000000;fill-opacity:1;fill-rule:nonzero;stroke:#000000;stroke-width:0.75;stroke-linecap:round;stroke-linejoin:round;stroke-miterlimit:10;stroke-dasharray:none;stroke-opacity:1"
         id="path4371" /></g><g
       transform="scale(1,-1)"
       style=""
       id="text686"><path
         d="m 430.11429,-164.97111 c -0.84456,0 -1.51938,0.65826 -1.51938,1.48212 0,0.83628 0.66654,1.50696 1.49454,1.50696 0.82386,0 1.49454,-0.67068 1.49454,-1.49454 0,-0.81558 -0.67068,-1.49454 -1.4697,-1.49454 z"
         style="font-variant:normal;font-weight:normal;font-size:4.13999987px;font-family:ZapfDingbats;-inkscape-font-specification:ZapfDingbats;writing-mode:lr-tb;fill:#000000;fill-opacity:1;fill-rule:nonzero;stroke:#000000;stroke-width:0.75;stroke-linecap:round;stroke-linejoin:round;stroke-miterlimit:10;stroke-dasharray:none;stroke-opacity:1"
         id="path4368" /></g><g
       transform="scale(1,-1)"
       style=""
       id="text690"><path
         d="m 402.26429,-172.52112 c -0.84456,0 -1.51938,0.65826 -1.51938,1.48212 0,0.83628 0.66654,1.50696 1.49454,1.50696 0.82386,0 1.49454,-0.67068 1.49454,-1.49454 0,-0.81558 -0.67068,-1.49454 -1.4697,-1.49454 z"
         style="font-variant:normal;font-weight:normal;font-size:4.13999987px;font-family:ZapfDingbats;-inkscape-font-specification:ZapfDingbats;writing-mode:lr-tb;fill:#000000;fill-opacity:1;fill-rule:nonzero;stroke:#000000;stroke-width:0.75;stroke-linecap:round;stroke-linejoin:round;stroke-miterlimit:10;stroke-dasharray:none;stroke-opacity:1"
         id="path4365" /></g><path
       style="fill:none;stroke:#000000;stroke-width:1px;stroke-linecap:butt;stroke-linejoin:miter;stroke-opacity:1;marker-end:url(#Arrow1Lend)"
       d="m 64.686214,167.4574 c 501.102536,0 501.102536,0 501.102536,0"
       id="path3835"
       inkscape:connector-curvature="0"
       transform="matrix(0.8,0,0,-0.8,71.435,199.37112)" /><text
       xml:space="preserve"
       style="font-style:normal;font-weight:normal;font-size:16px;line-height:125%;font-family:Sans;letter-spacing:0px;word-spacing:0px;fill:#000000;fill-opacity:1;stroke:none"
       x="85.794403"
       y="-61.265289"
       id="text5049"
       sodipodi:linespacing="125%"
       transform="scale(1,-1)"><tspan
         sodipodi:role="line"
         id="tspan5051"
         x="85.794403"
         y="-61.265289"
         style="font-style:normal;font-variant:normal;font-weight:normal;font-stretch:normal;font-size:12px;font-family:sans-serif;-inkscape-font-specification:sans-serif">good</tspan></text>
<text
       transform="scale(1,-1)"
       sodipodi:linespacing="125%"
       id="text5053"
       y="-61.265289"
       x="527.39429"
       style="font-style:normal;font-weight:normal;font-size:16px;line-height:125%;font-family:Sans;letter-spacing:0px;word-spacing:0px;fill:#000000;fill-opacity:1;stroke:none"
       xml:space="preserve"><tspan
         style="font-style:normal;font-variant:normal;font-weight:normal;font-stretch:normal;font-size:12px;font-family:sans-serif;-inkscape-font-specification:sans-serif"
         y="-61.265289"
         x="527.39429"
         id="tspan5055"
         sodipodi:role="line">bad</tspan></text>
<flowRoot
       xml:space="preserve"
       id="flowRoot4285"
       style="font-style:normal;font-weight:normal;font-size:8.5px;line-height:125%;font-family:sans-serif;letter-spacing:0px;word-spacing:0px;fill:#000000;fill-opacity:1;stroke:none;stroke-width:1px;stroke-linecap:butt;stroke-linejoin:miter;stroke-opacity:1"
       transform="matrix(0.8,0,0,-0.8,87.435,169.18178)"><flowRegion
         id="flowRegion4287"><rect
           id="rect4289"
           width="150.07201"
           height="36.224281"
           x="-9.4873114"
           y="-69.949142" /></flowRegion><flowPara
         id="flowPara4291"
         style="font-size:15px">high precision</flowPara><flowPara
         id="flowPara4293"
         style="font-size:15px">high accuracy</flowPara></flowRoot><flowRoot
       transform="matrix(0.8,0,0,-0.8,218.635,169.18178)"
       style="font-style:normal;font-weight:normal;font-size:8.5px;line-height:125%;font-family:sans-serif;letter-spacing:0px;word-spacing:0px;fill:#000000;fill-opacity:1;stroke:none;stroke-width:1px;stroke-linecap:butt;stroke-linejoin:miter;stroke-opacity:1"
       id="flowRoot4295"
       xml:space="preserve"><flowRegion
         id="flowRegion4297"><rect
           y="-69.949142"
           x="-9.4873114"
           height="40.536697"
           width="162.14677"
           id="rect4299" /></flowRegion><flowPara
         style="font-size:15px"
         id="flowPara4301">low precision</flowPara><flowPara
         style="font-size:15px"
         id="flowPara4303">high accuracy</flowPara></flowRoot><flowRoot
       xml:space="preserve"
       id="flowRoot4305"
       style="font-style:normal;font-weight:normal;font-size:8.5px;line-height:125%;font-family:sans-serif;letter-spacing:0px;word-spacing:0px;fill:#000000;fill-opacity:1;stroke:none;stroke-width:1px;stroke-linecap:butt;stroke-linejoin:miter;stroke-opacity:1"
       transform="matrix(0.8,0,0,-0.8,354.635,169.18178)"><flowRegion
         id="flowRegion4307"><rect
           id="rect4309"
           width="162.14677"
           height="41.399178"
           x="-9.4873114"
           y="-69.949142" /></flowRegion><flowPara
         id="flowPara4311"
         style="font-size:15px">low precision</flowPara><flowPara
         id="flowPara4313"
         style="font-size:15px">low accuracy</flowPara></flowRoot><flowRoot
       style="font-style:normal;font-weight:normal;font-size:8.5px;line-height:125%;font-family:sans-serif;letter-spacing:0px;word-spacing:0px;fill:#000000;fill-opacity:1;stroke:none;stroke-width:1px;stroke-linecap:butt;stroke-linejoin:miter;stroke-opacity:1"
       id="flowRoot4315"
       xml:space="preserve"
       transform="matrix(0.8,0,0,-0.8,485.835,169.18178)"><flowRegion
         id="flowRegion4317"><rect
           y="-69.949142"
           x="-9.4873114"
           height="38.811729"
           width="148.34705"
           id="rect4319" /></flowRegion><flowPara
         style="font-size:15px"
         id="flowPara4321">high precision</flowPara><flowPara
         style="font-size:15px"
         id="flowPara4323">low accuracy</flowPara></flowRoot></g></svg>