<?xml version="1.0" encoding="UTF-8" standalone="no"?>
<!-- Created with Inkscape (http://www.inkscape.org/) -->

<svg
   xmlns:dc="http://purl.org/dc/elements/1.1/"
   xmlns:cc="http://creativecommons.org/ns#"
   xmlns:rdf="http://www.w3.org/1999/02/22-rdf-syntax-ns#"
   xmlns:svg="http://www.w3.org/2000/svg"
   xmlns="http://www.w3.org/2000/svg"
   xmlns:sodipodi="http://sodipodi.sourceforge.net/DTD/sodipodi-0.dtd"
   xmlns:inkscape="http://www.inkscape.org/namespaces/inkscape"
   id="svg2"
   version="1.1"
   inkscape:version="0.91 r13725"
   xml:space="preserve"
   width="296.0571"
   height="201.47818"
   viewBox="0 0 296.0571 201.47818"
   sodipodi:docname="chart-of-nuclides.svg"><metadata
     id="metadata8"><rdf:RDF><cc:Work
         rdf:about=""><dc:format>image/svg+xml</dc:format><dc:type
           rdf:resource="http://purl.org/dc/dcmitype/StillImage" /><dc:title></dc:title></cc:Work></rdf:RDF></metadata><defs
     id="defs6"><clipPath
       clipPathUnits="userSpaceOnUse"
       id="clipPath18"><path
         d="m 19,165.642 221,0 0,-149 -221,0 0,149 z"
         id="path20"
         inkscape:connector-curvature="0" /></clipPath><clipPath
       clipPathUnits="userSpaceOnUse"
       id="clipPath28"><path
         d="m 19,17 221,0 0,149 -221,0 0,-149 z"
         id="path30"
         inkscape:connector-curvature="0" /></clipPath></defs><sodipodi:namedview
     pagecolor="#ffffff"
     bordercolor="#666666"
     borderopacity="1"
     objecttolerance="10"
     gridtolerance="10"
     guidetolerance="10"
     inkscape:pageopacity="0"
     inkscape:pageshadow="2"
     inkscape:window-width="1920"
     inkscape:window-height="1056"
     id="namedview4"
     showgrid="false"
     inkscape:zoom="4.2276929"
     inkscape:cx="146.13743"
     inkscape:cy="66.019828"
     inkscape:window-x="0"
     inkscape:window-y="24"
     inkscape:window-maximized="1"
     inkscape:current-layer="g320"
     fit-margin-top="0"
     fit-margin-left="0"
     fit-margin-right="0"
     fit-margin-bottom="0" /><g
     id="g10"
     inkscape:groupmode="layer"
     inkscape:label="chart-of-nuclides"
     transform="matrix(1.25,0,0,-1.25,-3.7078941,207.05212)"><g
       id="g12" /><g
       id="g22"
       transform="translate(0,-0.358307)"><g
         id="g24"><g
           id="g26"
           clip-path="url(#clipPath28)"><g
             id="g32"><path
               d="M 19.984,18.398 168.367,165.469"
               style="fill:none;stroke:#1266ac;stroke-width:1.5;stroke-linecap:butt;stroke-linejoin:miter;stroke-miterlimit:4;stroke-dasharray:none;stroke-opacity:1"
               id="path34"
               inkscape:connector-curvature="0" /><path
               d="m 20.035,165.477 219.477,0 0,-147.488 -219.477,0 0,147.488 z"
               style="fill:none;stroke:#231f20;stroke-width:0.60000002;stroke-linecap:butt;stroke-linejoin:miter;stroke-miterlimit:4;stroke-dasharray:none;stroke-opacity:1"
               id="path36"
               inkscape:connector-curvature="0" /></g></g></g></g><path
       d="m 15.235,148.618 4.969,0 m -4.969,-16.695 4.969,0 m -4.969,-16.695 4.969,0 m -4.969,-16.7 4.969,0 m -4.969,-16.695 4.969,0 m -4.969,-16.699 4.969,0 m -4.969,-16.895 4.969,0 m -4.969,-16.894 4.969,0 m 17.124,-18.316 0,4.969 m 16.695,-4.969 0,4.969 m 16.7,-4.969 0,4.969 m 16.695,-4.969 0,4.969 m 17.117,-4.969 0,4.969 m 17.11,-4.969 0,4.969 m 16.617,-4.969 0,4.969 m 16.699,-4.969 0,4.969 m 16.699,-4.969 0,4.969 m 17.113,-4.969 0,4.969 m 17.114,-4.969 0,4.969 m 16.675,-4.969 0,4.969"
       style="fill:none;stroke:#231f20;stroke-width:0.5;stroke-linecap:butt;stroke-linejoin:miter;stroke-miterlimit:4;stroke-dasharray:none;stroke-opacity:1"
       id="path38"
       inkscape:connector-curvature="0"
       sodipodi:nodetypes="cccccccccccccccccccccccccccccccccccccccc" /><path
       d="m 19.941,19.15 1.168,0 0,-1.168 -1.168,0 0,1.168 z"
       style="fill:#231f20;fill-opacity:1;fill-rule:nonzero;stroke:none"
       id="path40"
       inkscape:connector-curvature="0" /><path
       d="m 21.281,19.15 1.168,0 0,-1.168 -1.168,0 0,1.168 z"
       style="fill:#231f20;fill-opacity:1;fill-rule:nonzero;stroke:none"
       id="path42"
       inkscape:connector-curvature="0" /><path
       d="m 21.727,21.009 1.52,0 0,-1.52 -1.52,0 0,1.52 z"
       style="fill:#231f20;fill-opacity:1;fill-rule:nonzero;stroke:none"
       id="path44"
       inkscape:connector-curvature="0" /><path
       d="m 23.172,21.009 1.52,0 0,-1.52 -1.52,0 0,1.52 z"
       style="fill:#231f20;fill-opacity:1;fill-rule:nonzero;stroke:none"
       id="path46"
       inkscape:connector-curvature="0" /><path
       d="m 25.051,23.001 3.043,0 0,-1.523 -3.043,0 0,1.523 z"
       style="fill:#231f20;fill-opacity:1;fill-rule:nonzero;stroke:none"
       id="path48"
       inkscape:connector-curvature="0" /><path
       d="m 45.012,41.224 3.156,0 0,-1.516 -3.156,0 0,1.516 z"
       style="fill:#231f20;fill-opacity:1;fill-rule:nonzero;stroke:none"
       id="path50"
       inkscape:connector-curvature="0" /><path
       d="m 48.168,44.38 3.156,0 0,-1.52 -3.156,0 0,1.52 z"
       style="fill:#231f20;fill-opacity:1;fill-rule:nonzero;stroke:none"
       id="path52"
       inkscape:connector-curvature="0" /><path
       d="m 58.293,51.075 3.156,0 0,-1.52 -3.156,0 0,1.52 z"
       style="fill:#231f20;fill-opacity:1;fill-rule:nonzero;stroke:none"
       id="path54"
       inkscape:connector-curvature="0" /><path
       d="m 65.09,56.017 3.156,0 0,-1.52 -3.156,0 0,1.52 z"
       style="fill:#231f20;fill-opacity:1;fill-rule:nonzero;stroke:none"
       id="path56"
       inkscape:connector-curvature="0" /><path
       d="m 61.449,54.497 6.797,0 0,-1.52 -6.797,0 0,1.52 z"
       style="fill:#231f20;fill-opacity:1;fill-rule:nonzero;stroke:none"
       id="path58"
       inkscape:connector-curvature="0" /><path
       d="m 66.918,57.536 4.633,0 0,-1.52 -4.633,0 0,1.52 z"
       style="fill:#231f20;fill-opacity:1;fill-rule:nonzero;stroke:none"
       id="path60"
       inkscape:connector-curvature="0" /><path
       d="m 70.031,60.958 5.004,0 0,-1.523 -5.004,0 0,1.523 z"
       style="fill:#231f20;fill-opacity:1;fill-rule:nonzero;stroke:none"
       id="path62"
       inkscape:connector-curvature="0" /><path
       d="m 73.516,64.376 5.004,0 0,-1.52 -5.004,0 0,1.52 z"
       style="fill:#231f20;fill-opacity:1;fill-rule:nonzero;stroke:none"
       id="path64"
       inkscape:connector-curvature="0" /><path
       d="m 80.484,67.954 5.004,0 0,-1.52 -5.004,0 0,1.52 z"
       style="fill:#231f20;fill-opacity:1;fill-rule:nonzero;stroke:none"
       id="path66"
       inkscape:connector-curvature="0" /><path
       d="m 43.492,41.224 1.52,0 0,-3.684 -1.52,0 0,3.684 z"
       style="fill:#231f20;fill-opacity:1;fill-rule:nonzero;stroke:none"
       id="path68"
       inkscape:connector-curvature="0" /><path
       d="m 46.648,44.38 1.52,0 0,-3.156 -1.52,0 0,3.156 z"
       style="fill:#231f20;fill-opacity:1;fill-rule:nonzero;stroke:none"
       id="path70"
       inkscape:connector-curvature="0" /><path
       d="m 49.805,47.536 1.52,0 0,-3.156 -1.52,0 0,3.156 z"
       style="fill:#231f20;fill-opacity:1;fill-rule:nonzero;stroke:none"
       id="path72"
       inkscape:connector-curvature="0" /><path
       d="m 56.773,51.075 1.52,0 0,-4.477 -1.52,0 0,4.477 z"
       style="fill:#231f20;fill-opacity:1;fill-rule:nonzero;stroke:none"
       id="path74"
       inkscape:connector-curvature="0" /><path
       d="m 59.93,54.497 1.52,0 0,-3.422 -1.52,0 0,3.422 z"
       style="fill:#231f20;fill-opacity:1;fill-rule:nonzero;stroke:none"
       id="path76"
       inkscape:connector-curvature="0" /><path
       d="m 70.031,60.958 1.52,0 0,-3.422 -1.52,0 0,3.422 z"
       style="fill:#231f20;fill-opacity:1;fill-rule:nonzero;stroke:none"
       id="path78"
       inkscape:connector-curvature="0" /><path
       d="m 73.516,64.376 1.52,0 0,-3.418 -1.52,0 0,3.418 z"
       style="fill:#231f20;fill-opacity:1;fill-rule:nonzero;stroke:none"
       id="path80"
       inkscape:connector-curvature="0" /><path
       d="m 77,67.798 1.52,0 0,-3.422 -1.52,0 0,3.422 z"
       style="fill:#231f20;fill-opacity:1;fill-rule:nonzero;stroke:none"
       id="path82"
       inkscape:connector-curvature="0" /><path
       d="m 80.484,67.954 1.52,0 0,-4.688 -1.52,0 0,4.688 z"
       style="fill:#231f20;fill-opacity:1;fill-rule:nonzero;stroke:none"
       id="path84"
       inkscape:connector-curvature="0" /><path
       d="m 83.969,71.126 1.52,0 0,-4.691 -1.52,0 0,4.691 z"
       style="fill:#231f20;fill-opacity:1;fill-rule:nonzero;stroke:none"
       id="path86"
       inkscape:connector-curvature="0" /><path
       d="m 86.941,71.618 5.004,0 0,-1.523 -5.004,0 0,1.523 z"
       style="fill:#231f20;fill-opacity:1;fill-rule:nonzero;stroke:none"
       id="path88"
       inkscape:connector-curvature="0" /><path
       d="m 86.941,71.618 1.52,0 0,-4.688 -1.52,0 0,4.688 z"
       style="fill:#231f20;fill-opacity:1;fill-rule:nonzero;stroke:none"
       id="path90"
       inkscape:connector-curvature="0" /><path
       d="m 90.426,74.786 1.516,0 0,-4.691 -1.516,0 0,4.691 z"
       style="fill:#231f20;fill-opacity:1;fill-rule:nonzero;stroke:none"
       id="path92"
       inkscape:connector-curvature="0" /><path
       d="m 90.414,74.837 5.004,0 0,-1.52 -5.004,0 0,1.52 z"
       style="fill:#231f20;fill-opacity:1;fill-rule:nonzero;stroke:none"
       id="path94"
       inkscape:connector-curvature="0" /><path
       d="m 93.898,78.005 1.52,0 0,-4.688 -1.52,0 0,4.688 z"
       style="fill:#231f20;fill-opacity:1;fill-rule:nonzero;stroke:none"
       id="path96"
       inkscape:connector-curvature="0" /><path
       d="m 53.34,50.915 1.52,0 0,-7.645 -1.52,0 0,7.645 z"
       style="fill:#231f20;fill-opacity:1;fill-rule:nonzero;stroke:none"
       id="path98"
       inkscape:connector-curvature="0" /><path
       d="m 41.695,37.54 3.316,0 0,-1.52 -3.316,0 0,1.52 z"
       style="fill:#231f20;fill-opacity:1;fill-rule:nonzero;stroke:none"
       id="path100"
       inkscape:connector-curvature="0" /><path
       d="m 40.176,37.54 1.52,0 0,-2.996 -1.52,0 0,2.996 z"
       style="fill:#231f20;fill-opacity:1;fill-rule:nonzero;stroke:none"
       id="path102"
       inkscape:connector-curvature="0" /><path
       d="m 28.438,24.571 1.52,0 0,-1.52 -1.52,0 0,1.52 z"
       style="fill:#231f20;fill-opacity:1;fill-rule:nonzero;stroke:none"
       id="path104"
       inkscape:connector-curvature="0" /><path
       d="m 38.012,34.544 3.684,0 0,-1.52 -3.684,0 0,1.52 z"
       style="fill:#231f20;fill-opacity:1;fill-rule:nonzero;stroke:none"
       id="path106"
       inkscape:connector-curvature="0" /><path
       d="m 36.492,34.544 1.52,0 0,-3.895 -1.52,0 0,3.895 z"
       style="fill:#231f20;fill-opacity:1;fill-rule:nonzero;stroke:none"
       id="path108"
       inkscape:connector-curvature="0" /><path
       d="m 28.438,26.091 3.039,0 0,-1.52 -3.039,0 0,1.52 z"
       style="fill:#231f20;fill-opacity:1;fill-rule:nonzero;stroke:none"
       id="path110"
       inkscape:connector-curvature="0" /><path
       d="m 29.957,27.61 3.039,0 0,-1.52 -3.039,0 0,1.52 z"
       style="fill:#231f20;fill-opacity:1;fill-rule:nonzero;stroke:none"
       id="path112"
       inkscape:connector-curvature="0" /><path
       d="m 66.957,51.368 1.52,0 0,-1.52 -1.52,0 0,1.52 z"
       style="fill:#231f20;fill-opacity:1;fill-rule:nonzero;stroke:none"
       id="path114"
       inkscape:connector-curvature="0" /><path
       d="m 66.957,61.189 1.52,0 0,-1.52 -1.52,0 0,1.52 z"
       style="fill:#231f20;fill-opacity:1;fill-rule:nonzero;stroke:none"
       id="path116"
       inkscape:connector-curvature="0" /><path
       d="m 87.129,75.025 1.52,0 0,-1.52 -1.52,0 0,1.52 z"
       style="fill:#231f20;fill-opacity:1;fill-rule:nonzero;stroke:none"
       id="path118"
       inkscape:connector-curvature="0" /><path
       d="m 90.453,78.403 1.52,0 0,-1.52 -1.52,0 0,1.52 z"
       style="fill:#231f20;fill-opacity:1;fill-rule:nonzero;stroke:none"
       id="path120"
       inkscape:connector-curvature="0" /><path
       d="m 93.992,71.646 1.52,0 0,-1.52 -1.52,0 0,1.52 z"
       style="fill:#231f20;fill-opacity:1;fill-rule:nonzero;stroke:none"
       id="path122"
       inkscape:connector-curvature="0" /><path
       d="m 96.961,78.427 5.004,0 0,-1.52 -5.004,0 0,1.52 z"
       style="fill:#231f20;fill-opacity:1;fill-rule:nonzero;stroke:none"
       id="path124"
       inkscape:connector-curvature="0" /><path
       d="m 96.961,78.427 1.52,0 0,-5.055 -1.52,0 0,5.055 z"
       style="fill:#231f20;fill-opacity:1;fill-rule:nonzero;stroke:none"
       id="path126"
       inkscape:connector-curvature="0" /><path
       d="m 100.445,81.595 1.52,0 0,-4.688 -1.52,0 0,4.688 z"
       style="fill:#231f20;fill-opacity:1;fill-rule:nonzero;stroke:none"
       id="path128"
       inkscape:connector-curvature="0" /><path
       d="m 100.434,81.65 5.004,0 0,-1.52 -5.004,0 0,1.52 z"
       style="fill:#231f20;fill-opacity:1;fill-rule:nonzero;stroke:none"
       id="path130"
       inkscape:connector-curvature="0" /><path
       d="m 103.918,85.567 5.004,0 0,-1.52 -5.004,0 0,1.52 z"
       style="fill:#231f20;fill-opacity:1;fill-rule:nonzero;stroke:none"
       id="path132"
       inkscape:connector-curvature="0" /><path
       d="m 107.402,88.735 1.52,0 0,-4.688 -1.52,0 0,4.688 z"
       style="fill:#231f20;fill-opacity:1;fill-rule:nonzero;stroke:none"
       id="path134"
       inkscape:connector-curvature="0" /><path
       d="m 107.391,88.79 7.75,0 0,-1.523 -7.75,0 0,1.523 z"
       style="fill:#231f20;fill-opacity:1;fill-rule:nonzero;stroke:none"
       id="path136"
       inkscape:connector-curvature="0" /><path
       d="m 103.918,84.817 1.52,0 0,-4.688 -1.52,0 0,4.688 z"
       style="fill:#231f20;fill-opacity:1;fill-rule:nonzero;stroke:none"
       id="path138"
       inkscape:connector-curvature="0" /><path
       d="m 110.055,91.993 8.805,0 0,-1.52 -8.805,0 0,1.52 z"
       style="fill:#231f20;fill-opacity:1;fill-rule:nonzero;stroke:none"
       id="path140"
       inkscape:connector-curvature="0" /><path
       d="m 117.34,95.493 5.004,0 0,-1.52 -5.004,0 0,1.52 z"
       style="fill:#231f20;fill-opacity:1;fill-rule:nonzero;stroke:none"
       id="path142"
       inkscape:connector-curvature="0" /><path
       d="m 120.824,99.032 1.52,0 0,-5.059 -1.52,0 0,5.059 z"
       style="fill:#231f20;fill-opacity:1;fill-rule:nonzero;stroke:none"
       id="path144"
       inkscape:connector-curvature="0" /><path
       d="m 117.34,94.743 1.52,0 0,-4.27 -1.52,0 0,4.27 z"
       style="fill:#231f20;fill-opacity:1;fill-rule:nonzero;stroke:none"
       id="path146"
       inkscape:connector-curvature="0" /><path
       d="m 124.258,99.243 7.801,0 0,-1.52 -7.801,0 0,1.52 z"
       style="fill:#231f20;fill-opacity:1;fill-rule:nonzero;stroke:none"
       id="path148"
       inkscape:connector-curvature="0" /><path
       d="m 124.258,98.493 1.52,0 0,-4.273 -1.52,0 0,4.273 z"
       style="fill:#231f20;fill-opacity:1;fill-rule:nonzero;stroke:none"
       id="path150"
       inkscape:connector-curvature="0" /><path
       d="m 127.637,102.567 11.289,0 0,-1.52 -11.289,0 0,1.52 z"
       style="fill:#231f20;fill-opacity:1;fill-rule:nonzero;stroke:none"
       id="path152"
       inkscape:connector-curvature="0" /><path
       d="m 127.637,101.817 1.52,0 0,-2.582 -1.52,0 0,2.582 z"
       style="fill:#231f20;fill-opacity:1;fill-rule:nonzero;stroke:none"
       id="path154"
       inkscape:connector-curvature="0" /><path
       d="m 137.402,105.9 8.488,0 0,-1.52 -8.488,0 0,1.52 z"
       style="fill:#231f20;fill-opacity:1;fill-rule:nonzero;stroke:none"
       id="path156"
       inkscape:connector-curvature="0" /><path
       d="m 137.402,105.15 1.523,0 0,-2.582 -1.523,0 0,2.582 z"
       style="fill:#231f20;fill-opacity:1;fill-rule:nonzero;stroke:none"
       id="path158"
       inkscape:connector-curvature="0" /><path
       d="m 144.375,109.232 8.488,0 0,-1.52 -8.488,0 0,1.52 z"
       style="fill:#231f20;fill-opacity:1;fill-rule:nonzero;stroke:none"
       id="path160"
       inkscape:connector-curvature="0" /><path
       d="m 144.375,108.482 1.516,0 0,-2.582 -1.516,0 0,2.582 z"
       style="fill:#231f20;fill-opacity:1;fill-rule:nonzero;stroke:none"
       id="path162"
       inkscape:connector-curvature="0" /><path
       d="m 151.344,112.564 8.012,0 0,-1.52 -8.012,0 0,1.52 z"
       style="fill:#231f20;fill-opacity:1;fill-rule:nonzero;stroke:none"
       id="path164"
       inkscape:connector-curvature="0" /><path
       d="m 151.344,111.814 1.52,0 0,-2.582 -1.52,0 0,2.582 z"
       style="fill:#231f20;fill-opacity:1;fill-rule:nonzero;stroke:none"
       id="path166"
       inkscape:connector-curvature="0" /><path
       d="m 171.406,126.239 8.43,0 0,-1.52 -8.43,0 0,1.52 z"
       style="fill:#231f20;fill-opacity:1;fill-rule:nonzero;stroke:none"
       id="path168"
       inkscape:connector-curvature="0" /><path
       d="m 171.406,125.489 1.52,0 0,-4.008 -1.52,0 0,4.008 z"
       style="fill:#231f20;fill-opacity:1;fill-rule:nonzero;stroke:none"
       id="path170"
       inkscape:connector-curvature="0" /><path
       d="m 178.316,129.728 7.598,0 0,-1.52 -7.598,0 0,1.52 z"
       style="fill:#231f20;fill-opacity:1;fill-rule:nonzero;stroke:none"
       id="path172"
       inkscape:connector-curvature="0" /><path
       d="m 178.316,128.978 1.52,0 0,-2.738 -1.52,0 0,2.738 z"
       style="fill:#231f20;fill-opacity:1;fill-rule:nonzero;stroke:none"
       id="path174"
       inkscape:connector-curvature="0" /><path
       d="m 184.27,133.286 5.594,0 0,-1.52 -5.594,0 0,1.52 z"
       style="fill:#231f20;fill-opacity:1;fill-rule:nonzero;stroke:none"
       id="path176"
       inkscape:connector-curvature="0" /><path
       d="m 184.27,132.536 1.523,0 0,-3.109 -1.523,0 0,3.109 z"
       style="fill:#231f20;fill-opacity:1;fill-rule:nonzero;stroke:none"
       id="path178"
       inkscape:connector-curvature="0" /><path
       d="m 188.344,136.509 7.91,0 0,-1.523 -7.91,0 0,1.523 z"
       style="fill:#231f20;fill-opacity:1;fill-rule:nonzero;stroke:none"
       id="path180"
       inkscape:connector-curvature="0" /><path
       d="m 188.344,135.755 1.52,0 0,-2.469 -1.52,0 0,2.469 z"
       style="fill:#231f20;fill-opacity:1;fill-rule:nonzero;stroke:none"
       id="path182"
       inkscape:connector-curvature="0" /><path
       d="m 194.734,139.728 8.336,0 0,-1.52 -8.336,0 0,1.52 z"
       style="fill:#231f20;fill-opacity:1;fill-rule:nonzero;stroke:none"
       id="path184"
       inkscape:connector-curvature="0" /><path
       d="m 194.734,138.978 1.52,0 0,-2.469 -1.52,0 0,2.469 z"
       style="fill:#231f20;fill-opacity:1;fill-rule:nonzero;stroke:none"
       id="path186"
       inkscape:connector-curvature="0" /><path
       d="m 201.551,143.364 4.906,0 0,-1.52 -4.906,0 0,1.52 z"
       style="fill:#231f20;fill-opacity:1;fill-rule:nonzero;stroke:none"
       id="path188"
       inkscape:connector-curvature="0" /><path
       d="m 201.551,142.614 1.52,0 0,-2.887 -1.52,0 0,2.887 z"
       style="fill:#231f20;fill-opacity:1;fill-rule:nonzero;stroke:none"
       id="path190"
       inkscape:connector-curvature="0" /><path
       d="m 204.934,146.583 7.969,0 0,-1.52 -7.969,0 0,1.52 z"
       style="fill:#231f20;fill-opacity:1;fill-rule:nonzero;stroke:none"
       id="path192"
       inkscape:connector-curvature="0" /><path
       d="m 204.934,145.833 1.523,0 0,-2.469 -1.523,0 0,2.469 z"
       style="fill:#231f20;fill-opacity:1;fill-rule:nonzero;stroke:none"
       id="path194"
       inkscape:connector-curvature="0" /><path
       d="m 215.02,149.7 4.801,0 0,-1.52 -4.801,0 0,1.52 z"
       style="fill:#231f20;fill-opacity:1;fill-rule:nonzero;stroke:none"
       id="path196"
       inkscape:connector-curvature="0" /><path
       d="m 215.02,148.946 1.523,0 0,-3.891 -1.523,0 0,3.891 z"
       style="fill:#231f20;fill-opacity:1;fill-rule:nonzero;stroke:none"
       id="path198"
       inkscape:connector-curvature="0" /><path
       d="m 228.59,156.985 4.48,0 0,-1.52 -4.48,0 0,1.52 z"
       style="fill:#231f20;fill-opacity:1;fill-rule:nonzero;stroke:none"
       id="path200"
       inkscape:connector-curvature="0" /><path
       d="m 228.59,156.235 1.52,0 0,-4.16 -1.52,0 0,4.16 z"
       style="fill:#231f20;fill-opacity:1;fill-rule:nonzero;stroke:none"
       id="path202"
       inkscape:connector-curvature="0" /><path
       d="m 224.695,156.603 1.52,0 0,-3.051 -1.52,0 0,3.051 z"
       style="fill:#231f20;fill-opacity:1;fill-rule:nonzero;stroke:none"
       id="path204"
       inkscape:connector-curvature="0" /><path
       d="m 218.301,153.552 7.914,0 0,-1.52 -7.914,0 0,1.52 z"
       style="fill:#231f20;fill-opacity:1;fill-rule:nonzero;stroke:none"
       id="path206"
       inkscape:connector-curvature="0" /><path
       d="m 218.301,152.802 1.52,0 0,-3.102 -1.52,0 0,3.102 z"
       style="fill:#231f20;fill-opacity:1;fill-rule:nonzero;stroke:none"
       id="path208"
       inkscape:connector-curvature="0" /><path
       d="m 211.383,148.208 1.52,0 0,-1.625 -1.52,0 0,1.625 z"
       style="fill:#231f20;fill-opacity:1;fill-rule:nonzero;stroke:none"
       id="path210"
       inkscape:connector-curvature="0" /><path
       d="m 157.84,119.368 1.516,0 0,-6.805 -1.516,0 0,6.805 z"
       style="fill:#231f20;fill-opacity:1;fill-rule:nonzero;stroke:none"
       id="path212"
       inkscape:connector-curvature="0" /><path
       d="m 164.387,122.86 4.789,0 0,-1.52 -4.789,0 0,1.52 z"
       style="fill:#231f20;fill-opacity:1;fill-rule:nonzero;stroke:none"
       id="path214"
       inkscape:connector-curvature="0" /><path
       d="m 167.656,126.181 1.52,0 0,-3.32 -1.52,0 0,3.32 z"
       style="fill:#231f20;fill-opacity:1;fill-rule:nonzero;stroke:none"
       id="path216"
       inkscape:connector-curvature="0" /><path
       d="m 140.941,105.15 1.52,0 0,-3.953 -1.52,0 0,3.953 z"
       style="fill:#231f20;fill-opacity:1;fill-rule:nonzero;stroke:none"
       id="path218"
       inkscape:connector-curvature="0" /><path
       d="m 97.148,82.099 1.52,0 0,-1.52 -1.52,0 0,1.52 z"
       style="fill:#231f20;fill-opacity:1;fill-rule:nonzero;stroke:none"
       id="path220"
       inkscape:connector-curvature="0" /><path
       d="m 104.012,78.454 1.52,0 0,-1.52 -1.52,0 0,1.52 z"
       style="fill:#231f20;fill-opacity:1;fill-rule:nonzero;stroke:none"
       id="path222"
       inkscape:connector-curvature="0" /><path
       d="m 104.012,88.54 1.52,0 0,-1.52 -1.52,0 0,1.52 z"
       style="fill:#231f20;fill-opacity:1;fill-rule:nonzero;stroke:none"
       id="path224"
       inkscape:connector-curvature="0" /><path
       d="m 107.23,92.025 1.52,0 0,-1.52 -1.52,0 0,1.52 z"
       style="fill:#231f20;fill-opacity:1;fill-rule:nonzero;stroke:none"
       id="path226"
       inkscape:connector-curvature="0" /><path
       d="m 113.887,95.72 1.516,0 0,-1.52 -1.516,0 0,1.52 z"
       style="fill:#231f20;fill-opacity:1;fill-rule:nonzero;stroke:none"
       id="path228"
       inkscape:connector-curvature="0" /><path
       d="m 117.371,98.993 1.52,0 0,-1.52 -1.52,0 0,1.52 z"
       style="fill:#231f20;fill-opacity:1;fill-rule:nonzero;stroke:none"
       id="path230"
       inkscape:connector-curvature="0" /><path
       d="m 127.559,95.775 1.52,0 0,-1.52 -1.52,0 0,1.52 z"
       style="fill:#231f20;fill-opacity:1;fill-rule:nonzero;stroke:none"
       id="path232"
       inkscape:connector-curvature="0" /><path
       d="m 124.18,102.583 1.52,0 0,-1.52 -1.52,0 0,1.52 z"
       style="fill:#231f20;fill-opacity:1;fill-rule:nonzero;stroke:none"
       id="path234"
       inkscape:connector-curvature="0" /><path
       d="m 144.613,102.583 1.52,0 0,-1.52 -1.52,0 0,1.52 z"
       style="fill:#231f20;fill-opacity:1;fill-rule:nonzero;stroke:none"
       id="path236"
       inkscape:connector-curvature="0" /><path
       d="m 147.836,106.173 1.516,0 0,-1.52 -1.516,0 0,1.52 z"
       style="fill:#231f20;fill-opacity:1;fill-rule:nonzero;stroke:none"
       id="path238"
       inkscape:connector-curvature="0" /><path
       d="m 151.32,106.173 1.516,0 0,-1.52 -1.516,0 0,1.52 z"
       style="fill:#231f20;fill-opacity:1;fill-rule:nonzero;stroke:none"
       id="path240"
       inkscape:connector-curvature="0" /><path
       d="m 134.055,98.993 1.52,0 0,-1.52 -1.52,0 0,1.52 z"
       style="fill:#231f20;fill-opacity:1;fill-rule:nonzero;stroke:none"
       id="path242"
       inkscape:connector-curvature="0" /><path
       d="m 134.055,106.067 1.52,0 0,-1.516 -1.52,0 0,1.516 z"
       style="fill:#231f20;fill-opacity:1;fill-rule:nonzero;stroke:none"
       id="path244"
       inkscape:connector-curvature="0" /><path
       d="m 137.379,109.45 1.52,0 0,-1.52 -1.52,0 0,1.52 z"
       style="fill:#231f20;fill-opacity:1;fill-rule:nonzero;stroke:none"
       id="path246"
       inkscape:connector-curvature="0" /><path
       d="m 140.918,109.45 1.52,0 0,-1.52 -1.52,0 0,1.52 z"
       style="fill:#231f20;fill-opacity:1;fill-rule:nonzero;stroke:none"
       id="path248"
       inkscape:connector-curvature="0" /><path
       d="m 154.277,109.45 1.516,0 0,-1.52 -1.516,0 0,1.52 z"
       style="fill:#231f20;fill-opacity:1;fill-rule:nonzero;stroke:none"
       id="path250"
       inkscape:connector-curvature="0" /><path
       d="m 157.812,109.45 1.52,0 0,-1.52 -1.52,0 0,1.52 z"
       style="fill:#231f20;fill-opacity:1;fill-rule:nonzero;stroke:none"
       id="path252"
       inkscape:connector-curvature="0" /><path
       d="m 157.812,122.911 1.52,0 0,-1.52 -1.52,0 0,1.52 z"
       style="fill:#231f20;fill-opacity:1;fill-rule:nonzero;stroke:none"
       id="path254"
       inkscape:connector-curvature="0" /><path
       d="m 175.023,122.911 1.52,0 0,-1.52 -1.52,0 0,1.52 z"
       style="fill:#231f20;fill-opacity:1;fill-rule:nonzero;stroke:none"
       id="path256"
       inkscape:connector-curvature="0" /><path
       d="m 181.574,126.61 1.52,0 0,-1.52 -1.52,0 0,1.52 z"
       style="fill:#231f20;fill-opacity:1;fill-rule:nonzero;stroke:none"
       id="path258"
       inkscape:connector-curvature="0" /><path
       d="m 181.574,133.153 1.52,0 0,-1.516 -1.52,0 0,1.516 z"
       style="fill:#231f20;fill-opacity:1;fill-rule:nonzero;stroke:none"
       id="path260"
       inkscape:connector-curvature="0" /><path
       d="m 178.246,133.153 1.52,0 0,-1.516 -1.52,0 0,1.516 z"
       style="fill:#231f20;fill-opacity:1;fill-rule:nonzero;stroke:none"
       id="path262"
       inkscape:connector-curvature="0" /><path
       d="m 191.344,133.153 1.516,0 0,-1.516 -1.516,0 0,1.516 z"
       style="fill:#231f20;fill-opacity:1;fill-rule:nonzero;stroke:none"
       id="path264"
       inkscape:connector-curvature="0" /><path
       d="m 191.344,139.755 1.516,0 0,-1.52 -1.516,0 0,1.52 z"
       style="fill:#231f20;fill-opacity:1;fill-rule:nonzero;stroke:none"
       id="path266"
       inkscape:connector-curvature="0" /><path
       d="m 201.375,146.462 1.516,0 0,-1.52 -1.516,0 0,1.52 z"
       style="fill:#231f20;fill-opacity:1;fill-rule:nonzero;stroke:none"
       id="path268"
       inkscape:connector-curvature="0" /><path
       d="m 208.5,143.345 1.52,0 0,-1.52 -1.52,0 0,1.52 z"
       style="fill:#231f20;fill-opacity:1;fill-rule:nonzero;stroke:none"
       id="path270"
       inkscape:connector-curvature="0" /><path
       d="m 214.836,153.325 1.52,0 0,-1.52 -1.52,0 0,1.52 z"
       style="fill:#231f20;fill-opacity:1;fill-rule:nonzero;stroke:none"
       id="path272"
       inkscape:connector-curvature="0" /><path
       d="m 221.488,149.997 1.52,0 0,-1.52 -1.52,0 0,1.52 z"
       style="fill:#231f20;fill-opacity:1;fill-rule:nonzero;stroke:none"
       id="path274"
       inkscape:connector-curvature="0" /><path
       d="m 184.848,136.482 1.52,0 0,-1.52 -1.52,0 0,1.52 z"
       style="fill:#231f20;fill-opacity:1;fill-rule:nonzero;stroke:none"
       id="path276"
       inkscape:connector-curvature="0" /><path
       d="m 198.312,136.482 1.516,0 0,-1.52 -1.516,0 0,1.52 z"
       style="fill:#231f20;fill-opacity:1;fill-rule:nonzero;stroke:none"
       id="path278"
       inkscape:connector-curvature="0" /><path
       d="m 175.023,129.669 1.52,0 0,-1.52 -1.52,0 0,1.52 z"
       style="fill:#231f20;fill-opacity:1;fill-rule:nonzero;stroke:none"
       id="path280"
       inkscape:connector-curvature="0" /><path
       d="m 171.332,129.669 1.516,0 0,-1.52 -1.516,0 0,1.52 z"
       style="fill:#231f20;fill-opacity:1;fill-rule:nonzero;stroke:none"
       id="path282"
       inkscape:connector-curvature="0" /><path
       d="m 144.402,112.669 1.52,0 0,-1.52 -1.52,0 0,1.52 z"
       style="fill:#231f20;fill-opacity:1;fill-rule:nonzero;stroke:none"
       id="path284"
       inkscape:connector-curvature="0" /><path
       d="m 147.938,112.669 1.52,0 0,-1.52 -1.52,0 0,1.52 z"
       style="fill:#231f20;fill-opacity:1;fill-rule:nonzero;stroke:none"
       id="path286"
       inkscape:connector-curvature="0" /><path
       d="m 151.16,116.048 1.52,0 0,-1.52 -1.52,0 0,1.52 z"
       style="fill:#231f20;fill-opacity:1;fill-rule:nonzero;stroke:none"
       id="path288"
       inkscape:connector-curvature="0" /><path
       d="m 154.699,116.048 1.52,0 0,-1.52 -1.52,0 0,1.52 z"
       style="fill:#231f20;fill-opacity:1;fill-rule:nonzero;stroke:none"
       id="path290"
       inkscape:connector-curvature="0" /><path
       d="m 159.609,119.427 1.52,0 0,-1.52 -1.52,0 0,1.52 z"
       style="fill:#231f20;fill-opacity:1;fill-rule:nonzero;stroke:none"
       id="path292"
       inkscape:connector-curvature="0" /><path
       d="m 167.684,119.427 1.523,0 0,-1.52 -1.523,0 0,1.52 z"
       style="fill:#231f20;fill-opacity:1;fill-rule:nonzero;stroke:none"
       id="path294"
       inkscape:connector-curvature="0" /><path
       d="m 171.223,119.427 1.52,0 0,-1.52 -1.52,0 0,1.52 z"
       style="fill:#231f20;fill-opacity:1;fill-rule:nonzero;stroke:none"
       id="path296"
       inkscape:connector-curvature="0" /><path
       d="m 162.617,119.427 3.316,0 0,-1.52 -3.316,0 0,1.52 z"
       style="fill:#231f20;fill-opacity:1;fill-rule:nonzero;stroke:none"
       id="path298"
       inkscape:connector-curvature="0" /><path
       d="m 120.906,92.185 1.52,0 0,-1.52 -1.52,0 0,1.52 z"
       style="fill:#231f20;fill-opacity:1;fill-rule:nonzero;stroke:none"
       id="path300"
       inkscape:connector-curvature="0" /><path
       d="m 110.082,85.583 1.52,0 0,-1.52 -1.52,0 0,1.52 z"
       style="fill:#231f20;fill-opacity:1;fill-rule:nonzero;stroke:none"
       id="path302"
       inkscape:connector-curvature="0" /><path
       d="m 113.887,85.583 1.516,0 0,-1.52 -1.516,0 0,1.52 z"
       style="fill:#231f20;fill-opacity:1;fill-rule:nonzero;stroke:none"
       id="path304"
       inkscape:connector-curvature="0" /><path
       d="m 117.422,88.751 1.52,0 0,-1.52 -1.52,0 0,1.52 z"
       style="fill:#231f20;fill-opacity:1;fill-rule:nonzero;stroke:none"
       id="path306"
       inkscape:connector-curvature="0" /><path
       d="m 100.582,74.974 1.52,0 0,-1.52 -1.52,0 0,1.52 z"
       style="fill:#231f20;fill-opacity:1;fill-rule:nonzero;stroke:none"
       id="path308"
       inkscape:connector-curvature="0" /><path
       d="m 70.031,64.692 1.52,0 0,-1.52 -1.52,0 0,1.52 z"
       style="fill:#231f20;fill-opacity:1;fill-rule:nonzero;stroke:none"
       id="path310"
       inkscape:connector-curvature="0" /><path
       d="m 63.578,51.368 1.52,0 0,-1.52 -1.52,0 0,1.52 z"
       style="fill:#231f20;fill-opacity:1;fill-rule:nonzero;stroke:none"
       id="path312"
       inkscape:connector-curvature="0" /><path
       d="m 63.578,58.075 1.52,0 0,-1.52 -1.52,0 0,1.52 z"
       style="fill:#231f20;fill-opacity:1;fill-rule:nonzero;stroke:none"
       id="path314"
       inkscape:connector-curvature="0" /><path
       d="m 31.477,29.13 3.578,0 0,-1.52 -3.578,0 0,1.52 z"
       style="fill:#231f20;fill-opacity:1;fill-rule:nonzero;stroke:none"
       id="path316"
       inkscape:connector-curvature="0" /><path
       d="m 33.535,30.646 4.477,0 0,-1.516 -4.477,0 0,1.516 z"
       style="fill:#231f20;fill-opacity:1;fill-rule:nonzero;stroke:none"
       id="path318"
       inkscape:connector-curvature="0" /><g
       id="g320"><text
         transform="scale(1,-1)"
         style="font-variant:normal;font-weight:normal;font-size:6.4000001px;line-height:132.00000525%;font-family:'DejaVu Sans';-inkscape-font-specification:DejaVuSans;writing-mode:lr-tb;fill:#231f20;fill-opacity:1;fill-rule:nonzero;stroke:none"
         id="text322"
         sodipodi:linespacing="132.00001%"
         x="2.6538153"
         y="-146.9498"><tspan
           x="2.6538153"
           y="-146.9498"
           sodipodi:role="line"
           id="tspan4504"
           style="line-height:132.00000525%">80</tspan></text>
<text
         transform="scale(1,-1)"
         style="font-variant:normal;font-weight:bold;font-size:6.4000001px;font-family:'DejaVu Sans';-inkscape-font-specification:DejaVuSans-Bold;writing-mode:lr-tb;fill:#000000;fill-opacity:1;fill-rule:nonzero;stroke:none"
         id="text334"
         x="132.28706"
         y="-22.634935"><tspan
           x="132.28706"
           y="-22.634935"
           sodipodi:role="line"
           id="tspan336"
           style="font-style:normal;font-variant:normal;font-weight:normal;font-stretch:normal;font-family:'DejaVu Sans';-inkscape-font-specification:'DejaVu Sans'">Neutron number (N)</tspan></text>
<text
         transform="matrix(0,1,1,0,0,0)"
         style="font-variant:normal;font-weight:bold;font-size:6.4000001px;font-family:'DejaVu Sans';-inkscape-font-specification:DejaVuSans-Bold;writing-mode:lr-tb;fill:#000000;fill-opacity:1;fill-rule:nonzero;stroke:none"
         id="text338"
         x="67.414352"
         y="29.749193"><tspan
           x="67.414352"
           y="29.749193"
           sodipodi:role="line"
           id="tspan340"
           style="font-style:normal;font-variant:normal;font-weight:normal;font-stretch:normal;font-family:'DejaVu Sans';-inkscape-font-specification:'DejaVu Sans'">Proton number (Z)</tspan></text>
<text
         transform="matrix(0.72370451,0.69010998,0.69010998,-0.72370451,86.637115,91.63629)"
         style="font-style:oblique;font-variant:normal;font-weight:bold;font-size:6.4000001px;font-family:'DejaVu Sans';-inkscape-font-specification:DejaVuSans-BoldOblique;writing-mode:lr-tb;fill:#231f20;fill-opacity:1;fill-rule:nonzero;stroke:none"
         id="text346"><tspan
           x="0"
           y="0"
           sodipodi:role="line"
           id="tspan348">Z=N</tspan></text>
<text
         transform="matrix(0.83797481,0.54570892,0.54570892,-0.83797481,0,0)"
         style="font-variant:normal;font-weight:normal;font-size:6.4000001px;font-family:'DejaVu Sans';-inkscape-font-specification:DejaVuSans;writing-mode:lr-tb;fill:#231f20;fill-opacity:1;fill-rule:nonzero;stroke:none"
         id="text350"
         x="121.07096"
         y="3.4129815"><tspan
           x="121.07096"
           y="3.4129815"
           sodipodi:role="line"
           id="tspan352">Natural stable isotopes</tspan></text>
<text
         y="-113.3498"
         x="2.6538153"
         sodipodi:linespacing="132.00001%"
         id="text4644"
         style="font-variant:normal;font-weight:normal;font-size:6.4000001px;line-height:132.00000525%;font-family:'DejaVu Sans';-inkscape-font-specification:DejaVuSans;writing-mode:lr-tb;fill:#231f20;fill-opacity:1;fill-rule:nonzero;stroke:none"
         transform="scale(1,-1)"><tspan
           style="line-height:132.00000525%"
           id="tspan4646"
           sodipodi:role="line"
           y="-113.3498"
           x="2.6538153">60</tspan></text>
<text
         transform="scale(1,-1)"
         style="font-variant:normal;font-weight:normal;font-size:6.4000001px;line-height:132.00000525%;font-family:'DejaVu Sans';-inkscape-font-specification:DejaVuSans;writing-mode:lr-tb;fill:#231f20;fill-opacity:1;fill-rule:nonzero;stroke:none"
         id="text4648"
         sodipodi:linespacing="132.00001%"
         x="2.6538153"
         y="-79.749786"><tspan
           x="2.6538153"
           y="-79.749786"
           sodipodi:role="line"
           id="tspan4650"
           style="line-height:132.00000525%">40</tspan></text>
<text
         y="-46.149773"
         x="2.6538153"
         sodipodi:linespacing="132.00001%"
         id="text4652"
         style="font-variant:normal;font-weight:normal;font-size:6.4000001px;line-height:132.00000525%;font-family:'DejaVu Sans';-inkscape-font-specification:DejaVuSans;writing-mode:lr-tb;fill:#231f20;fill-opacity:1;fill-rule:nonzero;stroke:none"
         transform="scale(1,-1)"><tspan
           style="line-height:132.00000525%"
           id="tspan4654"
           sodipodi:role="line"
           y="-46.149773"
           x="2.6538153">20</tspan></text>
<text
         transform="scale(1,-1)"
         style="font-variant:normal;font-weight:normal;font-size:6.4000001px;line-height:132.00000525%;font-family:'DejaVu Sans';-inkscape-font-specification:DejaVuSans;writing-mode:lr-tb;fill:#231f20;fill-opacity:1;fill-rule:nonzero;stroke:none"
         id="text4656"
         sodipodi:linespacing="132.00001%"
         x="49.053822"
         y="-4.5497718"><tspan
           x="49.053822"
           y="-4.5497718"
           sodipodi:role="line"
           id="tspan4658"
           style="line-height:132.00000525%">20</tspan></text>
<text
         y="-4.5497718"
         x="82.653824"
         sodipodi:linespacing="132.00001%"
         id="text4660"
         style="font-variant:normal;font-weight:normal;font-size:6.4000001px;line-height:132.00000525%;font-family:'DejaVu Sans';-inkscape-font-specification:DejaVuSans;writing-mode:lr-tb;fill:#231f20;fill-opacity:1;fill-rule:nonzero;stroke:none"
         transform="scale(1,-1)"><tspan
           style="line-height:132.00000525%"
           id="tspan4662"
           sodipodi:role="line"
           y="-4.5497718"
           x="82.653824">40</tspan></text>
<text
         transform="scale(1,-1)"
         style="font-variant:normal;font-weight:normal;font-size:6.4000001px;line-height:132.00000525%;font-family:'DejaVu Sans';-inkscape-font-specification:DejaVuSans;writing-mode:lr-tb;fill:#231f20;fill-opacity:1;fill-rule:nonzero;stroke:none"
         id="text4664"
         sodipodi:linespacing="132.00001%"
         x="116.25382"
         y="-4.5497718"><tspan
           x="116.25382"
           y="-4.5497718"
           sodipodi:role="line"
           id="tspan4666"
           style="line-height:132.00000525%">60</tspan></text>
<text
         y="-4.5497718"
         x="149.85382"
         sodipodi:linespacing="132.00001%"
         id="text4668"
         style="font-variant:normal;font-weight:normal;font-size:6.4000001px;line-height:132.00000525%;font-family:'DejaVu Sans';-inkscape-font-specification:DejaVuSans;writing-mode:lr-tb;fill:#231f20;fill-opacity:1;fill-rule:nonzero;stroke:none"
         transform="scale(1,-1)"><tspan
           style="line-height:132.00000525%"
           id="tspan4670"
           sodipodi:role="line"
           y="-4.5497718"
           x="149.85382">80</tspan></text>
<text
         transform="scale(1,-1)"
         style="font-variant:normal;font-weight:normal;font-size:6.4000001px;line-height:132.00000525%;font-family:'DejaVu Sans';-inkscape-font-specification:DejaVuSans;writing-mode:lr-tb;fill:#231f20;fill-opacity:1;fill-rule:nonzero;stroke:none"
         id="text4672"
         sodipodi:linespacing="132.00001%"
         x="183.45383"
         y="-4.5497718"><tspan
           x="183.45383"
           y="-4.5497718"
           sodipodi:role="line"
           id="tspan4674"
           style="line-height:132.00000525%">100</tspan></text>
<text
         y="-4.5497718"
         x="217.05383"
         sodipodi:linespacing="132.00001%"
         id="text4676"
         style="font-variant:normal;font-weight:normal;font-size:6.4000001px;line-height:132.00000525%;font-family:'DejaVu Sans';-inkscape-font-specification:DejaVuSans;writing-mode:lr-tb;fill:#231f20;fill-opacity:1;fill-rule:nonzero;stroke:none"
         transform="scale(1,-1)"><tspan
           style="line-height:132.00000525%"
           id="tspan4678"
           sodipodi:role="line"
           y="-4.5497718"
           x="217.05383">120</tspan></text>
</g></g></svg>