<?xml version="1.0" encoding="UTF-8" standalone="no"?>
<!-- Created with Inkscape (http://www.inkscape.org/) -->

<svg
   xmlns:dc="http://purl.org/dc/elements/1.1/"
   xmlns:cc="http://creativecommons.org/ns#"
   xmlns:rdf="http://www.w3.org/1999/02/22-rdf-syntax-ns#"
   xmlns:svg="http://www.w3.org/2000/svg"
   xmlns="http://www.w3.org/2000/svg"
   xmlns:sodipodi="http://sodipodi.sourceforge.net/DTD/sodipodi-0.dtd"
   xmlns:inkscape="http://www.inkscape.org/namespaces/inkscape"
   width="71.057014mm"
   height="96.084412mm"
   viewBox="0 0 251.77682 340.45658"
   id="svg4443"
   version="1.1"
   inkscape:version="0.91 r13725"
   sodipodi:docname="EDM.svg">
  <defs
     id="defs4445">
    <clipPath
       clipPathUnits="userSpaceOnUse"
       id="clipPath22">
      <path
         d="m 2,246 101,0 0,36 -101,0 0,-36 z"
         id="path24"
         inkscape:connector-curvature="0" />
    </clipPath>
    <clipPath
       clipPathUnits="userSpaceOnUse"
       id="clipPath122">
      <path
         d="m 0,142 106,0 0,9 -106,0 0,-9 z"
         id="path124"
         inkscape:connector-curvature="0" />
    </clipPath>
    <clipPath
       clipPathUnits="userSpaceOnUse"
       id="clipPath174">
      <path
         d="m 0,95 106,0 0,9 -106,0 0,-9 z"
         id="path176"
         inkscape:connector-curvature="0" />
    </clipPath>
    <clipPath
       clipPathUnits="userSpaceOnUse"
       id="clipPath236">
      <path
         d="m 0,51 105,0 0,10 L 0,61 0,51 Z"
         id="path238"
         inkscape:connector-curvature="0" />
    </clipPath>
  </defs>
  <sodipodi:namedview
     id="base"
     pagecolor="#ffffff"
     bordercolor="#666666"
     borderopacity="1.0"
     inkscape:pageopacity="0.0"
     inkscape:pageshadow="2"
     inkscape:zoom="2.5311149"
     inkscape:cx="134.96415"
     inkscape:cy="79.104703"
     inkscape:document-units="px"
     inkscape:current-layer="layer1"
     showgrid="false"
     fit-margin-top="0"
     fit-margin-left="0"
     fit-margin-right="0"
     fit-margin-bottom="0"
     inkscape:window-width="1920"
     inkscape:window-height="1056"
     inkscape:window-x="0"
     inkscape:window-y="24"
     inkscape:window-maximized="1" />
  <metadata
     id="metadata4448">
    <rdf:RDF>
      <cc:Work
         rdf:about="">
        <dc:format>image/svg+xml</dc:format>
        <dc:type
           rdf:resource="http://purl.org/dc/dcmitype/StillImage" />
        <dc:title></dc:title>
      </cc:Work>
    </rdf:RDF>
  </metadata>
  <g
     inkscape:label="Layer 1"
     inkscape:groupmode="layer"
     id="layer1"
     transform="translate(36.253195,-124.57272)">
    <g
       transform="matrix(1.25,0,0,-1.25,-37.173573,475.84301)"
       id="g14">
      <g
         id="g16"
         transform="translate(0,-0.983765)">
        <g
           id="g18">
          <g
             id="g20"
             clip-path="url(#clipPath22)">
            <g
               id="g26">
              <g
                 id="g28"
                 transform="translate(0,282)">
                <path
                   d="m 32.113,-0.219 43.598,0 16.648,-5.258 10.075,-9.418 -10.293,-14.242 -19.719,-5.914 -53.012,0.438 -16.652,10.734 14.68,18.184 14.675,5.476 z"
                   style="fill:none;stroke:#000000;stroke-width:0.43799999;stroke-linecap:round;stroke-linejoin:round;stroke-miterlimit:4;stroke-dasharray:none;stroke-opacity:1"
                   id="path30"
                   inkscape:connector-curvature="0" />
              </g>
              <g
                 id="g32"
                 transform="translate(0,282)">
                <path
                   d="m 10.645,-25.191 10.734,-0.219 m 6.355,1.094 0,-10.297 m -4.82,6.136 -6.355,-4.382 m 8.984,19.933 -6.133,-7.445 m -3.289,-0.879 -6.789,5.516 m 10.953,4.343 -8.105,-0.875 m 14.457,3.504 -9.856,1.973 m 11.828,-1.316 9.641,-1.094 m -1.316,1.969 -3.723,6.574 m 8.543,-4.164 7.887,4.601 m -5.477,-5.258 9.856,-2.847 m 1.535,5.476 9.636,-3.285 m 2.411,3.942 8.109,1.972 m -1.098,-3.066 -7.668,-6.57 m 15.774,-0.219 -1.973,7.883 m 6.356,-4.598 -4.383,-9.422 m -9.86,8.106 7.231,-7.668 m 9.859,3.289 7.008,3.066 m -4.16,-7.449 6.789,4.601 m -12.484,-6.574 5.695,-8.324 m -10.735,3.285 9.418,3.285 m -13.582,-4.379 1.754,-7.449 m -14.679,6.356 9.64,-1.317 m -12.925,-1.531 6.574,-5.481 m -12.27,8.11 -3.722,-8.985 m -4.165,13.364 3.286,-8.762 m -5.914,-1.098 -10.735,1.098 m -4.816,12.266 5.695,-7.664 m 1.531,5.472 8.981,-5.254 m -20.371,9.418 9.859,2.41 m 2.188,1.536 8.324,-6.575 m 1.754,4.383 9.422,3.067 m -7.668,-3.286 9.418,-2.41 m 5.039,7.45 -3.286,-11.833 m 10.735,4.821 10.515,0 m -21.906,-2.192 10.074,-0.437 m -10.953,-4.383 9.641,2.848"
                   style="fill:none;stroke:#000000;stroke-width:0.26300001;stroke-linecap:butt;stroke-linejoin:miter;stroke-miterlimit:4;stroke-dasharray:none;stroke-opacity:1"
                   id="path34"
                   inkscape:connector-curvature="0" />
              </g>
            </g>
          </g>
        </g>
      </g>
    </g>
    <path
       inkscape:connector-curvature="0"
       id="path58"
       style="fill:#ffffff;fill-opacity:1;fill-rule:nonzero;stroke:none"
       d="m 3.2326164,178.85132 54.4912496,0 20.816253,6.57249 12.5925,11.7775 -12.86625,17.7975 -24.648753,7.3925 -66.26375,-0.54625 -20.81125,-13.41875 18.345,-22.72875 18.3450004,-6.84624" />
    <path
       d="m 3.2326164,178.85132 54.4912496,0 20.816253,6.57249 12.5925,11.7775 -12.86625,17.7975 -24.648753,7.3925 -66.26375,-0.54625 -20.81125,-13.41875 18.345,-22.72875 18.3450004,-6.84624 z"
       style="fill:none;stroke:#000000;stroke-width:0.32875001;stroke-linecap:butt;stroke-linejoin:miter;stroke-miterlimit:4;stroke-dasharray:2.19125, 2.19125;stroke-dashoffset:0;stroke-opacity:1"
       id="path62"
       inkscape:connector-curvature="0" />
    <path
       d="m 86.888869,193.36756 3.97,4.1075 -12.87125,17.7975 -24.643753,7.3925 -66.26375,-0.5475 -20.81625,-13.4175 8.21875,-10.18125 3.4225,-4.8775 108.983753,-0.27375"
       style="fill:none;stroke:#000000;stroke-width:0.54750001;stroke-linecap:round;stroke-linejoin:round;stroke-miterlimit:4;stroke-dasharray:none;stroke-opacity:1"
       id="path66"
       inkscape:connector-curvature="0" />
    <path
       d="m -23.877384,210.34506 13.41875,0.27375 m 7.9437504,-1.37125 0,12.87 m -6.025,-7.665 -7.9400004,5.4725 m 11.2262504,-24.91625 -7.6662504,9.31125 m -4.11125,1.09375 -8.48625,-6.895 m 95.428753,-4.8775 -3.69625,5.47375 m -8.491253,-6.29875 5.205,5.7525 m 12.325003,-3.8675 1.50375,-0.47875 m 2.05625,5.7125 8.48625,-5.74625 m -15.60625,8.2125 7.12,10.405 m -13.418753,-4.10625 11.772503,-4.10625 m -16.977503,5.47875 2.1925,9.30625 m -18.345,-7.94 12.04625,1.64125 m -16.1575,1.91875 8.2175,6.84625 m -15.33625,-10.1325 -4.65375,11.22625 m -5.205,-16.705 4.11125,10.9525 m -7.3975,1.3725 -13.4174999,-1.3725 m -6.02624973,-15.3325 7.12499973,9.585 m 1.91375,-6.84499 11.2249999,6.57249 m -25.4637496,-11.7775 12.3249997,-3.0125 m 2.7337499,-1.915 10.405,8.21375 m 2.1925,-5.47375 11.7725,-3.83375 m -9.58,4.1075 11.7725,3.0125 m 5.615,-6.84625 c -4.10625,14.785 -3.4225,12.32 -3.4225,12.32 m 13.41875,-6.02625 13.14375,0 m -27.3825,2.74 12.5925,0.54626 m -13.69125,5.47874 12.05125,-3.56"
       style="fill:none;stroke:#000000;stroke-width:0.32875001;stroke-linecap:butt;stroke-linejoin:miter;stroke-miterlimit:4;stroke-dasharray:none;stroke-opacity:1"
       id="path70"
       inkscape:connector-curvature="0" />
    <path
       inkscape:connector-curvature="0"
       id="path78"
       style="fill:#c0c0c0;fill-opacity:1;fill-rule:nonzero;stroke:none"
       d="m 53.189773,245.05027 c 0,0.5275 -5.025,0.9575 -11.22625,0.9575 -6.20125,0 -11.23,-0.43 -11.23,-0.9575 0,-0.5325 5.02875,-0.96125 11.23,-0.96125 6.20125,0 11.22625,0.42875 11.22625,0.96125" />
    <path
       d="m 53.189773,245.05027 c 0,0.5275 -5.025,0.9575 -11.22625,0.9575 -6.20125,0 -11.23,-0.43 -11.23,-0.9575 0,-0.5325 5.02875,-0.96125 11.23,-0.96125 6.20125,0 11.22625,0.42875 11.22625,0.96125 z"
       style="fill:none;stroke:#000000;stroke-width:0.32875001;stroke-linecap:butt;stroke-linejoin:miter;stroke-miterlimit:4;stroke-dasharray:none;stroke-opacity:1"
       id="path82"
       inkscape:connector-curvature="0" />
    <path
       inkscape:connector-curvature="0"
       id="path84"
       style="fill:#ffffff;fill-opacity:1;fill-rule:nonzero;stroke:none"
       d="m 38.169773,241.35402 -0.3125,6.70874 3.145,-6.23" />
    <path
       d="m -24.442727,239.29902 14.1025,0 -5.20125,8.07625 9.3075,-8.21375 8.08125,0 -8.355,4.10625 13.69625,-3.8325 10.815,5.88875 -6.025,-6.29875 5.88875,0.27375 1.91375,1.23 0,-1.23 17.7975,0 0,10.54125 4.795,-10.54125 15.19625,0.13625 3.28625,1.91875 -0.1375,-2.32875 3.70125,0.27375 -0.55125,3.96875 2.73875,-3.96875 13.4175,0.13625 -2.465,4.10625 6.5725,-4.51625 4.93125,-0.13625 2.1875,3.55875 -15.05875,16.43125 -23.0025,8.48625 -65.445,0.27375 -21.3625,-13.965 9.175,-14.375 z"
       style="fill:none;stroke:#000000;stroke-width:0.54750001;stroke-linecap:round;stroke-linejoin:round;stroke-miterlimit:4;stroke-dasharray:none;stroke-opacity:1"
       id="path88"
       inkscape:connector-curvature="0" />
    <path
       inkscape:connector-curvature="0"
       id="path100"
       style="fill:#c0c0c0;fill-opacity:1;fill-rule:nonzero;stroke:none"
       d="m 53.17868,302.93521 c 0,0.5275 -5.02375,0.95749 -11.225,0.95749 -6.20125,0 -11.23125,-0.42999 -11.23125,-0.95749 0,-0.5325 5.03,-0.9575 11.23125,-0.9575 6.20125,0 11.225,0.425 11.225,0.9575" />
    <path
       d="m 53.17868,302.93521 c 0,0.5275 -5.02375,0.9575 -11.225,0.9575 -6.20125,0 -11.23125,-0.43 -11.23125,-0.9575 0,-0.5325 5.03,-0.9575 11.23125,-0.9575 6.20125,0 11.225,0.425 11.225,0.9575 z"
       style="fill:none;stroke:#000000;stroke-width:0.32875001;stroke-linecap:butt;stroke-linejoin:miter;stroke-miterlimit:4;stroke-dasharray:none;stroke-opacity:1"
       id="path104"
       inkscape:connector-curvature="0" />
    <path
       inkscape:connector-curvature="0"
       id="path106"
       style="fill:#ffffff;fill-opacity:1;fill-rule:nonzero;stroke:none"
       d="m 38.15993,299.23896 -0.3175,6.70875 3.14875,-6.23001" />
    <path
       d="m -24.45257,297.18271 14.10125,0 -5.2,8.07625 9.30625,-8.2125 8.08125,0 -8.355,4.10625 13.6925,-3.8325 10.82,5.88875 -6.025,-6.29875 5.88375,0.2725 1.91875,1.23625 0,-1.23625 17.7975,0 0,10.5425 4.795,-10.5425 15.195,0.1375 3.28625,1.91875 -0.13625,-2.32875 3.69625,0.2725 -0.5475,3.97 2.74,-3.97 13.4175,0.1375 -2.46625,4.10625 6.5725,-4.51625 4.93125,-0.1375 2.1875,3.56 -15.0575,16.43 -23.00375,8.48625 -65.44375,0.27375 -21.3625,-13.965 9.175,-14.375 z"
       style="fill:none;stroke:#000000;stroke-width:0.54750001;stroke-linecap:round;stroke-linejoin:round;stroke-miterlimit:4;stroke-dasharray:none;stroke-opacity:1"
       id="path110"
       inkscape:connector-curvature="0" />
    <path
       inkscape:connector-curvature="0"
       id="path112"
       style="fill:#d9d9d9;fill-opacity:1;fill-rule:nonzero;stroke:none"
       d="m -36.08882,285.06396 131.1625,0 0,10.13125 -131.1625,0 0,-10.13125 z" />
    <g
       transform="matrix(1.25,0,0,-1.25,-36.39132,472.013)"
       id="g114">
      <g
         id="g116"
         transform="translate(0,-0.983765)">
        <g
           id="g118">
          <g
             id="g120"
             clip-path="url(#clipPath122)">
            <g
               id="g126">
              <g
                 id="g128"
                 transform="translate(0,282)">
                <path
                   d="m 0.242,-131.457 104.93,0 0,-8.105 -104.93,0 0,8.105 z"
                   style="fill:none;stroke:#000000;stroke-width:0.26300001;stroke-linecap:butt;stroke-linejoin:miter;stroke-miterlimit:4;stroke-dasharray:none;stroke-opacity:1"
                   id="path130"
                   inkscape:connector-curvature="0" />
              </g>
            </g>
          </g>
        </g>
      </g>
    </g>
    <path
       inkscape:connector-curvature="0"
       id="path152"
       style="fill:#c0c0c0;fill-opacity:1;fill-rule:nonzero;stroke:none"
       d="m 53.67086,359.52317 c 0,0.5325 -5.025,0.9625 -11.22625,0.9625 -6.20125,0 -11.225,-0.43 -11.225,-0.9625 0,-0.52625 5.02375,-0.95625 11.225,-0.95625 6.20125,0 11.22625,0.43 11.22625,0.95625" />
    <path
       d="m 53.67086,359.52318 c 0,0.5325 -5.025,0.9625 -11.22625,0.9625 -6.20125,0 -11.225,-0.43 -11.225,-0.9625 0,-0.52625 5.02375,-0.95625 11.225,-0.95625 6.20125,0 11.22625,0.43 11.22625,0.95625 z"
       style="fill:none;stroke:#000000;stroke-width:0.32875001;stroke-linecap:butt;stroke-linejoin:miter;stroke-miterlimit:4;stroke-dasharray:none;stroke-opacity:1"
       id="path156"
       inkscape:connector-curvature="0" />
    <path
       inkscape:connector-curvature="0"
       id="path158"
       style="fill:#ffffff;fill-opacity:1;fill-rule:nonzero;stroke:none"
       d="m 38.65086,355.82693 -0.3125,6.70999 3.15,-6.23125" />
    <path
       d="m -23.96164,353.77693 14.1075,0 -5.20625,8.07625 9.3125,-8.21875 8.07625,0 -8.35,4.1125 13.69125,-3.83875 10.815,5.88875 -6.025,-6.29875 5.88875,0.27875 1.91875,1.23 0,-1.23 17.7975,0 0,10.54125 4.79125,-10.54125 15.2,0.13125 3.28625,1.91875 -0.1375,-2.32875 3.69625,0.27875 -0.54625,3.97 2.73875,-3.97 13.41375,0.13125 -2.46125,4.11125 6.5725,-4.52125 4.92625,-0.13625 2.1925,3.55875 -15.06375,16.43125 -23.0025,8.49125 -65.445,0.27375 -21.3575,-13.965 9.17,-14.375 z"
       style="fill:none;stroke:#000000;stroke-width:0.54750001;stroke-linecap:round;stroke-linejoin:round;stroke-miterlimit:4;stroke-dasharray:none;stroke-opacity:1"
       id="path162"
       inkscape:connector-curvature="0" />
    <path
       inkscape:connector-curvature="0"
       id="path164"
       style="fill:#d9d9d9;fill-opacity:1;fill-rule:nonzero;stroke:none"
       d="m -34.09289,342.20443 131.1675,0 0,10.13124 -131.1675,0 0,-10.13124 z" />
    <g
       transform="matrix(1.25,0,0,-1.25,-34.25414,470.55472)"
       id="g166">
      <g
         id="g168"
         transform="translate(0,-0.983765)">
        <g
           id="g170">
          <g
             id="g172"
             clip-path="url(#clipPath174)">
            <g
               id="g178">
              <g
                 id="g180"
                 transform="translate(0,282)">
                <path
                   d="m 0.129,-178.336 104.934,0 0,-8.105 -104.934,0 0,8.105 z"
                   style="fill:none;stroke:#000000;stroke-width:0.26300001;stroke-linecap:butt;stroke-linejoin:miter;stroke-miterlimit:4;stroke-dasharray:none;stroke-opacity:1"
                   id="path182"
                   inkscape:connector-curvature="0" />
              </g>
            </g>
          </g>
        </g>
      </g>
    </g>
    <path
       inkscape:connector-curvature="0"
       id="path198"
       style="fill:#d9d9d9;fill-opacity:1;fill-rule:nonzero;stroke:none"
       d="m 84.61836,362.46817 5.2,-8.2125" />
    <path
       d="m 84.61836,362.46818 5.2,-8.2125 m -12.87125,3.55875 -4.10625,12.86625 m -8.76,-8.48625 2.73375,12.325 m -7.11875,-4.65875 -10.13125,7.3975 m 6.57125,-16.1575 -0.54625,-10.405 m -15.61,15.3325 12.32375,-2.46125 m -7.11875,-1.09875 3.0125,-10.9525 m -14.23875,10.1325 -3.28625,-10.9525 m -10.95625,12.5925 3.0125,-12.87125 m 15.06375,15.61125 9.585,7.93875 m 16.425,-10.67875 3.0125,11.23125 m 10.1325,-15.3375 -4.10625,11.49875 m -10.9525,-10.67875 11.49875,-3.28625 m -40.25375,18.89625 c 12.87125,1.64625 12.05125,1.3675 12.05125,1.3675 m -23.00375,-6.02 11.22625,-5.47875 m -26.5575,-0.82 0.27375,-11.50375 m -8.21875,6.57125 9.03875,8.765 m 4.10625,0.82 9.31125,7.945 m -9.31125,-2.73875 -1.64125,7.3925 m -11.23,-14.23875 3.56,13.69125 m -9.58,-20.26375 3.55375,13.41875 m -17.52375,-4.9325 13.69625,2.46625 m -13.97,-6.025 -5.2,7.3925 m 9.30625,-11.7725 5.47875,-9.585 m -7.93875,10.95125 -2.46625,-11.225"
       style="fill:none;stroke:#000000;stroke-width:0.32875001;stroke-linecap:butt;stroke-linejoin:miter;stroke-miterlimit:4;stroke-dasharray:none;stroke-opacity:1"
       id="path202"
       inkscape:connector-curvature="0" />
    <path
       inkscape:connector-curvature="0"
       id="path214"
       style="fill:#c0c0c0;fill-opacity:1;fill-rule:nonzero;stroke:none"
       d="m 53.93943,420.21701 c 0,0.5325 -5.03,0.9625 -11.23125,0.9625 -6.20125,0 -11.225,-0.43 -11.225,-0.9625 0,-0.5275 5.02375,-0.95625 11.225,-0.95625 6.20125,0 11.23125,0.42875 11.23125,0.95625" />
    <path
       d="m 53.93943,420.21702 c 0,0.5325 -5.03,0.9625 -11.23125,0.9625 -6.20125,0 -11.225,-0.43 -11.225,-0.9625 0,-0.5275 5.02375,-0.95625 11.225,-0.95625 6.20125,0 11.23125,0.42875 11.23125,0.95625 z"
       style="fill:none;stroke:#000000;stroke-width:0.32875001;stroke-linecap:butt;stroke-linejoin:miter;stroke-miterlimit:4;stroke-dasharray:none;stroke-opacity:1"
       id="path218"
       inkscape:connector-curvature="0" />
    <path
       inkscape:connector-curvature="0"
       id="path220"
       style="fill:#ffffff;fill-opacity:1;fill-rule:nonzero;stroke:none"
       d="m 38.91943,416.52076 -0.3175,6.70875 3.15,-6.225" />
    <path
       d="m -23.69307,414.47077 14.10125,0 -5.205,8.075 9.3125,-8.2125 8.075,0 -8.34875,4.10625 13.69125,-3.8325 10.815,5.88875 -6.025,-6.29875 5.88875,0.27375 1.91875,1.23 0,-1.23 17.7975,0 0,10.54125 4.79,-10.54125 15.20125,0.13625 3.285,1.91375 -0.13625,-2.32375 3.69625,0.27375 -0.54625,3.96875 2.73875,-3.96875 13.4175,0.13625 -2.465,4.10625 6.5725,-4.51625 4.92625,-0.1375 2.1925,3.56 -15.05875,16.43125 -23.0025,8.48625 -65.45,0.2725 -21.3575,-13.96375 9.175,-14.375 z"
       style="fill:none;stroke:#000000;stroke-width:0.54750001;stroke-linecap:round;stroke-linejoin:round;stroke-miterlimit:4;stroke-dasharray:none;stroke-opacity:1"
       id="path224"
       inkscape:connector-curvature="0" />
    <path
       inkscape:connector-curvature="0"
       id="path226"
       style="fill:#d9d9d9;fill-opacity:1;fill-rule:nonzero;stroke:none"
       d="m -34.23932,399.88951 130.34625,0.27375 0.27375,10.67875 -3.4725,0.0875 -0.36125,-2.00625 -3.55875,2.1925 -32.03625,0.0875 -1.3725,-1.7325 -1.27875,1.7325 -4.4725,-0.0875 -1.09375,-3.56 -1.92,3.56 -13.96375,0 -3.01375,-4.38 -1.09375,4.56 -3.0125,0.0937 -1.91375,-2.46625 -2.46625,2.46625 -12.87125,0.2725 -1.64,-2.465 -1.3725,2.1925 -15.87875,0 -1.3725,-3.28625 -2.09875,3.1 -6.11375,-0.0875 -2.73875,-3.28625 -2.92,3.37375 -8.58375,-0.0875 0,-11.22625" />
    <g
       transform="matrix(1.25,0,0,-1.25,-34.67432,474.56855)"
       id="g228">
      <g
         id="g230"
         transform="translate(0,-0.983765)">
        <g
           id="g232">
          <g
             id="g234"
             clip-path="url(#clipPath236)">
            <g
               id="g240">
              <g
                 id="g242"
                 transform="translate(0,282)">
                <path
                   d="m 0.348,-221.273 104.277,-0.219 0.219,-8.543 -2.778,-0.07 -0.289,1.605 -2.847,-1.754 -25.629,-0.07 -1.098,1.386 -1.023,-1.386 -3.578,0.07 -0.875,2.848 -1.536,-2.848 -11.171,0 -2.411,3.504 -0.875,-3.648 -2.41,-0.075 -1.531,1.973 -1.973,-1.973 -10.297,-0.218 -1.312,1.972 -1.098,-1.754 -12.703,0 -1.098,2.629 -1.679,-2.48 -4.891,0.07 -2.191,2.629 -2.336,-2.699 -6.867,0.07 0,8.981 z"
                   style="fill:none;stroke:#000000;stroke-width:0.26300001;stroke-linecap:butt;stroke-linejoin:miter;stroke-miterlimit:4;stroke-dasharray:none;stroke-opacity:1"
                   id="path244"
                   inkscape:connector-curvature="0" />
              </g>
            </g>
          </g>
        </g>
      </g>
    </g>
    <path
       d="m 147.18521,268.52071 c 5.88875,0.13625 6.025,0.13625 6.025,0.13625 l -0.82,8.07625 3.28625,-1.09375 -5.3375,8.07625 -5.7525,-7.66625 3.83375,0.68375 -1.235,-8.2125"
       style="fill:#ffffff;fill-opacity:1;fill-rule:nonzero;stroke:#000000;stroke-width:0.54750001;stroke-linecap:round;stroke-linejoin:round;stroke-miterlimit:4;stroke-dasharray:none;stroke-opacity:1"
       id="path268"
       inkscape:connector-curvature="0" />
    <path
       d="m 147.18521,169.1257 c 5.88875,0.13751 6.025,0.13751 6.025,0.13751 l -0.82,8.07499 3.28625,-1.09375 -5.3375,8.07626 -5.7525,-7.66501 3.83375,0.6825 -1.235,-8.2125"
       style="fill:#ffffff;fill-opacity:1;fill-rule:nonzero;stroke:#000000;stroke-width:0.54750001;stroke-linecap:round;stroke-linejoin:round;stroke-miterlimit:4;stroke-dasharray:none;stroke-opacity:1"
       id="path272"
       inkscape:connector-curvature="0" />
    <path
       d="m 147.18521,218.82321 c 5.88875,0.13625 6.025,0.13625 6.025,0.13625 l -0.82,8.07624 3.28625,-1.09375 -5.3375,8.07626 -5.7525,-7.66625 3.83375,0.68375 -1.235,-8.2125"
       style="fill:#ffffff;fill-opacity:1;fill-rule:nonzero;stroke:#000000;stroke-width:0.54750001;stroke-linecap:round;stroke-linejoin:round;stroke-miterlimit:4;stroke-dasharray:none;stroke-opacity:1"
       id="path276"
       inkscape:connector-curvature="0" />
    <path
       d="m 147.18521,318.21821 c 5.88875,0.13625 6.025,0.13625 6.025,0.13625 l -0.82,8.08125 3.28625,-1.09875 -5.3375,8.08125 -5.7525,-7.67125 3.83375,0.68875 -1.235,-8.2175"
       style="fill:#ffffff;fill-opacity:1;fill-rule:nonzero;stroke:#000000;stroke-width:0.54750001;stroke-linecap:round;stroke-linejoin:round;stroke-miterlimit:4;stroke-dasharray:none;stroke-opacity:1"
       id="path280"
       inkscape:connector-curvature="0" />
    <path
       d="m 147.18521,389.82446 c 5.88875,0.13125 6.025,0.13125 6.025,0.13125 l -0.82,8.08125 3.28625,-1.09875 -5.3375,8.08125 -5.7525,-7.66625 3.83375,0.68375 -1.235,-8.2125"
       style="fill:#ffffff;fill-opacity:1;fill-rule:nonzero;stroke:#000000;stroke-width:0.54750001;stroke-linecap:round;stroke-linejoin:round;stroke-miterlimit:4;stroke-dasharray:none;stroke-opacity:1"
       id="path284"
       inkscape:connector-curvature="0" />
    <text
       y="348.28195"
       x="119.08302"
       style="font-variant:normal;font-weight:normal;font-size:8.76262474px;font-family:TeXGyreHeros;-inkscape-font-specification:TeXGyreHeros-Regular;writing-mode:lr-tb;fill:#000000;fill-opacity:1;fill-rule:nonzero;stroke:none"
       id="text5911">
      <tspan
         style="font-style:normal;font-variant:normal;font-weight:normal;font-stretch:normal;font-family:sans-serif;-inkscape-font-specification:sans-serif"
         x="119.08302"
         y="348.28195"
         sodipodi:role="line"
         id="tspan5915" />
      <tspan
         style="font-style:normal;font-variant:normal;font-weight:normal;font-stretch:normal;font-family:sans-serif;-inkscape-font-specification:sans-serif"
         x="119.08302"
         y="359.23523"
         sodipodi:role="line"
         id="tspan5919" />
    </text>
    <flowRoot
       xml:space="preserve"
       id="flowRoot5965"
       style="font-style:normal;font-weight:normal;font-size:8.75px;line-height:125%;font-family:sans-serif;letter-spacing:0px;word-spacing:0px;fill:#000000;fill-opacity:1;stroke:none;stroke-width:1px;stroke-linecap:butt;stroke-linejoin:miter;stroke-opacity:1"
       transform="translate(-127.99981,124.57272)"><flowRegion
         id="flowRegion5967"><rect
           id="rect5969"
           width="84.547745"
           height="40.298447"
           x="248.11201"
           y="3.0617931"
           style="font-size:8.75px" /></flowRegion><flowPara
         id="flowPara5971">accumulation of spontaneous fission tracks</flowPara></flowRoot>    <flowRoot
       transform="translate(-127.99981,184.57272)"
       style="font-style:normal;font-weight:normal;font-size:8.75px;line-height:125%;font-family:sans-serif;letter-spacing:0px;word-spacing:0px;fill:#000000;fill-opacity:1;stroke:none;stroke-width:1px;stroke-linecap:butt;stroke-linejoin:miter;stroke-opacity:1"
       id="flowRoot5973"
       xml:space="preserve"><flowRegion
         id="flowRegion5975"><rect
           style="font-size:8.75px"
           y="3.0617931"
           x="248.11201"
           height="40.298447"
           width="84.547745"
           id="rect5977" /></flowRegion><flowPara
         id="flowPara5979">polished section through crystal</flowPara></flowRoot>    <flowRoot
       xml:space="preserve"
       id="flowRoot5981"
       style="font-style:normal;font-weight:normal;font-size:8.75px;line-height:125%;font-family:sans-serif;letter-spacing:0px;word-spacing:0px;fill:#000000;fill-opacity:1;stroke:none;stroke-width:1px;stroke-linecap:butt;stroke-linejoin:miter;stroke-opacity:1"
       transform="translate(-127.99981,286.57272)"><flowRegion
         id="flowRegion5983"><rect
           id="rect5985"
           width="84.547745"
           height="40.298447"
           x="248.11201"
           y="3.0617931"
           style="font-size:8.75px" /></flowRegion><flowPara
         id="flowPara5987">external mica detector attached</flowPara></flowRoot>    <flowRoot
       transform="translate(-129.99981,332.57272)"
       style="font-style:normal;font-weight:normal;font-size:8.75px;line-height:125%;font-family:sans-serif;letter-spacing:0px;word-spacing:0px;fill:#000000;fill-opacity:1;stroke:none;stroke-width:1px;stroke-linecap:butt;stroke-linejoin:miter;stroke-opacity:1"
       id="flowRoot5989"
       xml:space="preserve"><flowRegion
         id="flowRegion5991"><rect
           style="font-size:8.75px"
           y="3.0617931"
           x="248.11201"
           height="57.682095"
           width="96.005157"
           id="rect5993" /></flowRegion><flowPara
         id="flowPara5995">irradiation by thermal neutrons: induced fission tracks registered in detector</flowPara></flowRoot>    <flowRoot
       xml:space="preserve"
       id="flowRoot5997"
       style="font-style:normal;font-weight:normal;font-size:8.75px;line-height:125%;font-family:sans-serif;letter-spacing:0px;word-spacing:0px;fill:#000000;fill-opacity:1;stroke:none;stroke-width:1px;stroke-linecap:butt;stroke-linejoin:miter;stroke-opacity:1"
       transform="translate(-129.99981,408.57272)"><flowRegion
         id="flowRegion5999"><rect
           id="rect6001"
           width="110.22816"
           height="36.742706"
           x="248.11201"
           y="3.0617931"
           style="font-size:8.75px" /></flowRegion><flowPara
         id="flowPara6003">induced tracks etched only in detector</flowPara></flowRoot>    <flowRoot
       xml:space="preserve"
       id="flowRoot6005"
       style="font-style:normal;font-weight:normal;font-size:8.75px;line-height:125%;font-family:sans-serif;letter-spacing:0px;word-spacing:0px;fill:#000000;fill-opacity:1;stroke:none;stroke-width:1px;stroke-linecap:butt;stroke-linejoin:miter;stroke-opacity:1"
       transform="translate(-127.99981,234.57272)"><flowRegion
         id="flowRegion6007"><rect
           id="rect6009"
           width="84.547745"
           height="40.298447"
           x="248.11201"
           y="3.0617931"
           style="font-size:8.75px" /></flowRegion><flowPara
         id="flowPara6011">spontaneous tracks etched</flowPara></flowRoot>    <text
       xml:space="preserve"
       style="font-style:normal;font-weight:normal;font-size:40px;line-height:125%;font-family:sans-serif;letter-spacing:0px;word-spacing:0px;fill:#000000;fill-opacity:1;stroke:none;stroke-width:1px;stroke-linecap:butt;stroke-linejoin:miter;stroke-opacity:1"
       x="-23.264633"
       y="257.02386"
       id="text6013"
       sodipodi:linespacing="125%"><tspan
         sodipodi:role="line"
         id="tspan6015"
         x="-23.264633"
         y="257.02386"
         style="font-size:8.75px">surface</tspan></text>
    <text
       sodipodi:linespacing="125%"
       id="text6017"
       y="257.02386"
       x="24.735367"
       style="font-style:normal;font-weight:normal;font-size:40px;line-height:125%;font-family:sans-serif;letter-spacing:0px;word-spacing:0px;fill:#000000;fill-opacity:1;stroke:none;stroke-width:1px;stroke-linecap:butt;stroke-linejoin:miter;stroke-opacity:1"
       xml:space="preserve"><tspan
         style="font-size:8.75px"
         y="257.02386"
         x="24.735367"
         id="tspan6019"
         sodipodi:role="line">confined</tspan></text>
    <path
       d="m -33.91552,450.72919 68.18375,0 0,2.1875 -68.18375,0 0,-2.1875 z"
       style="fill:none;stroke:#000000;stroke-width:0.32875001;stroke-linecap:butt;stroke-linejoin:miter;stroke-miterlimit:4;stroke-dasharray:none;stroke-opacity:1"
       id="path288"
       inkscape:connector-curvature="0" />
    <path
       d="m 0.17073,450.72919 34.09125,0 0,2.1875 -34.09125,0 0,-2.1875 z"
       style="fill:#000000;fill-opacity:1;fill-rule:nonzero;stroke:#000000;stroke-width:0.32875001;stroke-linecap:butt;stroke-linejoin:miter;stroke-miterlimit:4;stroke-dasharray:none;stroke-opacity:1"
       id="path292"
       inkscape:connector-curvature="0" />
    <text
       id="text294"
       style="font-variant:normal;font-weight:normal;font-size:8.76262474px;font-family:TeXGyreHeros;-inkscape-font-specification:TeXGyreHeros-Regular;writing-mode:lr-tb;fill:#000000;fill-opacity:1;fill-rule:nonzero;stroke:none"
       x="25.930099"
       y="463.74142">
      <tspan
         id="tspan296"
         sodipodi:role="line"
         y="463.74142"
         x="25.930099"
         style="font-style:normal;font-variant:normal;font-weight:normal;font-stretch:normal;font-family:sans-serif;-inkscape-font-specification:sans-serif">100 $\mu$m</tspan>
    </text>
    <text
       y="463.74142"
       x="-36.069901"
       style="font-variant:normal;font-weight:normal;font-size:8.76262474px;font-family:TeXGyreHeros;-inkscape-font-specification:TeXGyreHeros-Regular;writing-mode:lr-tb;fill:#000000;fill-opacity:1;fill-rule:nonzero;stroke:none"
       id="text6045">
      <tspan
         style="font-style:normal;font-variant:normal;font-weight:normal;font-stretch:normal;font-family:sans-serif;-inkscape-font-specification:sans-serif"
         x="-36.069901"
         y="463.74142"
         sodipodi:role="line"
         id="tspan6047">0</tspan>
    </text>
  </g>
</svg>
