<?xml version="1.0" encoding="UTF-8" standalone="no"?>
<!-- Created with Inkscape (http://www.inkscape.org/) -->

<svg
   xmlns:dc="http://purl.org/dc/elements/1.1/"
   xmlns:cc="http://creativecommons.org/ns#"
   xmlns:rdf="http://www.w3.org/1999/02/22-rdf-syntax-ns#"
   xmlns:svg="http://www.w3.org/2000/svg"
   xmlns="http://www.w3.org/2000/svg"
   xmlns:sodipodi="http://sodipodi.sourceforge.net/DTD/sodipodi-0.dtd"
   xmlns:inkscape="http://www.inkscape.org/namespaces/inkscape"
   id="svg4544"
   version="1.1"
   inkscape:version="0.91 r13725"
   width="713.96674"
   height="561.32239"
   xml:space="preserve"
   sodipodi:docname="NeBe.svg"><metadata
     id="metadata4550"><rdf:RDF><cc:Work
         rdf:about=""><dc:format>image/svg+xml</dc:format><dc:type
           rdf:resource="http://purl.org/dc/dcmitype/StillImage" /><dc:title></dc:title></cc:Work></rdf:RDF></metadata><defs
     id="defs4548"><clipPath
       clipPathUnits="userSpaceOnUse"
       id="clipPath4570"><path
         d="m 76.56,108 675.24,0 0,422.4 -675.24,0 0,-422.4 z"
         id="path4572"
         inkscape:connector-curvature="0"
         style="clip-rule:evenodd" /></clipPath><clipPath
       clipPathUnits="userSpaceOnUse"
       id="clipPath4580"><path
         d="m 76.56,108 675.24,0 0,422.4 -675.24,0 0,-422.4 z"
         id="path4582"
         inkscape:connector-curvature="0"
         style="clip-rule:evenodd" /></clipPath><clipPath
       clipPathUnits="userSpaceOnUse"
       id="clipPath4590"><path
         d="m 76.56,108 675.24,0 0,422.4 -675.24,0 0,-422.4 z"
         id="path4592"
         inkscape:connector-curvature="0"
         style="clip-rule:evenodd" /></clipPath><clipPath
       clipPathUnits="userSpaceOnUse"
       id="clipPath4606"><path
         d="m 76.56,108 676.08,0 0,422.4 -676.08,0 0,-422.4 z"
         id="path4608"
         inkscape:connector-curvature="0"
         style="clip-rule:evenodd" /></clipPath><clipPath
       clipPathUnits="userSpaceOnUse"
       id="clipPath4618"><path
         d="m 76.56,108 676.08,0 0,422.4 -676.08,0 0,-422.4 z"
         id="path4620"
         inkscape:connector-curvature="0"
         style="clip-rule:evenodd" /></clipPath><clipPath
       clipPathUnits="userSpaceOnUse"
       id="clipPath4630"><path
         d="m 76.56,108 676.08,0 0,422.4 -676.08,0 0,-422.4 z"
         id="path4632"
         inkscape:connector-curvature="0"
         style="clip-rule:evenodd" /></clipPath><clipPath
       clipPathUnits="userSpaceOnUse"
       id="clipPath4642"><path
         d="m 76.56,108 676.08,0 0,422.4 -676.08,0 0,-422.4 z"
         id="path4644"
         inkscape:connector-curvature="0"
         style="clip-rule:evenodd" /></clipPath><clipPath
       clipPathUnits="userSpaceOnUse"
       id="clipPath4654"><path
         d="m 76.56,108 676.08,0 0,422.4 -676.08,0 0,-422.4 z"
         id="path4656"
         inkscape:connector-curvature="0"
         style="clip-rule:evenodd" /></clipPath><clipPath
       clipPathUnits="userSpaceOnUse"
       id="clipPath4664"><path
         d="m 76.56,108 676.08,0 0,422.4 -676.08,0 0,-422.4 z"
         id="path4666"
         inkscape:connector-curvature="0"
         style="clip-rule:evenodd" /></clipPath><clipPath
       clipPathUnits="userSpaceOnUse"
       id="clipPath4674"><path
         d="m 76.56,108 676.08,0 0,422.4 -676.08,0 0,-422.4 z"
         id="path4676"
         inkscape:connector-curvature="0"
         style="clip-rule:evenodd" /></clipPath><clipPath
       clipPathUnits="userSpaceOnUse"
       id="clipPath4686"><path
         d="m 76.56,108 676.08,0 0,422.4 -676.08,0 0,-422.4 z"
         id="path4688"
         inkscape:connector-curvature="0"
         style="clip-rule:evenodd" /></clipPath><clipPath
       clipPathUnits="userSpaceOnUse"
       id="clipPath4696"><path
         d="m 76.56,108 676.08,0 0,422.4 -676.08,0 0,-422.4 z"
         id="path4698"
         inkscape:connector-curvature="0"
         style="clip-rule:evenodd" /></clipPath><clipPath
       clipPathUnits="userSpaceOnUse"
       id="clipPath4708"><path
         d="m 76.56,108 676.08,0 0,422.4 -676.08,0 0,-422.4 z"
         id="path4710"
         inkscape:connector-curvature="0"
         style="clip-rule:evenodd" /></clipPath><clipPath
       clipPathUnits="userSpaceOnUse"
       id="clipPath4722"><path
         d="m 76.56,108 676.08,0 0,422.4 -676.08,0 0,-422.4 z"
         id="path4724"
         inkscape:connector-curvature="0"
         style="clip-rule:evenodd" /></clipPath><clipPath
       clipPathUnits="userSpaceOnUse"
       id="clipPath4736"><path
         d="m 76.56,108 676.08,0 0,422.4 -676.08,0 0,-422.4 z"
         id="path4738"
         inkscape:connector-curvature="0"
         style="clip-rule:evenodd" /></clipPath><clipPath
       clipPathUnits="userSpaceOnUse"
       id="clipPath4750"><path
         d="m 76.56,108 676.08,0 0,422.4 -676.08,0 0,-422.4 z"
         id="path4752"
         inkscape:connector-curvature="0"
         style="clip-rule:evenodd" /></clipPath><clipPath
       clipPathUnits="userSpaceOnUse"
       id="clipPath4764"><path
         d="m 76.56,108 676.08,0 0,422.4 -676.08,0 0,-422.4 z"
         id="path4766"
         inkscape:connector-curvature="0"
         style="clip-rule:evenodd" /></clipPath><clipPath
       clipPathUnits="userSpaceOnUse"
       id="clipPath4774"><path
         d="m 76.56,108 676.08,0 0,422.4 -676.08,0 0,-422.4 z"
         id="path4776"
         inkscape:connector-curvature="0"
         style="clip-rule:evenodd" /></clipPath><clipPath
       clipPathUnits="userSpaceOnUse"
       id="clipPath4784"><path
         d="m 76.56,108 676.08,0 0,422.4 -676.08,0 0,-422.4 z"
         id="path4786"
         inkscape:connector-curvature="0"
         style="clip-rule:evenodd" /></clipPath><clipPath
       clipPathUnits="userSpaceOnUse"
       id="clipPath4794"><path
         d="m 76.56,108 676.08,0 0,422.4 -676.08,0 0,-422.4 z"
         id="path4796"
         inkscape:connector-curvature="0"
         style="clip-rule:evenodd" /></clipPath><clipPath
       clipPathUnits="userSpaceOnUse"
       id="clipPath4804"><path
         d="m 76.56,108 676.08,0 0,422.4 -676.08,0 0,-422.4 z"
         id="path4806"
         inkscape:connector-curvature="0"
         style="clip-rule:evenodd" /></clipPath><clipPath
       clipPathUnits="userSpaceOnUse"
       id="clipPath4814"><path
         d="m 50.4,62.52 732.72,0 0,478.8 -732.72,0 0,-478.8 z"
         id="path4816"
         inkscape:connector-curvature="0"
         style="clip-rule:evenodd" /></clipPath><clipPath
       clipPathUnits="userSpaceOnUse"
       id="clipPath4826"><path
         d="m 50.4,62.52 732.72,0 0,478.8 -732.72,0 0,-478.8 z"
         id="path4828"
         inkscape:connector-curvature="0"
         style="clip-rule:evenodd" /></clipPath><clipPath
       clipPathUnits="userSpaceOnUse"
       id="clipPath4838"><path
         d="m 50.4,62.52 732.72,0 0,478.8 -732.72,0 0,-478.8 z"
         id="path4840"
         inkscape:connector-curvature="0"
         style="clip-rule:evenodd" /></clipPath><clipPath
       clipPathUnits="userSpaceOnUse"
       id="clipPath4850"><path
         d="m 50.4,62.52 732.72,0 0,478.8 -732.72,0 0,-478.8 z"
         id="path4852"
         inkscape:connector-curvature="0"
         style="clip-rule:evenodd" /></clipPath><clipPath
       clipPathUnits="userSpaceOnUse"
       id="clipPath4862"><path
         d="m 50.4,62.52 732.72,0 0,478.8 -732.72,0 0,-478.8 z"
         id="path4864"
         inkscape:connector-curvature="0"
         style="clip-rule:evenodd" /></clipPath><clipPath
       clipPathUnits="userSpaceOnUse"
       id="clipPath4874"><path
         d="m 50.4,62.52 732.72,0 0,478.8 -732.72,0 0,-478.8 z"
         id="path4876"
         inkscape:connector-curvature="0"
         style="clip-rule:evenodd" /></clipPath><clipPath
       clipPathUnits="userSpaceOnUse"
       id="clipPath4886"><path
         d="m 50.4,62.52 732.72,0 0,478.8 -732.72,0 0,-478.8 z"
         id="path4888"
         inkscape:connector-curvature="0"
         style="clip-rule:evenodd" /></clipPath><clipPath
       clipPathUnits="userSpaceOnUse"
       id="clipPath4898"><path
         d="m 50.4,62.52 732.72,0 0,478.8 -732.72,0 0,-478.8 z"
         id="path4900"
         inkscape:connector-curvature="0"
         style="clip-rule:evenodd" /></clipPath><clipPath
       clipPathUnits="userSpaceOnUse"
       id="clipPath4910"><path
         d="m 50.4,62.52 732.72,0 0,478.8 -732.72,0 0,-478.8 z"
         id="path4912"
         inkscape:connector-curvature="0"
         style="clip-rule:evenodd" /></clipPath><clipPath
       clipPathUnits="userSpaceOnUse"
       id="clipPath4922"><path
         d="m 50.4,62.52 732.72,0 0,478.8 -732.72,0 0,-478.8 z"
         id="path4924"
         inkscape:connector-curvature="0"
         style="clip-rule:evenodd" /></clipPath><clipPath
       clipPathUnits="userSpaceOnUse"
       id="clipPath4934"><path
         d="m 50.4,62.52 732.72,0 0,478.8 -732.72,0 0,-478.8 z"
         id="path4936"
         inkscape:connector-curvature="0"
         style="clip-rule:evenodd" /></clipPath><clipPath
       clipPathUnits="userSpaceOnUse"
       id="clipPath4946"><path
         d="m 50.4,62.52 732.72,0 0,478.8 -732.72,0 0,-478.8 z"
         id="path4948"
         inkscape:connector-curvature="0"
         style="clip-rule:evenodd" /></clipPath><clipPath
       clipPathUnits="userSpaceOnUse"
       id="clipPath4958"><path
         d="m 50.4,62.52 732.72,0 0,478.8 -732.72,0 0,-478.8 z"
         id="path4960"
         inkscape:connector-curvature="0"
         style="clip-rule:evenodd" /></clipPath><clipPath
       clipPathUnits="userSpaceOnUse"
       id="clipPath4970"><path
         d="m 50.4,62.52 732.72,0 0,478.8 -732.72,0 0,-478.8 z"
         id="path4972"
         inkscape:connector-curvature="0"
         style="clip-rule:evenodd" /></clipPath><clipPath
       clipPathUnits="userSpaceOnUse"
       id="clipPath4982"><path
         d="m 50.4,62.52 732.72,0 0,478.8 -732.72,0 0,-478.8 z"
         id="path4984"
         inkscape:connector-curvature="0"
         style="clip-rule:evenodd" /></clipPath><clipPath
       clipPathUnits="userSpaceOnUse"
       id="clipPath4994"><path
         d="m 50.4,62.52 732.72,0 0,478.8 -732.72,0 0,-478.8 z"
         id="path4996"
         inkscape:connector-curvature="0"
         style="clip-rule:evenodd" /></clipPath><clipPath
       clipPathUnits="userSpaceOnUse"
       id="clipPath5006"><path
         d="m 50.4,62.52 732.72,0 0,478.8 -732.72,0 0,-478.8 z"
         id="path5008"
         inkscape:connector-curvature="0"
         style="clip-rule:evenodd" /></clipPath><clipPath
       clipPathUnits="userSpaceOnUse"
       id="clipPath5018"><path
         d="m 50.4,62.52 732.72,0 0,478.8 -732.72,0 0,-478.8 z"
         id="path5020"
         inkscape:connector-curvature="0"
         style="clip-rule:evenodd" /></clipPath><clipPath
       clipPathUnits="userSpaceOnUse"
       id="clipPath5030"><path
         d="m 50.4,62.52 732.72,0 0,478.8 -732.72,0 0,-478.8 z"
         id="path5032"
         inkscape:connector-curvature="0"
         style="clip-rule:evenodd" /></clipPath></defs><sodipodi:namedview
     pagecolor="#ffffff"
     bordercolor="#666666"
     borderopacity="1"
     objecttolerance="10"
     gridtolerance="10"
     guidetolerance="10"
     inkscape:pageopacity="0"
     inkscape:pageshadow="2"
     inkscape:window-width="1920"
     inkscape:window-height="1056"
     id="namedview4546"
     showgrid="false"
     fit-margin-top="0"
     fit-margin-left="0"
     fit-margin-right="0"
     fit-margin-bottom="0"
     inkscape:zoom="1.1860652"
     inkscape:cx="291.84961"
     inkscape:cy="180.08827"
     inkscape:window-x="0"
     inkscape:window-y="24"
     inkscape:window-maximized="1"
     inkscape:current-layer="g4552" /><g
     id="g4552"
     inkscape:groupmode="layer"
     inkscape:label="banana2"
     transform="matrix(1.25,0,0,-1.25,-233.88489,664.95917)"><path
       d="m 214.205,108.68 537.71,0 0,421.64 -537.71,0 z"
       style="fill:#ffffff;fill-opacity:1;fill-rule:evenodd;stroke:none"
       id="path4556"
       inkscape:connector-curvature="0"
       sodipodi:nodetypes="ccccc" /><path
       d="m 214.205,108.68 537.71,0 0,421.64 -537.71,0 z"
       style="fill:none;stroke:#000000;stroke-width:1;stroke-linecap:butt;stroke-linejoin:round;stroke-miterlimit:10;stroke-dasharray:none;stroke-opacity:1"
       id="path4558"
       inkscape:connector-curvature="0"
       sodipodi:nodetypes="ccccc" /><path
       d="m 214.205,108.68 0,421.64"
       style="fill:none;stroke:#898989;stroke-width:0.5;stroke-linecap:butt;stroke-linejoin:round;stroke-miterlimit:10;stroke-dasharray:none;stroke-opacity:1"
       id="path4560"
       inkscape:connector-curvature="0" /><path
       d="m 214.205,108.68 537.715,0"
       style="fill:none;stroke:#898989;stroke-width:0.5;stroke-linecap:butt;stroke-linejoin:round;stroke-miterlimit:10;stroke-dasharray:none;stroke-opacity:1"
       id="path4562"
       inkscape:connector-curvature="0"
       sodipodi:nodetypes="cc" /><path
       d="m 291.24,108.68 0,-3.18 m 214.68,3.18 0,-3.18 m 214.63,3.18 0,-3.18"
       style="fill:none;stroke:#898989;stroke-width:0.5;stroke-linecap:butt;stroke-linejoin:round;stroke-miterlimit:10;stroke-dasharray:none;stroke-opacity:1"
       id="path4564"
       inkscape:connector-curvature="0"
       sodipodi:nodetypes="cccccc" /><path
       d="m 214.205,210.17 8.885,0"
       style="fill:none;stroke:#000000;stroke-width:1;stroke-linecap:butt;stroke-linejoin:round;stroke-miterlimit:10;stroke-dasharray:none;stroke-opacity:1"
       id="path4574"
       inkscape:connector-curvature="0" /><path
       d="m 214.205,348.19 8.885,0"
       style="fill:none;stroke:#000000;stroke-width:1;stroke-linecap:butt;stroke-linejoin:round;stroke-miterlimit:10;stroke-dasharray:none;stroke-opacity:1"
       id="path4584"
       inkscape:connector-curvature="0" /><path
       d="m 214.205,486 8.885,0"
       style="fill:none;stroke:#000000;stroke-width:1;stroke-linecap:butt;stroke-linejoin:round;stroke-miterlimit:10;stroke-dasharray:none;stroke-opacity:1"
       id="path4594"
       inkscape:connector-curvature="0" /><g
       id="g4602"><g
         id="g4604"
         clip-path="url(#clipPath4606)"><path
           d="m 365.89,206.4 c -1.65,3.51 -3.12,6.66 -4.94,10.54 -1.82,3.87 -3.77,8.02 -5.97,12.72 -2.2,4.71 -4.58,9.81 -7.24,15.51 -2.66,5.71 -5.51,11.8 -8.74,18.7 -3.23,6.89 -6.72,14.32 -10.63,22.67 -3.92,8.35 -8.13,17.33 -12.87,27.44 -4.75,10.11 -9.87,20.95 -15.62,33.21 -5.74,12.26 -11.9,25.52 -18.85,40.37 -6.96,14.85 -14.44,30.76 -22.88,48.72 -8.43,17.97 -17.51,37.26 -27.73,59.06 0,0 0.87469,-1.70513 -15.81497,34.83761"
           style="fill:none;stroke:#dd0806;stroke-width:1;stroke-linecap:round;stroke-linejoin:round;stroke-miterlimit:10;stroke-dasharray:none;stroke-opacity:1"
           id="path4610"
           inkscape:connector-curvature="0"
           sodipodi:nodetypes="cccccccccccc" /></g></g><path
       d="m 389.21,156.68 c 0,0 0,0 0,0 0,0 0,0 0,0 0,0 0,0 0,0 0,0 0,0 0,0 0,0 -0.03,-0.02 -0.03,0 -0.01,0.03 0.01,0.17 0,0.2 0,0.01 -0.05,-0.03 -0.07,0 -0.03,0.04 -0.1,0.19 -0.19,0.4 -0.11,0.24 -0.27,0.7 -0.59,1.39 -0.28,0.61 -0.88,1.78 -1.73,3.58 -0.87,1.85 -2.59,5.57 -5.2,11.14 -3.45,7.35 -10.34,22 -15.51,33.01"
       style="fill:none;stroke:#dd0806;stroke-width:1;stroke-linecap:round;stroke-linejoin:round;stroke-miterlimit:10;stroke-dasharray:none;stroke-opacity:1"
       id="path4612"
       inkscape:connector-curvature="0" /><path
       d="m 498.17,244.38 c -1.64,3.51 -3.11,6.66 -4.93,10.54 -1.82,3.88 -3.77,8.05 -5.97,12.73 -2.21,4.67 -4.58,9.64 -7.25,15.31 -2.66,5.67 -5.53,11.8 -8.76,18.69 -3.23,6.9 -6.7,14.32 -10.61,22.67 -3.92,8.35 -8.14,17.3 -12.88,27.45 -4.74,10.14 -9.84,21.14 -15.58,33.4 -5.75,12.27 -11.93,25.33 -18.9,40.18 -6.96,14.84 -14.45,30.92 -22.88,48.92 -7.9248,16.91189 -16.41519,34.97263 -25.88656,55.17084"
       style="fill:none;stroke:#dd0806;stroke-width:1;stroke-linecap:round;stroke-linejoin:round;stroke-miterlimit:10;stroke-dasharray:none;stroke-opacity:1"
       id="path4622"
       inkscape:connector-curvature="0"
       sodipodi:nodetypes="csccccccccc" /><path
       d="m 521.49,194.66 c 0,0 0,0 0,0 0,0 0,0 0,0 0,0 0,0 0,0 0,0 0,0 0,0 0,0 0,0 0,0 -0.01,0 -0.07,-0.03 -0.08,0 -0.01,0.03 0.04,0.11 0,0.2 -0.03,0.08 -0.13,0.19 -0.24,0.4 -0.09,0.19 -0.27,0.6 -0.55,1.19 -0.3,0.63 -0.89,1.89 -1.77,3.78 -0.87,1.88 -2.57,5.58 -5.17,11.14 -3.45,7.36 -10.34,22.01 -15.51,33.01"
       style="fill:none;stroke:#dd0806;stroke-width:1;stroke-linecap:round;stroke-linejoin:round;stroke-miterlimit:10;stroke-dasharray:none;stroke-opacity:1"
       id="path4624"
       inkscape:connector-curvature="0" /><path
       d="m 593.13,317.36 c -1.64,3.52 -3.1,6.66 -4.92,10.54 -1.81,3.88 -3.76,8.02 -5.97,12.73 -2.2,4.71 -4.59,9.81 -7.26,15.51 -2.67,5.7 -5.52,11.8 -8.75,18.69 -3.24,6.9 -6.73,14.32 -10.64,22.67 -3.91,8.36 -8.09,17.34 -12.83,27.45 -4.74,10.11 -9.86,20.94 -15.61,33.21 -5.74,12.26 -11.89,25.52 -18.85,40.37 -4.7165,10.04878 -9.68027,20.56463 -15.01215,31.89147"
       style="fill:none;stroke:#dd0806;stroke-width:1;stroke-linecap:round;stroke-linejoin:round;stroke-miterlimit:10;stroke-dasharray:none;stroke-opacity:1"
       id="path4634"
       inkscape:connector-curvature="0"
       sodipodi:nodetypes="cccsccsccc" /><path
       d="m 616.44,267.65 c 0,0 0,0 0,0 0,0 0,0 0,0 0,0 0,0 0,0 0,0 0,0 0,0 -0.01,0 -0.03,-0.02 -0.03,0 -0.01,0.03 0.01,0.16 0,0.2 -0.01,0.01 -0.07,-0.04 -0.09,0 -0.04,0.09 -0.05,0.31 -0.17,0.59 -0.1,0.23 -0.31,0.6 -0.6,1.2 -0.29,0.58 -0.9,1.77 -1.74,3.57 -0.87,1.86 -2.58,5.58 -5.18,11.14 -3.45,7.36 -10.33,22.01 -15.5,33.01"
       style="fill:none;stroke:#dd0806;stroke-width:1;stroke-linecap:round;stroke-linejoin:round;stroke-miterlimit:10;stroke-dasharray:none;stroke-opacity:1"
       id="path4636"
       inkscape:connector-curvature="0" /><path
       d="m 656.35,502.7 c -1.65,3.52 -3.12,6.66 -4.94,10.54 -1.82,3.88 -6.14075,12.44424 -8.34075,17.11424"
       style="fill:none;stroke:#dd0806;stroke-width:1;stroke-linecap:round;stroke-linejoin:round;stroke-miterlimit:10;stroke-dasharray:none;stroke-opacity:1"
       id="path4646"
       inkscape:connector-curvature="0"
       sodipodi:nodetypes="csc" /><path
       d="m 679.65,452.99 c 0,0 0,0 0,0 0,0 0,0 0,0 0,0 0,0 0,0 0,0 0,0 0,0 -0.01,0 -0.01,0 -0.02,0 0,0 -0.01,-0.01 -0.01,0 -0.02,0.03 -0.03,0.1 -0.08,0.2 -0.03,0.07 -0.09,0.2 -0.18,0.39 -0.1,0.2 -0.3,0.6 -0.59,1.2 -0.3,0.63 -0.86,1.89 -1.75,3.78 -0.86,1.82 -2.62,5.45 -5.18,10.93 -3.45,7.36 -10.33,22.14 -15.49,33.21"
       style="fill:none;stroke:#dd0806;stroke-width:1;stroke-linecap:round;stroke-linejoin:round;stroke-miterlimit:10;stroke-dasharray:none;stroke-opacity:1"
       id="path4648"
       inkscape:connector-curvature="0" /><path
       d="m 428.24,393.53 c -10.99,-4.25 -21.79,-8.89 -32.97,-12.73 -11.18,-3.85 -22.61,-7.19 -34.1,-10.34 -11.49,-3.15 -23.1,-5.9 -34.83,-8.55 -11.73,-2.65 -23.62,-5.17 -35.57,-7.36 -11.96,-2.19 -24.01,-4.01 -36.16,-5.77 -12.14,-1.75 -24.39,-3.38 -36.72,-4.77 -1.17571,-0.13254 -2.35251,-0.26299 -3.53034,-0.39144"
       style="fill:none;stroke:#006411;stroke-width:1;stroke-linecap:round;stroke-linejoin:round;stroke-miterlimit:10;stroke-dasharray:none;stroke-opacity:1"
       id="path4658"
       inkscape:connector-curvature="0"
       sodipodi:nodetypes="ccssccsc" /><path
       d="M 557.23715,531.46067 C 555.03757,525.65445 552.7433,520.0669 550.36,514.63 c -2.89,-6.56 -5.9,-12.89 -9.05,-18.89 -3.16,-6 -6.46,-11.7 -9.88,-17.1 -3.42,-5.4 -6.96,-10.44 -10.65,-15.31 -3.69,-4.87 -7.56,-9.58 -11.49,-13.92 -3.93,-4.34 -7.95,-8.29 -12.1,-12.13 -4.14,-3.85 -8.42,-7.49 -12.77,-10.94 -4.35,-3.45 -8.8,-6.7 -13.34,-9.75 -4.53,-3.04 -9.17,-5.83 -13.86,-8.55 -4.69,-2.71 -9.46,-5.33 -14.29,-7.75 -4.83,-2.42 -9.79,-4.51 -14.69,-6.76"
       style="fill:none;stroke:#006411;stroke-width:1;stroke-linecap:round;stroke-linejoin:round;stroke-miterlimit:10;stroke-dasharray:none;stroke-opacity:1"
       id="path4668"
       inkscape:connector-curvature="0"
       sodipodi:nodetypes="cccssscsccsc" /><path
       d="m 474.86,294.1 c -11,-4.25 -21.82,-8.89 -33,-12.73 -11.17,-3.85 -22.57,-7.19 -34.06,-10.34 -11.5,-3.15 -23.16,-5.9 -34.9,-8.55 -11.73,-2.66 -23.58,-5.17 -35.53,-7.36 -11.95,-2.19 -23.99,-4.01 -36.14,-5.77 -12.14,-1.76 -24.41,-3.38 -36.74,-4.77 -12.34,-1.39 -38.23531,-3.99378 -50.73531,-5.02378"
       style="fill:none;stroke:#006411;stroke-width:1;stroke-linecap:round;stroke-linejoin:round;stroke-miterlimit:10;stroke-dasharray:none;stroke-opacity:1"
       id="path4678"
       inkscape:connector-curvature="0"
       sodipodi:nodetypes="ccccsccc" /><path
       d="m 612.63,457.96 c -2.47,-7.43 -4.8,-15.15 -7.41,-22.27 -2.61,-7.13 -5.37,-13.92 -8.26,-20.49 -2.88,-6.56 -5.9,-12.89 -9.06,-18.89 -3.15,-6 -6.44,-11.7 -9.86,-17.1 -3.43,-5.4 -7.01,-10.44 -10.7,-15.31 -3.68,-4.88 -7.51,-9.58 -11.42,-13.92 -3.92,-4.35 -7.94,-8.29 -12.09,-12.13 -4.16,-3.85 -8.47,-7.5 -12.83,-10.94 -4.35,-3.45 -8.76,-6.7 -13.29,-9.75 -4.53,-3.05 -9.18,-5.83 -13.87,-8.55 -4.7,-2.72 -9.47,-5.33 -14.3,-7.75 -4.83,-2.42 -9.78,-4.51 -14.68,-6.76"
       style="fill:none;stroke:#006411;stroke-width:1;stroke-linecap:round;stroke-linejoin:round;stroke-miterlimit:10;stroke-dasharray:none;stroke-opacity:1"
       id="path4680"
       inkscape:connector-curvature="0" /><path
       d="m 629.26825,530.18275 c -0.96,-5.64 -0.93825,-6.13275 -1.97825,-11.57275 -1.05,-5.43 -2.15,-10.67 -3.28,-15.91 -1.13,-5.23 -2.29,-10.44 -3.51,-15.51 -1.21,-5.07 -2.47,-10.04 -3.78,-14.91 -1.31,-4.88 -2.73,-9.55 -4.09,-14.32"
       style="fill:none;stroke:#006411;stroke-width:1;stroke-linecap:round;stroke-linejoin:round;stroke-miterlimit:10;stroke-dasharray:none;stroke-opacity:1"
       id="path4690"
       inkscape:connector-curvature="0"
       sodipodi:nodetypes="cccccc" /><path
       d="m 498.17,244.38 c -11,-4.24 -21.82,-8.88 -33,-12.73 -11.18,-3.84 -22.59,-7.19 -34.08,-10.34 -11.49,-3.15 -23.14,-5.9 -34.88,-8.55 -11.73,-2.65 -23.58,-5.17 -35.53,-7.36 -11.94,-2.19 -24,-4.01 -36.15,-5.76 -12.15,-1.76 -24.4,-3.39 -36.73,-4.78 -12.34,-1.39 -24.77,-2.55 -37.26,-3.58 -12.5,-1.02 -25.07,-1.85 -37.7,-2.58"
       style="fill:none;stroke:#006411;stroke-width:1;stroke-linecap:round;stroke-linejoin:round;stroke-miterlimit:10;stroke-dasharray:none;stroke-opacity:1"
       id="path4700"
       inkscape:connector-curvature="0"
       sodipodi:nodetypes="ccscccccc" /><path
       d="m 619.3,363.1 c -2.49,-5.1 -4.89,-10.37 -7.48,-15.31 -2.59,-4.94 -5.28,-9.75 -8.06,-14.32 -2.77,-4.57 -5.62,-8.92 -8.57,-13.12 -2.95,-4.21 -6,-8.29 -9.12,-12.14 -3.12,-3.84 -6.32,-7.45 -9.59,-10.93 -3.28,-3.48 -6.63,-6.8 -10.06,-9.95 -3.43,-3.14 -6.93,-6.09 -10.5,-8.94 -3.58,-2.86 -7.23,-5.54 -10.92,-8.16 -3.7,-2.62 -7.45,-5.2 -11.26,-7.56 -3.81,-2.35 -7.71,-4.44 -11.62,-6.56 -3.91,-2.12 -7.86,-4.21 -11.85,-6.16 -3.99,-1.96 -8.07,-3.71 -12.1,-5.57"
       style="fill:none;stroke:#006411;stroke-width:1;stroke-linecap:round;stroke-linejoin:round;stroke-miterlimit:10;stroke-dasharray:none;stroke-opacity:1"
       id="path4702"
       inkscape:connector-curvature="0" /><path
       d="m 659.95671,530.50879 c -0.9766,-7.86003 -1.3247,-12.25979 -2.42671,-19.84879 -1.41,-9.71 -2.92,-19.16 -4.55,-28.44 -1.62,-9.28 -3.34,-18.46 -5.2,-27.24 -1.86,-8.79 -3.84,-17.24 -5.95,-25.46 -2.1,-8.22 -4.33,-16.21 -6.7,-23.86 -2.36,-7.66 -4.85,-14.98 -7.49,-22.08 -2.64,-7.09 -5.56,-13.65 -8.34,-20.48"
       style="fill:none;stroke:#006411;stroke-width:1;stroke-linecap:round;stroke-linejoin:round;stroke-miterlimit:10;stroke-dasharray:none;stroke-opacity:1"
       id="path4712"
       inkscape:connector-curvature="0"
       sodipodi:nodetypes="cscccccc" /><path
       d="m 679.52,411.03 c 0.03,4.44 0.08,9.38 0.1,13.32 0.02,3.94 0.01,7.36 0.01,10.34 0.01,2.98 0.01,5.47 0.02,7.56 0,2.09 0,3.64 0,4.97 0,1.33 0,2.22 0,2.98 0,0.77 0,1.2 0,1.59 0,0.4 0,0.63 0,0.8 0,0.1 0,0.16 0,0.2 0,0.06 0,0.16 0,0.2 0,0 0,0 0,0 0,0 0,0 0,0 0,0 0,0 0,0"
       style="fill:none;stroke:#dd0806;stroke-width:1;stroke-linecap:round;stroke-linejoin:round;stroke-miterlimit:10;stroke-dasharray:none;stroke-opacity:1"
       id="path4714"
       inkscape:connector-curvature="0" /><path
       d="m 650.86,262.48 c 1.89,3.38 3.89,6.59 5.67,10.14 1.78,3.54 3.45,7.32 5,11.13 1.54,3.82 2.97,7.69 4.29,11.74 1.31,4.04 2.52,8.25 3.61,12.53 1.1,4.27 2.08,8.68 2.96,13.12 0.87,4.44 1.62,8.98 2.3,13.52 0.67,4.54 1.25,9.15 1.75,13.72 0.5,4.58 0.9,9.19 1.25,13.73 0.35,4.54 0.61,9.14 0.84,13.52 0.22,4.37 0.38,8.62 0.52,12.73 0.14,4.11 0.23,8.15 0.31,11.93 0.07,3.78 0.1,7.16 0.15,10.74"
       style="fill:none;stroke:#dd0806;stroke-width:1;stroke-linecap:round;stroke-linejoin:round;stroke-miterlimit:10;stroke-dasharray:none;stroke-opacity:1"
       id="path4716"
       inkscape:connector-curvature="0" /><path
       d="m 233.22,177.56 c 19.59,0.13 39.16,0.33 58.68,0.6 19.53,0.26 39.07,0.5 58.45,0.99 19.38,0.5 38.72,1.06 57.82,1.99 19.1,0.93 38.17,1.86 56.77,3.58 18.59,1.72 37.12,3.58 54.8,6.76 17.68,3.18 35.24,6.63 51.29,12.33 16.05,5.7 31.7,12.1 45.01,21.88 13.3,9.77 23.21,24.52 34.82,36.79"
       style="fill:none;stroke:#dd0806;stroke-width:1;stroke-linecap:round;stroke-linejoin:round;stroke-miterlimit:10;stroke-dasharray:none;stroke-opacity:1"
       id="path4726"
       inkscape:connector-curvature="0"
       sodipodi:nodetypes="cccscsscc" /><path
       d="m 586.66,217.14 c 2.65,2.12 5.53,4.17 7.96,6.36 2.42,2.19 4.63,4.44 6.6,6.76 1.96,2.32 3.68,4.81 5.18,7.16 1.51,2.35 2.77,4.71 3.85,6.96 1.09,2.25 1.95,4.54 2.67,6.56 0.73,2.02 1.24,3.88 1.67,5.57 0.44,1.69 0.72,3.28 0.96,4.57 0.24,1.3 0.37,2.32 0.49,3.19 0.12,0.86 0.17,1.49 0.22,1.98 0.06,0.5 0.07,0.77 0.09,1 0.02,0.2 0.05,0.34 0.06,0.4 0,0 0,0 0,0"
       style="fill:none;stroke:#dd0806;stroke-width:1;stroke-linecap:round;stroke-linejoin:round;stroke-miterlimit:10;stroke-dasharray:none;stroke-opacity:1"
       id="path4728"
       inkscape:connector-curvature="0" /><path
       d="m 547.71,199.24 c 1.27,0.4 2.56,0.79 3.8,1.19 1.23,0.4 2.43,0.8 3.64,1.19 1.21,0.4 2.42,0.77 3.61,1.2 1.19,0.43 2.37,0.93 3.53,1.39 1.15,0.46 2.28,0.89 3.4,1.39 1.11,0.5 2.2,1.09 3.28,1.59 1.08,0.5 2.15,0.9 3.21,1.39 1.06,0.5 2.13,1.06 3.15,1.59 1.02,0.54 1.99,1.03 2.97,1.6 0.97,0.56 1.96,1.19 2.91,1.79 0.95,0.59 1.87,1.19 2.78,1.79 0.91,0.59 1.78,1.19 2.67,1.79"
       style="fill:none;stroke:#dd0806;stroke-width:1;stroke-linecap:round;stroke-linejoin:round;stroke-miterlimit:10;stroke-dasharray:none;stroke-opacity:1"
       id="path4730"
       inkscape:connector-curvature="0" /><path
       d="m 238,177.56 c 15.94,0.13 31.88,0.4 47.72,0.6 15.85,0.2 31.67,0.3 47.35,0.59 15.67,0.3 31.31,0.63 46.72,1.2 15.4,0.56 30.75,1.29 45.71,2.19 14.95,0.89 29.79,1.75 44.01,3.18 14.22,1.42 28.26,3.05 41.3,5.37 13.03,2.32 24.6,5.7 36.9,8.55"
       style="fill:none;stroke:#dd0806;stroke-width:1;stroke-linecap:round;stroke-linejoin:round;stroke-miterlimit:10;stroke-dasharray:none;stroke-opacity:1"
       id="path4740"
       inkscape:connector-curvature="0"
       sodipodi:nodetypes="cscccccc" /><path
       d="m 516.47,197.85 c 0.49,0.19 1.07,0.49 1.48,0.59 0.41,0.1 0.71,0.07 0.98,0 0.27,-0.06 0.46,-0.23 0.65,-0.4 0.19,-0.16 0.33,-0.39 0.48,-0.59 0.15,-0.2 0.28,-0.37 0.4,-0.6 0.12,-0.23 0.22,-0.6 0.32,-0.79 0.09,-0.2 0.17,-0.27 0.24,-0.4 0.06,-0.13 0.1,-0.27 0.15,-0.4 0.06,-0.13 0.12,-0.3 0.16,-0.4 0.04,-0.1 0.07,-0.16 0.08,-0.2 0,0 0,0 0,0 0.01,0 0.05,0 0.08,0"
       style="fill:none;stroke:#dd0806;stroke-width:1;stroke-linecap:round;stroke-linejoin:round;stroke-miterlimit:10;stroke-dasharray:none;stroke-opacity:1"
       id="path4742"
       inkscape:connector-curvature="0" /><path
       d="m 502.56,192.87 c 0.6,0.2 1.22,0.43 1.79,0.6 0.57,0.17 1.11,0.23 1.65,0.4 0.53,0.16 1.06,0.43 1.57,0.59 0.5,0.17 1,0.24 1.45,0.4 0.45,0.17 0.85,0.43 1.25,0.6 0.4,0.16 0.77,0.26 1.15,0.4 0.38,0.13 0.79,0.26 1.14,0.39 0.35,0.14 0.65,0.27 0.95,0.4 0.3,0.13 0.58,0.27 0.85,0.4 0.27,0.13 0.51,0.3 0.77,0.4 0.25,0.1 0.53,0.13 0.75,0.2 0.23,0.06 0.39,0.13 0.59,0.2"
       style="fill:none;stroke:#dd0806;stroke-width:1;stroke-linecap:round;stroke-linejoin:round;stroke-miterlimit:10;stroke-dasharray:none;stroke-opacity:1"
       id="path4744"
       inkscape:connector-curvature="0" /><path
       d="m 236.48,177.56 c 15.68,0.1 31.31,0.2 46.71,0.4 15.39,0.2 30.74,0.5 45.68,0.79 14.93,0.3 29.74,0.53 43.92,1 14.18,0.46 28.16,1.03 41.16,1.79 12.99,0.76 25.61,1.69 36.8,2.78 11.18,1.1 21.65,2.36 30.29,3.78 8.64,1.43 14.35,3.18 21.52,4.77"
       style="fill:none;stroke:#dd0806;stroke-width:1;stroke-linecap:round;stroke-linejoin:round;stroke-miterlimit:10;stroke-dasharray:none;stroke-opacity:1"
       id="path4754"
       inkscape:connector-curvature="0"
       sodipodi:nodetypes="cscccccc" /><path
       d="m 385.42,164.83 c 0.28,-0.59 0.58,-1.22 0.85,-1.79 0.26,-0.56 0.5,-1.09 0.73,-1.59 0.24,-0.49 0.47,-0.96 0.67,-1.39 0.2,-0.43 0.37,-0.86 0.53,-1.19 0.15,-0.33 0.28,-0.57 0.39,-0.8 0.12,-0.23 0.22,-0.43 0.3,-0.59 0.07,-0.17 0.12,-0.3 0.16,-0.4 0.04,-0.1 0.08,-0.13 0.1,-0.2 0.02,-0.07 0.02,-0.17 0.03,-0.2 0,0 0,0 0,0 0.01,0 0.03,0 0.03,0 0,0 0,0 0,0"
       style="fill:none;stroke:#dd0806;stroke-width:1;stroke-linecap:round;stroke-linejoin:round;stroke-miterlimit:10;stroke-dasharray:none;stroke-opacity:1"
       id="path4756"
       inkscape:connector-curvature="0" /><path
       d="m 382.21,171.6 c 0.09,-0.2 0.19,-0.4 0.28,-0.6 0.09,-0.2 0.16,-0.43 0.24,-0.6 0.09,-0.16 0.19,-0.23 0.28,-0.4 0.1,-0.16 0.19,-0.39 0.28,-0.59 0.09,-0.2 0.16,-0.4 0.24,-0.6 0.09,-0.2 0.19,-0.4 0.28,-0.6 0.09,-0.19 0.19,-0.39 0.28,-0.59 0.09,-0.2 0.18,-0.4 0.27,-0.6 0.09,-0.2 0.19,-0.4 0.28,-0.59 0.08,-0.2 0.15,-0.44 0.24,-0.6 0.08,-0.17 0.18,-0.23 0.27,-0.4 0.09,-0.16 0.18,-0.4 0.27,-0.6"
       style="fill:none;stroke:#dd0806;stroke-width:1;stroke-linecap:round;stroke-linejoin:round;stroke-miterlimit:10;stroke-dasharray:none;stroke-opacity:1"
       id="path4758"
       inkscape:connector-curvature="0" /><path
       d="m 228.54,177.36 c 14.28,0.07 28.37,0.1 41.53,0.2 13.15,0.1 25.98,0.27 37.4,0.4 11.42,0.13 22.18,0.3 31.14,0.4 8.96,0.1 16.68,0.26 22.6,0.2 5.93,-0.07 9.9,-0.1 12.97,-0.6 2.94,-0.48 4.18,-1.37 5.46,-2.39 1.34,-1.06 1.71,-2.65 2.57,-3.97"
       style="fill:none;stroke:#dd0806;stroke-width:1;stroke-linecap:round;stroke-linejoin:round;stroke-miterlimit:10;stroke-dasharray:none;stroke-opacity:1"
       id="path4768"
       inkscape:connector-curvature="0"
       sodipodi:nodetypes="cssscccc" /><path
       d="m 646.38,246.96 c 4.64,5.64 9.57,10.68 13.93,16.91 4.35,6.23 8.46,12.96 12.22,20.48 3.76,7.52 7.22,15.71 10.33,24.66 3.1,8.95 5.88,18.63 8.29,29.03 2.41,10.41 4.45,21.58 6.18,33.41 1.73,11.84 3.08,24.43 4.2,37.59 1.11,13.16 1.87,27.14 2.5,41.36 0.63,14.22 0.97,29.04 1.26,43.95 0.24805,12.33618 0.35253,23.3595 0.44911,35.99862"
       style="fill:none;stroke:#000000;stroke-width:2;stroke-linecap:round;stroke-linejoin:round;stroke-miterlimit:10;stroke-dasharray:none;stroke-opacity:1"
       id="path4778"
       inkscape:connector-curvature="0"
       sodipodi:nodetypes="ccsccccscc" /><path
       d="m 214.14,177.36 c 18.9,0.07 -8.61,0.1 10.27,0.2 18.88,0.1 37.75,0.17 56.59,0.4 18.83,0.23 37.68,0.56 56.43,0.99 18.74,0.43 37.44,0.83 56.02,1.59 18.58,0.77 37.15,1.6 55.44,2.99 18.29,1.39 36.53,2.85 54.29,5.37 17.75,2.52 35.44,5.2 52.24,9.74 16.81,4.54 33.41,9.45 48.57,17.5 15.16,8.05 28.26,20.55 42.39,30.82"
       style="fill:none;stroke:#000000;stroke-width:2;stroke-linecap:round;stroke-linejoin:round;stroke-miterlimit:10;stroke-dasharray:none;stroke-opacity:1"
       id="path4788"
       inkscape:connector-curvature="0"
       sodipodi:nodetypes="cssccsccsc" /><path
       d="m 642.61,313.38 c -10.8,-17.89 -20.33,-38.44 -32.39,-53.69 -12.05,-15.24 -25.69,-27.18 -39.93,-37.78 -14.25,-10.61 -29.78,-18.5 -45.54,-25.85 -15.77,-7.36 -32.36,-12.96 -49.07,-18.3 -16.71,-5.34 -33.88,-9.71 -51.2,-13.72 -17.32,-4.01 -34.91,-7.33 -52.71,-10.34 -17.79,-3.02 -35.86,-5.6 -54.07,-7.76 -18.21,-2.15 -36.63,-3.78 -55.17,-5.17 -18.55,-1.39 -29.59982,-1.83874 -48.40982,-2.69874"
       style="fill:none;stroke:#000000;stroke-width:2;stroke-linecap:round;stroke-linejoin:round;stroke-miterlimit:10;stroke-dasharray:none;stroke-opacity:1"
       id="path4798"
       inkscape:connector-curvature="0"
       sodipodi:nodetypes="ccccsscccc" /><path
       d="m 688.7945,529.68399 c -1.04,-10.47 -2.8245,-28.80399 -4.0445,-38.91399 -1.22,-10.11 -2.52,-20.12 -3.93,-29.83 -1.41,-9.71 -2.91,-19.16 -4.53,-28.44 -1.62,-9.28 -3.35,-18.46 -5.21,-27.24 -1.86,-8.78 -3.83,-17.23 -5.94,-25.45 -2.1,-8.22 -4.33,-16.21 -6.7,-23.87 -2.37,-7.65 -4.86,-14.98 -7.5,-22.07 -2.64,-7.09 -5.55,-13.66 -8.33,-20.49"
       style="fill:none;stroke:#000000;stroke-width:2;stroke-linecap:round;stroke-linejoin:round;stroke-miterlimit:10;stroke-dasharray:none;stroke-opacity:1"
       id="path4808"
       inkscape:connector-curvature="0"
       sodipodi:nodetypes="cssssccsc" /><text
       transform="scale(1,-1)"
       id="text4818"
       sodipodi:linespacing="125%"
       style="line-height:125%"
       x="191.00003"
       y="-203.50999"><tspan
         sodipodi:role="line"
         id="tspan5046"
         x="191.00003"
         y="-203.50999"
         style="font-size:16px">5</tspan></text>
<text
       transform="scale(1,-1)"
       id="text4830"
       sodipodi:linespacing="125%"
       style="line-height:125%"
       x="185.93604"
       y="-341.56"><tspan
         sodipodi:role="line"
         id="tspan5044"
         x="185.93604"
         y="-341.56"
         style="font-size:16px">10</tspan></text>
<text
       transform="scale(1,-1)"
       id="text4842"
       sodipodi:linespacing="125%"
       style="line-height:125%"
       x="185.93604"
       y="-479.39001"><tspan
         sodipodi:role="line"
         id="tspan5042"
         x="185.93604"
         y="-479.39001"
         style="font-size:16px">20</tspan></text>
<text
       transform="matrix(0.42531162,-0.90504698,-0.90504698,-0.42531162,0,0)"
       id="text4854"
       sodipodi:linespacing="125%"
       style="line-height:125%"
       x="-201.39639"
       y="-676.35748"><tspan
         sodipodi:role="line"
         id="tspan5066"
         x="-201.39639"
         y="-676.35748"
         style="font-size:16px">0.05cm/ka</tspan></text>
<text
       transform="matrix(0.41577293,-0.90946846,-0.90946846,-0.41577293,0,0)"
       id="text4866"
       sodipodi:linespacing="125%"
       style="line-height:125%"
       x="-305.25415"
       y="-557.88336"><tspan
         sodipodi:role="line"
         id="tspan5064"
         x="-305.25415"
         y="-557.88336"
         style="font-size:16px">0.2cm/ka</tspan></text>
<text
       transform="matrix(0.40862712,-0.91270142,-0.91270142,-0.40862712,0,0)"
       id="text4878"
       sodipodi:linespacing="125%"
       style="line-height:125%"
       x="-326.2074"
       y="-419.84122"><tspan
         sodipodi:role="line"
         id="tspan5062"
         x="-326.2074"
         y="-419.84122"
         style="font-size:16px">1cm/ka</tspan></text>
<text
       transform="scale(1,-1)"
       id="text4890"
       sodipodi:linespacing="125%"
       style="line-height:125%"
       x="704.90002"
       y="-372.79001"><tspan
         sodipodi:role="line"
         id="tspan5068"
         x="704.90002"
         y="-372.79001"
         style="font-size:16px">5Ma</tspan></text>
<text
       transform="scale(1,-1)"
       id="text4902"
       sodipodi:linespacing="125%"
       style="line-height:125%"
       x="674.45135"
       y="-269.6026"><tspan
         sodipodi:role="line"
         id="tspan5070"
         x="674.45135"
         y="-269.6026"
         style="font-size:16px">2Ma</tspan></text>
<text
       transform="matrix(0.96439196,0.26447712,0.26447712,-0.96439196,0,0)"
       id="text4914"
       sodipodi:linespacing="125%"
       style="line-height:125%"
       x="416.14487"
       y="-105.61824"><tspan
         sodipodi:role="line"
         id="tspan5060"
         x="416.14487"
         y="-105.61824"
         style="font-size:16px">500ka burial</tspan></text>
<text
       transform="matrix(0.95800824,0.28674068,0.28674068,-0.95800824,0,0)"
       id="text4926"
       sodipodi:linespacing="125%"
       style="line-height:125%"
       x="412.95322"
       y="-151.7448"><tspan
         sodipodi:role="line"
         id="tspan5058"
         x="412.95322"
         y="-151.7448"
         style="font-size:16px">1Ma burial</tspan></text>
<text
       transform="matrix(0.97051263,0.24105028,0.24105028,-0.97051263,0,0)"
       id="text4938"
       sodipodi:linespacing="125%"
       style="line-height:125%"
       x="393.33188"
       y="-278.50946"><tspan
         sodipodi:role="line"
         id="tspan5056"
         x="393.33188"
         y="-278.50946"
         style="font-size:16px">2Ma burial</tspan></text>
<text
       transform="scale(1,-1)"
       id="text4986"
       sodipodi:linespacing="125%"
       style="line-height:125%"
       x="282.5"
       y="-83.136009"><tspan
         sodipodi:role="line"
         id="tspan5050"
         x="282.5"
         y="-83.136009"
         style="font-size:16px">10<tspan
   style="font-size:52.00042725%;baseline-shift:super"
   id="tspan4005">$^5$</tspan></tspan></text>
<text
       transform="scale(1,-1)"
       id="text4998"
       sodipodi:linespacing="125%"
       style="line-height:125%"
       x="497.82999"
       y="-83.136009"><tspan
         sodipodi:role="line"
         id="tspan5052"
         x="497.82999"
         y="-83.136009"
         style="font-size:16px">10<tspan
   style="font-size:52.00042725%;baseline-shift:super"
   id="tspan4007">$^6$</tspan></tspan></text>
<text
       transform="scale(1,-1)"
       id="text5010"
       sodipodi:linespacing="125%"
       x="713.1698"
       y="-83.136009"
       style="line-height:125%"><tspan
         sodipodi:role="line"
         id="tspan5054"
         x="713.1698"
         y="-83.136009"
         style="font-size:16px">10<tspan
   style="font-size:52.00042725%;baseline-shift:super"
   id="tspan4009">$^7$</tspan></tspan></text>
<text
       transform="matrix(-4.4e-8,1,1,4.4e-8,0,0)"
       id="text5022"
       sodipodi:linespacing="125%"
       x="347.24332"
       y="240.28961"
       style="font-size:12px;line-height:125%"><tspan
         sodipodi:role="line"
         id="tspan5040"
         x="347.24332"
         y="240.28961"
         style="font-size:16px"><tspan
   style="font-size:8.32006836px;baseline-shift:super"
   id="tspan4011">$^{21}$</tspan>Ne /$<tspan
   style="font-size:8.32006836px;baseline-shift:super"
   id="tspan4013">$^{10}$</tspan>Be</tspan></text>
<text
       transform="scale(1,-1)"
       id="text5034"
       sodipodi:linespacing="125%"
       style="line-height:125%"
       x="633.24481"
       y="-118.93246"><tspan
         sodipodi:role="line"
         id="tspan5038"
         x="633.24481"
         y="-118.93246"><tspan
           style="font-size:16px"
           id="tspan3999"><tspan
   style="font-size:52.00042725%;baseline-shift:super"
   id="tspan4001">$^{10}$</tspan>Be [at/g]</tspan></tspan></text>
<path
       inkscape:connector-curvature="0"
       id="path5605"
       style="fill:#ffffff;stroke:#000000;stroke-width:1;stroke-linecap:round;stroke-linejoin:round;stroke-miterlimit:10;stroke-dasharray:none;stroke-opacity:1;fill-opacity:1"
       d="m 670.16447,278.89957 c -1.31,3.78 -2.59,8.15 -3.93,11.33 -1.34,3.18 -2.83,6.03 -4.1,7.76 -1.26,1.72 -2.53,2.62 -3.47,2.58 -0.91,-0.03 -1.78,-1.06 -2.2,-2.78 -0.44,-1.79 -0.58,-4.74 -0.41,-7.96 0.16,-3.21 0.66,-7.35 1.39,-11.33 0.73,-3.98 1.83,-8.59 2.97,-12.53 1.14,-3.94 2.53,-7.99 3.87,-11.14 1.34,-3.14 2.88,-5.99 4.15,-7.75 1.27,-1.76 2.54,-2.82 3.49,-2.79 0.95,0.04 1.77,1.2 2.21,2.99 0.43,1.79 0.56,4.57 0.4,7.75 -0.16,3.18 -0.63,7.36 -1.36,11.34 -0.73,3.98 -2.01,8.35 -3.01,12.53" /><text
       transform="scale(1,-1)"
       id="text4950"
       sodipodi:linespacing="125%"
       style="line-height:125%"
       x="661.66193"
       y="-267.64578"><tspan
         sodipodi:role="line"
         id="tspan5074"
         x="661.66193"
         y="-267.64578"
         style="font-size:16px">a</tspan></text>
<path
       inkscape:connector-curvature="0"
       id="path5619"
       style="fill:#ffffff;stroke:#000000;stroke-width:1;stroke-linecap:round;stroke-linejoin:round;stroke-miterlimit:10;stroke-dasharray:none;stroke-opacity:1;fill-opacity:1"
       d="m 578.94653,232.12896 c -1.29,3.72 -2.54,7.99 -3.87,11.14 -1.33,3.15 -2.85,6 -4.13,7.76 -1.27,1.75 -2.56,2.81 -3.51,2.78 -0.95,-0.03 -1.75,-1.19 -2.19,-2.98 -0.44,-1.79 -0.59,-4.58 -0.43,-7.76 0.16,-3.18 0.67,-7.36 1.4,-11.33 0.73,-3.98 1.8,-8.55 2.96,-12.53 1.15,-3.98 2.6,-8.15 3.95,-11.34 1.35,-3.18 2.86,-6.03 4.12,-7.75 1.26,-1.73 2.51,-2.62 3.45,-2.59 0.91,0.03 1.79,1.06 2.21,2.79 0.43,1.79 0.56,4.74 0.4,7.95 -0.16,3.22 -0.65,7.36 -1.38,11.34 -0.72,3.97 -1.99,8.35 -2.98,12.52" /><text
       style="font-size:12px;line-height:125%"
       sodipodi:linespacing="125%"
       id="text5865"
       x="568.62024"
       y="-219.5289"
       transform="scale(1,-1)"><tspan
         y="-219.5289"
         x="568.62024"
         id="tspan5867"
         sodipodi:role="line"
         style="font-size:16px">b</tspan></text>
<path
       d="m 299.28622,363.51325 c -1.29,3.72 -2.54,7.99 -3.87,11.14 -1.33,3.15 -2.85,6 -4.13,7.76 -1.27,1.75 -2.56,2.81 -3.51,2.78 -0.95,-0.03 -1.75,-1.19 -2.19,-2.98 -0.44,-1.79 -0.59,-4.58 -0.43,-7.76 0.16,-3.18 0.67,-7.36 1.4,-11.33 0.73,-3.98 1.8,-8.55 2.96,-12.53 1.15,-3.98 2.6,-8.15 3.95,-11.34 1.35,-3.18 2.86,-6.03 4.12,-7.75 1.26,-1.73 2.51,-2.62 3.45,-2.59 0.91,0.03 1.79,1.06 2.21,2.79 0.43,1.79 0.56,4.74 0.4,7.95 -0.16,3.22 -0.65,7.36 -1.38,11.34 -0.72,3.97 -1.99,8.35 -2.98,12.52"
       style="fill:#ffffff;stroke:#000000;stroke-width:1;stroke-linecap:round;stroke-linejoin:round;stroke-miterlimit:10;stroke-dasharray:none;stroke-opacity:1;fill-opacity:1"
       id="path4598"
       inkscape:connector-curvature="0" /><text
       style="line-height:125%"
       sodipodi:linespacing="125%"
       id="text5615"
       transform="scale(1,-1)"
       x="288.70007"
       y="-352.57074"><tspan
         sodipodi:role="line"
         id="tspan5890"
         style="font-size:16px"
         x="288.70007"
         y="-352.57074">c</tspan></text>
</g></svg>