<?xml version="1.0" encoding="UTF-8" standalone="no"?>
<!-- Created with Inkscape (http://www.inkscape.org/) -->

<svg
   xmlns:dc="http://purl.org/dc/elements/1.1/"
   xmlns:cc="http://creativecommons.org/ns#"
   xmlns:rdf="http://www.w3.org/1999/02/22-rdf-syntax-ns#"
   xmlns:svg="http://www.w3.org/2000/svg"
   xmlns="http://www.w3.org/2000/svg"
   xmlns:sodipodi="http://sodipodi.sourceforge.net/DTD/sodipodi-0.dtd"
   xmlns:inkscape="http://www.inkscape.org/namespaces/inkscape"
   width="67.124435mm"
   height="58.01725mm"
   viewBox="0 0 237.84249 205.57293"
   id="svg4794"
   version="1.1"
   inkscape:version="0.91 r13725"
   sodipodi:docname="stockli.svg">
  <defs
     id="defs4796">
    <clipPath
       clipPathUnits="userSpaceOnUse"
       id="clipPath180">
      <path
         d="m 18,147.25 143,0 0,-3 -143,0 0,3 z"
         id="path182"
         inkscape:connector-curvature="0" />
    </clipPath>
    <clipPath
       clipPathUnits="userSpaceOnUse"
       id="clipPath190">
      <path
         d="m 18,145 143,0 0,3 -143,0 0,-3 z"
         id="path192"
         inkscape:connector-curvature="0" />
    </clipPath>
    <clipPath
       clipPathUnits="userSpaceOnUse"
       id="clipPath40">
      <path
         d="m 18,105.25 142,0 0,-40 -142,0 0,40 z"
         id="path42"
         inkscape:connector-curvature="0" />
    </clipPath>
    <clipPath
       clipPathUnits="userSpaceOnUse"
       id="clipPath50">
      <path
         d="m 18,66 142,0 0,40 -142,0 0,-40 z"
         id="path52"
         inkscape:connector-curvature="0" />
    </clipPath>
    <clipPath
       clipPathUnits="userSpaceOnUse"
       id="clipPath18">
      <path
         d="m 18,86.25 143,0 0,-47 -143,0 0,47 z"
         id="path20"
         inkscape:connector-curvature="0" />
    </clipPath>
    <clipPath
       clipPathUnits="userSpaceOnUse"
       id="clipPath28">
      <path
         d="m 18,40 143,0 0,47 -143,0 0,-47 z"
         id="path30"
         inkscape:connector-curvature="0" />
    </clipPath>
  </defs>
  <sodipodi:namedview
     id="base"
     pagecolor="#ffffff"
     bordercolor="#666666"
     borderopacity="1.0"
     inkscape:pageopacity="0.0"
     inkscape:pageshadow="2"
     inkscape:zoom="2.5388669"
     inkscape:cx="133.7829"
     inkscape:cy="85.967534"
     inkscape:document-units="px"
     inkscape:current-layer="layer1"
     showgrid="false"
     fit-margin-top="0"
     fit-margin-left="0"
     fit-margin-right="0"
     fit-margin-bottom="0"
     inkscape:window-width="1920"
     inkscape:window-height="1056"
     inkscape:window-x="0"
     inkscape:window-y="24"
     inkscape:window-maximized="1" />
  <metadata
     id="metadata4799">
    <rdf:RDF>
      <cc:Work
         rdf:about="">
        <dc:format>image/svg+xml</dc:format>
        <dc:type
           rdf:resource="http://purl.org/dc/dcmitype/StillImage" />
        <dc:title></dc:title>
      </cc:Work>
    </rdf:RDF>
  </metadata>
  <g
     inkscape:label="Layer 1"
     inkscape:groupmode="layer"
     id="layer1"
     transform="translate(1960.055,616.10644)">
    <g
       transform="matrix(1.25,0,0,-1.25,-1958.6271,-411.33939)"
       id="g14">
      <g
         id="g16"
         clip-path="url(#clipPath18)">
        <g
           id="g22"
           transform="translate(0,-0.750488)">
          <g
             id="g24">
            <g
               id="g26"
               clip-path="url(#clipPath28)">
              <g
                 id="g32">
                <path
                   d="m 18.41,86.574 141.902,0 0,-46.469 -141.902,0 0,46.469 z"
                   style="fill:#d9d9d9;fill-opacity:1;fill-rule:nonzero;stroke:none"
                   id="path34"
                   inkscape:connector-curvature="0" />
              </g>
            </g>
          </g>
        </g>
      </g>
    </g>
    <g
       transform="matrix(1.25,0,0,-1.25,-1958.6271,-411.33939)"
       id="g36">
      <g
         id="g38"
         clip-path="url(#clipPath40)">
        <g
           id="g44"
           transform="translate(0,-0.750488)">
          <g
             id="g46">
            <g
               id="g48"
               clip-path="url(#clipPath50)">
              <g
                 id="g54">
                <path
                   d="m 18.734,67.215 c 113.707,0.469 141.903,0.469 141.903,0.469 M 18.734,104.887 c 113.707,0.508 141.903,0.508 141.903,0.508"
                   style="fill:none;stroke:#000000;stroke-width:0.43799999;stroke-linecap:butt;stroke-linejoin:miter;stroke-miterlimit:4;stroke-dasharray:1.753, 0.876;stroke-dashoffset:0;stroke-opacity:1"
                   id="path56"
                   inkscape:connector-curvature="0" />
              </g>
            </g>
          </g>
        </g>
      </g>
    </g>
    <path
       d="m -1819.2671,-555.48377 c -1.6212,3.69625 -5.5412,9.2425 -8.2025,12.26 -8.565,9.59999 -19.3075,15.11749 -30.035,22.19249 -15.9512,10.45375 -47.5437,23.4625 -50.62,29.0475 -3.0762,5.58625 -0.6,33.585 -4.3012,37.11 -3.7063,3.525 -9.8925,3.515 -12.1,7.5 -2.2063,3.97875 -1.7038,18.07625 -1.7038,18.07625"
       style="fill:none;stroke:#000000;stroke-width:0.54750001;stroke-linecap:butt;stroke-linejoin:miter;stroke-miterlimit:4;stroke-dasharray:none;stroke-opacity:1"
       id="path78"
       inkscape:connector-curvature="0" />
    <path
       d="m -1913.5346,-445.65503 6.3138,0 m -6.3138,2.25125 0,-4.5075 m 6.3138,4.5075 0,-4.5075"
       style="fill:none;stroke:#000000;stroke-width:0.32875001;stroke-linecap:square;stroke-linejoin:miter;stroke-miterlimit:4;stroke-dasharray:none;stroke-opacity:1"
       id="path80"
       inkscape:connector-curvature="0" />
    <path
       d="m -1908.5783,-445.65503 c 0,-0.99625 -0.81,-1.80625 -1.8013,-1.80625 -0.9912,0 -1.8025,0.81 -1.8025,1.80625 0,0.99125 0.8113,1.80125 1.8025,1.80125 0.9913,0 1.8013,-0.81 1.8013,-1.80125"
       style="fill:#000000;fill-opacity:1;fill-rule:evenodd;stroke:none"
       id="path82"
       inkscape:connector-curvature="0" />
    <path
       d="m -1908.1246,-446.73878 4.2338,0 m -4.2338,2.25 0,-4.50625 m 4.2338,4.50625 0,-4.50625"
       style="fill:none;stroke:#000000;stroke-width:0.32875001;stroke-linecap:square;stroke-linejoin:miter;stroke-miterlimit:4;stroke-dasharray:none;stroke-opacity:1"
       id="path84"
       inkscape:connector-curvature="0" />
    <path
       d="m -1904.2033,-446.73878 c 0,-0.99125 -0.815,-1.8025 -1.8063,-1.8025 -0.9912,0 -1.8025,0.81125 -1.8025,1.8025 0,0.99125 0.8113,1.80125 1.8025,1.80125 0.9913,0 1.8063,-0.81 1.8063,-1.80125"
       style="fill:#000000;fill-opacity:1;fill-rule:evenodd;stroke:none"
       id="path86"
       inkscape:connector-curvature="0" />
    <path
       d="m -1913.5346,-447.77878 6.3138,0 m -6.3138,2.12375 0,-4.51125 m 6.3138,4.51125 0,-4.51125"
       style="fill:none;stroke:#000000;stroke-width:0.32875001;stroke-linecap:square;stroke-linejoin:miter;stroke-miterlimit:4;stroke-dasharray:none;stroke-opacity:1"
       id="path88"
       inkscape:connector-curvature="0" />
    <path
       d="m -1908.5783,-447.77878 c 0,-0.99125 -0.81,-1.8025 -1.8013,-1.8025 -0.9912,0 -1.8025,0.81125 -1.8025,1.8025 0,0.99125 0.8113,1.80625 1.8025,1.80625 0.9913,0 1.8013,-0.815 1.8013,-1.80625"
       style="fill:#000000;fill-opacity:1;fill-rule:evenodd;stroke:none"
       id="path90"
       inkscape:connector-curvature="0" />
    <path
       d="m -1913.5346,-453.32128 6.3138,0 m -6.3138,2.075 0,-4.50625 m 6.3138,4.50625 0,-4.50625"
       style="fill:none;stroke:#000000;stroke-width:0.32875001;stroke-linecap:square;stroke-linejoin:miter;stroke-miterlimit:4;stroke-dasharray:none;stroke-opacity:1"
       id="path92"
       inkscape:connector-curvature="0" />
    <path
       d="m -1908.5783,-453.32128 c 0,-0.99125 -0.81,-1.80125 -1.8013,-1.80125 -0.9912,0 -1.8025,0.81 -1.8025,1.80125 0,0.99125 0.8113,1.80125 1.8025,1.80125 0.9913,0 1.8013,-0.81 1.8013,-1.80125"
       style="fill:#000000;fill-opacity:1;fill-rule:evenodd;stroke:none"
       id="path94"
       inkscape:connector-curvature="0" />
    <path
       d="m -1819.8433,-555.48377 15.9575,0 m -15.9575,2.255 0,-4.50625 m 15.9575,4.50625 0,-4.50625"
       style="fill:none;stroke:#000000;stroke-width:0.32875001;stroke-linecap:square;stroke-linejoin:miter;stroke-miterlimit:4;stroke-dasharray:none;stroke-opacity:1"
       id="path96"
       inkscape:connector-curvature="0" />
    <path
       d="m -1810.0621,-555.48377 c 0,-0.99125 -0.8112,-1.8025 -1.8025,-1.8025 -0.9912,0 -1.8062,0.81125 -1.8062,1.8025 0,0.99125 0.815,1.80625 1.8062,1.80625 0.9913,0 1.8025,-0.815 1.8025,-1.80625"
       style="fill:#000000;fill-opacity:1;fill-rule:evenodd;stroke:none"
       id="path98"
       inkscape:connector-curvature="0" />
    <path
       d="m -1826.2883,-545.43002 21.3187,0 m -21.3187,2.25 0,-4.50625 m 21.3187,4.50625 0,-4.50625"
       style="fill:none;stroke:#000000;stroke-width:0.32875001;stroke-linecap:square;stroke-linejoin:miter;stroke-miterlimit:4;stroke-dasharray:none;stroke-opacity:1"
       id="path100"
       inkscape:connector-curvature="0" />
    <path
       d="m -1813.8033,-545.43002 c 0,-0.99625 -0.81,-1.8075 -1.8063,-1.8075 -0.9912,0 -1.8012,0.81125 -1.8012,1.8075 0,0.98625 0.81,1.80125 1.8012,1.80125 0.9963,0 1.8063,-0.815 1.8063,-1.80125"
       style="fill:#000000;fill-opacity:1;fill-rule:evenodd;stroke:none"
       id="path102"
       inkscape:connector-curvature="0" />
    <path
       d="m -1822.6796,-542.09502 18.7938,0 m -18.7938,2.25 0,-4.50625 m 18.7938,4.50625 0,-4.50625"
       style="fill:none;stroke:#000000;stroke-width:0.32875001;stroke-linecap:square;stroke-linejoin:miter;stroke-miterlimit:4;stroke-dasharray:none;stroke-opacity:1"
       id="path104"
       inkscape:connector-curvature="0" />
    <path
       d="m -1811.5521,-542.09502 c 0,-0.99125 -0.81,-1.8075 -1.8012,-1.8075 -0.9913,0 -1.8025,0.81625 -1.8025,1.8075 0,0.99125 0.8112,1.80125 1.8025,1.80125 0.9912,0 1.8012,-0.81 1.8012,-1.80125"
       style="fill:#000000;fill-opacity:1;fill-rule:evenodd;stroke:none"
       id="path106"
       inkscape:connector-curvature="0" />
    <path
       d="m -1830.6583,-541.64627 13.3837,0 m -13.3837,2.25125 0,-4.5075 m 13.3837,4.5075 0,-4.5075"
       style="fill:none;stroke:#000000;stroke-width:0.32875001;stroke-linecap:square;stroke-linejoin:miter;stroke-miterlimit:4;stroke-dasharray:none;stroke-opacity:1"
       id="path108"
       inkscape:connector-curvature="0" />
    <path
       d="m -1822.2308,-541.64627 c 0,-0.99125 -0.81,-1.8025 -1.8013,-1.8025 -0.9912,0 -1.8025,0.81125 -1.8025,1.8025 0,0.99125 0.8113,1.80125 1.8025,1.80125 0.9913,0 1.8013,-0.81 1.8013,-1.80125"
       style="fill:#000000;fill-opacity:1;fill-rule:evenodd;stroke:none"
       id="path110"
       inkscape:connector-curvature="0" />
    <path
       d="m -1833.8121,-511.00128 11.7138,0 m -11.7138,2.25 0,-4.50625 m 11.7138,4.50625 0,-4.50625"
       style="fill:none;stroke:#000000;stroke-width:0.32875001;stroke-linecap:square;stroke-linejoin:miter;stroke-miterlimit:4;stroke-dasharray:none;stroke-opacity:1"
       id="path112"
       inkscape:connector-curvature="0" />
    <path
       d="m -1826.1521,-511.00128 c 0,-0.99125 -0.81,-1.8025 -1.8012,-1.8025 -0.9913,0 -1.8013,0.81125 -1.8013,1.8025 0,0.99 0.81,1.80125 1.8013,1.80125 0.9912,0 1.8012,-0.81125 1.8012,-1.80125"
       style="fill:#000000;fill-opacity:1;fill-rule:evenodd;stroke:none"
       id="path114"
       inkscape:connector-curvature="0" />
    <path
       d="m -1926.6008,-580.35752 11.7187,0 m -11.7187,2.25125 0,-4.5075 m 11.7187,4.5075 0,-4.5075"
       style="fill:none;stroke:#000000;stroke-width:0.32875001;stroke-linecap:square;stroke-linejoin:miter;stroke-miterlimit:4;stroke-dasharray:none;stroke-opacity:1"
       id="path116"
       inkscape:connector-curvature="0" />
    <path
       d="m -1918.9396,-580.35752 c 0,-0.99125 -0.81,-1.80125 -1.8062,-1.80125 -0.9863,0 -1.7975,0.81 -1.7975,1.80125 0,0.99125 0.8112,1.8025 1.7975,1.8025 0.9962,0 1.8062,-0.81125 1.8062,-1.8025"
       style="fill:#000000;fill-opacity:1;fill-rule:evenodd;stroke:none"
       id="path118"
       inkscape:connector-curvature="0" />
    <path
       d="m -1850.8921,-497.79878 11.22,0 m -11.22,2.25625 0,-4.5125 m 11.22,4.5125 0,-4.5125"
       style="fill:none;stroke:#000000;stroke-width:0.32875001;stroke-linecap:square;stroke-linejoin:miter;stroke-miterlimit:4;stroke-dasharray:none;stroke-opacity:1"
       id="path120"
       inkscape:connector-curvature="0" />
    <path
       d="m -1843.3683,-497.79878 c 0,-0.99125 -0.81,-1.80125 -1.8013,-1.80125 -0.9912,0 -1.8025,0.81 -1.8025,1.80125 0,0.99125 0.8113,1.80125 1.8025,1.80125 0.9913,0 1.8013,-0.81 1.8013,-1.80125"
       style="fill:#000000;fill-opacity:1;fill-rule:evenodd;stroke:none"
       id="path122"
       inkscape:connector-curvature="0" />
    <path
       d="m -1868.7396,-481.12378 12.4413,0 m -12.4413,2.25125 0,-4.5075 m 12.4413,4.5075 0,-4.5075"
       style="fill:none;stroke:#000000;stroke-width:0.32875001;stroke-linecap:square;stroke-linejoin:miter;stroke-miterlimit:4;stroke-dasharray:none;stroke-opacity:1"
       id="path124"
       inkscape:connector-curvature="0" />
    <path
       d="m -1860.8046,-481.12378 c 0,-0.99125 -0.8162,-1.8025 -1.8075,-1.8025 -0.99,0 -1.8012,0.81125 -1.8012,1.8025 0,0.99125 0.8112,1.80125 1.8012,1.80125 0.9913,0 1.8075,-0.81 1.8075,-1.80125"
       style="fill:#000000;fill-opacity:1;fill-rule:evenodd;stroke:none"
       id="path126"
       inkscape:connector-curvature="0" />
    <path
       d="m -1886.9421,-469.99128 10.815,0 m -10.815,2.25125 0,-4.5075 m 10.815,4.5075 0,-4.5075"
       style="fill:none;stroke:#000000;stroke-width:0.32875001;stroke-linecap:square;stroke-linejoin:miter;stroke-miterlimit:4;stroke-dasharray:none;stroke-opacity:1"
       id="path128"
       inkscape:connector-curvature="0" />
    <path
       d="m -1879.7358,-469.99128 c 0,-0.99625 -0.81,-1.80625 -1.8013,-1.80625 -0.9912,0 -1.8025,0.81 -1.8025,1.80625 0,0.99125 0.8113,1.8025 1.8025,1.8025 0.9913,0 1.8013,-0.81125 1.8013,-1.8025"
       style="fill:#000000;fill-opacity:1;fill-rule:evenodd;stroke:none"
       id="path130"
       inkscape:connector-curvature="0" />
    <path
       d="m -1910.0621,-465.66503 6.1713,0 m -6.1713,2.25125 0,-4.5075 m 6.1713,4.5075 0,-4.5075"
       style="fill:none;stroke:#000000;stroke-width:0.32875001;stroke-linecap:square;stroke-linejoin:miter;stroke-miterlimit:4;stroke-dasharray:none;stroke-opacity:1"
       id="path132"
       inkscape:connector-curvature="0" />
    <path
       d="m -1905.2383,-465.66503 c 0,-0.99125 -0.815,-1.80625 -1.8063,-1.80625 -0.9912,0 -1.8025,0.815 -1.8025,1.80625 0,0.98625 0.8113,1.7975 1.8025,1.7975 0.9913,0 1.8063,-0.81125 1.8063,-1.7975"
       style="fill:#000000;fill-opacity:1;fill-rule:evenodd;stroke:none"
       id="path134"
       inkscape:connector-curvature="0" />
    <path
       d="m -1913.5346,-447.77878 6.3138,0 m -6.3138,2.12375 0,-4.51125 m 6.3138,4.51125 0,-4.51125"
       style="fill:none;stroke:#000000;stroke-width:0.32875001;stroke-linecap:square;stroke-linejoin:miter;stroke-miterlimit:4;stroke-dasharray:none;stroke-opacity:1"
       id="path136"
       inkscape:connector-curvature="0" />
    <path
       d="m -1908.5783,-447.77878 c 0,-0.99125 -0.81,-1.8025 -1.8013,-1.8025 -0.9912,0 -1.8025,0.81125 -1.8025,1.8025 0,0.99125 0.8113,1.80625 1.8025,1.80625 0.9913,0 1.8013,-0.815 1.8013,-1.80625"
       style="fill:#000000;fill-opacity:1;fill-rule:evenodd;stroke:none"
       id="path138"
       inkscape:connector-curvature="0" />
    <path
       d="m -1935.6146,-414.56128 0,-177.42749 m 0,0 -3.2912,0"
       style="fill:none;stroke:#000000;stroke-width:0.54750001;stroke-linecap:butt;stroke-linejoin:miter;stroke-miterlimit:4;stroke-dasharray:none;stroke-opacity:1"
       id="path140"
       inkscape:connector-curvature="0" />
    <path
       d="m -1935.6146,-547.68627 -3.2912,0"
       style="fill:none;stroke:#000000;stroke-width:0.54750001;stroke-linecap:butt;stroke-linejoin:miter;stroke-miterlimit:4;stroke-dasharray:none;stroke-opacity:1"
       id="path146"
       inkscape:connector-curvature="0" />
    <path
       d="m -1935.6146,-503.34128 -3.2912,0"
       style="fill:none;stroke:#000000;stroke-width:0.54750001;stroke-linecap:butt;stroke-linejoin:miter;stroke-miterlimit:4;stroke-dasharray:none;stroke-opacity:1"
       id="path152"
       inkscape:connector-curvature="0" />
    <path
       d="m -1935.6146,-458.90753 -3.2912,0"
       style="fill:none;stroke:#000000;stroke-width:0.54750001;stroke-linecap:butt;stroke-linejoin:miter;stroke-miterlimit:4;stroke-dasharray:none;stroke-opacity:1"
       id="path158"
       inkscape:connector-curvature="0" />
    <path
       d="m -1935.6146,-414.56128 -3.2912,0"
       style="fill:none;stroke:#000000;stroke-width:0.54750001;stroke-linecap:butt;stroke-linejoin:miter;stroke-miterlimit:4;stroke-dasharray:none;stroke-opacity:1"
       id="path164"
       inkscape:connector-curvature="0" />
    <path
       d="m -1935.6146,-569.76627 -1.6212,0 m 1.6212,44.33999 -1.6212,0 m 1.6212,44.3025 -1.6212,0 m 1.6212,44.29625 -1.6212,0"
       style="fill:none;stroke:#000000;stroke-width:0.54750001;stroke-linecap:butt;stroke-linejoin:miter;stroke-miterlimit:4;stroke-dasharray:none;stroke-opacity:1"
       id="path170"
       inkscape:connector-curvature="0" />
    <g
       transform="matrix(1.25,0,0,-1.25,-1958.6271,-411.33939)"
       id="g176">
      <g
         id="g178"
         clip-path="url(#clipPath180)">
        <g
           id="g184"
           transform="translate(0,-0.750488)">
          <g
             id="g186">
            <g
               id="g188"
               clip-path="url(#clipPath190)">
              <g
                 id="g194">
                <path
                   d="m 18.41,145.27 141.902,0 m -141.902,0 0,2.628"
                   style="fill:none;stroke:#000000;stroke-width:0.43799999;stroke-linecap:butt;stroke-linejoin:miter;stroke-miterlimit:4;stroke-dasharray:none;stroke-opacity:1"
                   id="path196"
                   inkscape:connector-curvature="0" />
              </g>
            </g>
          </g>
        </g>
      </g>
    </g>
    <path
       d="m -1893.8371,-591.98877 0,-3.285"
       style="fill:none;stroke:#000000;stroke-width:0.54750001;stroke-linecap:butt;stroke-linejoin:miter;stroke-miterlimit:4;stroke-dasharray:none;stroke-opacity:1"
       id="path222"
       inkscape:connector-curvature="0" />
    <path
       d="m -1852.0646,-591.98877 0,-3.285"
       style="fill:none;stroke:#000000;stroke-width:0.54750001;stroke-linecap:butt;stroke-linejoin:miter;stroke-miterlimit:4;stroke-dasharray:none;stroke-opacity:1"
       id="path228"
       inkscape:connector-curvature="0" />
    <path
       d="m -1810.3796,-591.98877 0,-3.285"
       style="fill:none;stroke:#000000;stroke-width:0.54750001;stroke-linecap:butt;stroke-linejoin:miter;stroke-miterlimit:4;stroke-dasharray:none;stroke-opacity:1"
       id="path234"
       inkscape:connector-curvature="0" />
    <path
       d="m -1768.6021,-591.98877 0,-3.285"
       style="fill:none;stroke:#000000;stroke-width:0.54750001;stroke-linecap:butt;stroke-linejoin:miter;stroke-miterlimit:4;stroke-dasharray:none;stroke-opacity:1"
       id="path240"
       inkscape:connector-curvature="0" />
    <path
       d="m -1914.7058,-591.98877 0,-1.665 m 20.8687,1.665 0,-1.665 m 20.8638,1.665 0,-1.665 m 20.9087,1.665 0,-1.665 m 20.82,1.665 0,-1.665 m 20.865,1.665 0,-1.665 m 20.9125,1.665 0,-1.665 m 20.865,1.665 0,-1.665"
       style="fill:none;stroke:#000000;stroke-width:0.54750001;stroke-linecap:butt;stroke-linejoin:miter;stroke-miterlimit:4;stroke-dasharray:none;stroke-opacity:1"
       id="path246"
       inkscape:connector-curvature="0" />
    <path
       d="m -1817.7233,-555.48377 -1.1625,10.57125 c -0.235,8.69624 -2.1388,20.10749 -4.8925,28.67124 -2.8763,8.83375 -2.5388,12.2025 -16.9875,21.1675 -14.4438,8.97 -65.3413,34.09125 -67.8325,41.60625 -2.495,7.515 -2.2213,24.73125 -2.2213,24.73125"
       style="fill:none;stroke:#000000;stroke-width:0.54750001;stroke-linecap:butt;stroke-linejoin:miter;stroke-miterlimit:4;stroke-dasharray:none;stroke-opacity:1"
       id="path252"
       inkscape:connector-curvature="0" />
    <path
       d="m -1926.8746,-445.65503 2.525,0 m -2.525,2.25125 0,-4.5075 m 2.525,4.5075 0,-4.5075"
       style="fill:none;stroke:#000000;stroke-width:0.32875001;stroke-linecap:butt;stroke-linejoin:miter;stroke-miterlimit:4;stroke-dasharray:none;stroke-opacity:1"
       id="path254"
       inkscape:connector-curvature="0" />
    <path
       d="m -1926.8746,-446.87628 2.525,0 0,2.56875 -2.525,0 0,-2.56875 z"
       style="fill:#ffffff;fill-opacity:1;fill-rule:nonzero;stroke:none"
       id="path256"
       inkscape:connector-curvature="0" />
    <path
       d="m -1926.8746,-444.30753 2.525,0 0,-2.56875 -2.525,0 0,2.56875 z m 1.6263,-2.43125 1.3525,0 m -1.3525,2.25 0,-4.50625 m 1.3525,4.50625 0,-4.50625"
       style="fill:none;stroke:#000000;stroke-width:0.32875001;stroke-linecap:butt;stroke-linejoin:miter;stroke-miterlimit:4;stroke-dasharray:none;stroke-opacity:1"
       id="path258"
       inkscape:connector-curvature="0" />
    <path
       d="m -1925.8396,-448.09128 2.5688,0 0,2.56875 -2.5688,0 0,-2.56875 z"
       style="fill:#ffffff;fill-opacity:1;fill-rule:nonzero;stroke:none"
       id="path260"
       inkscape:connector-curvature="0" />
    <path
       d="m -1925.8396,-445.52378 2.5738,0 0,-2.5675 -2.5738,0 0,2.5675 z m -2.25,-2.255 3.74,0 m -3.74,2.12375 0,-4.51125 m 3.74,4.51125 0,-4.51125"
       style="fill:none;stroke:#000000;stroke-width:0.32875001;stroke-linecap:butt;stroke-linejoin:miter;stroke-miterlimit:4;stroke-dasharray:none;stroke-opacity:1"
       id="path262"
       inkscape:connector-curvature="0" />
    <path
       d="m -1927.5046,-449.12628 2.5688,0 0,2.56875 -2.5688,0 0,-2.56875 z"
       style="fill:#ffffff;fill-opacity:1;fill-rule:nonzero;stroke:none"
       id="path264"
       inkscape:connector-curvature="0" />
    <path
       d="m -1927.5046,-446.55878 2.5688,0 0,-2.5725 -2.5688,0 0,2.5725 z m 2.2563,-1.22 2.115,0 m -2.115,2.12375 0,-4.51125 m 2.115,4.51125 0,-4.51125"
       style="fill:none;stroke:#000000;stroke-width:0.32875001;stroke-linecap:butt;stroke-linejoin:miter;stroke-miterlimit:4;stroke-dasharray:none;stroke-opacity:1"
       id="path266"
       inkscape:connector-curvature="0" />
    <path
       d="m -1925.3846,-449.12628 2.5688,0 0,2.56875 -2.5688,0 0,-2.56875 z"
       style="fill:#ffffff;fill-opacity:1;fill-rule:nonzero;stroke:none"
       id="path268"
       inkscape:connector-curvature="0" />
    <path
       d="m -1925.3846,-446.55878 2.5675,0 0,-2.5725 -2.5675,0 0,2.5725 z m 11.2638,-3.0225 7.9787,0 m -7.9787,2.12 0,-4.5075 m 7.9787,4.5075 0,-4.5075"
       style="fill:none;stroke:#000000;stroke-width:0.32875001;stroke-linecap:butt;stroke-linejoin:miter;stroke-miterlimit:4;stroke-dasharray:none;stroke-opacity:1"
       id="path270"
       inkscape:connector-curvature="0" />
    <path
       d="m -1911.4146,-450.92878 2.5688,0 0,2.56875 -2.5688,0 0,-2.56875 z"
       style="fill:#ffffff;fill-opacity:1;fill-rule:nonzero;stroke:none"
       id="path272"
       inkscape:connector-curvature="0" />
    <path
       d="m -1911.4146,-448.36003 2.5675,0 0,-2.56875 -2.5675,0 0,2.56875 z m -4.82,-4.96125 3.7838,0 m -3.7838,2.075 0,-4.50625 m 3.7838,4.50625 0,-4.50625"
       style="fill:none;stroke:#000000;stroke-width:0.32875001;stroke-linecap:butt;stroke-linejoin:miter;stroke-miterlimit:4;stroke-dasharray:none;stroke-opacity:1"
       id="path274"
       inkscape:connector-curvature="0" />
    <path
       d="m -1915.6046,-454.66878 2.525,0 0,2.52 -2.525,0 0,-2.52 z"
       style="fill:#ffffff;fill-opacity:1;fill-rule:nonzero;stroke:none"
       id="path276"
       inkscape:connector-curvature="0" />
    <path
       d="m -1915.6046,-452.14878 2.525,0 0,-2.52 -2.525,0 0,2.52 z m -1.67,-1.1725 3.4713,0 m -3.4713,2.075 0,-4.50625 m 3.4713,4.50625 0,-4.50625"
       style="fill:none;stroke:#000000;stroke-width:0.32875001;stroke-linecap:butt;stroke-linejoin:miter;stroke-miterlimit:4;stroke-dasharray:none;stroke-opacity:1"
       id="path278"
       inkscape:connector-curvature="0" />
    <path
       d="m -1916.8208,-454.66878 2.5687,0 0,2.52 -2.5687,0 0,-2.52 z"
       style="fill:#ffffff;fill-opacity:1;fill-rule:nonzero;stroke:none"
       id="path280"
       inkscape:connector-curvature="0" />
    <path
       d="m -1916.8208,-452.14878 2.5687,0 0,-2.52 -2.5687,0 0,2.52 z m 99.2337,-103.33499 3.7838,0 m -3.7838,2.255 0,-4.50625 m 3.7838,4.50625 0,-4.50625"
       style="fill:none;stroke:#000000;stroke-width:0.32875001;stroke-linecap:butt;stroke-linejoin:miter;stroke-miterlimit:4;stroke-dasharray:none;stroke-opacity:1"
       id="path282"
       inkscape:connector-curvature="0" />
    <path
       d="m -1816.8208,-556.70002 2.5687,0 0,2.56875 -2.5687,0 0,-2.56875 z"
       style="fill:#ffffff;fill-opacity:1;fill-rule:nonzero;stroke:none"
       id="path284"
       inkscape:connector-curvature="0" />
    <path
       d="m -1816.8208,-554.13127 2.5687,0 0,-2.56875 -2.5687,0 0,2.56875 z m -6.7625,8.70125 4.6437,0 m -4.6437,2.25 0,-4.50625 m 4.6437,4.50625 0,-4.50625"
       style="fill:none;stroke:#000000;stroke-width:0.32875001;stroke-linecap:butt;stroke-linejoin:miter;stroke-miterlimit:4;stroke-dasharray:none;stroke-opacity:1"
       id="path286"
       inkscape:connector-curvature="0" />
    <path
       d="m -1822.5483,-546.78252 2.5687,0 0,2.56875 -2.5687,0 0,-2.56875 z"
       style="fill:#ffffff;fill-opacity:1;fill-rule:nonzero;stroke:none"
       id="path288"
       inkscape:connector-curvature="0" />
    <path
       d="m -1822.5483,-544.21502 2.5687,0 0,-2.5675 -2.5687,0 0,2.5675 z m -3.1538,2.56875 4.6875,0 m -4.6875,2.25125 0,-4.5075 m 4.6875,4.5075 0,-4.5075"
       style="fill:none;stroke:#000000;stroke-width:0.32875001;stroke-linecap:butt;stroke-linejoin:miter;stroke-miterlimit:4;stroke-dasharray:none;stroke-opacity:1"
       id="path290"
       inkscape:connector-curvature="0" />
    <path
       d="m -1824.6183,-542.99877 2.52,0 0,2.525 -2.52,0 0,-2.525 z"
       style="fill:#ffffff;fill-opacity:1;fill-rule:nonzero;stroke:none"
       id="path292"
       inkscape:connector-curvature="0" />
    <path
       d="m -1824.6183,-540.47502 2.52,0 0,-2.52375 -2.52,0 0,2.52375 z m -98.0175,-25.86875 3.74,0 m -3.74,2.25625 0,-4.5075 m 3.74,4.5075 0,-4.5075"
       style="fill:none;stroke:#000000;stroke-width:0.32875001;stroke-linecap:butt;stroke-linejoin:miter;stroke-miterlimit:4;stroke-dasharray:none;stroke-opacity:1"
       id="path294"
       inkscape:connector-curvature="0" />
    <path
       d="m -1921.9333,-567.44252 2.3337,0 0,2.33375 -2.3337,0 0,-2.33375 z"
       style="fill:#ffffff;fill-opacity:1;fill-rule:nonzero;stroke:none"
       id="path296"
       inkscape:connector-curvature="0" />
    <path
       d="m -1921.9333,-565.10877 2.335,0 0,-2.33375 -2.335,0 0,2.33375 z m 7.315,99.43874 3.74,0 m -3.74,2.25625 0,-4.5125 m 3.74,4.5125 0,-4.5125"
       style="fill:none;stroke:#000000;stroke-width:0.32875001;stroke-linecap:butt;stroke-linejoin:miter;stroke-miterlimit:4;stroke-dasharray:none;stroke-opacity:1"
       id="path298"
       inkscape:connector-curvature="0" />
    <path
       d="m -1913.9146,-466.76878 2.3338,0 0,2.33375 -2.3338,0 0,-2.33375 z"
       style="fill:#ffffff;fill-opacity:1;fill-rule:nonzero;stroke:none"
       id="path300"
       inkscape:connector-curvature="0" />
    <path
       d="m -1913.9146,-464.43503 2.3338,0 0,-2.33375 -2.3338,0 0,2.33375 z m 1.5125,-16.61625 3.7413,0 m -3.7413,2.25625 0,-4.50625 m 3.7413,4.50625 0,-4.50625"
       style="fill:none;stroke:#000000;stroke-width:0.32875001;stroke-linecap:butt;stroke-linejoin:miter;stroke-miterlimit:4;stroke-dasharray:none;stroke-opacity:1"
       id="path302"
       inkscape:connector-curvature="0" />
    <path
       d="m -1911.6983,-482.32003 2.3337,0 0,2.505 -2.3337,0 0,-2.505 z"
       style="fill:#ffffff;fill-opacity:1;fill-rule:nonzero;stroke:none"
       id="path304"
       inkscape:connector-curvature="0" />
    <path
       d="m -1911.6983,-479.81503 2.3337,0 0,-2.505 -2.3337,0 0,2.505 z m 30.7912,-31.18625 2.5238,0 m -2.5238,2.25 0,-4.50625 m 2.5238,4.50625 0,-4.50625"
       style="fill:none;stroke:#000000;stroke-width:0.32875001;stroke-linecap:butt;stroke-linejoin:miter;stroke-miterlimit:4;stroke-dasharray:none;stroke-opacity:1"
       id="path306"
       inkscape:connector-curvature="0" />
    <path
       d="m -1880.9071,-512.35378 2.525,0 0,2.525 -2.525,0 0,-2.525 z"
       style="fill:#ffffff;fill-opacity:1;fill-rule:nonzero;stroke:none"
       id="path308"
       inkscape:connector-curvature="0" />
    <path
       d="m -1880.9071,-509.83003 2.5238,0 0,-2.52375 -2.5238,0 0,2.52375 z m -13.97,12.03125 2.075,0 m -2.075,2.25625 0,-4.5125 m 2.075,4.5125 0,-4.5125"
       style="fill:none;stroke:#000000;stroke-width:0.32875001;stroke-linecap:butt;stroke-linejoin:miter;stroke-miterlimit:4;stroke-dasharray:none;stroke-opacity:1"
       id="path310"
       inkscape:connector-curvature="0" />
    <path
       d="m -1895.0583,-499.01503 2.5687,0 0,2.56875 -2.5687,0 0,-2.56875 z"
       style="fill:#ffffff;fill-opacity:1;fill-rule:nonzero;stroke:none"
       id="path312"
       inkscape:connector-curvature="0" />
    <path
       d="m -1895.0583,-496.44628 2.5687,0 0,-2.56875 -2.5687,0 0,2.56875 z m -5.6788,-1.3525 2.525,0 m -2.525,2.25625 0,-4.5125 m 2.525,4.5125 0,-4.5125"
       style="fill:none;stroke:#000000;stroke-width:0.32875001;stroke-linecap:butt;stroke-linejoin:miter;stroke-miterlimit:4;stroke-dasharray:none;stroke-opacity:1"
       id="path314"
       inkscape:connector-curvature="0" />
    <path
       d="m -1900.7371,-499.01503 2.525,0 0,2.56875 -2.525,0 0,-2.56875 z"
       style="fill:#ffffff;fill-opacity:1;fill-rule:nonzero;stroke:none"
       id="path316"
       inkscape:connector-curvature="0" />
    <path
       d="m -1900.7371,-496.44628 2.525,0 0,-2.56875 -2.525,0 0,2.56875 z m -7.9725,17.57375 0,-4.5075 m -2.9837,2.25625 6.7237,0 m -6.7237,2.25125 0,-4.5075 m 6.7237,4.5075 0,-4.5075"
       style="fill:none;stroke:#000000;stroke-width:0.32875001;stroke-linecap:butt;stroke-linejoin:miter;stroke-miterlimit:4;stroke-dasharray:none;stroke-opacity:1"
       id="path318"
       inkscape:connector-curvature="0" />
    <path
       d="m -1909.2958,-482.38378 2.525,0 0,2.56875 -2.525,0 0,-2.56875 z"
       style="fill:#ffffff;fill-opacity:1;fill-rule:nonzero;stroke:none"
       id="path320"
       inkscape:connector-curvature="0" />
    <path
       d="m -1909.2958,-479.81503 2.5237,0 0,-2.56875 -2.5237,0 0,2.56875 z m -1.5338,16.40125 0,-4.5075 m -1.8012,2.25625 4.5062,0 m -4.5062,2.25125 0,-4.5075 m 4.5062,4.5075 0,-4.5075"
       style="fill:none;stroke:#000000;stroke-width:0.32875001;stroke-linecap:butt;stroke-linejoin:miter;stroke-miterlimit:4;stroke-dasharray:none;stroke-opacity:1"
       id="path322"
       inkscape:connector-curvature="0" />
    <path
       d="m -1911.5521,-466.83628 2.525,0 0,2.52 -2.525,0 0,-2.52 z"
       style="fill:#ffffff;fill-opacity:1;fill-rule:nonzero;stroke:none"
       id="path324"
       inkscape:connector-curvature="0" />
    <path
       d="m -1911.5521,-464.31753 2.525,0 0,-2.52375 -2.525,0 0,2.52375 z m -1.665,16.53875 2.3875,0 m -2.3875,2.12375 0,-4.51125 m 2.3875,4.51125 0,-4.51125"
       style="fill:none;stroke:#000000;stroke-width:0.32875001;stroke-linecap:butt;stroke-linejoin:miter;stroke-miterlimit:4;stroke-dasharray:none;stroke-opacity:1"
       id="path326"
       inkscape:connector-curvature="0" />
    <path
       d="m -1913.2171,-449.12628 2.5688,0 0,2.56875 -2.5688,0 0,-2.56875 z"
       style="fill:#ffffff;fill-opacity:1;fill-rule:nonzero;stroke:none"
       id="path328"
       inkscape:connector-curvature="0" />
    <path
       d="m -1913.2171,-449.13128 2.5688,0 0,2.57375 -2.5688,0 0,-2.57375 z"
       style="fill:none;stroke:#000000;stroke-width:0.32875001;stroke-linecap:butt;stroke-linejoin:miter;stroke-miterlimit:4;stroke-dasharray:none;stroke-opacity:1"
       id="path330"
       inkscape:connector-curvature="0" />
    <path
       d="m -1790.7758,-547.05627 27.6712,0 0,10.45875 -27.6712,0 0,-10.45875 z"
       style="fill:#ffffff;fill-opacity:1;fill-rule:nonzero;stroke:none"
       id="path338"
       inkscape:connector-curvature="0" />
    <text
       y="-539.56207"
       x="-1791.1604"
       style="font-variant:normal;font-weight:normal;font-size:8.76262474px;font-family:TeXGyreHeros;-inkscape-font-specification:TeXGyreHeros-Regular;writing-mode:lr-tb;fill:#000000;fill-opacity:1;fill-rule:nonzero;stroke:none"
       id="text340">
      <tspan
         x="-1791.1604"
         sodipodi:role="line"
         id="tspan342"
         y="-539.56207">$\sim 40^\circ$C</tspan>
    </text>
    <path
       d="m -1794.1058,-499.91753 31.0012,0 0,10.41 -31.0012,0 0,-10.41 z"
       style="fill:#d9d9d9;fill-opacity:1;fill-rule:nonzero;stroke:none"
       id="path352"
       inkscape:connector-curvature="0" />
    <text
       sodipodi:linespacing="125%"
       id="text4769"
       y="-580.01239"
       x="-1898.5303"
       style="font-style:normal;font-weight:normal;font-size:40px;line-height:125%;font-family:sans-serif;letter-spacing:0px;word-spacing:0px;fill:#000000;fill-opacity:1;stroke:none;stroke-width:1px;stroke-linecap:butt;stroke-linejoin:miter;stroke-opacity:1"
       xml:space="preserve"><tspan
         style="font-size:8.75px"
         id="tspan4773"
         y="-580.01239"
         x="-1898.5303"
         sodipodi:role="line">Apatite fission-track age</tspan></text>
    <text
       style="font-variant:normal;font-weight:normal;font-size:8.76262474px;font-family:TeXGyreHeros;-inkscape-font-specification:TeXGyreHeros-Regular;writing-mode:lr-tb;fill:#000000;fill-opacity:1;fill-rule:nonzero;stroke:none"
       id="text142"
       x="-1947.5073"
       y="-588.08502">
      <tspan
         x="-1947.5073"
         y="-588.08502"
         id="tspan144">0</tspan>
    </text>
    <text
       style="font-variant:normal;font-weight:normal;font-size:8.76262474px;font-family:TeXGyreHeros;-inkscape-font-specification:TeXGyreHeros-Regular;writing-mode:lr-tb;fill:#000000;fill-opacity:1;fill-rule:nonzero;stroke:none"
       id="text148"
       x="-1947.5073"
       y="-544.76123">
      <tspan
         x="-1947.5073"
         y="-544.76123"
         id="tspan150">2</tspan>
    </text>
    <text
       style="font-variant:normal;font-weight:normal;font-size:8.76262474px;font-family:TeXGyreHeros;-inkscape-font-specification:TeXGyreHeros-Regular;writing-mode:lr-tb;fill:#000000;fill-opacity:1;fill-rule:nonzero;stroke:none"
       id="text154"
       x="-1947.5073"
       y="-500.46246">
      <tspan
         x="-1947.5073"
         y="-500.46246"
         id="tspan156">4</tspan>
    </text>
    <text
       style="font-variant:normal;font-weight:normal;font-size:8.76262474px;font-family:TeXGyreHeros;-inkscape-font-specification:TeXGyreHeros-Regular;writing-mode:lr-tb;fill:#000000;fill-opacity:1;fill-rule:nonzero;stroke:none"
       id="text160"
       x="-1947.5073"
       y="-455.9837">
      <tspan
         x="-1947.5073"
         y="-455.9837"
         id="tspan162">6</tspan>
    </text>
    <text
       style="font-variant:normal;font-weight:normal;font-size:8.76262474px;font-family:TeXGyreHeros;-inkscape-font-specification:TeXGyreHeros-Regular;writing-mode:lr-tb;fill:#000000;fill-opacity:1;fill-rule:nonzero;stroke:none"
       id="text166"
       x="-1947.5073"
       y="-410.66495">
      <tspan
         x="-1947.5073"
         y="-410.66495"
         id="tspan168">8</tspan>
    </text>
    <text
       transform="matrix(0,-1,1,0,0,0)"
       style="font-variant:normal;font-weight:normal;font-size:8.76262474px;font-family:TeXGyreHeros;-inkscape-font-specification:TeXGyreHeros-Regular;writing-mode:lr-tb;fill:#000000;fill-opacity:1;fill-rule:nonzero;stroke:none"
       id="text172"
       x="468.86746"
       y="-1953.3975">
      <tspan
         x="468.86746"
         y="-1953.3975"
         sodipodi:role="line"
         id="tspan174"
         style="font-style:normal;font-variant:normal;font-weight:normal;font-stretch:normal;font-family:sans-serif;-inkscape-font-specification:sans-serif">Palaeo-depth (km)</tspan>
    </text>
    <text
       y="-597.60876"
       x="-1939.2087"
       style="font-variant:normal;font-weight:normal;font-size:8.76262474px;font-family:TeXGyreHeros;-inkscape-font-specification:TeXGyreHeros-Regular;writing-mode:lr-tb;fill:#000000;fill-opacity:1;fill-rule:nonzero;stroke:none"
       id="text218">
      <tspan
         x="-1939.2087"
         y="-597.60876"
         id="tspan220">0</tspan>
    </text>
    <text
       y="-597.60876"
       x="-1899.87"
       style="font-variant:normal;font-weight:normal;font-size:8.76262474px;font-family:TeXGyreHeros;-inkscape-font-specification:TeXGyreHeros-Regular;writing-mode:lr-tb;fill:#000000;fill-opacity:1;fill-rule:nonzero;stroke:none"
       id="text224">
      <tspan
         x="-1899.87 -1894.9979"
         y="-597.60876"
         sodipodi:role="line"
         id="tspan226">20</tspan>
    </text>
    <text
       y="-597.60876"
       x="-1858.125"
       style="font-variant:normal;font-weight:normal;font-size:8.76262474px;font-family:TeXGyreHeros;-inkscape-font-specification:TeXGyreHeros-Regular;writing-mode:lr-tb;fill:#000000;fill-opacity:1;fill-rule:nonzero;stroke:none"
       id="text230">
      <tspan
         x="-1858.125 -1853.2529"
         y="-597.60876"
         sodipodi:role="line"
         id="tspan232">40</tspan>
    </text>
    <text
       y="-597.60876"
       x="-1816.3788"
       style="font-variant:normal;font-weight:normal;font-size:8.76262474px;font-family:TeXGyreHeros;-inkscape-font-specification:TeXGyreHeros-Regular;writing-mode:lr-tb;fill:#000000;fill-opacity:1;fill-rule:nonzero;stroke:none"
       id="text236">
      <tspan
         x="-1816.3788 -1811.5067"
         y="-597.60876"
         sodipodi:role="line"
         id="tspan238">60</tspan>
    </text>
    <text
       y="-597.60876"
       x="-1774.6324"
       style="font-variant:normal;font-weight:normal;font-size:8.76262474px;font-family:TeXGyreHeros;-inkscape-font-specification:TeXGyreHeros-Regular;writing-mode:lr-tb;fill:#000000;fill-opacity:1;fill-rule:nonzero;stroke:none"
       id="text242">
      <tspan
         x="-1774.6324 -1769.7605"
         y="-597.60876"
         sodipodi:role="line"
         id="tspan244">80</tspan>
    </text>
    <text
       y="-609.45746"
       x="-1886.3113"
       style="font-variant:normal;font-weight:normal;font-size:8.76262474px;font-family:TeXGyreHeros;-inkscape-font-specification:TeXGyreHeros-Regular;writing-mode:lr-tb;fill:#000000;fill-opacity:1;fill-rule:nonzero;stroke:none"
       id="text248">
      <tspan
         x="-1886.3113"
         y="-609.45746"
         sodipodi:role="line"
         id="tspan250"
         style="font-style:normal;font-variant:normal;font-weight:normal;font-stretch:normal;font-family:sans-serif;-inkscape-font-specification:sans-serif">Apparent Age (Myr)</tspan>
    </text>
    <text
       xml:space="preserve"
       style="font-style:normal;font-weight:normal;font-size:40px;line-height:125%;font-family:sans-serif;letter-spacing:0px;word-spacing:0px;fill:#000000;fill-opacity:1;stroke:none;stroke-width:1px;stroke-linecap:butt;stroke-linejoin:miter;stroke-opacity:1"
       x="-1898.5303"
       y="-566.01239"
       id="text6799"
       sodipodi:linespacing="125%"><tspan
         sodipodi:role="line"
         x="-1898.5303"
         y="-566.01239"
         id="tspan6801"
         style="font-size:8.75px">Apatite U-Th-He age</tspan></text>
    <text
       id="text6803"
       style="font-variant:normal;font-weight:normal;font-size:8.76262474px;font-family:TeXGyreHeros;-inkscape-font-specification:TeXGyreHeros-Regular;writing-mode:lr-tb;fill:#000000;fill-opacity:1;fill-rule:nonzero;stroke:none"
       x="-1791.1604"
       y="-515.56207">
      <tspan
         y="-515.56207"
         id="tspan6805"
         sodipodi:role="line"
         x="-1791.1604">$\sim 60^\circ$C</tspan>
    </text>
    <text
       y="-491.56207"
       x="-1791.1604"
       style="font-variant:normal;font-weight:normal;font-size:8.76262474px;font-family:TeXGyreHeros;-inkscape-font-specification:TeXGyreHeros-Regular;writing-mode:lr-tb;fill:#000000;fill-opacity:1;fill-rule:nonzero;stroke:none"
       id="text6807">
      <tspan
         x="-1791.1604"
         sodipodi:role="line"
         id="tspan6809"
         y="-491.56207">$\sim 80^\circ$C</tspan>
    </text>
    <text
       id="text6811"
       style="font-variant:normal;font-weight:normal;font-size:8.76262474px;font-family:TeXGyreHeros;-inkscape-font-specification:TeXGyreHeros-Regular;writing-mode:lr-tb;fill:#000000;fill-opacity:1;fill-rule:nonzero;stroke:none"
       x="-1791.1604"
       y="-457.56207">
      <tspan
         y="-457.56207"
         id="tspan6813"
         sodipodi:role="line"
         x="-1791.1604">$\sim 110^\circ$C</tspan>
    </text>
  </g>
</svg>
