<?xml version="1.0" encoding="UTF-8" standalone="no"?>
<!-- Created with Inkscape (http://www.inkscape.org/) -->

<svg
   xmlns:dc="http://purl.org/dc/elements/1.1/"
   xmlns:cc="http://creativecommons.org/ns#"
   xmlns:rdf="http://www.w3.org/1999/02/22-rdf-syntax-ns#"
   xmlns:svg="http://www.w3.org/2000/svg"
   xmlns="http://www.w3.org/2000/svg"
   xmlns:sodipodi="http://sodipodi.sourceforge.net/DTD/sodipodi-0.dtd"
   xmlns:inkscape="http://www.inkscape.org/namespaces/inkscape"
   version="1.1"
   id="svg2"
   xml:space="preserve"
   width="658.05341"
   height="283.57983"
   viewBox="0 0 658.05341 283.57983"
   sodipodi:docname="commonPbisochron13detrital.svg"
   inkscape:version="0.92.5 (2060ec1f9f, 2020-04-08)"><metadata
     id="metadata8"><rdf:RDF><cc:Work
         rdf:about=""><dc:format>image/svg+xml</dc:format><dc:type
           rdf:resource="http://purl.org/dc/dcmitype/StillImage" /><dc:title></dc:title></cc:Work></rdf:RDF></metadata><defs
     id="defs6"><clipPath
       clipPathUnits="userSpaceOnUse"
       id="clipPath88"><path
         d="M 47,13 H 244.199 V 170 H 47 Z"
         id="path86"
         inkscape:connector-curvature="0" /></clipPath><clipPath
       clipPathUnits="userSpaceOnUse"
       id="clipPath114"><path
         d="m 39,157 h 11 v 10 H 39 Z"
         id="path112"
         inkscape:connector-curvature="0" /></clipPath><clipPath
       clipPathUnits="userSpaceOnUse"
       id="clipPath130"><path
         d="m 39,85 h 2 v 10 h -2 z"
         id="path128"
         inkscape:connector-curvature="0" /></clipPath><clipPath
       clipPathUnits="userSpaceOnUse"
       id="clipPath216"><path
         d="m 252,112 h 6 v 15 h -6 z"
         id="path214"
         inkscape:connector-curvature="0" /></clipPath><clipPath
       clipPathUnits="userSpaceOnUse"
       id="clipPath234"><path
         d="m 252,80 h 6 v 15 h -6 z"
         id="path232"
         inkscape:connector-curvature="0" /></clipPath><clipPath
       clipPathUnits="userSpaceOnUse"
       id="clipPath252"><path
         d="M 291,13 H 496.199 V 98 H 291 Z"
         id="path250"
         inkscape:connector-curvature="0" /></clipPath><clipPath
       id="clipPath1225"
       clipPathUnits="userSpaceOnUse"><path
         inkscape:connector-curvature="0"
         id="path1223"
         d="M 47,13 H 244.199 V 170 H 47 Z" /></clipPath><clipPath
       id="clipPath1251"
       clipPathUnits="userSpaceOnUse"><path
         inkscape:connector-curvature="0"
         id="path1249"
         d="m 39,157 h 11 v 10 H 39 Z" /></clipPath><clipPath
       id="clipPath1267"
       clipPathUnits="userSpaceOnUse"><path
         inkscape:connector-curvature="0"
         id="path1265"
         d="m 39,85 h 2 v 10 h -2 z" /></clipPath><clipPath
       id="clipPath1353"
       clipPathUnits="userSpaceOnUse"><path
         inkscape:connector-curvature="0"
         id="path1351"
         d="m 252,112 h 6 v 15 h -6 z" /></clipPath><clipPath
       id="clipPath1371"
       clipPathUnits="userSpaceOnUse"><path
         inkscape:connector-curvature="0"
         id="path1369"
         d="m 252,80 h 6 v 15 h -6 z" /></clipPath><clipPath
       id="clipPath1389"
       clipPathUnits="userSpaceOnUse"><path
         inkscape:connector-curvature="0"
         id="path1387"
         d="M 291,13 H 496.199 V 98 H 291 Z" /></clipPath></defs><sodipodi:namedview
     pagecolor="#ffffff"
     bordercolor="#666666"
     borderopacity="1"
     objecttolerance="10"
     gridtolerance="10"
     guidetolerance="10"
     inkscape:pageopacity="0"
     inkscape:pageshadow="2"
     inkscape:window-width="1920"
     inkscape:window-height="1046"
     id="namedview4"
     showgrid="false"
     fit-margin-top="0"
     fit-margin-left="0"
     fit-margin-right="0"
     fit-margin-bottom="0"
     inkscape:zoom="1.67125"
     inkscape:cx="335.01702"
     inkscape:cy="90.030404"
     inkscape:window-x="0"
     inkscape:window-y="-3"
     inkscape:window-maximized="1"
     inkscape:current-layer="g10" /><g
     id="g10"
     inkscape:groupmode="layer"
     inkscape:label="commonPbisochron13detrital"
     transform="matrix(1.3333333,0,0,1.3333333,1.6364944,-9.4076131)"><path
       inkscape:connector-curvature="0"
       id="path1091"
       d="M 46.102,13.855 185.625,168 166.8192,168.48661 46.102,13.855"
       style="fill:#00ffff;fill-opacity:0.5;stroke:#000000;stroke-width:0.375;stroke-linecap:butt;stroke-linejoin:miter;stroke-miterlimit:4;stroke-dasharray:none;stroke-opacity:1"
       sodipodi:nodetypes="cccc" /><path
       sodipodi:nodetypes="cccc"
       inkscape:connector-curvature="0"
       id="path1093"
       d="M 46.102,13.855 141.75,168 136.875,168.75 46.102,13.855"
       style="fill:#00ff00;fill-opacity:0.5;stroke:#000000;stroke-width:0.375;stroke-linecap:butt;stroke-linejoin:miter;stroke-miterlimit:4;stroke-dasharray:none;stroke-opacity:1" /><g
       id="g12"><path
         d="M 46.602,184.801 H 219.328"
         style="fill:none;stroke:#000000;stroke-width:0.75;stroke-linecap:round;stroke-linejoin:round;stroke-miterlimit:10;stroke-dasharray:none;stroke-opacity:1"
         id="path16"
         inkscape:connector-curvature="0" /><path
         d="m 46.602,184.801 v 7.801"
         style="fill:none;stroke:#000000;stroke-width:0.75;stroke-linecap:round;stroke-linejoin:round;stroke-miterlimit:10;stroke-dasharray:none;stroke-opacity:1"
         id="path18"
         inkscape:connector-curvature="0" /><path
         d="m 81.145,184.801 v 7.801"
         style="fill:none;stroke:#000000;stroke-width:0.75;stroke-linecap:round;stroke-linejoin:round;stroke-miterlimit:10;stroke-dasharray:none;stroke-opacity:1"
         id="path20"
         inkscape:connector-curvature="0" /><path
         d="m 115.691,184.801 v 7.801"
         style="fill:none;stroke:#000000;stroke-width:0.75;stroke-linecap:round;stroke-linejoin:round;stroke-miterlimit:10;stroke-dasharray:none;stroke-opacity:1"
         id="path22"
         inkscape:connector-curvature="0" /><path
         d="m 150.238,184.801 v 7.801"
         style="fill:none;stroke:#000000;stroke-width:0.75;stroke-linecap:round;stroke-linejoin:round;stroke-miterlimit:10;stroke-dasharray:none;stroke-opacity:1"
         id="path24"
         inkscape:connector-curvature="0" /><path
         d="m 184.781,184.801 v 7.801"
         style="fill:none;stroke:#000000;stroke-width:0.75;stroke-linecap:round;stroke-linejoin:round;stroke-miterlimit:10;stroke-dasharray:none;stroke-opacity:1"
         id="path26"
         inkscape:connector-curvature="0" /><path
         d="m 219.328,184.801 v 7.801"
         style="fill:none;stroke:#000000;stroke-width:0.75;stroke-linecap:round;stroke-linejoin:round;stroke-miterlimit:10;stroke-dasharray:none;stroke-opacity:1"
         id="path28"
         inkscape:connector-curvature="0" /><text
         transform="translate(43.601562,204.95703)"
         style="font-variant:normal;font-weight:normal;font-size:13px;font-family:'Nimbus Roman';-inkscape-font-specification:NimbusRoman-Regular;writing-mode:lr-tb;fill:#000000;fill-opacity:1;fill-rule:nonzero;stroke:none"
         id="text32"><tspan
           x="0 31.538 37.543999 66.092003 72.084999 100.633 106.639 135.174 141.17999 166.72501 172.731 178.724"
           y="0"
           sodipodi:role="line"
           id="tspan30">020406080100</tspan></text>
<path
         d="M 39,178.246 V 14.355"
         style="fill:none;stroke:#000000;stroke-width:0.75;stroke-linecap:round;stroke-linejoin:round;stroke-miterlimit:10;stroke-dasharray:none;stroke-opacity:1"
         id="path34"
         inkscape:connector-curvature="0" /><path
         d="M 39,178.246 H 31.199"
         style="fill:none;stroke:#000000;stroke-width:0.75;stroke-linecap:round;stroke-linejoin:round;stroke-miterlimit:10;stroke-dasharray:none;stroke-opacity:1"
         id="path36"
         inkscape:connector-curvature="0" /><path
         d="M 39,137.273 H 31.199"
         style="fill:none;stroke:#000000;stroke-width:0.75;stroke-linecap:round;stroke-linejoin:round;stroke-miterlimit:10;stroke-dasharray:none;stroke-opacity:1"
         id="path38"
         inkscape:connector-curvature="0" /><path
         d="M 39,96.301 H 31.199"
         style="fill:none;stroke:#000000;stroke-width:0.75;stroke-linecap:round;stroke-linejoin:round;stroke-miterlimit:10;stroke-dasharray:none;stroke-opacity:1"
         id="path40"
         inkscape:connector-curvature="0" /><path
         d="M 39,55.328 H 31.199"
         style="fill:none;stroke:#000000;stroke-width:0.75;stroke-linecap:round;stroke-linejoin:round;stroke-miterlimit:10;stroke-dasharray:none;stroke-opacity:1"
         id="path42"
         inkscape:connector-curvature="0" /><path
         d="M 39,14.355 H 31.199"
         style="fill:none;stroke:#000000;stroke-width:0.75;stroke-linecap:round;stroke-linejoin:round;stroke-miterlimit:10;stroke-dasharray:none;stroke-opacity:1"
         id="path44"
         inkscape:connector-curvature="0" /><text
         transform="rotate(-90,106.85156,78.894531)"
         style="font-variant:normal;font-weight:normal;font-size:13px;font-family:'Nimbus Roman';-inkscape-font-specification:NimbusRoman-Regular;writing-mode:lr-tb;fill:#000000;fill-opacity:1;fill-rule:nonzero;stroke:none"
         id="text48"><tspan
           x="0 6.006 8.9960003 40.976002 46.969002 49.972 81.939003 87.945 90.947998 122.915 128.92101 131.924 163.89101 169.897 172.88699"
           y="0"
           sodipodi:role="line"
           id="tspan46">0.00.20.40.60.8</tspan></text>
<text
         transform="translate(113.60156,213.19531)"
         style="font-variant:normal;font-weight:normal;font-size:9.09863281px;font-family:'Nimbus Roman';-inkscape-font-specification:NimbusRoman-Regular;writing-mode:lr-tb;fill:#000000;fill-opacity:1;fill-rule:nonzero;stroke:none"
         id="text52"><tspan
           x="0 5.0042481 9.9993973"
           y="0"
           sodipodi:role="line"
           id="tspan50">238</tspan></text>
<text
         transform="translate(128.60156,219.55859)"
         style="font-variant:normal;font-weight:normal;font-size:13px;font-family:'Nimbus Roman';-inkscape-font-specification:NimbusRoman-Regular;writing-mode:lr-tb;fill:#000000;fill-opacity:1;fill-rule:nonzero;stroke:none"
         id="text56"><tspan
           x="0 8.9960003"
           y="0"
           sodipodi:role="line"
           id="tspan54">U/</tspan></text>
<text
         transform="translate(141.60156,213.19531)"
         style="font-variant:normal;font-weight:normal;font-size:9.09863281px;font-family:'Nimbus Roman';-inkscape-font-specification:NimbusRoman-Regular;writing-mode:lr-tb;fill:#000000;fill-opacity:1;fill-rule:nonzero;stroke:none"
         id="text60"><tspan
           x="0 5.0042481 9.9993973"
           y="0"
           sodipodi:role="line"
           id="tspan58">206</tspan></text>
<text
         transform="translate(156.60156,219.55859)"
         style="font-variant:normal;font-weight:normal;font-size:13px;font-family:'Nimbus Roman';-inkscape-font-specification:NimbusRoman-Regular;writing-mode:lr-tb;fill:#000000;fill-opacity:1;fill-rule:nonzero;stroke:none"
         id="text64"><tspan
           x="0 6.994"
           y="0"
           sodipodi:role="line"
           id="tspan62">Pb</tspan></text>
<text
         transform="rotate(-90,65.648437,60.652343)"
         style="font-variant:normal;font-weight:normal;font-size:9.09863281px;font-family:'Nimbus Roman';-inkscape-font-specification:NimbusRoman-Regular;writing-mode:lr-tb;fill:#000000;fill-opacity:1;fill-rule:nonzero;stroke:none"
         id="text68"><tspan
           x="0 5.0042481 9.9993973"
           y="0"
           sodipodi:role="line"
           id="tspan66">207</tspan></text>
<text
         transform="rotate(-90,61.330078,49.970703)"
         style="font-variant:normal;font-weight:normal;font-size:13px;font-family:'Nimbus Roman';-inkscape-font-specification:NimbusRoman-Regular;writing-mode:lr-tb;fill:#000000;fill-opacity:1;fill-rule:nonzero;stroke:none"
         id="text72"><tspan
           x="0 6.994 13"
           y="0"
           sodipodi:role="line"
           id="tspan70">Pb/</tspan></text>
<text
         transform="rotate(-90,49.648437,44.652343)"
         style="font-variant:normal;font-weight:normal;font-size:9.09863281px;font-family:'Nimbus Roman';-inkscape-font-specification:NimbusRoman-Regular;writing-mode:lr-tb;fill:#000000;fill-opacity:1;fill-rule:nonzero;stroke:none"
         id="text76"><tspan
           x="0 5.0042481 9.9993973"
           y="0"
           sodipodi:role="line"
           id="tspan74">206</tspan></text>
<text
         transform="rotate(-90,45.330078,33.970703)"
         style="font-variant:normal;font-weight:normal;font-size:13px;font-family:'Nimbus Roman';-inkscape-font-specification:NimbusRoman-Regular;writing-mode:lr-tb;fill:#000000;fill-opacity:1;fill-rule:nonzero;stroke:none"
         id="text80"><tspan
           x="0 6.994"
           y="0"
           sodipodi:role="line"
           id="tspan78">Pb</tspan></text>
<text
         id="text1623"
         style="font-variant:normal;font-weight:normal;font-size:13px;font-family:'Nimbus Roman';-inkscape-font-specification:NimbusRoman-Regular;writing-mode:lr-tb;fill:#000000;fill-opacity:1;fill-rule:nonzero;stroke:none"
         x="227.60156"
         y="21.558594"><tspan
           id="tspan1621"
           sodipodi:role="line"
           y="21.558594"
           x="227.60156"
           style="font-size:16px">a)</tspan></text>
<text
         y="21.558594"
         x="476.60156"
         style="font-variant:normal;font-weight:normal;font-size:13px;font-family:'Nimbus Roman';-inkscape-font-specification:NimbusRoman-Regular;writing-mode:lr-tb;fill:#000000;fill-opacity:1;fill-rule:nonzero;stroke:none"
         id="text1627"><tspan
           style="font-size:16px"
           x="476.60156"
           y="21.558594"
           sodipodi:role="line"
           id="tspan1625">b)</tspan></text>
<text
         y="51.558594"
         x="86.601562"
         style="font-variant:normal;font-weight:normal;font-size:13px;font-family:'Nimbus Roman';-inkscape-font-specification:NimbusRoman-Regular;writing-mode:lr-tb;fill:#000000;fill-opacity:1;fill-rule:nonzero;stroke:none"
         id="text1631"><tspan
           style="font-size:14px"
           x="86.601562"
           y="51.558594"
           sodipodi:role="line"
           id="tspan1629">1</tspan></text>
<text
         id="text1635"
         style="font-variant:normal;font-weight:normal;font-size:13px;font-family:'Nimbus Roman';-inkscape-font-specification:NimbusRoman-Regular;writing-mode:lr-tb;fill:#000000;fill-opacity:1;fill-rule:nonzero;stroke:none"
         x="118.10156"
         y="164.05859"><tspan
           id="tspan1633"
           sodipodi:role="line"
           y="164.05859"
           x="118.10156"
           style="font-size:14px">2</tspan></text>
</g><g
       id="g82"><g
         id="g84"
         clip-path="url(#clipPath88)"><path
           d="m 246.645,168.586 -28.797,-0.035 -24.672,-0.047 -21.133,-0.051 -18.105,-0.062 -15.512,-0.071 -13.285,-0.086 -11.379,-0.101 -9.75,-0.117 -8.352,-0.145 -7.156,-0.168 -6.129,-0.203 -5.25,-0.242 -4.496,-0.297 -3.852,-0.356 -3.3,-0.437 -2.825,-0.539 -2.422,-0.672 -2.07,-0.848 -1.777,-1.082 -1.52,-1.402 -1.297,-1.852 -1.113,-2.503 -0.953,-3.481 -0.812,-4.984 -0.692,-7.43 -0.594,-11.57 L 48.898,110.766 48.469,77.355 48.105,14.02"
           style="fill:none;stroke:#e9967a;stroke-width:1.5;stroke-linecap:round;stroke-linejoin:round;stroke-miterlimit:10;stroke-dasharray:none;stroke-opacity:1"
           id="path90"
           inkscape:connector-curvature="0" /></g></g><g
       id="g92"><path
         d="m 160.012,168.402 c 0,3.903 -5.852,3.903 -5.852,0 0,-3.898 5.852,-3.898 5.852,0"
         style="fill:#ffffff;fill-opacity:1;fill-rule:nonzero;stroke:#000000;stroke-width:0.75;stroke-linecap:round;stroke-linejoin:round;stroke-miterlimit:10;stroke-dasharray:none;stroke-opacity:1"
         id="path94"
         inkscape:connector-curvature="0" /><text
         style="font-variant:normal;font-weight:normal;font-size:13px;font-family:'Nimbus Roman';-inkscape-font-specification:NimbusRoman-Regular;writing-mode:lr-tb;fill:#000000;fill-opacity:1;fill-rule:nonzero;stroke:none"
         id="text98"
         x="146.28516"
         y="181.78125"><tspan
           x="146.28516 152.29115 158.28416"
           y="181.78125"
           sodipodi:role="line"
           id="tspan96">100</tspan></text>
<path
         d="m 104.34,167.977 c 0,3.898 -5.852,3.898 -5.852,0 0,-3.903 5.852,-3.903 5.852,0"
         style="fill:#ffffff;fill-opacity:1;fill-rule:nonzero;stroke:#000000;stroke-width:0.75;stroke-linecap:round;stroke-linejoin:round;stroke-miterlimit:10;stroke-dasharray:none;stroke-opacity:1"
         id="path100"
         inkscape:connector-curvature="0" /><text
         style="font-variant:normal;font-weight:normal;font-size:13px;font-family:'Nimbus Roman';-inkscape-font-specification:NimbusRoman-Regular;writing-mode:lr-tb;fill:#000000;fill-opacity:1;fill-rule:nonzero;stroke:none"
         id="text104"
         x="92.113281"
         y="181.35156"><tspan
           x="92.113281 98.119278 104.11228"
           y="181.35156"
           sodipodi:role="line"
           id="tspan102">200</tspan></text>
<path
         d="m 59.82,163.387 c 0,3.898 -5.851,3.898 -5.851,0 0,-3.903 5.851,-3.903 5.851,0"
         style="fill:#ffffff;fill-opacity:1;fill-rule:nonzero;stroke:#000000;stroke-width:0.75;stroke-linecap:round;stroke-linejoin:round;stroke-miterlimit:10;stroke-dasharray:none;stroke-opacity:1"
         id="path106"
         inkscape:connector-curvature="0" /></g><text
       style="font-variant:normal;font-weight:normal;font-size:13px;font-family:'Nimbus Roman';-inkscape-font-specification:NimbusRoman-Regular;writing-mode:lr-tb;fill:#000000;fill-opacity:1;fill-rule:nonzero;stroke:none"
       id="text118"
       x="55.09375"
       y="158.76562"><tspan
         x="55.09375 61.099751 67.092751 73.098747"
         y="158.76562"
         sodipodi:role="line"
         id="tspan116">1000</tspan></text>
<g
       id="g120"><path
         d="m 51.535,91.137 c 0,3.902 -5.851,3.902 -5.851,0 0,-3.899 5.851,-3.899 5.851,0"
         style="fill:#ffffff;fill-opacity:1;fill-rule:nonzero;stroke:#000000;stroke-width:0.75;stroke-linecap:round;stroke-linejoin:round;stroke-miterlimit:10;stroke-dasharray:none;stroke-opacity:1"
         id="path122"
         inkscape:connector-curvature="0" /></g><g
       id="g124"><g
         id="g126"
         clip-path="url(#clipPath130)" /></g><g
       id="g136"><path
         d="m 39,7.801 h 205.199 v 177 H 39 Z"
         style="fill:none;stroke:#000000;stroke-width:0.75;stroke-linecap:round;stroke-linejoin:round;stroke-miterlimit:10;stroke-dasharray:none;stroke-opacity:1"
         id="path138"
         inkscape:connector-curvature="0" /><path
         d="m 39,7.801 h 205.199 v 177 H 39 Z"
         style="fill:none;stroke:#000000;stroke-width:0.75;stroke-linecap:round;stroke-linejoin:round;stroke-miterlimit:10;stroke-dasharray:none;stroke-opacity:1"
         id="path140"
         inkscape:connector-curvature="0" /><path
         d="m 136.133,157.758 -0.024,-0.641 -0.078,-0.629 -0.129,-0.613 -0.175,-0.578 -0.223,-0.539 -0.262,-0.488 -0.301,-0.434 -0.332,-0.367 -0.363,-0.297 -0.379,-0.223 -0.398,-0.14 -0.403,-0.063 -0.406,0.02 -0.402,0.105 -0.391,0.18 -0.371,0.261 -0.348,0.333 -0.316,0.402 -0.281,0.461 -0.246,0.515 -0.2,0.559 -0.152,0.598 -0.101,0.621 -0.051,0.637 v 0.64 l 0.051,0.641 0.101,0.621 0.152,0.594 0.2,0.558 0.246,0.516 0.281,0.461 0.316,0.402 0.348,0.332 0.371,0.262 0.391,0.183 0.402,0.102 0.406,0.02 0.403,-0.063 0.398,-0.141 0.379,-0.222 0.363,-0.297 0.332,-0.367 0.301,-0.434 0.262,-0.488 0.223,-0.539 0.175,-0.578 0.129,-0.61 0.078,-0.633 z"
         style="fill:#00ff00;fill-opacity:0.50196084;fill-rule:nonzero;stroke:none"
         id="path142"
         inkscape:connector-curvature="0" /><path
         d="m 136.133,157.758 -0.024,-0.641 -0.078,-0.629 -0.129,-0.613 -0.175,-0.578 -0.223,-0.539 -0.262,-0.488 -0.301,-0.434 -0.332,-0.367 -0.363,-0.297 -0.379,-0.223 -0.398,-0.14 -0.403,-0.063 -0.406,0.02 -0.402,0.105 -0.391,0.18 -0.371,0.261 -0.348,0.333 -0.316,0.402 -0.281,0.461 -0.246,0.515 -0.2,0.559 -0.152,0.598 -0.101,0.621 -0.051,0.637 v 0.64 l 0.051,0.641 0.101,0.621 0.152,0.594 0.2,0.558 0.246,0.516 0.281,0.461 0.316,0.402 0.348,0.332 0.371,0.262 0.391,0.183 0.402,0.102 0.406,0.02 0.403,-0.063 0.398,-0.141 0.379,-0.222 0.363,-0.297 0.332,-0.367 0.301,-0.434 0.262,-0.488 0.223,-0.539 0.175,-0.578 0.129,-0.61 0.078,-0.633 z"
         style="fill:none;stroke:#000000;stroke-width:0.75;stroke-linecap:round;stroke-linejoin:round;stroke-miterlimit:10;stroke-dasharray:none;stroke-opacity:1"
         id="path144"
         inkscape:connector-curvature="0" /><path
         d="m 133.695,157.758 c 0,0.976 -1.465,0.976 -1.465,0 0,-0.973 1.465,-0.973 1.465,0"
         style="fill:#000000;fill-opacity:1;fill-rule:nonzero;stroke:#000000;stroke-width:0.75;stroke-linecap:round;stroke-linejoin:round;stroke-miterlimit:10;stroke-dasharray:none;stroke-opacity:1"
         id="path146"
         inkscape:connector-curvature="0" /><path
         d="m 84.316,55.328 -0.027,-0.64 -0.078,-0.633 -0.125,-0.61 -0.176,-0.578 -0.222,-0.539 -0.266,-0.488 -0.301,-0.434 -0.332,-0.367 -0.359,-0.297 -0.383,-0.222 -0.395,-0.141 -0.406,-0.063 -0.406,0.02 -0.399,0.102 -0.39,0.183 -0.371,0.262 -0.348,0.332 -0.32,0.402 -0.282,0.461 -0.242,0.516 -0.199,0.558 -0.152,0.594 -0.106,0.625 -0.051,0.637 v 0.64 l 0.051,0.637 0.106,0.621 0.152,0.598 0.199,0.558 0.242,0.516 0.282,0.461 0.32,0.402 0.348,0.332 0.371,0.262 0.39,0.18 0.399,0.105 0.406,0.02 0.406,-0.063 0.395,-0.14 0.383,-0.223 0.359,-0.297 0.332,-0.367 0.301,-0.434 0.266,-0.488 0.222,-0.539 0.176,-0.578 0.125,-0.609 0.078,-0.633 z"
         style="fill:#00ffff;fill-opacity:0.50196084;fill-rule:nonzero;stroke:none"
         id="path148"
         inkscape:connector-curvature="0" /><path
         d="m 84.316,55.328 -0.027,-0.64 -0.078,-0.633 -0.125,-0.61 -0.176,-0.578 -0.222,-0.539 -0.266,-0.488 -0.301,-0.434 -0.332,-0.367 -0.359,-0.297 -0.383,-0.222 -0.395,-0.141 -0.406,-0.063 -0.406,0.02 -0.399,0.102 -0.39,0.183 -0.371,0.262 -0.348,0.332 -0.32,0.402 -0.282,0.461 -0.242,0.516 -0.199,0.558 -0.152,0.594 -0.106,0.625 -0.051,0.637 v 0.64 l 0.051,0.637 0.106,0.621 0.152,0.598 0.199,0.558 0.242,0.516 0.282,0.461 0.32,0.402 0.348,0.332 0.371,0.262 0.39,0.18 0.399,0.105 0.406,0.02 0.406,-0.063 0.395,-0.14 0.383,-0.223 0.359,-0.297 0.332,-0.367 0.301,-0.434 0.266,-0.488 0.222,-0.539 0.176,-0.578 0.125,-0.609 0.078,-0.633 z"
         style="fill:none;stroke:#000000;stroke-width:0.75;stroke-linecap:round;stroke-linejoin:round;stroke-miterlimit:10;stroke-dasharray:none;stroke-opacity:1"
         id="path150"
         inkscape:connector-curvature="0" /><path
         d="m 81.875,55.328 c 0,0.977 -1.461,0.977 -1.461,0 0,-0.976 1.461,-0.976 1.461,0"
         style="fill:#000000;fill-opacity:1;fill-rule:nonzero;stroke:#000000;stroke-width:0.75;stroke-linecap:round;stroke-linejoin:round;stroke-miterlimit:10;stroke-dasharray:none;stroke-opacity:1"
         id="path152"
         inkscape:connector-curvature="0" /><path
         d="m 46.102,13.855 h 1 v 1 h -1 z"
         style="fill:#000000;fill-opacity:1;fill-rule:nonzero;stroke:none"
         id="path154"
         inkscape:connector-curvature="0" /></g><text
       transform="rotate(-90)"
       style="font-variant:normal;font-weight:normal;font-size:9.09863281px;font-family:'Nimbus Roman';-inkscape-font-specification:NimbusRoman-Regular;writing-mode:lr-tb;fill:#000000;fill-opacity:1;fill-rule:nonzero;stroke:none"
       id="text220"
       x="-126.30078"
       y="256.99609"><tspan
         x="-126.30078 -121.29654 -116.30138"
         y="256.99609"
         sodipodi:role="line"
         id="tspan218">207</tspan></text>
<g
       id="g222"><text
         transform="rotate(-90,187.33008,-76.029297)"
         style="font-variant:normal;font-weight:normal;font-size:13px;font-family:'Nimbus Roman';-inkscape-font-specification:NimbusRoman-Regular;writing-mode:lr-tb;fill:#000000;fill-opacity:1;fill-rule:nonzero;stroke:none"
         id="text226"><tspan
           x="0 6.994 13"
           y="0"
           sodipodi:role="line"
           id="tspan224">Pb/</tspan></text>
</g><text
       transform="rotate(-90)"
       style="font-variant:normal;font-weight:normal;font-size:9.09863281px;font-family:'Nimbus Roman';-inkscape-font-specification:NimbusRoman-Regular;writing-mode:lr-tb;fill:#000000;fill-opacity:1;fill-rule:nonzero;stroke:none"
       id="text238"
       x="-94.300781"
       y="256.99609"><tspan
         x="-94.300781 -89.296539 -84.301384"
         y="256.99609"
         sodipodi:role="line"
         id="tspan236">206</tspan></text>
<g
       id="g240"><text
         transform="rotate(-90,171.33008,-92.029297)"
         style="font-variant:normal;font-weight:normal;font-size:13px;font-family:'Nimbus Roman';-inkscape-font-specification:NimbusRoman-Regular;writing-mode:lr-tb;fill:#000000;fill-opacity:1;fill-rule:nonzero;stroke:none"
         id="text244"><tspan
           x="0 6.994"
           y="0"
           sodipodi:role="line"
           id="tspan242">Pb</tspan></text>
</g><text
       style="font-variant:normal;font-weight:normal;font-size:12.99999905px;font-family:'Nimbus Roman';-inkscape-font-specification:NimbusRoman-Regular;writing-mode:lr-tb;fill:#000000;fill-opacity:1;fill-rule:nonzero;stroke:none;stroke-width:0.99999994"
       id="text134"
       x="52.812164"
       y="95.109711"><tspan
         style="stroke-width:0.99999994"
         x="52.812164 58.818165 64.811165 70.817169"
         y="95.109711"
         sodipodi:role="line"
         id="tspan132">4000</tspan></text>
<g
       inkscape:label="commonPbisochron13detrital"
       id="g1147"
       transform="translate(45.238696,283.12971)"><g
         id="g1273"><path
           inkscape:connector-curvature="0"
           id="path1293"
           style="fill:none;stroke:#000000;stroke-width:0.75;stroke-linecap:round;stroke-linejoin:round;stroke-miterlimit:10;stroke-dasharray:none;stroke-opacity:1"
           d="m 249.102,-98.699003 h 190" /><path
           inkscape:connector-curvature="0"
           id="path1295"
           style="fill:none;stroke:#000000;stroke-width:0.75;stroke-linecap:round;stroke-linejoin:round;stroke-miterlimit:10;stroke-dasharray:none;stroke-opacity:1"
           d="m 249.102,-98.699003 v 7.801" /><path
           inkscape:connector-curvature="0"
           id="path1297"
           style="fill:none;stroke:#000000;stroke-width:0.75;stroke-linecap:round;stroke-linejoin:round;stroke-miterlimit:10;stroke-dasharray:none;stroke-opacity:1"
           d="m 276.242,-98.699003 v 7.801" /><path
           inkscape:connector-curvature="0"
           id="path1299"
           style="fill:none;stroke:#000000;stroke-width:0.75;stroke-linecap:round;stroke-linejoin:round;stroke-miterlimit:10;stroke-dasharray:none;stroke-opacity:1"
           d="m 303.387,-98.699003 v 7.801" /><path
           inkscape:connector-curvature="0"
           id="path1301"
           style="fill:none;stroke:#000000;stroke-width:0.75;stroke-linecap:round;stroke-linejoin:round;stroke-miterlimit:10;stroke-dasharray:none;stroke-opacity:1"
           d="m 330.527,-98.699003 v 7.801" /><path
           inkscape:connector-curvature="0"
           id="path1303"
           style="fill:none;stroke:#000000;stroke-width:0.75;stroke-linecap:round;stroke-linejoin:round;stroke-miterlimit:10;stroke-dasharray:none;stroke-opacity:1"
           d="m 357.672,-98.699003 v 7.801" /><path
           inkscape:connector-curvature="0"
           id="path1305"
           style="fill:none;stroke:#000000;stroke-width:0.75;stroke-linecap:round;stroke-linejoin:round;stroke-miterlimit:10;stroke-dasharray:none;stroke-opacity:1"
           d="m 384.812,-98.699003 v 7.801" /><path
           inkscape:connector-curvature="0"
           id="path1307"
           style="fill:none;stroke:#000000;stroke-width:0.75;stroke-linecap:round;stroke-linejoin:round;stroke-miterlimit:10;stroke-dasharray:none;stroke-opacity:1"
           d="m 411.957,-98.699003 v 7.801" /><path
           inkscape:connector-curvature="0"
           id="path1309"
           style="fill:none;stroke:#000000;stroke-width:0.75;stroke-linecap:round;stroke-linejoin:round;stroke-miterlimit:10;stroke-dasharray:none;stroke-opacity:1"
           d="m 439.102,-98.699003 v 7.801" /><text
           id="text1313"
           style="font-variant:normal;font-weight:normal;font-size:13px;font-family:'Nimbus Roman';-inkscape-font-specification:NimbusRoman-Regular;writing-mode:lr-tb;fill:#000000;fill-opacity:1;fill-rule:nonzero;stroke:none"
           x="243.10156"
           y="-78.542969"><tspan
             id="tspan1311"
             sodipodi:role="line"
             y="-78.542969"
             x="243.10156 249.10757 270.24554 276.23856 297.38956 303.38257 324.53357 330.52655 351.67755 357.67056 378.80856 384.81454 405.95255 411.95856 433.09656 439.10257">5055606570758085</tspan></text>
<path
           inkscape:connector-curvature="0"
           id="path1315"
           style="fill:none;stroke:#000000;stroke-width:0.75;stroke-linecap:round;stroke-linejoin:round;stroke-miterlimit:10;stroke-dasharray:none;stroke-opacity:1"
           d="M 241.5,-116.223 V -261.465" /><path
           inkscape:connector-curvature="0"
           id="path1317"
           style="fill:none;stroke:#000000;stroke-width:0.75;stroke-linecap:round;stroke-linejoin:round;stroke-miterlimit:10;stroke-dasharray:none;stroke-opacity:1"
           d="m 241.5,-116.223 h -7.801" /><path
           inkscape:connector-curvature="0"
           id="path1319"
           style="fill:none;stroke:#000000;stroke-width:0.75;stroke-linecap:round;stroke-linejoin:round;stroke-miterlimit:10;stroke-dasharray:none;stroke-opacity:1"
           d="m 241.5,-152.535 h -7.801" /><path
           inkscape:connector-curvature="0"
           id="path1321"
           style="fill:none;stroke:#000000;stroke-width:0.75;stroke-linecap:round;stroke-linejoin:round;stroke-miterlimit:10;stroke-dasharray:none;stroke-opacity:1"
           d="m 241.5,-188.844 h -7.801" /><path
           inkscape:connector-curvature="0"
           id="path1323"
           style="fill:none;stroke:#000000;stroke-width:0.75;stroke-linecap:round;stroke-linejoin:round;stroke-miterlimit:10;stroke-dasharray:none;stroke-opacity:1"
           d="m 241.5,-225.156 h -7.801" /><path
           inkscape:connector-curvature="0"
           id="path1325"
           style="fill:none;stroke:#000000;stroke-width:0.75;stroke-linecap:round;stroke-linejoin:round;stroke-miterlimit:10;stroke-dasharray:none;stroke-opacity:1"
           d="m 241.5,-261.465 h -7.801" /><text
           id="text1329"
           style="font-variant:normal;font-weight:normal;font-size:13px;font-family:'Nimbus Roman';-inkscape-font-specification:NimbusRoman-Regular;writing-mode:lr-tb;fill:#000000;fill-opacity:1;fill-rule:nonzero;stroke:none"
           transform="rotate(-90)"
           x="103.72266"
           y="230.45703"><tspan
             id="tspan1327"
             sodipodi:role="line"
             y="230.45703"
             x="103.72266 107.72665 113.71966 116.72266 122.72866 142.03366 148.03967 151.02968 157.03566 178.34267 184.34866 187.33867 193.34468 214.65166 220.65765 223.66066 229.65367 250.96066 256.96667 259.96967 265.96268">-0.050.000.050.100.15</tspan></text>
<text
           id="text1333"
           style="font-variant:normal;font-weight:normal;font-size:9.09863281px;font-family:'Nimbus Roman';-inkscape-font-specification:NimbusRoman-Regular;writing-mode:lr-tb;fill:#000000;fill-opacity:1;fill-rule:nonzero;stroke:none"
           x="316.10156"
           y="-70.304695"><tspan
             id="tspan1331"
             sodipodi:role="line"
             y="-70.304695"
             x="316.10156 321.1058 326.10095">238</tspan></text>
<text
           id="text1337"
           style="font-variant:normal;font-weight:normal;font-size:13px;font-family:'Nimbus Roman';-inkscape-font-specification:NimbusRoman-Regular;writing-mode:lr-tb;fill:#000000;fill-opacity:1;fill-rule:nonzero;stroke:none"
           x="331.10156"
           y="-63.941406"><tspan
             id="tspan1335"
             sodipodi:role="line"
             y="-63.941406"
             x="331.10156 340.09756">U/</tspan></text>
<text
           id="text1341"
           style="font-variant:normal;font-weight:normal;font-size:9.09863281px;font-family:'Nimbus Roman';-inkscape-font-specification:NimbusRoman-Regular;writing-mode:lr-tb;fill:#000000;fill-opacity:1;fill-rule:nonzero;stroke:none"
           x="344.10156"
           y="-70.304695"><tspan
             id="tspan1339"
             sodipodi:role="line"
             y="-70.304695"
             x="344.10156 349.1058 354.10095">206</tspan></text>
<text
           id="text1345"
           style="font-variant:normal;font-weight:normal;font-size:13px;font-family:'Nimbus Roman';-inkscape-font-specification:NimbusRoman-Regular;writing-mode:lr-tb;fill:#000000;fill-opacity:1;fill-rule:nonzero;stroke:none"
           x="359.10156"
           y="-63.941406"><tspan
             id="tspan1343"
             sodipodi:role="line"
             y="-63.941406"
             x="359.10156 366.09555">Pb</tspan></text>
</g><g
         id="g1383"
         transform="translate(-49.5,-283.5)"><g
           clip-path="url(#clipPath1389)"
           id="g1385"><path
             inkscape:connector-curvature="0"
             id="path1391"
             style="fill:none;stroke:#e9967a;stroke-width:1.5;stroke-linecap:round;stroke-linejoin:round;stroke-miterlimit:10;stroke-dasharray:none;stroke-opacity:1"
             d="M 504,96.477 456.91,96.363 407.238,96.207 363.273,96.031 324.359,95.836 289.914,95.609 259.426,95.348 232.438,95.055 208.551,94.715 187.41,94.328 168.695,93.883 152.133,93.371 137.473,92.781 124.496,92.098 113.012,91.309 102.848,90.387 93.852,89.309 85.887,88.043 78.844,86.551 72.605,84.777 67.09,82.656 62.207,80.102 57.887,76.996 54.062,73.188 50.684,68.453 47.695,62.5 45.051,54.891 42.715,45 40.652,31.887 38.828,14.094" /></g></g><path
         d="m 415.324,-187.125 c 0,3.898 -5.851,3.898 -5.851,0 0,-3.898 5.851,-3.898 5.851,0"
         style="fill:#ffffff;fill-opacity:1;fill-rule:nonzero;stroke:#000000;stroke-width:0.75;stroke-linecap:round;stroke-linejoin:round;stroke-miterlimit:10;stroke-dasharray:none;stroke-opacity:1"
         id="path1395"
         inkscape:connector-curvature="0" /><text
         style="font-variant:normal;font-weight:normal;font-size:13px;font-family:'Nimbus Roman';-inkscape-font-specification:NimbusRoman-Regular;writing-mode:lr-tb;fill:#000000;fill-opacity:1;fill-rule:nonzero;stroke:none"
         id="text1399"
         x="406.09766"
         y="-173.74609"><tspan
           x="406.09766 412.10367"
           y="-173.74609"
           sodipodi:role="line"
           id="tspan1397">80</tspan></text>
<path
         d="m 366.719,-187.27 c 0,3.899 -5.848,3.899 -5.848,0 0,-3.902 5.848,-3.902 5.848,0"
         style="fill:#ffffff;fill-opacity:1;fill-rule:nonzero;stroke:#000000;stroke-width:0.75;stroke-linecap:round;stroke-linejoin:round;stroke-miterlimit:10;stroke-dasharray:none;stroke-opacity:1"
         id="path1401"
         inkscape:connector-curvature="0" /><text
         style="font-variant:normal;font-weight:normal;font-size:13px;font-family:'Nimbus Roman';-inkscape-font-specification:NimbusRoman-Regular;writing-mode:lr-tb;fill:#000000;fill-opacity:1;fill-rule:nonzero;stroke:none"
         id="text1405"
         x="357.49609"
         y="-173.89453"><tspan
           x="357.49609 363.50208"
           y="-173.89453"
           sodipodi:role="line"
           id="tspan1403">90</tspan></text>
<path
         d="m 327.836,-187.418 c 0,3.898 -5.848,3.898 -5.848,0 0,-3.898 5.848,-3.898 5.848,0"
         style="fill:#ffffff;fill-opacity:1;fill-rule:nonzero;stroke:#000000;stroke-width:0.75;stroke-linecap:round;stroke-linejoin:round;stroke-miterlimit:10;stroke-dasharray:none;stroke-opacity:1"
         id="path1407"
         inkscape:connector-curvature="0" /><text
         style="font-variant:normal;font-weight:normal;font-size:13px;font-family:'Nimbus Roman';-inkscape-font-specification:NimbusRoman-Regular;writing-mode:lr-tb;fill:#000000;fill-opacity:1;fill-rule:nonzero;stroke:none"
         id="text1411"
         x="315.61328"
         y="-174.03906"><tspan
           x="315.61328 321.61929 327.61227"
           y="-174.03906"
           sodipodi:role="line"
           id="tspan1409">100</tspan></text>
<path
         d="m 296.023,-187.566 c 0,3.898 -5.847,3.898 -5.847,0 0,-3.899 5.847,-3.899 5.847,0"
         style="fill:#ffffff;fill-opacity:1;fill-rule:nonzero;stroke:#000000;stroke-width:0.75;stroke-linecap:round;stroke-linejoin:round;stroke-miterlimit:10;stroke-dasharray:none;stroke-opacity:1"
         id="path1413"
         inkscape:connector-curvature="0" /><text
         style="font-variant:normal;font-weight:normal;font-size:13px;font-family:'Nimbus Roman';-inkscape-font-specification:NimbusRoman-Regular;writing-mode:lr-tb;fill:#000000;fill-opacity:1;fill-rule:nonzero;stroke:none"
         id="text1417"
         x="283.80078"
         y="-172.6875"><tspan
           x="283.80078 289.80679 295.79977"
           y="-172.6875"
           sodipodi:role="line"
           id="tspan1415">110</tspan></text>
<path
         d="m 269.516,-187.715 c 0,3.899 -5.852,3.899 -5.852,0 0,-3.898 5.852,-3.898 5.852,0"
         style="fill:#ffffff;fill-opacity:1;fill-rule:nonzero;stroke:#000000;stroke-width:0.75;stroke-linecap:round;stroke-linejoin:round;stroke-miterlimit:10;stroke-dasharray:none;stroke-opacity:1"
         id="path1419"
         inkscape:connector-curvature="0" /><text
         style="font-variant:normal;font-weight:normal;font-size:13px;font-family:'Nimbus Roman';-inkscape-font-specification:NimbusRoman-Regular;writing-mode:lr-tb;fill:#000000;fill-opacity:1;fill-rule:nonzero;stroke:none"
         id="text1423"
         x="257.28906"
         y="-172.83594"><tspan
           x="257.28906 263.29507 269.28806"
           y="-172.83594"
           sodipodi:role="line"
           id="tspan1421">120</tspan></text>
<path
         d="m 241.5,-275.699 h 205.199 v 177 H 241.5 Z"
         style="fill:none;stroke:#000000;stroke-width:0.75;stroke-linecap:round;stroke-linejoin:round;stroke-miterlimit:10;stroke-dasharray:none;stroke-opacity:1"
         id="path1425"
         inkscape:connector-curvature="0" /><path
         d="m 241.5,-275.699 h 205.199 v 177 H 241.5 Z"
         style="fill:none;stroke:#000000;stroke-width:0.75;stroke-linecap:round;stroke-linejoin:round;stroke-miterlimit:10;stroke-dasharray:none;stroke-opacity:1"
         id="path1427"
         inkscape:connector-curvature="0" /><path
         d="m 279.801,-187.699 -0.09,-2.442 -0.262,-2.398 -0.433,-2.324 -0.594,-2.203 -0.746,-2.047 -0.891,-1.864 -1.015,-1.644 -1.125,-1.399 -1.215,-1.132 -1.285,-0.844 -1.336,-0.543 -1.368,-0.234 -1.371,0.078 -1.351,0.39 -1.317,0.696 -1.254,0.988 -1.171,1.269 -1.071,1.524 -0.953,1.758 -0.82,1.957 -0.676,2.133 -0.512,2.265 -0.347,2.367 -0.176,2.426 v 2.445 l 0.176,2.426 0.347,2.363 0.512,2.27 0.676,2.129 0.82,1.961 0.953,1.758 1.071,1.523 1.171,1.27 1.254,0.988 1.317,0.695 1.351,0.391 1.371,0.078 1.368,-0.234 1.336,-0.543 1.285,-0.844 1.215,-1.133 1.125,-1.398 1.015,-1.645 0.891,-1.863 0.746,-2.051 0.594,-2.203 0.433,-2.32 0.262,-2.399 z"
         style="fill:#00ff00;fill-opacity:0.50196078;fill-rule:nonzero;stroke:none"
         id="path1429"
         inkscape:connector-curvature="0" /><path
         d="m 279.801,-187.699 -0.09,-2.442 -0.262,-2.398 -0.433,-2.324 -0.594,-2.203 -0.746,-2.047 -0.891,-1.864 -1.015,-1.644 -1.125,-1.399 -1.215,-1.132 -1.285,-0.844 -1.336,-0.543 -1.368,-0.234 -1.371,0.078 -1.351,0.39 -1.317,0.696 -1.254,0.988 -1.171,1.269 -1.071,1.524 -0.953,1.758 -0.82,1.957 -0.676,2.133 -0.512,2.265 -0.347,2.367 -0.176,2.426 v 2.445 l 0.176,2.426 0.347,2.363 0.512,2.27 0.676,2.129 0.82,1.961 0.953,1.758 1.071,1.523 1.171,1.27 1.254,0.988 1.317,0.695 1.351,0.391 1.371,0.078 1.368,-0.234 1.336,-0.543 1.285,-0.844 1.215,-1.133 1.125,-1.398 1.015,-1.645 0.891,-1.863 0.746,-2.051 0.594,-2.203 0.433,-2.32 0.262,-2.399 z"
         style="fill:none;stroke:#000000;stroke-width:0.75;stroke-linecap:round;stroke-linejoin:round;stroke-miterlimit:10;stroke-dasharray:none;stroke-opacity:1"
         id="path1431"
         inkscape:connector-curvature="0" /><path
         d="m 269.832,-187.699 c 0,0.972 -1.465,0.972 -1.465,0 0,-0.977 1.465,-0.977 1.465,0"
         style="fill:#000000;fill-opacity:1;fill-rule:nonzero;stroke:#000000;stroke-width:0.75;stroke-linecap:round;stroke-linejoin:round;stroke-miterlimit:10;stroke-dasharray:none;stroke-opacity:1"
         id="path1433"
         inkscape:connector-curvature="0" /><path
         d="m 423.527,-187.199 -0.308,-8.551 -0.918,-8.41 -1.512,-8.129 -2.086,-7.719 -2.617,-7.183 -3.117,-6.524 -3.555,-5.758 -3.937,-4.902 -4.262,-3.961 -4.508,-2.961 -4.68,-1.906 -4.781,-0.824 -4.801,0.277 -4.742,1.367 -4.605,2.438 -4.391,3.468 -4.109,4.442 -3.754,5.34 -3.344,6.156 -2.871,6.863 -2.359,7.465 -1.801,7.941 -1.219,8.29 -0.613,8.496 v 8.566 l 0.613,8.5 1.219,8.285 1.801,7.942 2.359,7.464 2.871,6.868 3.344,6.152 3.754,5.344 4.109,4.441 4.391,3.469 4.605,2.437 4.742,1.368 4.801,0.273 4.781,-0.824 4.68,-1.906 4.508,-2.957 4.262,-3.961 3.937,-4.903 3.555,-5.762 3.117,-6.523 2.617,-7.18 2.086,-7.718 1.512,-8.133 0.918,-8.406 z"
         style="fill:#00ffff;fill-opacity:0.50196078;fill-rule:nonzero;stroke:none"
         id="path1435"
         inkscape:connector-curvature="0" /><path
         d="m 423.527,-187.199 -0.308,-8.551 -0.918,-8.41 -1.512,-8.129 -2.086,-7.719 -2.617,-7.183 -3.117,-6.524 -3.555,-5.758 -3.937,-4.902 -4.262,-3.961 -4.508,-2.961 -4.68,-1.906 -4.781,-0.824 -4.801,0.277 -4.742,1.367 -4.605,2.438 -4.391,3.468 -4.109,4.442 -3.754,5.34 -3.344,6.156 -2.871,6.863 -2.359,7.465 -1.801,7.941 -1.219,8.29 -0.613,8.496 v 8.566 l 0.613,8.5 1.219,8.285 1.801,7.942 2.359,7.464 2.871,6.868 3.344,6.152 3.754,5.344 4.109,4.441 4.391,3.469 4.605,2.437 4.742,1.368 4.801,0.273 4.781,-0.824 4.68,-1.906 4.508,-2.957 4.262,-3.961 3.937,-4.903 3.555,-5.762 3.117,-6.523 2.617,-7.18 2.086,-7.718 1.512,-8.133 0.918,-8.406 z"
         style="fill:none;stroke:#000000;stroke-width:0.75;stroke-linecap:round;stroke-linejoin:round;stroke-miterlimit:10;stroke-dasharray:none;stroke-opacity:1"
         id="path1437"
         inkscape:connector-curvature="0" /><path
         d="m 386.773,-187.199 c 0,0.972 -1.461,0.972 -1.461,0 0,-0.977 1.461,-0.977 1.461,0"
         style="fill:#000000;fill-opacity:1;fill-rule:nonzero;stroke:#000000;stroke-width:0.75;stroke-linecap:round;stroke-linejoin:round;stroke-miterlimit:10;stroke-dasharray:none;stroke-opacity:1"
         id="path1439"
         inkscape:connector-curvature="0" /></g><text
       id="text1639"
       style="font-variant:normal;font-weight:normal;font-size:12.99999905px;font-family:'Nimbus Roman';-inkscape-font-specification:NimbusRoman-Regular;writing-mode:lr-tb;fill:#000000;fill-opacity:1;fill-rule:nonzero;stroke:none;stroke-width:0.99999994"
       x="428.20248"
       y="91.352791"><tspan
         id="tspan1637"
         sodipodi:role="line"
         y="91.352791"
         x="428.20248"
         style="font-size:14px;stroke-width:0.99999994">1</tspan></text>
<text
       id="text1639-3"
       style="font-variant:normal;font-weight:normal;font-size:12.99999905px;font-family:'Nimbus Roman';-inkscape-font-specification:NimbusRoman-Regular;writing-mode:lr-tb;fill:#000000;fill-opacity:1;fill-rule:nonzero;stroke:none;stroke-width:0.99999994"
       x="311.20248"
       y="89.852791"><tspan
         id="tspan1637-2"
         sodipodi:role="line"
         y="89.852791"
         x="311.20248"
         style="font-size:14px;stroke-width:0.99999994">2</tspan></text>
</g></svg>