<?xml version="1.0" encoding="UTF-8" standalone="no"?>
<!-- Created with Inkscape (http://www.inkscape.org/) -->

<svg
   xmlns:dc="http://purl.org/dc/elements/1.1/"
   xmlns:cc="http://creativecommons.org/ns#"
   xmlns:rdf="http://www.w3.org/1999/02/22-rdf-syntax-ns#"
   xmlns:svg="http://www.w3.org/2000/svg"
   xmlns="http://www.w3.org/2000/svg"
   xmlns:sodipodi="http://sodipodi.sourceforge.net/DTD/sodipodi-0.dtd"
   xmlns:inkscape="http://www.inkscape.org/namespaces/inkscape"
   version="1.1"
   id="svg2"
   xml:space="preserve"
   width="663.5799"
   height="283.08612"
   viewBox="0 0 663.5799 283.08612"
   sodipodi:docname="commonPbisochron13detrital.svg"
   inkscape:version="0.92.5 (2060ec1f9f, 2020-04-08)"><metadata
     id="metadata8"><rdf:RDF><cc:Work
         rdf:about=""><dc:format>image/svg+xml</dc:format><dc:type
           rdf:resource="http://purl.org/dc/dcmitype/StillImage" /><dc:title></dc:title></cc:Work></rdf:RDF></metadata><defs
     id="defs6"><clipPath
       clipPathUnits="userSpaceOnUse"
       id="clipPath86"><path
         d="M 47,13 H 244.199 V 169 H 47 Z"
         id="path84"
         inkscape:connector-curvature="0" /></clipPath><clipPath
       clipPathUnits="userSpaceOnUse"
       id="clipPath112"><path
         d="m 39,156 h 11 v 10 H 39 Z"
         id="path110"
         inkscape:connector-curvature="0" /></clipPath><clipPath
       clipPathUnits="userSpaceOnUse"
       id="clipPath196"><path
         d="m 252,112 h 6 v 15 h -6 z"
         id="path194"
         inkscape:connector-curvature="0" /></clipPath><clipPath
       clipPathUnits="userSpaceOnUse"
       id="clipPath214"><path
         d="m 252,80 h 6 v 15 h -6 z"
         id="path212"
         inkscape:connector-curvature="0" /></clipPath><clipPath
       clipPathUnits="userSpaceOnUse"
       id="clipPath232"><path
         d="m 291,93 h 205.199 v 5 H 291 Z"
         id="path230"
         inkscape:connector-curvature="0" /></clipPath></defs><sodipodi:namedview
     pagecolor="#ffffff"
     bordercolor="#666666"
     borderopacity="1"
     objecttolerance="10"
     gridtolerance="10"
     guidetolerance="10"
     inkscape:pageopacity="0"
     inkscape:pageshadow="2"
     inkscape:window-width="1920"
     inkscape:window-height="1046"
     id="namedview4"
     showgrid="false"
     fit-margin-top="0"
     fit-margin-left="0"
     fit-margin-right="0"
     fit-margin-bottom="0"
     inkscape:zoom="2.0253778"
     inkscape:cx="331.78995"
     inkscape:cy="141.54306"
     inkscape:window-x="0"
     inkscape:window-y="-3"
     inkscape:window-maximized="1"
     inkscape:current-layer="g236" /><g
     id="g10"
     inkscape:groupmode="layer"
     inkscape:label="commonPbisochron13detrital"
     transform="matrix(1.3333333,0,0,1.3333333,-0.14486149,-9.9013331)"><g
       id="g12"
       transform="translate(4.5)"><path
         style="fill:#bfbf60;fill-opacity:0.5;stroke:#000000;stroke-width:0.075;stroke-linecap:butt;stroke-linejoin:miter;stroke-miterlimit:4;stroke-dasharray:none;stroke-opacity:1"
         d="m 46.102,13.855 193.08645,154.06106 h -14.9048 L 46.102,13.855"
         id="path1063"
         inkscape:connector-curvature="0"
         sodipodi:nodetypes="cccc" /><path
         sodipodi:nodetypes="cccc"
         inkscape:connector-curvature="0"
         id="path1065"
         d="M 46.102,13.855 219.34395,167.50075 H 182.68172 L 46.102,13.855"
         style="fill:#008fbf;fill-opacity:0.5;stroke:#000000;stroke-width:0.075;stroke-linecap:butt;stroke-linejoin:miter;stroke-miterlimit:4;stroke-dasharray:none;stroke-opacity:1" /><path
         d="M 46.602,184.801 H 219.328"
         style="fill:none;stroke:#000000;stroke-width:0.75;stroke-linecap:round;stroke-linejoin:round;stroke-miterlimit:10;stroke-dasharray:none;stroke-opacity:1"
         id="path16"
         inkscape:connector-curvature="0" /><path
         d="m 46.602,184.801 v 7.801"
         style="fill:none;stroke:#000000;stroke-width:0.75;stroke-linecap:round;stroke-linejoin:round;stroke-miterlimit:10;stroke-dasharray:none;stroke-opacity:1"
         id="path18"
         inkscape:connector-curvature="0" /><path
         d="m 81.145,184.801 v 7.801"
         style="fill:none;stroke:#000000;stroke-width:0.75;stroke-linecap:round;stroke-linejoin:round;stroke-miterlimit:10;stroke-dasharray:none;stroke-opacity:1"
         id="path20"
         inkscape:connector-curvature="0" /><path
         d="m 115.691,184.801 v 7.801"
         style="fill:none;stroke:#000000;stroke-width:0.75;stroke-linecap:round;stroke-linejoin:round;stroke-miterlimit:10;stroke-dasharray:none;stroke-opacity:1"
         id="path22"
         inkscape:connector-curvature="0" /><path
         d="m 150.238,184.801 v 7.801"
         style="fill:none;stroke:#000000;stroke-width:0.75;stroke-linecap:round;stroke-linejoin:round;stroke-miterlimit:10;stroke-dasharray:none;stroke-opacity:1"
         id="path24"
         inkscape:connector-curvature="0" /><path
         d="m 184.781,184.801 v 7.801"
         style="fill:none;stroke:#000000;stroke-width:0.75;stroke-linecap:round;stroke-linejoin:round;stroke-miterlimit:10;stroke-dasharray:none;stroke-opacity:1"
         id="path26"
         inkscape:connector-curvature="0" /><path
         d="m 219.328,184.801 v 7.801"
         style="fill:none;stroke:#000000;stroke-width:0.75;stroke-linecap:round;stroke-linejoin:round;stroke-miterlimit:10;stroke-dasharray:none;stroke-opacity:1"
         id="path28"
         inkscape:connector-curvature="0" /><text
         style="font-variant:normal;font-weight:normal;font-size:13px;font-family:'Nimbus Roman';-inkscape-font-specification:NimbusRoman-Regular;writing-mode:lr-tb;fill:#000000;fill-opacity:1;fill-rule:nonzero;stroke:none"
         id="text32"
         x="43.601562"
         y="204.95703"><tspan
           x="43.601562 75.139565 81.145561 109.69357 115.68656 144.23456 150.24055 178.77556 184.78156 210.32657 216.33257 222.32556"
           y="204.95703"
           sodipodi:role="line"
           id="tspan30">020406080100</tspan></text>
<path
         d="M 39,178.246 V 43.688"
         style="fill:none;stroke:#000000;stroke-width:0.75;stroke-linecap:round;stroke-linejoin:round;stroke-miterlimit:10;stroke-dasharray:none;stroke-opacity:1"
         id="path34"
         inkscape:connector-curvature="0" /><path
         d="M 39,178.246 H 31.199"
         style="fill:none;stroke:#000000;stroke-width:0.75;stroke-linecap:round;stroke-linejoin:round;stroke-miterlimit:10;stroke-dasharray:none;stroke-opacity:1"
         id="path36"
         inkscape:connector-curvature="0" /><path
         d="M 39,133.391 H 31.199"
         style="fill:none;stroke:#000000;stroke-width:0.75;stroke-linecap:round;stroke-linejoin:round;stroke-miterlimit:10;stroke-dasharray:none;stroke-opacity:1"
         id="path38"
         inkscape:connector-curvature="0" /><path
         d="M 39,88.539 H 31.199"
         style="fill:none;stroke:#000000;stroke-width:0.75;stroke-linecap:round;stroke-linejoin:round;stroke-miterlimit:10;stroke-dasharray:none;stroke-opacity:1"
         id="path40"
         inkscape:connector-curvature="0" /><path
         d="M 39,43.688 H 31.199"
         style="fill:none;stroke:#000000;stroke-width:0.75;stroke-linecap:round;stroke-linejoin:round;stroke-miterlimit:10;stroke-dasharray:none;stroke-opacity:1"
         id="path42"
         inkscape:connector-curvature="0" /><text
         transform="rotate(-90)"
         style="font-variant:normal;font-weight:normal;font-size:13px;font-family:'Nimbus Roman';-inkscape-font-specification:NimbusRoman-Regular;writing-mode:lr-tb;fill:#000000;fill-opacity:1;fill-rule:nonzero;stroke:none"
         id="text46"
         x="-185.74609"
         y="27.957029"><tspan
           x="-185.74609 -179.7401 -176.75009 -140.89609 -134.89009 -131.88708 -96.033096 -90.040092 -87.037094 -51.183086 -45.19009 -42.187084"
           y="27.957029"
           sodipodi:role="line"
           id="tspan44">0.00.20.40.6</tspan></text>
<text
         style="font-variant:normal;font-weight:normal;font-size:9.09863281px;font-family:'Nimbus Roman';-inkscape-font-specification:NimbusRoman-Regular;writing-mode:lr-tb;fill:#000000;fill-opacity:1;fill-rule:nonzero;stroke:none"
         id="text50"
         x="113.60156"
         y="213.19531"><tspan
           x="113.60156 118.6058 123.60096"
           y="213.19531"
           sodipodi:role="line"
           id="tspan48">238</tspan></text>
<text
         style="font-variant:normal;font-weight:normal;font-size:13px;font-family:'Nimbus Roman';-inkscape-font-specification:NimbusRoman-Regular;writing-mode:lr-tb;fill:#000000;fill-opacity:1;fill-rule:nonzero;stroke:none"
         id="text54"
         x="128.60156"
         y="219.55859"><tspan
           x="128.60156 137.59756"
           y="219.55859"
           sodipodi:role="line"
           id="tspan52">U/</tspan></text>
<text
         style="font-variant:normal;font-weight:normal;font-size:9.09863281px;font-family:'Nimbus Roman';-inkscape-font-specification:NimbusRoman-Regular;writing-mode:lr-tb;fill:#000000;fill-opacity:1;fill-rule:nonzero;stroke:none"
         id="text58"
         x="141.60156"
         y="213.19531"><tspan
           x="141.60156 146.6058 151.60095"
           y="213.19531"
           sodipodi:role="line"
           id="tspan56">206</tspan></text>
<text
         style="font-variant:normal;font-weight:normal;font-size:13px;font-family:'Nimbus Roman';-inkscape-font-specification:NimbusRoman-Regular;writing-mode:lr-tb;fill:#000000;fill-opacity:1;fill-rule:nonzero;stroke:none"
         id="text62"
         x="156.60156"
         y="219.55859"><tspan
           x="156.60156 163.59557"
           y="219.55859"
           sodipodi:role="line"
           id="tspan60">Pb</tspan></text>
<text
         transform="rotate(-90)"
         style="font-variant:normal;font-weight:normal;font-size:9.09863281px;font-family:'Nimbus Roman';-inkscape-font-specification:NimbusRoman-Regular;writing-mode:lr-tb;fill:#000000;fill-opacity:1;fill-rule:nonzero;stroke:none"
         id="text66"
         x="-126.30078"
         y="9.4960947"><tspan
           x="-126.30078 -121.29653 -116.30138"
           y="9.4960947"
           sodipodi:role="line"
           id="tspan64">207</tspan></text>
<text
         transform="rotate(-90)"
         style="font-variant:normal;font-weight:normal;font-size:13px;font-family:'Nimbus Roman';-inkscape-font-specification:NimbusRoman-Regular;writing-mode:lr-tb;fill:#000000;fill-opacity:1;fill-rule:nonzero;stroke:none"
         id="text70"
         x="-111.30078"
         y="15.859375"><tspan
           x="-111.30078 -104.30678 -98.300781"
           y="15.859375"
           sodipodi:role="line"
           id="tspan68">Pb/</tspan></text>
<text
         transform="rotate(-90)"
         style="font-variant:normal;font-weight:normal;font-size:9.09863281px;font-family:'Nimbus Roman';-inkscape-font-specification:NimbusRoman-Regular;writing-mode:lr-tb;fill:#000000;fill-opacity:1;fill-rule:nonzero;stroke:none"
         id="text74"
         x="-94.300781"
         y="9.4960947"><tspan
           x="-94.300781 -89.296532 -84.301384"
           y="9.4960947"
           sodipodi:role="line"
           id="tspan72">206</tspan></text>
<text
         transform="rotate(-90)"
         style="font-variant:normal;font-weight:normal;font-size:13px;font-family:'Nimbus Roman';-inkscape-font-specification:NimbusRoman-Regular;writing-mode:lr-tb;fill:#000000;fill-opacity:1;fill-rule:nonzero;stroke:none"
         id="text78"
         x="-79.300781"
         y="15.859375"><tspan
           x="-79.300781 -72.306778"
           y="15.859375"
           sodipodi:role="line"
           id="tspan76">Pb</tspan></text>
<path
         style="fill:none;stroke:#000000;stroke-width:0.75px;stroke-linecap:butt;stroke-linejoin:miter;stroke-opacity:1"
         d="M 46.102,13.855 203.23962,167.7084"
         id="path1059"
         inkscape:connector-curvature="0"
         sodipodi:nodetypes="cc" /><path
         style="fill:none;stroke:#000000;stroke-width:0.75px;stroke-linecap:butt;stroke-linejoin:miter;stroke-opacity:1"
         d="M 46.102,13.855 229.84395,167.50075"
         id="path1067"
         inkscape:connector-curvature="0"
         sodipodi:nodetypes="cc" /><path
         inkscape:connector-curvature="0"
         id="path1078"
         style="fill:none;stroke:#000000;stroke-width:0.75;stroke-linecap:round;stroke-linejoin:round;stroke-miterlimit:10;stroke-dasharray:none;stroke-opacity:1"
         d="M 39,13.688 H 31.199" /><text
         y="17.906136"
         x="-4.7033539"
         id="text1082"
         style="font-variant:normal;font-weight:normal;font-size:13px;font-family:'Nimbus Roman';-inkscape-font-specification:NimbusRoman-Regular;writing-mode:lr-tb;fill:#000000;fill-opacity:1;fill-rule:nonzero;stroke:none"><tspan
           id="tspan1080"
           sodipodi:role="line"
           y="17.906136"
           x="-4.7033539">0.7308</tspan></text>
<text
         style="font-variant:normal;font-weight:normal;font-size:13px;font-family:'Nimbus Roman';-inkscape-font-specification:NimbusRoman-Regular;writing-mode:lr-tb;fill:#000000;fill-opacity:1;fill-rule:nonzero;stroke:none"
         id="text1086"
         x="229.29666"
         y="20.906136"><tspan
           x="229.29666"
           y="20.906136"
           sodipodi:role="line"
           id="tspan1084"
           style="font-size:16px">a)</tspan></text>
<text
         y="20.906136"
         x="476.79666"
         id="text1090"
         style="font-variant:normal;font-weight:normal;font-size:13px;font-family:'Nimbus Roman';-inkscape-font-specification:NimbusRoman-Regular;writing-mode:lr-tb;fill:#000000;fill-opacity:1;fill-rule:nonzero;stroke:none"><tspan
           id="tspan1088"
           sodipodi:role="line"
           y="20.906136"
           x="476.79666"
           style="font-size:16px">b)</tspan></text>
</g><g
       id="g80"
       transform="translate(4.5)"><g
         id="g82"
         clip-path="url(#clipPath86)"><path
           d="m 246.645,167.672 -28.641,-0.039 -24.559,-0.051 -21.054,-0.055 -18.055,-0.066 -15.484,-0.078 -13.274,-0.094 -11.379,-0.109 -9.761,-0.129 -8.368,-0.153 -7.172,-0.183 -6.152,-0.215 -5.273,-0.262 -4.524,-0.316 -3.875,-0.383 -3.324,-0.469 -2.848,-0.574 -2.445,-0.719 -2.094,-0.898 -1.793,-1.141 -1.539,-1.48 -1.316,-1.946 -1.125,-2.621 -0.969,-3.617 -0.824,-5.148 -0.707,-7.61 L 49.488,127.582 48.973,108.504 48.535,75.5 48.164,14.023"
           style="fill:none;stroke:#e9967a;stroke-width:1.5;stroke-linecap:round;stroke-linejoin:round;stroke-miterlimit:10;stroke-dasharray:none;stroke-opacity:1"
           id="path88"
           inkscape:connector-curvature="0" /></g></g><g
       id="g90"
       transform="translate(4.5)"><path
         d="m 160.012,167.473 c 0,3.898 -5.852,3.898 -5.852,0 0,-3.903 5.852,-3.903 5.852,0"
         style="fill:#ffffff;fill-opacity:1;fill-rule:nonzero;stroke:#000000;stroke-width:0.75;stroke-linecap:round;stroke-linejoin:round;stroke-miterlimit:10;stroke-dasharray:none;stroke-opacity:1"
         id="path92"
         inkscape:connector-curvature="0" /><text
         style="font-variant:normal;font-weight:normal;font-size:13px;font-family:'Nimbus Roman';-inkscape-font-specification:NimbusRoman-Regular;writing-mode:lr-tb;fill:#000000;fill-opacity:1;fill-rule:nonzero;stroke:none"
         id="text96"
         x="135.78516"
         y="180.85156"><tspan
           x="135.78516 141.79115 147.78416"
           y="180.85156"
           sodipodi:role="line"
           id="tspan94">100</tspan></text>
<path
         d="m 104.34,167.004 c 0,3.898 -5.852,3.898 -5.852,0 0,-3.902 5.852,-3.902 5.852,0"
         style="fill:#ffffff;fill-opacity:1;fill-rule:nonzero;stroke:#000000;stroke-width:0.75;stroke-linecap:round;stroke-linejoin:round;stroke-miterlimit:10;stroke-dasharray:none;stroke-opacity:1"
         id="path98"
         inkscape:connector-curvature="0" /><text
         style="font-variant:normal;font-weight:normal;font-size:13px;font-family:'Nimbus Roman';-inkscape-font-specification:NimbusRoman-Regular;writing-mode:lr-tb;fill:#000000;fill-opacity:1;fill-rule:nonzero;stroke:none"
         id="text102"
         x="83.113281"
         y="181.87891"><tspan
           x="83.113281 89.119278 95.112282"
           y="181.87891"
           sodipodi:role="line"
           id="tspan100">200</tspan></text>
<path
         d="m 59.82,161.977 c 0,3.902 -5.851,3.902 -5.851,0 0,-3.899 5.851,-3.899 5.851,0"
         style="fill:#ffffff;fill-opacity:1;fill-rule:nonzero;stroke:#000000;stroke-width:0.75;stroke-linecap:round;stroke-linejoin:round;stroke-miterlimit:10;stroke-dasharray:none;stroke-opacity:1"
         id="path104"
         inkscape:connector-curvature="0" /><text
         y="21.851562"
         x="57.785156"
         id="text1099"
         style="font-variant:normal;font-weight:normal;font-size:13px;font-family:'Nimbus Roman';-inkscape-font-specification:NimbusRoman-Regular;writing-mode:lr-tb;fill:#000000;fill-opacity:1;fill-rule:nonzero;stroke:none"><tspan
           id="tspan1097"
           sodipodi:role="line"
           y="21.851562"
           x="57.785156">1</tspan></text>
<text
         style="font-variant:normal;font-weight:normal;font-size:13px;font-family:'Nimbus Roman';-inkscape-font-specification:NimbusRoman-Regular;writing-mode:lr-tb;fill:#000000;fill-opacity:1;fill-rule:nonzero;stroke:none"
         id="text1103"
         x="161.28516"
         y="101.35156"><tspan
           x="161.28516"
           y="101.35156"
           sodipodi:role="line"
           id="tspan1101">2</tspan></text>
<text
         style="font-variant:normal;font-weight:normal;font-size:13px;font-family:'Nimbus Roman';-inkscape-font-specification:NimbusRoman-Regular;writing-mode:lr-tb;fill:#000000;fill-opacity:1;fill-rule:nonzero;stroke:none"
         id="text1107"
         x="372.78516"
         y="81.851562"><tspan
           x="372.78516"
           y="81.851562"
           sodipodi:role="line"
           id="tspan1105">1</tspan></text>
<text
         y="87.851562"
         x="461.28516"
         id="text1111"
         style="font-variant:normal;font-weight:normal;font-size:13px;font-family:'Nimbus Roman';-inkscape-font-specification:NimbusRoman-Regular;writing-mode:lr-tb;fill:#000000;fill-opacity:1;fill-rule:nonzero;stroke:none"><tspan
           id="tspan1109"
           sodipodi:role="line"
           y="87.851562"
           x="461.28516">2</tspan></text>
</g><text
       style="font-variant:normal;font-weight:normal;font-size:13px;font-family:'Nimbus Roman';-inkscape-font-specification:NimbusRoman-Regular;writing-mode:lr-tb;fill:#000000;fill-opacity:1;fill-rule:nonzero;stroke:none"
       id="text116"
       x="46.09375"
       y="178.35547"><tspan
         x="46.09375 52.099751 58.092751 64.098747"
         y="178.35547"
         sodipodi:role="line"
         id="tspan114">1000</tspan></text>
<g
       id="g118"><path
         d="m 43.5,7.801 h 205.199 v 177 H 43.5 Z"
         style="fill:none;stroke:#000000;stroke-width:0.75;stroke-linecap:round;stroke-linejoin:round;stroke-miterlimit:10;stroke-dasharray:none;stroke-opacity:1"
         id="path120"
         inkscape:connector-curvature="0" /><path
         d="m 43.5,7.801 h 205.199 v 177 H 43.5 Z"
         style="fill:none;stroke:#000000;stroke-width:0.75;stroke-linecap:round;stroke-linejoin:round;stroke-miterlimit:10;stroke-dasharray:none;stroke-opacity:1"
         id="path122"
         inkscape:connector-curvature="0" /><path
         d="M 61.609,23.699 61.602,23.406 61.574,23.117 61.527,22.84 61.465,22.578 61.383,22.332 61.289,22.105 61.18,21.91 61.059,21.742 60.93,21.605 60.789,21.504 60.648,21.441 60.5,21.414 l -0.145,0.008 -0.148,0.047 -0.141,0.082 -0.132,0.121 -0.125,0.152 -0.118,0.18 -0.101,0.211 -0.086,0.234 -0.074,0.258 -0.055,0.27 -0.039,0.285 -0.016,0.289 v 0.297 l 0.016,0.289 0.039,0.285 0.055,0.269 0.074,0.258 0.086,0.235 0.101,0.211 0.118,0.179 0.125,0.153 0.132,0.121 0.141,0.082 0.148,0.047 0.145,0.011 0.148,-0.031 0.141,-0.062 0.141,-0.102 0.129,-0.137 0.121,-0.168 0.109,-0.195 0.094,-0.227 0.082,-0.246 0.062,-0.261 0.047,-0.278 0.028,-0.289 z"
         style="fill:#008fbf;fill-opacity:0.50196081;fill-rule:nonzero;stroke:none"
         id="path124"
         inkscape:connector-curvature="0" /><path
         d="M 61.609,23.699 61.602,23.406 61.574,23.117 61.527,22.84 61.465,22.578 61.383,22.332 61.289,22.105 61.18,21.91 61.059,21.742 60.93,21.605 60.789,21.504 60.648,21.441 60.5,21.414 l -0.145,0.008 -0.148,0.047 -0.141,0.082 -0.132,0.121 -0.125,0.152 -0.118,0.18 -0.101,0.211 -0.086,0.234 -0.074,0.258 -0.055,0.27 -0.039,0.285 -0.016,0.289 v 0.297 l 0.016,0.289 0.039,0.285 0.055,0.269 0.074,0.258 0.086,0.235 0.101,0.211 0.118,0.179 0.125,0.153 0.132,0.121 0.141,0.082 0.148,0.047 0.145,0.011 0.148,-0.031 0.141,-0.062 0.141,-0.102 0.129,-0.137 0.121,-0.168 0.109,-0.195 0.094,-0.227 0.082,-0.246 0.062,-0.261 0.047,-0.278 0.028,-0.289 z"
         style="fill:none;stroke:#000000;stroke-width:0.75;stroke-linecap:round;stroke-linejoin:round;stroke-miterlimit:10;stroke-dasharray:none;stroke-opacity:1"
         id="path126"
         inkscape:connector-curvature="0" /><path
         d="m 61.195,23.699 c 0,0.977 -1.461,0.977 -1.461,0 0,-0.976 1.461,-0.976 1.461,0"
         style="fill:#000000;fill-opacity:1;fill-rule:nonzero;stroke:#000000;stroke-width:0.75;stroke-linecap:round;stroke-linejoin:round;stroke-miterlimit:10;stroke-dasharray:none;stroke-opacity:1"
         id="path128"
         inkscape:connector-curvature="0" /><path
         d="m 163.945,105.164 -0.027,-0.262 -0.086,-0.257 -0.141,-0.25 -0.195,-0.239 -0.242,-0.218 -0.289,-0.204 -0.332,-0.175 -0.367,-0.149 -0.395,-0.121 -0.422,-0.094 -0.433,-0.058 -0.446,-0.024 -0.449,0.008 -0.441,0.043 -0.426,0.074 -0.41,0.106 -0.383,0.136 -0.348,0.165 -0.312,0.187 -0.266,0.211 -0.219,0.23 -0.168,0.243 -0.113,0.254 -0.058,0.261 v 0.262 l 0.058,0.262 0.113,0.254 0.168,0.242 0.219,0.23 0.266,0.211 0.312,0.188 0.348,0.164 0.383,0.136 0.41,0.106 0.426,0.078 0.441,0.039 0.449,0.008 0.446,-0.023 0.433,-0.059 0.422,-0.09 0.395,-0.121 0.367,-0.152 0.332,-0.176 0.289,-0.199 0.242,-0.223 0.195,-0.234 0.141,-0.25 0.086,-0.258 z"
         style="fill:#00ff00;fill-opacity:0.50196078;fill-rule:nonzero;stroke:none"
         id="path130"
         inkscape:connector-curvature="0" /><path
         d="m 163.945,105.164 -0.027,-0.262 -0.086,-0.257 -0.141,-0.25 -0.195,-0.239 -0.242,-0.218 -0.289,-0.204 -0.332,-0.175 -0.367,-0.149 -0.395,-0.121 -0.422,-0.094 -0.433,-0.058 -0.446,-0.024 -0.449,0.008 -0.441,0.043 -0.426,0.074 -0.41,0.106 -0.383,0.136 -0.348,0.165 -0.312,0.187 -0.266,0.211 -0.219,0.23 -0.168,0.243 -0.113,0.254 -0.058,0.261 v 0.262 l 0.058,0.262 0.113,0.254 0.168,0.242 0.219,0.23 0.266,0.211 0.312,0.188 0.348,0.164 0.383,0.136 0.41,0.106 0.426,0.078 0.441,0.039 0.449,0.008 0.446,-0.023 0.433,-0.059 0.422,-0.09 0.395,-0.121 0.367,-0.152 0.332,-0.176 0.289,-0.199 0.242,-0.223 0.195,-0.234 0.141,-0.25 0.086,-0.258 z"
         style="fill:none;stroke:#000000;stroke-width:0.75;stroke-linecap:round;stroke-linejoin:round;stroke-miterlimit:10;stroke-dasharray:none;stroke-opacity:1"
         id="path132"
         inkscape:connector-curvature="0" /><path
         d="m 161.188,105.164 c 0,0.973 -1.461,0.973 -1.461,0 0,-0.976 1.461,-0.976 1.461,0"
         style="fill:#000000;fill-opacity:1;fill-rule:nonzero;stroke:#000000;stroke-width:0.75;stroke-linecap:round;stroke-linejoin:round;stroke-miterlimit:10;stroke-dasharray:none;stroke-opacity:1"
         id="path134"
         inkscape:connector-curvature="0" /><path
         d="m 298.602,184.801 h 190"
         style="fill:none;stroke:#000000;stroke-width:0.75;stroke-linecap:round;stroke-linejoin:round;stroke-miterlimit:10;stroke-dasharray:none;stroke-opacity:1"
         id="path138"
         inkscape:connector-curvature="0" /><path
         d="m 298.602,184.801 v 7.801"
         style="fill:none;stroke:#000000;stroke-width:0.75;stroke-linecap:round;stroke-linejoin:round;stroke-miterlimit:10;stroke-dasharray:none;stroke-opacity:1"
         id="path140"
         inkscape:connector-curvature="0" /><path
         d="m 325.742,184.801 v 7.801"
         style="fill:none;stroke:#000000;stroke-width:0.75;stroke-linecap:round;stroke-linejoin:round;stroke-miterlimit:10;stroke-dasharray:none;stroke-opacity:1"
         id="path142"
         inkscape:connector-curvature="0" /><path
         d="m 352.887,184.801 v 7.801"
         style="fill:none;stroke:#000000;stroke-width:0.75;stroke-linecap:round;stroke-linejoin:round;stroke-miterlimit:10;stroke-dasharray:none;stroke-opacity:1"
         id="path144"
         inkscape:connector-curvature="0" /><path
         d="m 380.027,184.801 v 7.801"
         style="fill:none;stroke:#000000;stroke-width:0.75;stroke-linecap:round;stroke-linejoin:round;stroke-miterlimit:10;stroke-dasharray:none;stroke-opacity:1"
         id="path146"
         inkscape:connector-curvature="0" /><path
         d="m 407.172,184.801 v 7.801"
         style="fill:none;stroke:#000000;stroke-width:0.75;stroke-linecap:round;stroke-linejoin:round;stroke-miterlimit:10;stroke-dasharray:none;stroke-opacity:1"
         id="path148"
         inkscape:connector-curvature="0" /><path
         d="m 434.312,184.801 v 7.801"
         style="fill:none;stroke:#000000;stroke-width:0.75;stroke-linecap:round;stroke-linejoin:round;stroke-miterlimit:10;stroke-dasharray:none;stroke-opacity:1"
         id="path150"
         inkscape:connector-curvature="0" /><path
         d="m 461.457,184.801 v 7.801"
         style="fill:none;stroke:#000000;stroke-width:0.75;stroke-linecap:round;stroke-linejoin:round;stroke-miterlimit:10;stroke-dasharray:none;stroke-opacity:1"
         id="path152"
         inkscape:connector-curvature="0" /><path
         d="m 488.602,184.801 v 7.801"
         style="fill:none;stroke:#000000;stroke-width:0.75;stroke-linecap:round;stroke-linejoin:round;stroke-miterlimit:10;stroke-dasharray:none;stroke-opacity:1"
         id="path154"
         inkscape:connector-curvature="0" /><text
         transform="translate(292.60156,204.95703)"
         style="font-variant:normal;font-weight:normal;font-size:13px;font-family:'Nimbus Roman';-inkscape-font-specification:NimbusRoman-Regular;writing-mode:lr-tb;fill:#000000;fill-opacity:1;fill-rule:nonzero;stroke:none"
         id="text158"><tspan
           x="0 6.006 27.143999 33.137001 54.287998 60.280998 81.431999 87.425003 108.576 114.569 132.717 138.71001 144.716 187.005 192.998 199.004"
           y="0"
           sodipodi:role="line"
           id="tspan156">7580859095100110</tspan></text>
<path
         d="M 291,155.219 V 35.363"
         style="fill:none;stroke:#000000;stroke-width:0.75;stroke-linecap:round;stroke-linejoin:round;stroke-miterlimit:10;stroke-dasharray:none;stroke-opacity:1"
         id="path160"
         inkscape:connector-curvature="0" /><path
         d="m 291,155.219 h -7.801"
         style="fill:none;stroke:#000000;stroke-width:0.75;stroke-linecap:round;stroke-linejoin:round;stroke-miterlimit:10;stroke-dasharray:none;stroke-opacity:1"
         id="path162"
         inkscape:connector-curvature="0" /><path
         d="m 291,115.266 h -7.801"
         style="fill:none;stroke:#000000;stroke-width:0.75;stroke-linecap:round;stroke-linejoin:round;stroke-miterlimit:10;stroke-dasharray:none;stroke-opacity:1"
         id="path164"
         inkscape:connector-curvature="0" /><path
         d="m 291,75.316 h -7.801"
         style="fill:none;stroke:#000000;stroke-width:0.75;stroke-linecap:round;stroke-linejoin:round;stroke-miterlimit:10;stroke-dasharray:none;stroke-opacity:1"
         id="path166"
         inkscape:connector-curvature="0" /><path
         d="m 291,35.363 h -7.801"
         style="fill:none;stroke:#000000;stroke-width:0.75;stroke-linecap:round;stroke-linejoin:round;stroke-miterlimit:10;stroke-dasharray:none;stroke-opacity:1"
         id="path168"
         inkscape:connector-curvature="0" /><text
         transform="rotate(-90,222.33789,-57.61914)"
         style="font-variant:normal;font-weight:normal;font-size:13px;font-family:'Nimbus Roman';-inkscape-font-specification:NimbusRoman-Regular;writing-mode:lr-tb;fill:#000000;fill-opacity:1;fill-rule:nonzero;stroke:none"
         id="text172"><tspan
           x="0 4.0040002 9.9969997 13 41.951 47.957001 50.946999 81.900002 87.905998 90.896004 121.849 127.855 130.858"
           y="0"
           sodipodi:role="line"
           id="tspan170">-0.10.00.10.2</tspan></text>
<text
         transform="translate(365.60156,213.19531)"
         style="font-variant:normal;font-weight:normal;font-size:9.09863281px;font-family:'Nimbus Roman';-inkscape-font-specification:NimbusRoman-Regular;writing-mode:lr-tb;fill:#000000;fill-opacity:1;fill-rule:nonzero;stroke:none"
         id="text176"><tspan
           x="0 5.0042481 9.9993973"
           y="0"
           sodipodi:role="line"
           id="tspan174">238</tspan></text>
<text
         transform="translate(380.60156,219.55859)"
         style="font-variant:normal;font-weight:normal;font-size:13px;font-family:'Nimbus Roman';-inkscape-font-specification:NimbusRoman-Regular;writing-mode:lr-tb;fill:#000000;fill-opacity:1;fill-rule:nonzero;stroke:none"
         id="text180"><tspan
           x="0 8.9960003"
           y="0"
           sodipodi:role="line"
           id="tspan178">U/</tspan></text>
<text
         transform="translate(393.60156,213.19531)"
         style="font-variant:normal;font-weight:normal;font-size:9.09863281px;font-family:'Nimbus Roman';-inkscape-font-specification:NimbusRoman-Regular;writing-mode:lr-tb;fill:#000000;fill-opacity:1;fill-rule:nonzero;stroke:none"
         id="text184"><tspan
           x="0 5.0042481 9.9993973"
           y="0"
           sodipodi:role="line"
           id="tspan182">206</tspan></text>
<text
         transform="translate(408.60156,219.55859)"
         style="font-variant:normal;font-weight:normal;font-size:13px;font-family:'Nimbus Roman';-inkscape-font-specification:NimbusRoman-Regular;writing-mode:lr-tb;fill:#000000;fill-opacity:1;fill-rule:nonzero;stroke:none"
         id="text188"><tspan
           x="0 6.994"
           y="0"
           sodipodi:role="line"
           id="tspan186">Pb</tspan></text>
</g><g
       id="g190"
       transform="translate(4.5)"><text
         id="text200"
         style="font-variant:normal;font-weight:normal;font-size:9.09863281px;font-family:'Nimbus Roman';-inkscape-font-specification:NimbusRoman-Regular;writing-mode:lr-tb;fill:#000000;fill-opacity:1;fill-rule:nonzero;stroke:none"
         transform="rotate(-90)"
         x="-126.30078"
         y="256.99609"><tspan
           id="tspan198"
           sodipodi:role="line"
           y="256.99609"
           x="-126.30078 -121.29654 -116.30138">207</tspan></text>
</g><g
       id="g202"
       transform="translate(4.5)"><text
         transform="rotate(-90,187.33008,-76.029297)"
         style="font-variant:normal;font-weight:normal;font-size:13px;font-family:'Nimbus Roman';-inkscape-font-specification:NimbusRoman-Regular;writing-mode:lr-tb;fill:#000000;fill-opacity:1;fill-rule:nonzero;stroke:none"
         id="text206"><tspan
           x="0 6.994 13"
           y="0"
           sodipodi:role="line"
           id="tspan204">Pb/</tspan></text>
</g><text
       transform="rotate(-90)"
       style="font-variant:normal;font-weight:normal;font-size:9.09863281px;font-family:'Nimbus Roman';-inkscape-font-specification:NimbusRoman-Regular;writing-mode:lr-tb;fill:#000000;fill-opacity:1;fill-rule:nonzero;stroke:none"
       id="text218"
       x="-94.300781"
       y="261.49609"><tspan
         x="-94.300781 -89.296539 -84.301384"
         y="261.49609"
         sodipodi:role="line"
         id="tspan216">206</tspan></text>
<g
       id="g220"
       transform="translate(4.5)"><text
         transform="rotate(-90,171.33008,-92.029297)"
         style="font-variant:normal;font-weight:normal;font-size:13px;font-family:'Nimbus Roman';-inkscape-font-specification:NimbusRoman-Regular;writing-mode:lr-tb;fill:#000000;fill-opacity:1;fill-rule:nonzero;stroke:none"
         id="text224"><tspan
           x="0 6.994"
           y="0"
           sodipodi:role="line"
           id="tspan222">Pb</tspan></text>
</g><g
       id="g226"><g
         id="g228"
         clip-path="url(#clipPath232)"><path
           d="M 504,96.418 437.738,96.367 366.07,96.289 303.754,96.203 249.578,96.102 202.473,95.98 161.516,95.844 125.91,95.684 94.949,95.496 68.031,95.281 44.629,95.027 24.285,94.727 6.594,94.379 0,94.199"
           style="fill:none;stroke:#e9967a;stroke-width:1.5;stroke-linecap:round;stroke-linejoin:round;stroke-miterlimit:10;stroke-dasharray:none;stroke-opacity:1"
           id="path234"
           inkscape:connector-curvature="0" /></g></g><g
       id="g236"><path
         d="m 291,7.801 h 205.199 v 177 H 291 Z"
         style="fill:none;stroke:#000000;stroke-width:0.75;stroke-linecap:round;stroke-linejoin:round;stroke-miterlimit:10;stroke-dasharray:none;stroke-opacity:1"
         id="path238"
         inkscape:connector-curvature="0" /><path
         d="m 291,7.801 h 205.199 v 177 H 291 Z"
         style="fill:none;stroke:#000000;stroke-width:0.75;stroke-linecap:round;stroke-linejoin:round;stroke-miterlimit:10;stroke-dasharray:none;stroke-opacity:1"
         id="path240"
         inkscape:connector-curvature="0" /><path
         d="m 433.234,96.301 -0.484,-8.551 -1.449,-8.41 -2.387,-8.129 -3.289,-7.719 -4.133,-7.183 -4.91,-6.524 -5.609,-5.758 -6.211,-4.902 -6.719,-3.961 -7.109,-2.961 -7.387,-1.906 -7.543,-0.824 -7.57,0.277 -7.481,1.367 -7.262,2.438 -6.929,3.468 -6.477,4.442 -5.926,5.34 -5.269,6.156 -4.531,6.863 -3.719,7.465 -2.844,7.941 -1.922,8.29 -0.969,8.496 v 8.566 l 0.969,8.5 1.922,8.285 2.844,7.942 3.719,7.464 4.531,6.868 5.269,6.152 5.926,5.344 6.477,4.441 6.929,3.469 7.262,2.437 7.481,1.368 7.57,0.273 7.543,-0.824 7.387,-1.906 7.109,-2.957 6.719,-3.961 6.211,-4.903 5.609,-5.762 4.91,-6.523 4.133,-7.18 3.289,-7.718 2.387,-8.133 1.449,-8.406 z"
         style="fill:#008fbf;fill-opacity:0.50196081;fill-rule:nonzero;stroke:none"
         id="path242"
         inkscape:connector-curvature="0" /><path
         d="m 433.234,96.301 -0.484,-8.551 -1.449,-8.41 -2.387,-8.129 -3.289,-7.719 -4.133,-7.183 -4.91,-6.524 -5.609,-5.758 -6.211,-4.902 -6.719,-3.961 -7.109,-2.961 -7.387,-1.906 -7.543,-0.824 -7.57,0.277 -7.481,1.367 -7.262,2.438 -6.929,3.468 -6.477,4.442 -5.926,5.34 -5.269,6.156 -4.531,6.863 -3.719,7.465 -2.844,7.941 -1.922,8.29 -0.969,8.496 v 8.566 l 0.969,8.5 1.922,8.285 2.844,7.942 3.719,7.464 4.531,6.868 5.269,6.152 5.926,5.344 6.477,4.441 6.929,3.469 7.262,2.437 7.481,1.368 7.57,0.273 7.543,-0.824 7.387,-1.906 7.109,-2.957 6.719,-3.961 6.211,-4.903 5.609,-5.762 4.91,-6.523 4.133,-7.18 3.289,-7.718 2.387,-8.133 1.449,-8.406 z"
         style="fill:none;stroke:#000000;stroke-width:0.75;stroke-linecap:round;stroke-linejoin:round;stroke-miterlimit:10;stroke-dasharray:none;stroke-opacity:1"
         id="path244"
         inkscape:connector-curvature="0" /><path
         d="m 374.84,96.301 c 0,0.972 -1.461,0.972 -1.461,0 0,-0.977 1.461,-0.977 1.461,0"
         style="fill:#000000;fill-opacity:1;fill-rule:nonzero;stroke:#000000;stroke-width:0.75;stroke-linecap:round;stroke-linejoin:round;stroke-miterlimit:10;stroke-dasharray:none;stroke-opacity:1"
         id="path246"
         inkscape:connector-curvature="0" /><path
         d="m 481.254,96.375 -0.152,-0.789 -0.454,-0.774 -0.746,-0.75 -1.027,-0.714 -1.297,-0.66 -1.535,-0.602 -1.754,-0.531 -1.945,-0.453 -2.106,-0.368 -2.222,-0.269 -2.313,-0.176 -2.359,-0.078 -2.371,0.027 -2.34,0.125 -2.274,0.223 -2.171,0.32 -2.028,0.41 -1.851,0.493 -1.653,0.57 -1.418,0.633 -1.164,0.687 -0.886,0.735 -0.602,0.761 -0.305,0.785 v 0.79 l 0.305,0.785 0.602,0.765 0.886,0.731 1.164,0.687 1.418,0.637 1.653,0.566 1.851,0.493 2.028,0.41 2.171,0.32 2.274,0.223 2.34,0.129 2.371,0.023 2.359,-0.074 2.313,-0.176 2.222,-0.273 2.106,-0.368 1.945,-0.449 1.754,-0.531 1.535,-0.606 1.297,-0.66 1.027,-0.711 0.746,-0.75 0.454,-0.777 z"
         style="fill:#00ff00;fill-opacity:0.50196078;fill-rule:nonzero;stroke:none"
         id="path248"
         inkscape:connector-curvature="0" /><path
         d="m 481.254,96.375 -0.152,-0.789 -0.454,-0.774 -0.746,-0.75 -1.027,-0.714 -1.297,-0.66 -1.535,-0.602 -1.754,-0.531 -1.945,-0.453 -2.106,-0.368 -2.222,-0.269 -2.313,-0.176 -2.359,-0.078 -2.371,0.027 -2.34,0.125 -2.274,0.223 -2.171,0.32 -2.028,0.41 -1.851,0.493 -1.653,0.57 -1.418,0.633 -1.164,0.687 -0.886,0.735 -0.602,0.761 -0.305,0.785 v 0.79 l 0.305,0.785 0.602,0.765 0.886,0.731 1.164,0.687 1.418,0.637 1.653,0.566 1.851,0.493 2.028,0.41 2.171,0.32 2.274,0.223 2.34,0.129 2.371,0.023 2.359,-0.074 2.313,-0.176 2.222,-0.273 2.106,-0.368 1.945,-0.449 1.754,-0.531 1.535,-0.606 1.297,-0.66 1.027,-0.711 0.746,-0.75 0.454,-0.777 z"
         style="fill:none;stroke:#000000;stroke-width:0.75;stroke-linecap:round;stroke-linejoin:round;stroke-miterlimit:10;stroke-dasharray:none;stroke-opacity:1"
         id="path250"
         inkscape:connector-curvature="0" /><path
         d="m 463.48,96.375 c 0,0.977 -1.46,0.977 -1.46,0 0,-0.973 1.46,-0.973 1.46,0"
         style="fill:#000000;fill-opacity:1;fill-rule:nonzero;stroke:#000000;stroke-width:0.75;stroke-linecap:round;stroke-linejoin:round;stroke-miterlimit:10;stroke-dasharray:none;stroke-opacity:1"
         id="path252"
         inkscape:connector-curvature="0" /></g></g></svg>