<?xml version="1.0" encoding="UTF-8" standalone="no"?>
<!-- Created with Inkscape (http://www.inkscape.org/) -->

<svg
   xmlns:dc="http://purl.org/dc/elements/1.1/"
   xmlns:cc="http://creativecommons.org/ns#"
   xmlns:rdf="http://www.w3.org/1999/02/22-rdf-syntax-ns#"
   xmlns:svg="http://www.w3.org/2000/svg"
   xmlns="http://www.w3.org/2000/svg"
   xmlns:sodipodi="http://sodipodi.sourceforge.net/DTD/sodipodi-0.dtd"
   xmlns:inkscape="http://www.inkscape.org/namespaces/inkscape"
   version="1.1"
   id="svg2"
   xml:space="preserve"
   width="1093.71"
   height="278.45139"
   viewBox="0 0 1093.71 278.45139"
   sodipodi:docname="logtrans.svg"
   inkscape:version="0.92.5 (2060ec1f9f, 2020-04-08)"><metadata
     id="metadata8"><rdf:RDF><cc:Work
         rdf:about=""><dc:format>image/svg+xml</dc:format><dc:type
           rdf:resource="http://purl.org/dc/dcmitype/StillImage" /><dc:title></dc:title></cc:Work></rdf:RDF></metadata><defs
     id="defs6" /><sodipodi:namedview
     pagecolor="#ffffff"
     bordercolor="#666666"
     borderopacity="1"
     objecttolerance="10"
     gridtolerance="10"
     guidetolerance="10"
     inkscape:pageopacity="0"
     inkscape:pageshadow="2"
     inkscape:window-width="1920"
     inkscape:window-height="1046"
     id="namedview4"
     showgrid="false"
     fit-margin-top="0"
     fit-margin-left="0"
     fit-margin-right="0"
     fit-margin-bottom="0"
     inkscape:zoom="1.0250198"
     inkscape:cx="401.32532"
     inkscape:cy="-30.490908"
     inkscape:window-x="0"
     inkscape:window-y="-3"
     inkscape:window-maximized="1"
     inkscape:current-layer="g1066" /><g
     id="g10"
     inkscape:groupmode="layer"
     inkscape:label="logtrans1"
     transform="matrix(1.3333333,0,0,1.3333333,-21.194458,-9.8942118)"><g
       id="g12"><path
         d="M 312.074,177 H 541.906"
         style="fill:none;stroke:#000000;stroke-width:0.75;stroke-linecap:round;stroke-linejoin:round;stroke-miterlimit:10;stroke-dasharray:none;stroke-opacity:1"
         id="path120"
         inkscape:connector-curvature="0" /><path
         d="m 312.074,177 v 7.801"
         style="fill:none;stroke:#000000;stroke-width:0.75;stroke-linecap:round;stroke-linejoin:round;stroke-miterlimit:10;stroke-dasharray:none;stroke-opacity:1"
         id="path122"
         inkscape:connector-curvature="0" /><path
         d="m 337.707,177 v 7.801"
         style="fill:none;stroke:#000000;stroke-width:0.75;stroke-linecap:round;stroke-linejoin:round;stroke-miterlimit:10;stroke-dasharray:none;stroke-opacity:1"
         id="path124"
         inkscape:connector-curvature="0" /><path
         d="m 371.594,177 v 7.801"
         style="fill:none;stroke:#000000;stroke-width:0.75;stroke-linecap:round;stroke-linejoin:round;stroke-miterlimit:10;stroke-dasharray:none;stroke-opacity:1"
         id="path126"
         inkscape:connector-curvature="0" /><path
         d="m 397.23,177 v 7.801"
         style="fill:none;stroke:#000000;stroke-width:0.75;stroke-linecap:round;stroke-linejoin:round;stroke-miterlimit:10;stroke-dasharray:none;stroke-opacity:1"
         id="path128"
         inkscape:connector-curvature="0" /><path
         d="m 422.863,177 v 7.801"
         style="fill:none;stroke:#000000;stroke-width:0.75;stroke-linecap:round;stroke-linejoin:round;stroke-miterlimit:10;stroke-dasharray:none;stroke-opacity:1"
         id="path130"
         inkscape:connector-curvature="0" /><path
         d="m 456.75,177 v 7.801"
         style="fill:none;stroke:#000000;stroke-width:0.75;stroke-linecap:round;stroke-linejoin:round;stroke-miterlimit:10;stroke-dasharray:none;stroke-opacity:1"
         id="path132"
         inkscape:connector-curvature="0" /><path
         d="m 482.387,177 v 7.801"
         style="fill:none;stroke:#000000;stroke-width:0.75;stroke-linecap:round;stroke-linejoin:round;stroke-miterlimit:10;stroke-dasharray:none;stroke-opacity:1"
         id="path134"
         inkscape:connector-curvature="0" /><path
         d="m 508.02,177 v 7.801"
         style="fill:none;stroke:#000000;stroke-width:0.75;stroke-linecap:round;stroke-linejoin:round;stroke-miterlimit:10;stroke-dasharray:none;stroke-opacity:1"
         id="path136"
         inkscape:connector-curvature="0" /><path
         d="m 541.906,177 v 7.801"
         style="fill:none;stroke:#000000;stroke-width:0.75;stroke-linecap:round;stroke-linejoin:round;stroke-miterlimit:10;stroke-dasharray:none;stroke-opacity:1"
         id="path138"
         inkscape:connector-curvature="0" /><text
         style="font-variant:normal;font-weight:normal;font-size:13px;font-family:'Nimbus Roman';-inkscape-font-specification:NimbusRoman-Regular;writing-mode:lr-tb;fill:#000000;fill-opacity:1;fill-rule:nonzero;stroke:none"
         id="text144"
         x="309.07422"
         y="197.16016"><tspan
           x="309.07422 334.71021 368.58823 391.23422 397.22723 416.85721 422.86322 450.74823 456.75421 473.38123 479.38724 485.39322 532.90625 538.91229 544.90527"
           y="197.16016"
           sodipodi:role="line"
           id="tspan140">125102050100500</tspan><tspan
           x="403.48828 409.49429 415.4873 421.49332 424.48331 428.4873 440.4863 446.49231"
           y="212.75781"
           sodipodi:role="line"
           id="tspan142">age [Ma]</tspan></text>
<path
         d="m 312.074,170.734 h 38.305 z"
         style="fill:none;stroke:#000000;stroke-width:0.75;stroke-linecap:round;stroke-linejoin:round;stroke-miterlimit:10;stroke-dasharray:none;stroke-opacity:1"
         id="path146"
         inkscape:connector-curvature="0" /><path
         d="m 350.379,170.734 h 38.305 z"
         style="fill:none;stroke:#000000;stroke-width:0.75;stroke-linecap:round;stroke-linejoin:round;stroke-miterlimit:10;stroke-dasharray:none;stroke-opacity:1"
         id="path148"
         inkscape:connector-curvature="0" /><path
         d="m 388.684,71.039 h 38.305 v 99.695 h -38.305 z"
         style="fill:#00ff00;fill-opacity:0.2;fill-rule:nonzero;stroke:none"
         id="path150"
         inkscape:connector-curvature="0" /><path
         d="m 388.684,71.039 h 38.305 v 99.695 h -38.305 z"
         style="fill:none;stroke:#000000;stroke-width:0.75;stroke-linecap:round;stroke-linejoin:round;stroke-miterlimit:10;stroke-dasharray:none;stroke-opacity:1"
         id="path152"
         inkscape:connector-curvature="0" /><path
         d="m 426.988,14.066 h 38.305 v 156.668 h -38.305 z"
         style="fill:#00ff00;fill-opacity:0.2;fill-rule:nonzero;stroke:none"
         id="path154"
         inkscape:connector-curvature="0" /><path
         d="m 426.988,14.066 h 38.305 v 156.668 h -38.305 z"
         style="fill:none;stroke:#000000;stroke-width:0.75;stroke-linecap:round;stroke-linejoin:round;stroke-miterlimit:10;stroke-dasharray:none;stroke-opacity:1"
         id="path156"
         inkscape:connector-curvature="0" /><path
         d="m 465.297,142.25 h 38.305 v 28.484 h -38.305 z"
         style="fill:#00ff00;fill-opacity:0.2;fill-rule:nonzero;stroke:none"
         id="path158"
         inkscape:connector-curvature="0" /><path
         d="m 465.297,142.25 h 38.305 v 28.484 h -38.305 z"
         style="fill:none;stroke:#000000;stroke-width:0.75;stroke-linecap:round;stroke-linejoin:round;stroke-miterlimit:10;stroke-dasharray:none;stroke-opacity:1"
         id="path160"
         inkscape:connector-curvature="0" /><path
         d="m 503.602,170.734 h 38.304 z"
         style="fill:none;stroke:#000000;stroke-width:0.75;stroke-linecap:round;stroke-linejoin:round;stroke-miterlimit:10;stroke-dasharray:none;stroke-opacity:1"
         id="path162"
         inkscape:connector-curvature="0" /><path
         d="M 302.879,170.734 V 7.801"
         style="fill:none;stroke:#000000;stroke-width:0.75;stroke-linecap:round;stroke-linejoin:round;stroke-miterlimit:10;stroke-dasharray:none;stroke-opacity:1"
         id="path164"
         inkscape:connector-curvature="0" /><path
         d="m 302.879,170.734 h -7.801"
         style="fill:none;stroke:#000000;stroke-width:0.75;stroke-linecap:round;stroke-linejoin:round;stroke-miterlimit:10;stroke-dasharray:none;stroke-opacity:1"
         id="path166"
         inkscape:connector-curvature="0" /><path
         d="m 302.879,142.25 h -7.801"
         style="fill:none;stroke:#000000;stroke-width:0.75;stroke-linecap:round;stroke-linejoin:round;stroke-miterlimit:10;stroke-dasharray:none;stroke-opacity:1"
         id="path168"
         inkscape:connector-curvature="0" /><path
         d="m 302.879,113.762 h -7.801"
         style="fill:none;stroke:#000000;stroke-width:0.75;stroke-linecap:round;stroke-linejoin:round;stroke-miterlimit:10;stroke-dasharray:none;stroke-opacity:1"
         id="path170"
         inkscape:connector-curvature="0" /><path
         d="m 302.879,85.277 h -7.801"
         style="fill:none;stroke:#000000;stroke-width:0.75;stroke-linecap:round;stroke-linejoin:round;stroke-miterlimit:10;stroke-dasharray:none;stroke-opacity:1"
         id="path172"
         inkscape:connector-curvature="0" /><path
         d="m 302.879,56.793 h -7.801"
         style="fill:none;stroke:#000000;stroke-width:0.75;stroke-linecap:round;stroke-linejoin:round;stroke-miterlimit:10;stroke-dasharray:none;stroke-opacity:1"
         id="path174"
         inkscape:connector-curvature="0" /><path
         d="m 302.879,28.309 h -7.801"
         style="fill:none;stroke:#000000;stroke-width:0.75;stroke-linecap:round;stroke-linejoin:round;stroke-miterlimit:10;stroke-dasharray:none;stroke-opacity:1"
         id="path176"
         inkscape:connector-curvature="0" /><text
         transform="rotate(-90)"
         style="font-variant:normal;font-weight:normal;font-size:13px;font-family:'Nimbus Roman';-inkscape-font-specification:NimbusRoman-Regular;writing-mode:lr-tb;fill:#000000;fill-opacity:1;fill-rule:nonzero;stroke:none"
         id="text180"
         x="-173.73438"
         y="291.83984"><tspan
           x="-173.73438 -145.25137 -116.75537 -88.272377 -59.789375 -34.309372 -28.303375"
           y="291.83984"
           sodipodi:role="line"
           id="tspan178">0246810</tspan></text>
<path
         d="m 312.074,170.734 v -0.019 h 0.899 l 0.449,-0.004 h 0.449 l 0.449,-0.004 h 0.903 l 0.449,-0.004 h 0.449 l 0.449,-0.004 h 0.45 l 0.449,-0.004 0.453,-0.004 h 0.449 l 1.348,-0.011 h 0.449 l 0.449,-0.004 0.453,-0.004 1.797,-0.016 0.449,-0.008 0.45,-0.003 0.453,-0.004 0.449,-0.008 0.449,-0.004 0.449,-0.008 0.45,-0.004 0.898,-0.015 0.453,-0.008 2.246,-0.039 0.449,-0.012 0.454,-0.012 0.449,-0.008 1.347,-0.035 0.45,-0.015 0.449,-0.012 0.453,-0.016 0.449,-0.011 0.899,-0.032 0.449,-0.019 0.449,-0.016 0.449,-0.019 0.453,-0.016 0.45,-0.02 0.449,-0.023 0.449,-0.019 0.449,-0.024 0.45,-0.019 0.449,-0.028 0.453,-0.023 0.449,-0.028 0.449,-0.023 0.45,-0.031 0.449,-0.028 0.898,-0.062 0.453,-0.031 1.797,-0.141 0.449,-0.043 0.45,-0.039 0.453,-0.043 0.898,-0.086 0.449,-0.047 1.348,-0.152 0.453,-0.055 0.449,-0.055 0.899,-0.117 0.898,-0.125 0.45,-0.066 0.453,-0.07 0.449,-0.071 0.898,-0.148 0.45,-0.082 0.449,-0.078 0.449,-0.086 0.453,-0.086 0.899,-0.188 0.449,-0.097 0.449,-0.102 0.898,-0.211 0.45,-0.113 0.453,-0.117 0.449,-0.121 0.449,-0.125 0.449,-0.129 0.45,-0.137 0.449,-0.141 0.449,-0.144 0.453,-0.149 0.449,-0.156 0.45,-0.164 0.449,-0.168 0.449,-0.172 0.449,-0.183 0.45,-0.188 0.453,-0.195 0.449,-0.203 0.449,-0.211 0.449,-0.219 0.45,-0.227 0.449,-0.238 0.449,-0.242 0.453,-0.258 0.449,-0.262 0.45,-0.277 0.449,-0.285 0.449,-0.297 0.449,-0.309 0.449,-0.316 0.454,-0.336 0.449,-0.344 0.449,-0.359 0.449,-0.371 0.449,-0.383 0.45,-0.402 0.449,-0.414 0.453,-0.43 0.449,-0.449 0.449,-0.461 0.45,-0.481 0.449,-0.5 0.449,-0.511 0.449,-0.536 0.453,-0.554 0.45,-0.57 0.449,-0.59 0.449,-0.614 0.449,-0.632 0.45,-0.653 0.449,-0.676 0.453,-0.695 0.449,-0.719 0.449,-0.746 0.45,-0.761 0.449,-0.79 0.449,-0.812 0.449,-0.836 0.453,-0.863 0.45,-0.883 0.449,-0.91 0.449,-0.938 0.449,-0.961 0.449,-0.984 0.45,-1.012 0.453,-1.035 0.449,-1.062 0.449,-1.09 0.449,-1.11 0.45,-1.14 0.449,-1.16 0.449,-1.192 0.453,-1.215 0.449,-1.234 0.45,-1.262 0.449,-1.285 0.449,-1.308 0.449,-1.332 0.449,-1.352 0.454,-1.375 0.449,-1.402 0.449,-1.411 0.449,-1.441 0.449,-1.453 0.45,-1.473 0.449,-1.496 0.453,-1.504 0.449,-1.523 0.449,-1.539 0.45,-1.551 0.449,-1.563 0.449,-1.578 0.449,-1.582 0.453,-1.597 0.45,-1.602 0.449,-1.605 0.449,-1.618 0.449,-1.621 0.45,-1.617 0.449,-1.625 0.453,-1.625 0.449,-1.617 0.449,-1.625 0.45,-1.613 0.898,-3.219 0.449,-1.59 0.449,-1.594 0.454,-1.582 0.898,-3.117 0.449,-1.539 0.899,-3.039 0.449,-1.477 0.453,-1.476 0.449,-1.457 0.449,-1.422 0.45,-1.418 0.449,-1.383 0.449,-1.355 0.449,-1.352 0.453,-1.301 0.45,-1.293 0.449,-1.261 0.449,-1.227 0.449,-1.215 0.45,-1.168 0.449,-1.148 0.453,-1.125 0.449,-1.078 0.449,-1.067 0.45,-1.027 0.449,-0.992 0.449,-0.977 0.449,-0.926 0.453,-0.91 0.45,-0.875 0.449,-0.84 0.449,-0.82 0.449,-0.777 0.449,-0.754 0.45,-0.727 0.453,-0.683 0.449,-0.668 0.449,-0.633 0.449,-0.602 0.45,-0.586 0.449,-0.539 0.449,-0.523 0.453,-0.496 0.449,-0.461 0.45,-0.445 0.449,-0.411 0.449,-0.386 0.449,-0.367 0.449,-0.336 0.454,-0.313 0.449,-0.297 0.449,-0.258 0.449,-0.246 0.449,-0.226 0.45,-0.192 0.449,-0.179 0.453,-0.153 0.449,-0.129 0.449,-0.117 0.45,-0.086 0.449,-0.066 0.449,-0.059 0.449,-0.015 0.453,-0.012 0.45,0.008 0.449,0.043 0.449,0.047 0.449,0.078 0.45,0.101 0.449,0.106 0.453,0.148 0.449,0.156 0.449,0.172 0.899,0.43 0.449,0.246 0.449,0.274 0.453,0.281 0.45,0.32 0.449,0.336 0.449,0.352 0.449,0.39 0.449,0.403 0.45,0.429 0.453,0.465 0.449,0.473 0.449,0.512 0.449,0.531 0.45,0.551 0.449,0.593 0.449,0.602 0.453,0.64 0.449,0.668 0.45,0.68 0.449,0.723 0.449,0.742 0.449,0.766 0.45,0.808 0.453,0.817 0.449,0.851 0.449,0.883 0.449,0.898 0.45,0.938 0.449,0.957 0.449,0.98 0.453,1.016 0.449,1.027 0.45,1.059 0.449,1.09 0.449,1.101 0.449,1.133 0.449,1.153 0.45,1.171 0.453,1.204 0.449,1.21 0.449,1.239 0.449,1.261 0.45,1.27 0.449,1.297 0.449,1.308 0.453,1.321 0.899,2.695 0.449,1.367 0.449,1.383 0.449,1.387 0.45,1.398 0.453,1.41 0.449,1.411 0.449,1.425 0.899,2.86 0.449,1.441 0.449,1.434 0.453,1.445 0.449,1.441 0.45,1.438 0.449,1.445 1.347,4.301 0.454,1.422 0.449,1.418 0.449,1.414 0.449,1.398 0.449,1.395 0.45,1.387 0.449,1.371 0.453,1.363 0.449,1.352 0.449,1.339 0.45,1.325 0.449,1.312 0.449,1.297 0.449,1.281 0.453,1.266 0.45,1.25 0.449,1.238 0.449,1.215 0.449,1.203 0.45,1.18 0.449,1.168 0.453,1.148 0.449,1.125 0.449,1.11 0.45,1.089 0.449,1.071 0.449,1.054 0.449,1.032 0.453,1.015 0.45,0.996 0.449,0.973 0.449,0.957 0.449,0.938 0.449,0.914 0.45,0.898 0.453,0.879 0.449,0.859 0.449,0.84 0.449,0.821 0.45,0.804 0.449,0.781 0.449,0.766 0.453,0.75 0.449,0.727 0.45,0.714 0.449,0.696 0.449,0.676 0.449,0.66 0.449,0.644 0.454,0.625 0.449,0.614 0.449,0.593 0.449,0.582 0.449,0.567 0.45,0.547 0.449,0.535 0.453,0.523 0.449,0.504 0.449,0.496 0.45,0.481 0.449,0.465 0.449,0.457 0.449,0.437 0.453,0.434 0.45,0.414 0.449,0.406 0.449,0.394 0.449,0.383 0.45,0.375 0.449,0.364 0.453,0.351 0.449,0.344 0.449,0.332 0.45,0.324 0.449,0.317 0.449,0.304 0.449,0.297 0.449,0.289 0.454,0.281 0.449,0.274 0.449,0.269 0.449,0.258 0.449,0.25 0.45,0.246 0.449,0.239 0.453,0.23 0.449,0.227 0.449,0.218 0.45,0.215 0.449,0.207 0.449,0.203 0.449,0.2 0.453,0.191 0.45,0.188 0.898,0.359 0.449,0.172 0.899,0.336 0.453,0.16 0.449,0.156 0.449,0.152 0.899,0.297 0.898,0.282 0.453,0.132 0.45,0.133 0.898,0.258 1.348,0.363 0.453,0.114 0.898,0.226 0.449,0.11 0.45,0.105 0.449,0.102 0.449,0.105 0.453,0.098 0.899,0.195 0.898,0.187 0.898,0.18 0.454,0.086 0.449,0.086 1.347,0.246 0.45,0.078 0.449,0.082 0.453,0.074 1.348,0.223 1.347,0.211 0.453,0.066 1.348,0.2 1.348,0.187 0.453,0.059 1.348,0.176 0.449,0.054 0.449,0.059 0.449,0.055 0.453,0.05 0.45,0.055 0.449,0.051 0.449,0.054 0.449,0.047 v 2.375 z"
         style="fill:#ff00ff;fill-opacity:0.6;fill-rule:nonzero;stroke:none"
         id="path182"
         inkscape:connector-curvature="0" /><path
         d="m 312.074,170.734 v -0.019 h 0.899 l 0.449,-0.004 h 0.449 l 0.449,-0.004 h 0.903 l 0.449,-0.004 h 0.449 l 0.449,-0.004 h 0.45 l 0.449,-0.004 0.453,-0.004 h 0.449 l 1.348,-0.011 h 0.449 l 0.449,-0.004 0.453,-0.004 1.797,-0.016 0.449,-0.008 0.45,-0.003 0.453,-0.004 0.449,-0.008 0.449,-0.004 0.449,-0.008 0.45,-0.004 0.898,-0.015 0.453,-0.008 2.246,-0.039 0.449,-0.012 0.454,-0.012 0.449,-0.008 1.347,-0.035 0.45,-0.015 0.449,-0.012 0.453,-0.016 0.449,-0.011 0.899,-0.032 0.449,-0.019 0.449,-0.016 0.449,-0.019 0.453,-0.016 0.45,-0.02 0.449,-0.023 0.449,-0.019 0.449,-0.024 0.45,-0.019 0.449,-0.028 0.453,-0.023 0.449,-0.028 0.449,-0.023 0.45,-0.031 0.449,-0.028 0.898,-0.062 0.453,-0.031 1.797,-0.141 0.449,-0.043 0.45,-0.039 0.453,-0.043 0.898,-0.086 0.449,-0.047 1.348,-0.152 0.453,-0.055 0.449,-0.055 0.899,-0.117 0.898,-0.125 0.45,-0.066 0.453,-0.07 0.449,-0.071 0.898,-0.148 0.45,-0.082 0.449,-0.078 0.449,-0.086 0.453,-0.086 0.899,-0.188 0.449,-0.097 0.449,-0.102 0.898,-0.211 0.45,-0.113 0.453,-0.117 0.449,-0.121 0.449,-0.125 0.449,-0.129 0.45,-0.137 0.449,-0.141 0.449,-0.144 0.453,-0.149 0.449,-0.156 0.45,-0.164 0.449,-0.168 0.449,-0.172 0.449,-0.183 0.45,-0.188 0.453,-0.195 0.449,-0.203 0.449,-0.211 0.449,-0.219 0.45,-0.227 0.449,-0.238 0.449,-0.242 0.453,-0.258 0.449,-0.262 0.45,-0.277 0.449,-0.285 0.449,-0.297 0.449,-0.309 0.449,-0.316 0.454,-0.336 0.449,-0.344 0.449,-0.359 0.449,-0.371 0.449,-0.383 0.45,-0.402 0.449,-0.414 0.453,-0.43 0.449,-0.449 0.449,-0.461 0.45,-0.481 0.449,-0.5 0.449,-0.511 0.449,-0.536 0.453,-0.554 0.45,-0.57 0.449,-0.59 0.449,-0.614 0.449,-0.632 0.45,-0.653 0.449,-0.676 0.453,-0.695 0.449,-0.719 0.449,-0.746 0.45,-0.761 0.449,-0.79 0.449,-0.812 0.449,-0.836 0.453,-0.863 0.45,-0.883 0.449,-0.91 0.449,-0.938 0.449,-0.961 0.449,-0.984 0.45,-1.012 0.453,-1.035 0.449,-1.062 0.449,-1.09 0.449,-1.11 0.45,-1.14 0.449,-1.16 0.449,-1.192 0.453,-1.215 0.449,-1.234 0.45,-1.262 0.449,-1.285 0.449,-1.308 0.449,-1.332 0.449,-1.352 0.454,-1.375 0.449,-1.402 0.449,-1.411 0.449,-1.441 0.449,-1.453 0.45,-1.473 0.449,-1.496 0.453,-1.504 0.449,-1.523 0.449,-1.539 0.45,-1.551 0.449,-1.563 0.449,-1.578 0.449,-1.582 0.453,-1.597 0.45,-1.602 0.449,-1.605 0.449,-1.618 0.449,-1.621 0.45,-1.617 0.449,-1.625 0.453,-1.625 0.449,-1.617 0.449,-1.625 0.45,-1.613 0.898,-3.219 0.449,-1.59 0.449,-1.594 0.454,-1.582 0.898,-3.117 0.449,-1.539 0.899,-3.039 0.449,-1.477 0.453,-1.476 0.449,-1.457 0.449,-1.422 0.45,-1.418 0.449,-1.383 0.449,-1.355 0.449,-1.352 0.453,-1.301 0.45,-1.293 0.449,-1.261 0.449,-1.227 0.449,-1.215 0.45,-1.168 0.449,-1.148 0.453,-1.125 0.449,-1.078 0.449,-1.067 0.45,-1.027 0.449,-0.992 0.449,-0.977 0.449,-0.926 0.453,-0.91 0.45,-0.875 0.449,-0.84 0.449,-0.82 0.449,-0.777 0.449,-0.754 0.45,-0.727 0.453,-0.683 0.449,-0.668 0.449,-0.633 0.449,-0.602 0.45,-0.586 0.449,-0.539 0.449,-0.523 0.453,-0.496 0.449,-0.461 0.45,-0.445 0.449,-0.411 0.449,-0.386 0.449,-0.367 0.449,-0.336 0.454,-0.313 0.449,-0.297 0.449,-0.258 0.449,-0.246 0.449,-0.226 0.45,-0.192 0.449,-0.179 0.453,-0.153 0.449,-0.129 0.449,-0.117 0.45,-0.086 0.449,-0.066 0.449,-0.059 0.449,-0.015 0.453,-0.012 0.45,0.008 0.449,0.043 0.449,0.047 0.449,0.078 0.45,0.101 0.449,0.106 0.453,0.148 0.449,0.156 0.449,0.172 0.899,0.43 0.449,0.246 0.449,0.274 0.453,0.281 0.45,0.32 0.449,0.336 0.449,0.352 0.449,0.39 0.449,0.403 0.45,0.429 0.453,0.465 0.449,0.473 0.449,0.512 0.449,0.531 0.45,0.551 0.449,0.593 0.449,0.602 0.453,0.64 0.449,0.668 0.45,0.68 0.449,0.723 0.449,0.742 0.449,0.766 0.45,0.808 0.453,0.817 0.449,0.851 0.449,0.883 0.449,0.898 0.45,0.938 0.449,0.957 0.449,0.98 0.453,1.016 0.449,1.027 0.45,1.059 0.449,1.09 0.449,1.101 0.449,1.133 0.449,1.153 0.45,1.171 0.453,1.204 0.449,1.21 0.449,1.239 0.449,1.261 0.45,1.27 0.449,1.297 0.449,1.308 0.453,1.321 0.899,2.695 0.449,1.367 0.449,1.383 0.449,1.387 0.45,1.398 0.453,1.41 0.449,1.411 0.449,1.425 0.899,2.86 0.449,1.441 0.449,1.434 0.453,1.445 0.449,1.441 0.45,1.438 0.449,1.445 1.347,4.301 0.454,1.422 0.449,1.418 0.449,1.414 0.449,1.398 0.449,1.395 0.45,1.387 0.449,1.371 0.453,1.363 0.449,1.352 0.449,1.339 0.45,1.325 0.449,1.312 0.449,1.297 0.449,1.281 0.453,1.266 0.45,1.25 0.449,1.238 0.449,1.215 0.449,1.203 0.45,1.18 0.449,1.168 0.453,1.148 0.449,1.125 0.449,1.11 0.45,1.089 0.449,1.071 0.449,1.054 0.449,1.032 0.453,1.015 0.45,0.996 0.449,0.973 0.449,0.957 0.449,0.938 0.449,0.914 0.45,0.898 0.453,0.879 0.449,0.859 0.449,0.84 0.449,0.821 0.45,0.804 0.449,0.781 0.449,0.766 0.453,0.75 0.449,0.727 0.45,0.714 0.449,0.696 0.449,0.676 0.449,0.66 0.449,0.644 0.454,0.625 0.449,0.614 0.449,0.593 0.449,0.582 0.449,0.567 0.45,0.547 0.449,0.535 0.453,0.523 0.449,0.504 0.449,0.496 0.45,0.481 0.449,0.465 0.449,0.457 0.449,0.437 0.453,0.434 0.45,0.414 0.449,0.406 0.449,0.394 0.449,0.383 0.45,0.375 0.449,0.364 0.453,0.351 0.449,0.344 0.449,0.332 0.45,0.324 0.449,0.317 0.449,0.304 0.449,0.297 0.449,0.289 0.454,0.281 0.449,0.274 0.449,0.269 0.449,0.258 0.449,0.25 0.45,0.246 0.449,0.239 0.453,0.23 0.449,0.227 0.449,0.218 0.45,0.215 0.449,0.207 0.449,0.203 0.449,0.2 0.453,0.191 0.45,0.188 0.898,0.359 0.449,0.172 0.899,0.336 0.453,0.16 0.449,0.156 0.449,0.152 0.899,0.297 0.898,0.282 0.453,0.132 0.45,0.133 0.898,0.258 1.348,0.363 0.453,0.114 0.898,0.226 0.449,0.11 0.45,0.105 0.449,0.102 0.449,0.105 0.453,0.098 0.899,0.195 0.898,0.187 0.898,0.18 0.454,0.086 0.449,0.086 1.347,0.246 0.45,0.078 0.449,0.082 0.453,0.074 1.348,0.223 1.347,0.211 0.453,0.066 1.348,0.2 1.348,0.187 0.453,0.059 1.348,0.176 0.449,0.054 0.449,0.059 0.449,0.055 0.453,0.05 0.45,0.055 0.449,0.051 0.449,0.054 0.449,0.047 v 2.375 z"
         style="fill:none;stroke:#000000;stroke-width:0.75;stroke-linecap:round;stroke-linejoin:round;stroke-miterlimit:10;stroke-dasharray:none;stroke-opacity:1"
         id="path184"
         inkscape:connector-curvature="0" /><path
         d="m 312.074,170.734 v -0.019 h 0.899 l 0.449,-0.004 h 0.449 l 0.449,-0.004 h 0.903 l 0.449,-0.004 h 0.449 l 0.449,-0.004 h 0.45 l 0.449,-0.004 0.453,-0.004 h 0.449 l 1.348,-0.011 h 0.449 l 0.449,-0.004 0.453,-0.004 1.797,-0.016 0.449,-0.008 0.45,-0.003 0.453,-0.004 0.449,-0.008 0.449,-0.004 0.449,-0.008 0.45,-0.004 0.898,-0.015 0.453,-0.008 2.246,-0.039 0.449,-0.012 0.454,-0.012 0.449,-0.008 1.347,-0.035 0.45,-0.015 0.449,-0.012 0.453,-0.016 0.449,-0.011 0.899,-0.032 0.449,-0.019 0.449,-0.016 0.449,-0.019 0.453,-0.016 0.45,-0.02 0.449,-0.023 0.449,-0.019 0.449,-0.024 0.45,-0.019 0.449,-0.028 0.453,-0.023 0.449,-0.028 0.449,-0.023 0.45,-0.031 0.449,-0.028 0.898,-0.062 0.453,-0.031 1.797,-0.141 0.449,-0.043 0.45,-0.039 0.453,-0.043 0.898,-0.086 0.449,-0.047 1.348,-0.152 0.453,-0.055 0.449,-0.055 0.899,-0.117 0.898,-0.125 0.45,-0.066 0.453,-0.07 0.449,-0.071 0.898,-0.148 0.45,-0.082 0.449,-0.078 0.449,-0.086 0.453,-0.086 0.899,-0.188 0.449,-0.097 0.449,-0.102 0.898,-0.211 0.45,-0.113 0.453,-0.117 0.449,-0.121 0.449,-0.125 0.449,-0.129 0.45,-0.137 0.449,-0.141 0.449,-0.144 0.453,-0.149 0.449,-0.156 0.45,-0.164 0.449,-0.168 0.449,-0.172 0.449,-0.183 0.45,-0.188 0.453,-0.195 0.449,-0.203 0.449,-0.211 0.449,-0.219 0.45,-0.227 0.449,-0.238 0.449,-0.242 0.453,-0.258 0.449,-0.262 0.45,-0.277 0.449,-0.285 0.449,-0.297 0.449,-0.309 0.449,-0.316 0.454,-0.336 0.449,-0.344 0.449,-0.359 0.449,-0.371 0.449,-0.383 0.45,-0.402 0.449,-0.414 0.453,-0.43 0.449,-0.449 0.449,-0.461 0.45,-0.481 0.449,-0.5 0.449,-0.511 0.449,-0.536 0.453,-0.554 0.45,-0.57 0.449,-0.59 0.449,-0.614 0.449,-0.632 0.45,-0.653 0.449,-0.676 0.453,-0.695 0.449,-0.719 0.449,-0.746 0.45,-0.761 0.449,-0.79 0.449,-0.812 0.449,-0.836 0.453,-0.863 0.45,-0.883 0.449,-0.91 0.449,-0.938 0.449,-0.961 0.449,-0.984 0.45,-1.012 0.453,-1.035 0.449,-1.062 0.449,-1.09 0.449,-1.11 0.45,-1.14 0.449,-1.16 0.449,-1.192 0.453,-1.215 0.449,-1.234 0.45,-1.262 0.449,-1.285 0.449,-1.308 0.449,-1.332 0.449,-1.352 0.454,-1.375 0.449,-1.402 0.449,-1.411 0.449,-1.441 0.449,-1.453 0.45,-1.473 0.449,-1.496 0.453,-1.504 0.449,-1.523 0.449,-1.539 0.45,-1.551 0.449,-1.563 0.449,-1.578 0.449,-1.582 0.453,-1.597 0.45,-1.602 0.449,-1.605 0.449,-1.618 0.449,-1.621 0.45,-1.617 0.449,-1.625 0.453,-1.625 0.449,-1.617 0.449,-1.625 0.45,-1.613 0.898,-3.219 0.449,-1.59 0.449,-1.594 0.454,-1.582 0.898,-3.117 0.449,-1.539 0.899,-3.039 0.449,-1.477 0.453,-1.476 0.449,-1.457 0.449,-1.422 0.45,-1.418 0.449,-1.383 0.449,-1.355 0.449,-1.352 0.453,-1.301 0.45,-1.293 0.449,-1.261 0.449,-1.227 0.449,-1.215 0.45,-1.168 0.449,-1.148 0.453,-1.125 0.449,-1.078 0.449,-1.067 0.45,-1.027 0.449,-0.992 0.449,-0.977 0.449,-0.926 0.453,-0.91 0.45,-0.875 0.449,-0.84 0.449,-0.82 0.449,-0.777 0.449,-0.754 0.45,-0.727 0.453,-0.683 0.449,-0.668 0.449,-0.633 0.449,-0.602 0.45,-0.586 0.449,-0.539 0.449,-0.523 0.453,-0.496 0.449,-0.461 0.45,-0.445 0.449,-0.411 0.449,-0.386 0.449,-0.367 0.449,-0.336 0.454,-0.313 0.449,-0.297 0.449,-0.258 0.449,-0.246 0.449,-0.226 0.45,-0.192 0.449,-0.179 0.453,-0.153 0.449,-0.129 0.449,-0.117 0.45,-0.086 0.449,-0.066 0.449,-0.059 0.449,-0.015 0.453,-0.012 0.45,0.008 0.449,0.043 0.449,0.047 0.449,0.078 0.45,0.101 0.449,0.106 0.453,0.148 0.449,0.156 0.449,0.172 0.899,0.43 0.449,0.246 0.449,0.274 0.453,0.281 0.45,0.32 0.449,0.336 0.449,0.352 0.449,0.39 0.449,0.403 0.45,0.429 0.453,0.465 0.449,0.473 0.449,0.512 0.449,0.531 0.45,0.551 0.449,0.593 0.449,0.602 0.453,0.64 0.449,0.668 0.45,0.68 0.449,0.723 0.449,0.742 0.449,0.766 0.45,0.808 0.453,0.817 0.449,0.851 0.449,0.883 0.449,0.898 0.45,0.938 0.449,0.957 0.449,0.98 0.453,1.016 0.449,1.027 0.45,1.059 0.449,1.09 0.449,1.101 0.449,1.133 0.449,1.153 0.45,1.171 0.453,1.204 0.449,1.21 0.449,1.239 0.449,1.261 0.45,1.27 0.449,1.297 0.449,1.308 0.453,1.321 0.899,2.695 0.449,1.367 0.449,1.383 0.449,1.387 0.45,1.398 0.453,1.41 0.449,1.411 0.449,1.425 0.899,2.86 0.449,1.441 0.449,1.434 0.453,1.445 0.449,1.441 0.45,1.438 0.449,1.445 1.347,4.301 0.454,1.422 0.449,1.418 0.449,1.414 0.449,1.398 0.449,1.395 0.45,1.387 0.449,1.371 0.453,1.363 0.449,1.352 0.449,1.339 0.45,1.325 0.449,1.312 0.449,1.297 0.449,1.281 0.453,1.266 0.45,1.25 0.449,1.238 0.449,1.215 0.449,1.203 0.45,1.18 0.449,1.168 0.453,1.148 0.449,1.125 0.449,1.11 0.45,1.089 0.449,1.071 0.449,1.054 0.449,1.032 0.453,1.015 0.45,0.996 0.449,0.973 0.449,0.957 0.449,0.938 0.449,0.914 0.45,0.898 0.453,0.879 0.449,0.859 0.449,0.84 0.449,0.821 0.45,0.804 0.449,0.781 0.449,0.766 0.453,0.75 0.449,0.727 0.45,0.714 0.449,0.696 0.449,0.676 0.449,0.66 0.449,0.644 0.454,0.625 0.449,0.614 0.449,0.593 0.449,0.582 0.449,0.567 0.45,0.547 0.449,0.535 0.453,0.523 0.449,0.504 0.449,0.496 0.45,0.481 0.449,0.465 0.449,0.457 0.449,0.437 0.453,0.434 0.45,0.414 0.449,0.406 0.449,0.394 0.449,0.383 0.45,0.375 0.449,0.364 0.453,0.351 0.449,0.344 0.449,0.332 0.45,0.324 0.449,0.317 0.449,0.304 0.449,0.297 0.449,0.289 0.454,0.281 0.449,0.274 0.449,0.269 0.449,0.258 0.449,0.25 0.45,0.246 0.449,0.239 0.453,0.23 0.449,0.227 0.449,0.218 0.45,0.215 0.449,0.207 0.449,0.203 0.449,0.2 0.453,0.191 0.45,0.188 0.898,0.359 0.449,0.172 0.899,0.336 0.453,0.16 0.449,0.156 0.449,0.152 0.899,0.297 0.898,0.282 0.453,0.132 0.45,0.133 0.898,0.258 1.348,0.363 0.453,0.114 0.898,0.226 0.449,0.11 0.45,0.105 0.449,0.102 0.449,0.105 0.453,0.098 0.899,0.195 0.898,0.187 0.898,0.18 0.454,0.086 0.449,0.086 1.347,0.246 0.45,0.078 0.449,0.082 0.453,0.074 1.348,0.223 1.347,0.211 0.453,0.066 1.348,0.2 1.348,0.187 0.453,0.059 1.348,0.176 0.449,0.054 0.449,0.059 0.449,0.055 0.453,0.05 0.45,0.055 0.449,0.051 0.449,0.054 0.449,0.047 v 2.375"
         style="fill:none;stroke:#000000;stroke-width:0.75;stroke-linecap:round;stroke-linejoin:round;stroke-miterlimit:10;stroke-dasharray:none;stroke-opacity:1"
         id="path186"
         inkscape:connector-curvature="0" /><path
         d="m 396.848,177 v -5.074"
         style="fill:none;stroke:#000000;stroke-width:0.375;stroke-linecap:round;stroke-linejoin:round;stroke-miterlimit:10;stroke-dasharray:none;stroke-opacity:1"
         id="path188"
         inkscape:connector-curvature="0" /><path
         d="m 413.344,177 v -5.074"
         style="fill:none;stroke:#000000;stroke-width:0.375;stroke-linecap:round;stroke-linejoin:round;stroke-miterlimit:10;stroke-dasharray:none;stroke-opacity:1"
         id="path190"
         inkscape:connector-curvature="0" /><path
         d="m 414.641,177 v -5.074"
         style="fill:none;stroke:#000000;stroke-width:0.375;stroke-linecap:round;stroke-linejoin:round;stroke-miterlimit:10;stroke-dasharray:none;stroke-opacity:1"
         id="path192"
         inkscape:connector-curvature="0" /><path
         d="m 415.242,177 v -5.074"
         style="fill:none;stroke:#000000;stroke-width:0.375;stroke-linecap:round;stroke-linejoin:round;stroke-miterlimit:10;stroke-dasharray:none;stroke-opacity:1"
         id="path194"
         inkscape:connector-curvature="0" /><path
         d="m 415.934,177 v -5.074"
         style="fill:none;stroke:#000000;stroke-width:0.375;stroke-linecap:round;stroke-linejoin:round;stroke-miterlimit:10;stroke-dasharray:none;stroke-opacity:1"
         id="path196"
         inkscape:connector-curvature="0" /><path
         d="m 415.949,177 v -5.074"
         style="fill:none;stroke:#000000;stroke-width:0.375;stroke-linecap:round;stroke-linejoin:round;stroke-miterlimit:10;stroke-dasharray:none;stroke-opacity:1"
         id="path198"
         inkscape:connector-curvature="0" /><path
         d="m 417.262,177 v -5.074"
         style="fill:none;stroke:#000000;stroke-width:0.375;stroke-linecap:round;stroke-linejoin:round;stroke-miterlimit:10;stroke-dasharray:none;stroke-opacity:1"
         id="path200"
         inkscape:connector-curvature="0" /><path
         d="m 427.219,177 v -5.074"
         style="fill:none;stroke:#000000;stroke-width:0.375;stroke-linecap:round;stroke-linejoin:round;stroke-miterlimit:10;stroke-dasharray:none;stroke-opacity:1"
         id="path202"
         inkscape:connector-curvature="0" /><path
         d="m 427.906,177 v -5.074"
         style="fill:none;stroke:#000000;stroke-width:0.375;stroke-linecap:round;stroke-linejoin:round;stroke-miterlimit:10;stroke-dasharray:none;stroke-opacity:1"
         id="path204"
         inkscape:connector-curvature="0" /><path
         d="m 435.344,177 v -5.074"
         style="fill:none;stroke:#000000;stroke-width:0.375;stroke-linecap:round;stroke-linejoin:round;stroke-miterlimit:10;stroke-dasharray:none;stroke-opacity:1"
         id="path206"
         inkscape:connector-curvature="0" /><path
         d="m 443.594,177 v -5.074"
         style="fill:none;stroke:#000000;stroke-width:0.375;stroke-linecap:round;stroke-linejoin:round;stroke-miterlimit:10;stroke-dasharray:none;stroke-opacity:1"
         id="path208"
         inkscape:connector-curvature="0" /><path
         d="m 446.402,177 v -5.074"
         style="fill:none;stroke:#000000;stroke-width:0.375;stroke-linecap:round;stroke-linejoin:round;stroke-miterlimit:10;stroke-dasharray:none;stroke-opacity:1"
         id="path210"
         inkscape:connector-curvature="0" /><path
         d="m 448.324,177 v -5.074"
         style="fill:none;stroke:#000000;stroke-width:0.375;stroke-linecap:round;stroke-linejoin:round;stroke-miterlimit:10;stroke-dasharray:none;stroke-opacity:1"
         id="path212"
         inkscape:connector-curvature="0" /><path
         d="m 451.719,177 v -5.074"
         style="fill:none;stroke:#000000;stroke-width:0.375;stroke-linecap:round;stroke-linejoin:round;stroke-miterlimit:10;stroke-dasharray:none;stroke-opacity:1"
         id="path214"
         inkscape:connector-curvature="0" /><path
         d="m 452.105,177 v -5.074"
         style="fill:none;stroke:#000000;stroke-width:0.375;stroke-linecap:round;stroke-linejoin:round;stroke-miterlimit:10;stroke-dasharray:none;stroke-opacity:1"
         id="path216"
         inkscape:connector-curvature="0" /><path
         d="m 457.184,177 v -5.074"
         style="fill:none;stroke:#000000;stroke-width:0.375;stroke-linecap:round;stroke-linejoin:round;stroke-miterlimit:10;stroke-dasharray:none;stroke-opacity:1"
         id="path218"
         inkscape:connector-curvature="0" /><path
         d="m 461.438,177 v -5.074"
         style="fill:none;stroke:#000000;stroke-width:0.375;stroke-linecap:round;stroke-linejoin:round;stroke-miterlimit:10;stroke-dasharray:none;stroke-opacity:1"
         id="path220"
         inkscape:connector-curvature="0" /><path
         d="m 464.305,177 v -5.074"
         style="fill:none;stroke:#000000;stroke-width:0.375;stroke-linecap:round;stroke-linejoin:round;stroke-miterlimit:10;stroke-dasharray:none;stroke-opacity:1"
         id="path222"
         inkscape:connector-curvature="0" /><path
         d="m 474.316,177 v -5.074"
         style="fill:none;stroke:#000000;stroke-width:0.375;stroke-linecap:round;stroke-linejoin:round;stroke-miterlimit:10;stroke-dasharray:none;stroke-opacity:1"
         id="path224"
         inkscape:connector-curvature="0" /><path
         d="m 492.574,177 v -5.074"
         style="fill:none;stroke:#000000;stroke-width:0.375;stroke-linecap:round;stroke-linejoin:round;stroke-miterlimit:10;stroke-dasharray:none;stroke-opacity:1"
         id="path226"
         inkscape:connector-curvature="0" /></g><g
       inkscape:label="logtrans2"
       id="g1064"
       transform="translate(577.5,3)"><g
         id="g1066"><path
           inkscape:connector-curvature="0"
           id="path1070"
           style="fill:none;stroke:#000000;stroke-width:0.75;stroke-linecap:round;stroke-linejoin:round;stroke-miterlimit:10;stroke-dasharray:none;stroke-opacity:1"
           d="m 229.023,170.734 0.973,-2.961 0.938,-3 0.898,-3.035 0.863,-3.07 0.825,-3.109 0.785,-3.141 0.742,-3.176 0.699,-3.203 0.652,-3.234 0.61,-3.262 0.562,-3.285 0.512,-3.313 0.465,-3.332 0.414,-3.347 0.363,-3.368 0.313,-3.382 0.258,-3.399 0.207,-3.406 0.156,-3.414 0.097,-3.418 0.047,-3.422 -0.007,-3.426 -0.059,-3.422 -0.117,-3.418 -0.168,-3.41 -0.219,-3.402 -0.277,-3.395 -0.325,-3.379 -0.378,-3.363 -0.426,-3.344 -0.481,-3.328 -0.523,-3.3 -0.574,-3.282 -0.621,-3.254 -0.668,-3.226 -0.711,-3.196 -0.754,-3.167 -0.793,-3.129 -0.836,-3.102 -0.875,-3.062 -0.91,-3.024 -0.946,-2.988 -0.98,-2.949 -1.012,-2.911 -1.043,-2.867 -1.074,-2.828 -1.102,-2.781 -1.125,-2.742 -1.152,-2.696" /><text
           id="text1074"
           style="font-variant:normal;font-weight:normal;font-size:13px;font-family:'Nimbus Roman';-inkscape-font-specification:NimbusRoman-Regular;writing-mode:lr-tb;fill:#000000;fill-opacity:1;fill-rule:nonzero;stroke:none"
           x="116.48828"
           y="211.00781"><tspan
             id="tspan1072"
             y="211.00781"
             x="116.48828">t</tspan></text>
<path
           inkscape:connector-curvature="0"
           id="path1076"
           style="fill:none;stroke:#000000;stroke-width:0.75;stroke-linecap:round;stroke-linejoin:round;stroke-miterlimit:10;stroke-dasharray:none;stroke-opacity:1"
           d="m 121.988,212.879 3,-12.5" /><text
           id="text1080"
           style="font-variant:normal;font-weight:normal;font-size:13px;font-family:OpenSymbol;-inkscape-font-specification:OpenSymbol;writing-mode:lr-tb;fill:#000000;fill-opacity:1;fill-rule:nonzero;stroke:none"
           x="126.48828"
           y="210.14258"><tspan
             id="tspan1078"
             y="210.14258"
             x="126.48828">σ</tspan></text>
<text
           id="text1084"
           style="font-variant:normal;font-weight:normal;font-size:13px;font-family:'Nimbus Roman';-inkscape-font-specification:NimbusRoman-Regular;writing-mode:lr-tb;fill:#000000;fill-opacity:1;fill-rule:nonzero;stroke:none"
           transform="rotate(-90)"
           x="-148.89844"
           y="-25.261721"><tspan
             id="tspan1082"
             sodipodi:role="line"
             y="-25.261721"
             x="-148.89844 -143.89343 -139.90244 -133.89644 -127.90343 -120.89644 -114.90344 -110.89944 -104.89344 -100.90244 -95.897438 -89.904442 -83.898438 -80.895439 -74.902435 -69.897438 -65.89344 -61.902435 -51.892441 -45.899437 -41.895439">standardised estimate</tspan></text>
<path
           inkscape:connector-curvature="0"
           id="path1086"
           style="fill:none;stroke:#000000;stroke-width:0.75;stroke-linecap:round;stroke-linejoin:round;stroke-miterlimit:10;stroke-dasharray:none;stroke-opacity:1"
           d="m 229.219,170.156 -5.469,-1.722" /><text
           id="text1090"
           style="font-variant:normal;font-weight:normal;font-size:13px;font-family:'Nimbus Roman';-inkscape-font-specification:NimbusRoman-Regular;writing-mode:lr-tb;fill:#000000;fill-opacity:1;fill-rule:nonzero;stroke:none"
           x="237.01562"
           y="173.03516"><tspan
             id="tspan1088"
             sodipodi:role="line"
             y="173.03516"
             x="237.01562 243.02161">10</tspan></text>
<path
           inkscape:connector-curvature="0"
           id="path1092"
           style="fill:none;stroke:#000000;stroke-width:0.75;stroke-linecap:round;stroke-linejoin:round;stroke-miterlimit:10;stroke-dasharray:none;stroke-opacity:1"
           d="m 238.684,128.551 -5.704,-0.684" /><text
           id="text1096"
           style="font-variant:normal;font-weight:normal;font-size:13px;font-family:'Nimbus Roman';-inkscape-font-specification:NimbusRoman-Regular;writing-mode:lr-tb;fill:#000000;fill-opacity:1;fill-rule:nonzero;stroke:none"
           x="246.48438"
           y="131.42969"><tspan
             id="tspan1094"
             sodipodi:role="line"
             y="131.42969"
             x="246.48438 252.49036">20</tspan></text>
<path
           inkscape:connector-curvature="0"
           id="path1098"
           style="fill:none;stroke:#000000;stroke-width:0.75;stroke-linecap:round;stroke-linejoin:round;stroke-miterlimit:10;stroke-dasharray:none;stroke-opacity:1"
           d="m 238.113,69.688 -5.687,0.789" /><text
           id="text1102"
           style="font-variant:normal;font-weight:normal;font-size:13px;font-family:'Nimbus Roman';-inkscape-font-specification:NimbusRoman-Regular;writing-mode:lr-tb;fill:#000000;fill-opacity:1;fill-rule:nonzero;stroke:none"
           x="245.91406"
           y="72.566406"><tspan
             id="tspan1100"
             sodipodi:role="line"
             y="72.566406"
             x="245.91406 251.92007">50</tspan></text>
<path
           inkscape:connector-curvature="0"
           id="path1104"
           style="fill:none;stroke:#000000;stroke-width:0.75;stroke-linecap:round;stroke-linejoin:round;stroke-miterlimit:10;stroke-dasharray:none;stroke-opacity:1"
           d="m 227.961,28.602 -5.434,1.816" /><text
           id="text1108"
           style="font-variant:normal;font-weight:normal;font-size:13px;font-family:'Nimbus Roman';-inkscape-font-specification:NimbusRoman-Regular;writing-mode:lr-tb;fill:#000000;fill-opacity:1;fill-rule:nonzero;stroke:none"
           x="235.76172"
           y="31.480469"><tspan
             id="tspan1106"
             sodipodi:role="line"
             y="31.480469"
             x="235.76172 241.76773 247.76071">100</tspan></text>
<path
           inkscape:connector-curvature="0"
           id="path1110"
           style="fill:none;stroke:#000000;stroke-width:0.75;stroke-linecap:round;stroke-linejoin:round;stroke-miterlimit:10;stroke-dasharray:none;stroke-opacity:1"
           d="m 222.535,14.73 -5.301,2.165" /><text
           id="text1114"
           style="font-variant:normal;font-weight:normal;font-size:13px;font-family:'Nimbus Roman';-inkscape-font-specification:NimbusRoman-Regular;writing-mode:lr-tb;fill:#000000;fill-opacity:1;fill-rule:nonzero;stroke:none"
           x="230.33594"
           y="17.609375"><tspan
             id="tspan1112"
             sodipodi:role="line"
             y="17.609375"
             x="230.33594 236.34195 242.33493">130</tspan></text>
<path
           inkscape:connector-curvature="0"
           id="path1116"
           style="fill:none;stroke:#000000;stroke-width:0.75;stroke-linecap:round;stroke-linejoin:round;stroke-miterlimit:10;stroke-dasharray:none;stroke-opacity:1"
           d="M 1.379,103.867 V 98.555" /><path
           inkscape:connector-curvature="0"
           id="path1118"
           style="fill:none;stroke:#000000;stroke-width:0.75;stroke-linecap:round;stroke-linejoin:round;stroke-miterlimit:10;stroke-dasharray:none;stroke-opacity:1"
           d="M 1.379,103.867 H -6.4220001" /><path
           inkscape:connector-curvature="0"
           id="path1120"
           style="fill:none;stroke:#000000;stroke-width:0.75;stroke-linecap:round;stroke-linejoin:round;stroke-miterlimit:10;stroke-dasharray:none;stroke-opacity:1"
           d="M 1.379,101.211 H -6.4220001" /><path
           inkscape:connector-curvature="0"
           id="path1122"
           style="fill:none;stroke:#000000;stroke-width:0.75;stroke-linecap:round;stroke-linejoin:round;stroke-miterlimit:10;stroke-dasharray:none;stroke-opacity:1"
           d="M 1.379,98.555 H -6.4220001" /><path
           inkscape:connector-curvature="0"
           id="path1128"
           style="fill:none;stroke:#000000;stroke-width:0.75;stroke-linecap:round;stroke-linejoin:round;stroke-miterlimit:10;stroke-dasharray:none;stroke-opacity:1"
           d="M 10.574,177 H 246.023" /><path
           inkscape:connector-curvature="0"
           id="path1130"
           style="fill:none;stroke:#000000;stroke-width:0.75;stroke-linecap:round;stroke-linejoin:round;stroke-miterlimit:10;stroke-dasharray:none;stroke-opacity:1"
           d="m 10.574,177 v 7.801" /><path
           inkscape:connector-curvature="0"
           id="path1132"
           style="fill:none;stroke:#000000;stroke-width:0.75;stroke-linecap:round;stroke-linejoin:round;stroke-miterlimit:10;stroke-dasharray:none;stroke-opacity:1"
           d="m 57.664,177 v 7.801" /><path
           inkscape:connector-curvature="0"
           id="path1134"
           style="fill:none;stroke:#000000;stroke-width:0.75;stroke-linecap:round;stroke-linejoin:round;stroke-miterlimit:10;stroke-dasharray:none;stroke-opacity:1"
           d="m 104.754,177 v 7.801" /><path
           inkscape:connector-curvature="0"
           id="path1136"
           style="fill:none;stroke:#000000;stroke-width:0.75;stroke-linecap:round;stroke-linejoin:round;stroke-miterlimit:10;stroke-dasharray:none;stroke-opacity:1"
           d="m 151.844,177 v 7.801" /><path
           inkscape:connector-curvature="0"
           id="path1138"
           style="fill:none;stroke:#000000;stroke-width:0.75;stroke-linecap:round;stroke-linejoin:round;stroke-miterlimit:10;stroke-dasharray:none;stroke-opacity:1"
           d="m 198.934,177 v 7.801" /><path
           inkscape:connector-curvature="0"
           id="path1140"
           style="fill:none;stroke:#000000;stroke-width:0.75;stroke-linecap:round;stroke-linejoin:round;stroke-miterlimit:10;stroke-dasharray:none;stroke-opacity:1"
           d="m 246.023,177 v 7.801" /><text
           id="text1144"
           style="font-variant:normal;font-weight:normal;font-size:13px;font-family:'Nimbus Roman';-inkscape-font-specification:NimbusRoman-Regular;writing-mode:lr-tb;fill:#000000;fill-opacity:1;fill-rule:nonzero;stroke:none"
           x="7.5742188"
           y="197.16016"><tspan
             id="tspan1142"
             sodipodi:role="line"
             y="197.16016"
             x="7.5742188 51.670219 57.663223 98.756233 104.74922 145.84222 151.84822 192.93359 198.93959 240.01959 246.0256">01020304050</tspan></text>
<path
           inkscape:connector-curvature="0"
           id="path1146"
           style="fill:#ffff00;fill-opacity:1;fill-rule:nonzero;stroke:#000000;stroke-width:0.75;stroke-linecap:round;stroke-linejoin:round;stroke-miterlimit:10;stroke-dasharray:none;stroke-opacity:1"
           d="m 117.016,118.043 c 0,3.898 -5.852,3.898 -5.852,0 0,-3.902 5.852,-3.902 5.852,0" /><path
           inkscape:connector-curvature="0"
           id="path1148"
           style="fill:#ffff00;fill-opacity:1;fill-rule:nonzero;stroke:#000000;stroke-width:0.75;stroke-linecap:round;stroke-linejoin:round;stroke-miterlimit:10;stroke-dasharray:none;stroke-opacity:1"
           d="m 114.621,86.867 c 0,3.903 -5.848,3.903 -5.848,0 0,-3.898 5.848,-3.898 5.848,0" /><path
           inkscape:connector-curvature="0"
           id="path1150"
           style="fill:#ffff00;fill-opacity:1;fill-rule:nonzero;stroke:#000000;stroke-width:0.75;stroke-linecap:round;stroke-linejoin:round;stroke-miterlimit:10;stroke-dasharray:none;stroke-opacity:1"
           d="m 57.066,115.078 c 0,3.899 -5.847,3.899 -5.847,0 0,-3.902 5.847,-3.902 5.847,0" /><path
           inkscape:connector-curvature="0"
           id="path1152"
           style="fill:#ffff00;fill-opacity:1;fill-rule:nonzero;stroke:#000000;stroke-width:0.75;stroke-linecap:round;stroke-linejoin:round;stroke-miterlimit:10;stroke-dasharray:none;stroke-opacity:1"
           d="m 57.141,109.18 c 0,3.898 -5.852,3.898 -5.852,0 0,-3.903 5.852,-3.903 5.852,0" /><path
           inkscape:connector-curvature="0"
           id="path1154"
           style="fill:#ffff00;fill-opacity:1;fill-rule:nonzero;stroke:#000000;stroke-width:0.75;stroke-linecap:round;stroke-linejoin:round;stroke-miterlimit:10;stroke-dasharray:none;stroke-opacity:1"
           d="m 117.684,95 c 0,3.898 -5.848,3.898 -5.848,0 0,-3.898 5.848,-3.898 5.848,0" /><path
           inkscape:connector-curvature="0"
           id="path1156"
           style="fill:#ffff00;fill-opacity:1;fill-rule:nonzero;stroke:#000000;stroke-width:0.75;stroke-linecap:round;stroke-linejoin:round;stroke-miterlimit:10;stroke-dasharray:none;stroke-opacity:1"
           d="m 127.496,78.852 c 0,3.898 -5.851,3.898 -5.851,0 0,-3.903 5.851,-3.903 5.851,0" /><path
           inkscape:connector-curvature="0"
           id="path1158"
           style="fill:#ffff00;fill-opacity:1;fill-rule:nonzero;stroke:#000000;stroke-width:0.75;stroke-linecap:round;stroke-linejoin:round;stroke-miterlimit:10;stroke-dasharray:none;stroke-opacity:1"
           d="m 117.176,103.773 c 0,3.899 -5.852,3.899 -5.852,0 0,-3.902 5.852,-3.902 5.852,0" /><path
           inkscape:connector-curvature="0"
           id="path1160"
           style="fill:#ffff00;fill-opacity:1;fill-rule:nonzero;stroke:#000000;stroke-width:0.75;stroke-linecap:round;stroke-linejoin:round;stroke-miterlimit:10;stroke-dasharray:none;stroke-opacity:1"
           d="m 100.879,97.871 c 0,3.902 -5.852,3.902 -5.852,0 0,-3.898 5.852,-3.898 5.852,0" /><path
           inkscape:connector-curvature="0"
           id="path1162"
           style="fill:#ffff00;fill-opacity:1;fill-rule:nonzero;stroke:#000000;stroke-width:0.75;stroke-linecap:round;stroke-linejoin:round;stroke-miterlimit:10;stroke-dasharray:none;stroke-opacity:1"
           d="m 125.406,120.539 c 0,3.899 -5.851,3.899 -5.851,0 0,-3.902 5.851,-3.902 5.851,0" /><path
           inkscape:connector-curvature="0"
           id="path1164"
           style="fill:#ffff00;fill-opacity:1;fill-rule:nonzero;stroke:#000000;stroke-width:0.75;stroke-linecap:round;stroke-linejoin:round;stroke-miterlimit:10;stroke-dasharray:none;stroke-opacity:1"
           d="m 98.094,92.738 c 0,3.899 -5.852,3.899 -5.852,0 0,-3.902 5.852,-3.902 5.852,0" /><path
           inkscape:connector-curvature="0"
           id="path1166"
           style="fill:#ffff00;fill-opacity:1;fill-rule:nonzero;stroke:#000000;stroke-width:0.75;stroke-linecap:round;stroke-linejoin:round;stroke-miterlimit:10;stroke-dasharray:none;stroke-opacity:1"
           d="m 97.938,115.781 c 0,3.903 -5.852,3.903 -5.852,0 0,-3.898 5.852,-3.898 5.852,0" /><path
           inkscape:connector-curvature="0"
           id="path1168"
           style="fill:#ffff00;fill-opacity:1;fill-rule:nonzero;stroke:#000000;stroke-width:0.75;stroke-linecap:round;stroke-linejoin:round;stroke-miterlimit:10;stroke-dasharray:none;stroke-opacity:1"
           d="m 120.344,110.469 c 0,3.898 -5.848,3.898 -5.848,0 0,-3.899 5.848,-3.899 5.848,0" /><path
           inkscape:connector-curvature="0"
           id="path1170"
           style="fill:#ffff00;fill-opacity:1;fill-rule:nonzero;stroke:#000000;stroke-width:0.75;stroke-linecap:round;stroke-linejoin:round;stroke-miterlimit:10;stroke-dasharray:none;stroke-opacity:1"
           d="m 55.594,104.637 c 0,3.902 -5.852,3.902 -5.852,0 0,-3.899 5.852,-3.899 5.852,0" /><path
           inkscape:connector-curvature="0"
           id="path1172"
           style="fill:#ffff00;fill-opacity:1;fill-rule:nonzero;stroke:#000000;stroke-width:0.75;stroke-linecap:round;stroke-linejoin:round;stroke-miterlimit:10;stroke-dasharray:none;stroke-opacity:1"
           d="m 129.562,69.586 c 0,3.902 -5.847,3.902 -5.847,0 0,-3.898 5.847,-3.898 5.847,0" /><path
           inkscape:connector-curvature="0"
           id="path1174"
           style="fill:#ffff00;fill-opacity:1;fill-rule:nonzero;stroke:#000000;stroke-width:0.75;stroke-linecap:round;stroke-linejoin:round;stroke-miterlimit:10;stroke-dasharray:none;stroke-opacity:1"
           d="m 72.828,112.629 c 0,3.902 -5.851,3.902 -5.851,0 0,-3.899 5.851,-3.899 5.851,0" /><path
           inkscape:connector-curvature="0"
           id="path1176"
           style="fill:#ffff00;fill-opacity:1;fill-rule:nonzero;stroke:#000000;stroke-width:0.75;stroke-linecap:round;stroke-linejoin:round;stroke-miterlimit:10;stroke-dasharray:none;stroke-opacity:1"
           d="m 131.539,80.641 c 0,3.898 -5.851,3.898 -5.851,0 0,-3.899 5.851,-3.899 5.851,0" /><path
           inkscape:connector-curvature="0"
           id="path1178"
           style="fill:#ffff00;fill-opacity:1;fill-rule:nonzero;stroke:#000000;stroke-width:0.75;stroke-linecap:round;stroke-linejoin:round;stroke-miterlimit:10;stroke-dasharray:none;stroke-opacity:1"
           d="m 205.93,21.988 c 0,3.903 -5.852,3.903 -5.852,0 0,-3.898 5.852,-3.898 5.852,0" /><path
           inkscape:connector-curvature="0"
           id="path1180"
           style="fill:#ffff00;fill-opacity:1;fill-rule:nonzero;stroke:#000000;stroke-width:0.75;stroke-linecap:round;stroke-linejoin:round;stroke-miterlimit:10;stroke-dasharray:none;stroke-opacity:1"
           d="m 99.695,116.555 c 0,3.898 -5.847,3.898 -5.847,0 0,-3.903 5.847,-3.903 5.847,0" /><path
           inkscape:connector-curvature="0"
           id="path1182"
           style="fill:#ffff00;fill-opacity:1;fill-rule:nonzero;stroke:#000000;stroke-width:0.75;stroke-linecap:round;stroke-linejoin:round;stroke-miterlimit:10;stroke-dasharray:none;stroke-opacity:1"
           d="m 164.953,89.961 c 0,3.902 -5.851,3.902 -5.851,0 0,-3.899 5.851,-3.899 5.851,0" /><path
           inkscape:connector-curvature="0"
           id="path1184"
           style="fill:#ffff00;fill-opacity:1;fill-rule:nonzero;stroke:#000000;stroke-width:0.75;stroke-linecap:round;stroke-linejoin:round;stroke-miterlimit:10;stroke-dasharray:none;stroke-opacity:1"
           d="m 140.004,88.168 c 0,3.898 -5.852,3.898 -5.852,0 0,-3.902 5.852,-3.902 5.852,0" /><text
           id="text1286"
           style="font-variant:normal;font-weight:normal;font-size:12.99999905px;font-family:'Nimbus Roman';-inkscape-font-specification:NimbusRoman-Regular;writing-mode:lr-tb;fill:#000000;fill-opacity:1;fill-rule:nonzero;stroke:none;stroke-width:0.99999994"
           transform="rotate(-90)"
           x="-113.60408"
           y="-7.9834352"><tspan
             style="stroke-width:0.99999994"
             id="tspan1284"
             sodipodi:role="line"
             y="-7.9834352"
             x="-113.60408">-2  2</tspan></text>
<text
           y="20.222536"
           x="-550.34143"
           style="font-variant:normal;font-weight:normal;font-size:12.99999905px;font-family:'Nimbus Roman';-inkscape-font-specification:NimbusRoman-Regular;writing-mode:lr-tb;fill:#000000;fill-opacity:1;fill-rule:nonzero;stroke:none;stroke-width:0.99999994"
           id="text1866"><tspan
             sodipodi:role="line"
             id="tspan1864"
             x="-550.34143"
             y="20.222536"
             style="font-size:15.99999905px;stroke-width:0.99999994">a)</tspan></text>
<text
           id="text1870"
           style="font-variant:normal;font-weight:normal;font-size:12.99999905px;font-family:'Nimbus Roman';-inkscape-font-specification:NimbusRoman-Regular;writing-mode:lr-tb;fill:#000000;fill-opacity:1;fill-rule:nonzero;stroke:none;stroke-width:0.99999994"
           x="-263.84149"
           y="20.222536"><tspan
             style="font-size:15.99999905px;stroke-width:0.99999994"
             y="20.222536"
             x="-263.84149"
             id="tspan1868"
             sodipodi:role="line">b)</tspan></text>
<text
           y="20.222536"
           x="-32.841434"
           style="font-variant:normal;font-weight:normal;font-size:12.99999905px;font-family:'Nimbus Roman';-inkscape-font-specification:NimbusRoman-Regular;writing-mode:lr-tb;fill:#000000;fill-opacity:1;fill-rule:nonzero;stroke:none;stroke-width:0.99999994"
           id="text1874"><tspan
             sodipodi:role="line"
             id="tspan1872"
             x="-32.841434"
             y="20.222536"
             style="font-size:15.99999905px;stroke-width:0.99999994">c)</tspan></text>
<g
           transform="translate(-367.41834,289.56551)"
           inkscape:label="logtrans1"
           id="g2180"><g
             id="g2182"><path
               inkscape:connector-curvature="0"
               id="path2186"
               style="fill:none;stroke:#000000;stroke-width:0.75;stroke-linecap:round;stroke-linejoin:round;stroke-miterlimit:10;stroke-dasharray:none;stroke-opacity:1"
               d="M -164.926,-115.5 H 64.906" /><path
               inkscape:connector-curvature="0"
               id="path2188"
               style="fill:none;stroke:#000000;stroke-width:0.75;stroke-linecap:round;stroke-linejoin:round;stroke-miterlimit:10;stroke-dasharray:none;stroke-opacity:1"
               d="m -164.926,-115.5 v 7.801" /><path
               inkscape:connector-curvature="0"
               id="path2190"
               style="fill:none;stroke:#000000;stroke-width:0.75;stroke-linecap:round;stroke-linejoin:round;stroke-miterlimit:10;stroke-dasharray:none;stroke-opacity:1"
               d="m -118.961,-115.5 v 7.801" /><path
               inkscape:connector-curvature="0"
               id="path2192"
               style="fill:none;stroke:#000000;stroke-width:0.75;stroke-linecap:round;stroke-linejoin:round;stroke-miterlimit:10;stroke-dasharray:none;stroke-opacity:1"
               d="m -72.992001,-115.5 v 7.801" /><path
               inkscape:connector-curvature="0"
               id="path2194"
               style="fill:none;stroke:#000000;stroke-width:0.75;stroke-linecap:round;stroke-linejoin:round;stroke-miterlimit:10;stroke-dasharray:none;stroke-opacity:1"
               d="m -27.027001,-115.5 v 7.801" /><path
               inkscape:connector-curvature="0"
               id="path2196"
               style="fill:none;stroke:#000000;stroke-width:0.75;stroke-linecap:round;stroke-linejoin:round;stroke-miterlimit:10;stroke-dasharray:none;stroke-opacity:1"
               d="m 18.941,-115.5 v 7.801" /><path
               inkscape:connector-curvature="0"
               id="path2198"
               style="fill:none;stroke:#000000;stroke-width:0.75;stroke-linecap:round;stroke-linejoin:round;stroke-miterlimit:10;stroke-dasharray:none;stroke-opacity:1"
               d="m 64.906,-115.5 v 7.801" /><text
               id="text2204"
               style="font-variant:normal;font-weight:normal;font-size:13px;font-family:'Nimbus Roman';-inkscape-font-specification:NimbusRoman-Regular;writing-mode:lr-tb;fill:#000000;fill-opacity:1;fill-rule:nonzero;stroke:none"
               x="-172.9258"
               y="-95.339851"><tspan
                 id="tspan2200"
                 sodipodi:role="line"
                 y="-95.339851"
                 x="-172.9258 -168.92178 -162.92879 -121.96578 -78.987778 -72.994789 -36.022781 -30.029795 -24.02379 9.9452209 15.938217 21.944206 55.90625 61.912262 67.905273">-50050100150200</tspan><tspan
                 id="tspan2202"
                 sodipodi:role="line"
                 y="-79.742195"
                 x="-73.511711 -67.505714 -61.512711 -55.50671 -52.516712 -48.512711 -36.513718 -30.507715">age [Ma]</tspan></text>
<path
               inkscape:connector-curvature="0"
               id="path2206"
               style="fill:none;stroke:#000000;stroke-width:0.75;stroke-linecap:round;stroke-linejoin:round;stroke-miterlimit:10;stroke-dasharray:none;stroke-opacity:1"
               d="m -164.926,-121.766 h 38.305 z" /><path
               inkscape:connector-curvature="0"
               id="path2208"
               style="fill:#00ff00;fill-opacity:0.2;fill-rule:nonzero;stroke:none"
               d="m -126.621,-242.348 h 38.304999 v 120.582 H -126.621 Z" /><path
               inkscape:connector-curvature="0"
               id="path2210"
               style="fill:none;stroke:#000000;stroke-width:0.75;stroke-linecap:round;stroke-linejoin:round;stroke-miterlimit:10;stroke-dasharray:none;stroke-opacity:1"
               d="m -126.621,-242.348 h 38.304999 v 120.582 H -126.621 Z" /><path
               inkscape:connector-curvature="0"
               id="path2212"
               style="fill:#00ff00;fill-opacity:0.2;fill-rule:nonzero;stroke:none"
               d="m -88.316001,-218.23 h 38.305 v 96.465 h -38.305 z" /><path
               inkscape:connector-curvature="0"
               id="path2214"
               style="fill:none;stroke:#000000;stroke-width:0.75;stroke-linecap:round;stroke-linejoin:round;stroke-miterlimit:10;stroke-dasharray:none;stroke-opacity:1"
               d="m -88.316001,-218.23 h 38.305 v 96.465 h -38.305 z" /><path
               inkscape:connector-curvature="0"
               id="path2216"
               style="fill:#00ff00;fill-opacity:0.2;fill-rule:nonzero;stroke:none"
               d="m -50.012001,-133.824 h 38.305 v 12.059 h -38.305 z" /><path
               inkscape:connector-curvature="0"
               id="path2218"
               style="fill:none;stroke:#000000;stroke-width:0.75;stroke-linecap:round;stroke-linejoin:round;stroke-miterlimit:10;stroke-dasharray:none;stroke-opacity:1"
               d="m -50.012001,-133.824 h 38.305 v 12.059 h -38.305 z" /><path
               inkscape:connector-curvature="0"
               id="path2220"
               style="fill:#00ff00;fill-opacity:0.2;fill-rule:nonzero;stroke:none"
               d="M -11.703001,-133.824 H 26.602 v 12.059 h -38.305001 z" /><path
               inkscape:connector-curvature="0"
               id="path2222"
               style="fill:none;stroke:#000000;stroke-width:0.75;stroke-linecap:round;stroke-linejoin:round;stroke-miterlimit:10;stroke-dasharray:none;stroke-opacity:1"
               d="M -11.703001,-133.824 H 26.602 v 12.059 h -38.305001 z" /><path
               inkscape:connector-curvature="0"
               id="path2224"
               style="fill:none;stroke:#000000;stroke-width:0.75;stroke-linecap:round;stroke-linejoin:round;stroke-miterlimit:10;stroke-dasharray:none;stroke-opacity:1"
               d="M 26.602,-121.766 H 64.906 Z" /><path
               inkscape:connector-curvature="0"
               id="path2226"
               style="fill:none;stroke:#000000;stroke-width:0.75;stroke-linecap:round;stroke-linejoin:round;stroke-miterlimit:10;stroke-dasharray:none;stroke-opacity:1"
               d="M -174.121,-121.766 V -242.348" /><path
               inkscape:connector-curvature="0"
               id="path2228"
               style="fill:none;stroke:#000000;stroke-width:0.75;stroke-linecap:round;stroke-linejoin:round;stroke-miterlimit:10;stroke-dasharray:none;stroke-opacity:1"
               d="m -174.121,-121.766 h -7.801" /><path
               inkscape:connector-curvature="0"
               id="path2230"
               style="fill:none;stroke:#000000;stroke-width:0.75;stroke-linecap:round;stroke-linejoin:round;stroke-miterlimit:10;stroke-dasharray:none;stroke-opacity:1"
               d="m -174.121,-145.883 h -7.801" /><path
               inkscape:connector-curvature="0"
               id="path2232"
               style="fill:none;stroke:#000000;stroke-width:0.75;stroke-linecap:round;stroke-linejoin:round;stroke-miterlimit:10;stroke-dasharray:none;stroke-opacity:1"
               d="m -174.121,-170 h -7.801" /><path
               inkscape:connector-curvature="0"
               id="path2234"
               style="fill:none;stroke:#000000;stroke-width:0.75;stroke-linecap:round;stroke-linejoin:round;stroke-miterlimit:10;stroke-dasharray:none;stroke-opacity:1"
               d="m -174.121,-194.113 h -7.801" /><path
               inkscape:connector-curvature="0"
               id="path2236"
               style="fill:none;stroke:#000000;stroke-width:0.75;stroke-linecap:round;stroke-linejoin:round;stroke-miterlimit:10;stroke-dasharray:none;stroke-opacity:1"
               d="m -174.121,-218.23 h -7.801" /><path
               inkscape:connector-curvature="0"
               id="path2238"
               style="fill:none;stroke:#000000;stroke-width:0.75;stroke-linecap:round;stroke-linejoin:round;stroke-miterlimit:10;stroke-dasharray:none;stroke-opacity:1"
               d="m -174.121,-242.348 h -7.801" /><text
               id="text2242"
               style="font-variant:normal;font-weight:normal;font-size:13px;font-family:'Nimbus Roman';-inkscape-font-specification:NimbusRoman-Regular;writing-mode:lr-tb;fill:#000000;fill-opacity:1;fill-rule:nonzero;stroke:none"
               transform="rotate(-90)"
               x="118.76562"
               y="-185.16016"><tspan
                 id="tspan2240"
                 sodipodi:role="line"
                 y="-185.16016"
                 x="118.76562 142.88063 166.99565 191.11063 215.22563 236.35062 242.34364">0246810</tspan></text>
<path
               inkscape:connector-curvature="0"
               id="path2244"
               style="fill:#ff00ff;fill-opacity:0.6;fill-rule:nonzero;stroke:none"
               d="m -164.926,-121.766 v -0.195 l 1.348,-0.047 0.449,-0.019 0.449,-0.024 0.453,-0.019 0.45,-0.024 0.898,-0.054 0.449,-0.032 0.899,-0.07 0.453,-0.035 0.898,-0.086 0.45,-0.047 0.898,-0.109 0.449,-0.059 0.453,-0.062 0.45,-0.071 0.449,-0.074 0.449,-0.078 0.449,-0.082 0.899,-0.188 0.453,-0.105 0.449,-0.109 0.449,-0.118 0.449,-0.129 0.45,-0.132 0.449,-0.145 0.449,-0.152 0.453,-0.164 0.449,-0.176 0.45,-0.184 0.449,-0.195 0.449,-0.211 0.449,-0.219 0.449,-0.234 0.454,-0.25 0.449,-0.266 0.449,-0.277 0.449,-0.297 0.449,-0.312 0.45,-0.332 0.449,-0.348 0.453,-0.367 0.449,-0.391 0.449,-0.41 0.45,-0.43 0.449,-0.453 0.449,-0.476 0.449,-0.5 0.453,-0.528 0.45,-0.551 0.449,-0.578 0.449,-0.605 0.449,-0.633 0.45,-0.664 0.449,-0.695 0.453,-0.723 0.449,-0.758 0.449,-0.789 0.45,-0.82 0.449,-0.856 0.449,-0.89 0.449,-0.922 0.453,-0.965 0.45,-0.996 0.449,-1.035 0.449,-1.074 0.449,-1.11 0.449,-1.148 0.45,-1.192 0.453,-1.226 0.449,-1.27 0.449,-1.304 0.449,-1.348 0.45,-1.391 0.449,-1.426 0.449,-1.468 0.453,-1.508 0.449,-1.547 0.45,-1.586 0.449,-1.625 0.449,-1.664 0.449,-1.703 0.45,-1.742 0.453,-1.778 0.449,-1.812 0.449,-1.848 0.449,-1.879 0.45,-1.918 0.449,-1.945 0.449,-1.977 0.453,-2.003 0.449,-2.036 0.45,-2.058 0.449,-2.082 0.449,-2.106 0.449,-2.129 0.449,-2.144 0.45,-2.164 0.453,-2.176 0.449,-2.195 0.449,-2.199 0.449,-2.211 0.45,-2.215 0.449,-2.219 0.449,-2.223 0.453,-2.222 0.449,-2.215 0.45,-2.211 0.449,-2.203 0.449,-2.192 0.449,-2.179 0.45,-2.16 0.453,-2.141 0.449,-2.125 0.449,-2.098 0.449,-2.07 0.45,-2.043 0.449,-2.008 0.449,-1.98 0.453,-1.942 0.449,-1.898 0.45,-1.863 0.449,-1.821 0.449,-1.765 0.449,-1.731 0.449,-1.672 0.454,-1.621 0.449,-1.578 0.449,-1.504 0.449,-1.465 0.449,-1.402 0.45,-1.328 0.449,-1.289 0.453,-1.211 0.449,-1.149 0.449,-1.097 0.45,-1.008 0.449,-0.953 0.448999,-0.899 0.449,-0.804 0.453,-0.75 0.45,-0.688 0.449,-0.597 0.449,-0.551 0.449,-0.465 0.45,-0.395 0.449,-0.339 0.453,-0.254 0.449,-0.192 0.449,-0.133 0.45,-0.043 0.449,0.008 0.449,0.078 0.449,0.153 0.453,0.207 0.45,0.277 0.449,0.344 0.449,0.398 0.449,0.465 0.449,0.524 0.45,0.578 0.453,0.64 0.449,0.696 0.449,0.75 0.449,0.804 0.45,0.856 0.449,0.902 0.449,0.953 0.453,1 0.449,1.047 0.45,1.086 0.449,1.137 0.449,1.168 0.449,1.207 0.449,1.254 0.454,1.277 0.449,1.32 0.449,1.352 0.449,1.371 0.449,1.414 0.45,1.434 0.449,1.453 0.453,1.492 0.449,1.504 0.449,1.523 0.45,1.551 0.449,1.559 0.449,1.578 0.449,1.601 0.453,1.598 0.45,1.621 0.898,3.258 0.449,1.652 0.45,1.641 0.449,1.656 0.453,1.664 0.449,1.649 0.449,1.664 0.45,1.66 0.898,3.312 0.449,1.649 0.449,1.652 0.454,1.641 0.449,1.629 0.449,1.632 0.449,1.614 0.449,1.605 0.45,1.602 0.449,1.586 0.453,1.574 0.449,1.562 0.449,1.547 0.45,1.535 0.449,1.52 0.449,1.5 0.449,1.492 0.453,1.473 0.45,1.449 0.449,1.441 0.449,1.422 0.449,1.395 0.45,1.39 0.449,1.36 0.453,1.34 0.449,1.332 0.449,1.301 0.45,1.281 0.449,1.269 0.449,1.239 0.449,1.222 0.453,1.207 0.45,1.176 0.449,1.164 0.449,1.141 0.449,1.113 0.449,1.102 0.45,1.074 0.453,1.051 0.449,1.043 0.449,1.003 0.449,0.997 0.45,0.976 0.449,0.945 0.449,0.934 0.453,0.914 0.449,0.887 0.45,0.871 0.449,0.851 0.449,0.833 0.449,0.816 0.449,0.789 0.454,0.777 0.449,0.762 0.449,0.734 0.449,0.719 0.449,0.707 0.45,0.684 0.449,0.672 0.453,0.648 0.449,0.637 0.449,0.621 0.45,0.601 0.449,0.586 0.449,0.575 0.449,0.554 0.453,0.543 0.45,0.532 0.449,0.511 0.449,0.5 0.449,0.489 0.45,0.472 0.449,0.461 0.453,0.449 0.449,0.434 0.449,0.426 0.45,0.41 0.449,0.402 0.449,0.387 0.449,0.379 0.453,0.367 0.45,0.359 0.449,0.344 0.449,0.34 0.449,0.328 0.449,0.317 0.45,0.308 0.453,0.301 0.449,0.293 0.449,0.285 0.449,0.273 0.45,0.266 0.449,0.262 0.449,0.25 0.453,0.246 0.449,0.238 0.45,0.231 0.449,0.226 0.449,0.219 0.449,0.211 0.45,0.203 0.453,0.203 0.449,0.195 0.449,0.188 0.449,0.184 0.899,0.351 0.449,0.168 0.453,0.16 0.449,0.16 0.45,0.157 0.898,0.297 0.449,0.14 0.899,0.274 0.453,0.129 0.449,0.128 0.449,0.125 0.449,0.121 0.45,0.118 0.898,0.226 0.453,0.11 0.449,0.105 0.899,0.203 0.898,0.196 0.45,0.093 0.453,0.09 0.898,0.18 0.449,0.086 0.899,0.164 0.449,0.078 0.4530002,0.078 0.449,0.078 0.899,0.149 1.347,0.211 0.454,0.066 0.898,0.133 1.3480004,0.187 0.449,0.059 0.453,0.062 0.449,0.059 0.449,0.055 0.45,0.058 0.898,0.11 0.44900003,0.05 0.453,0.055 1.79699997,0.203 0.45,0.047 0.449,0.051 0.453,0.047 0.898,0.093 0.45,0.043 0.449,0.047 0.898,0.086 0.453,0.043 0.45,0.043 0.449,0.039 0.449,0.043 0.449,0.039 0.449,0.043 0.45,0.039 0.453,0.039 0.8980004,0.079 0.449,0.035 0.45,0.039 0.898,0.07 0.453,0.039 0.899,0.07 0.449,0.032 0.898,0.07 0.449,0.031 0.454,0.035 2.695,0.188 0.453,0.031 0.449,0.031 0.449,0.028 0.45,0.031 0.449,0.027 0.449,0.032 0.449,0.027 0.453,0.027 0.45,0.028 0.449,0.031 0.449,0.023 1.348,0.082 0.453,0.028 0.449,0.023 0.899,0.055 0.898,0.047 0.449,0.027 0.449,0.023 0.454,0.024 0.449,0.023 0.449,0.028 1.797,0.093 0.453,0.02 1.797,0.094 0.449,0.019 0.449,0.024 0.453,0.019 0.45,0.024 0.449,0.019 0.449,0.024 0.449,0.019 0.45,0.024 0.449,0.019 0.453,0.02 0.449,0.023 1.797,0.078 0.449,0.024 0.453,0.019 2.696,0.117 0.453,0.02 0.898,0.039 0.449,0.016 1.348,0.058 0.453,0.02 0.449,0.019 0.45,0.016 0.898,0.039 0.449,0.016 0.449,0.019 0.454,0.02 0.449,0.015 0.898,0.039 0.449,0.016 0.45,0.019 0.449,0.016 0.453,0.02 0.449,0.015 0.449,0.02 0.45,0.015 0.449,0.02 0.449,0.016 0.449,0.019 0.453,0.016 0.45,0.019 0.449,0.016 0.449,0.019 0.899,0.032 0.449,0.019 0.453,0.016 0.449,0.015 0.449,0.02 0.899,0.031 0.449,0.02 0.449,0.015 0.453,0.016 0.899,0.031 0.449,0.02 0.449,0.015 v 1.793 z" /><path
               inkscape:connector-curvature="0"
               id="path2246"
               style="fill:none;stroke:#000000;stroke-width:0.75;stroke-linecap:round;stroke-linejoin:round;stroke-miterlimit:10;stroke-dasharray:none;stroke-opacity:1"
               d="m -164.926,-121.766 v -0.195 l 1.348,-0.047 0.449,-0.019 0.449,-0.024 0.453,-0.019 0.45,-0.024 0.898,-0.054 0.449,-0.032 0.899,-0.07 0.453,-0.035 0.898,-0.086 0.45,-0.047 0.898,-0.109 0.449,-0.059 0.453,-0.062 0.45,-0.071 0.449,-0.074 0.449,-0.078 0.449,-0.082 0.899,-0.188 0.453,-0.105 0.449,-0.109 0.449,-0.118 0.449,-0.129 0.45,-0.132 0.449,-0.145 0.449,-0.152 0.453,-0.164 0.449,-0.176 0.45,-0.184 0.449,-0.195 0.449,-0.211 0.449,-0.219 0.449,-0.234 0.454,-0.25 0.449,-0.266 0.449,-0.277 0.449,-0.297 0.449,-0.312 0.45,-0.332 0.449,-0.348 0.453,-0.367 0.449,-0.391 0.449,-0.41 0.45,-0.43 0.449,-0.453 0.449,-0.476 0.449,-0.5 0.453,-0.528 0.45,-0.551 0.449,-0.578 0.449,-0.605 0.449,-0.633 0.45,-0.664 0.449,-0.695 0.453,-0.723 0.449,-0.758 0.449,-0.789 0.45,-0.82 0.449,-0.856 0.449,-0.89 0.449,-0.922 0.453,-0.965 0.45,-0.996 0.449,-1.035 0.449,-1.074 0.449,-1.11 0.449,-1.148 0.45,-1.192 0.453,-1.226 0.449,-1.27 0.449,-1.304 0.449,-1.348 0.45,-1.391 0.449,-1.426 0.449,-1.468 0.453,-1.508 0.449,-1.547 0.45,-1.586 0.449,-1.625 0.449,-1.664 0.449,-1.703 0.45,-1.742 0.453,-1.778 0.449,-1.812 0.449,-1.848 0.449,-1.879 0.45,-1.918 0.449,-1.945 0.449,-1.977 0.453,-2.003 0.449,-2.036 0.45,-2.058 0.449,-2.082 0.449,-2.106 0.449,-2.129 0.449,-2.144 0.45,-2.164 0.453,-2.176 0.449,-2.195 0.449,-2.199 0.449,-2.211 0.45,-2.215 0.449,-2.219 0.449,-2.223 0.453,-2.222 0.449,-2.215 0.45,-2.211 0.449,-2.203 0.449,-2.192 0.449,-2.179 0.45,-2.16 0.453,-2.141 0.449,-2.125 0.449,-2.098 0.449,-2.07 0.45,-2.043 0.449,-2.008 0.449,-1.98 0.453,-1.942 0.449,-1.898 0.45,-1.863 0.449,-1.821 0.449,-1.765 0.449,-1.731 0.449,-1.672 0.454,-1.621 0.449,-1.578 0.449,-1.504 0.449,-1.465 0.449,-1.402 0.45,-1.328 0.449,-1.289 0.453,-1.211 0.449,-1.149 0.449,-1.097 0.45,-1.008 0.449,-0.953 0.448999,-0.899 0.449,-0.804 0.453,-0.75 0.45,-0.688 0.449,-0.597 0.449,-0.551 0.449,-0.465 0.45,-0.395 0.449,-0.339 0.453,-0.254 0.449,-0.192 0.449,-0.133 0.45,-0.043 0.449,0.008 0.449,0.078 0.449,0.153 0.453,0.207 0.45,0.277 0.449,0.344 0.449,0.398 0.449,0.465 0.449,0.524 0.45,0.578 0.453,0.64 0.449,0.696 0.449,0.75 0.449,0.804 0.45,0.856 0.449,0.902 0.449,0.953 0.453,1 0.449,1.047 0.45,1.086 0.449,1.137 0.449,1.168 0.449,1.207 0.449,1.254 0.454,1.277 0.449,1.32 0.449,1.352 0.449,1.371 0.449,1.414 0.45,1.434 0.449,1.453 0.453,1.492 0.449,1.504 0.449,1.523 0.45,1.551 0.449,1.559 0.449,1.578 0.449,1.601 0.453,1.598 0.45,1.621 0.898,3.258 0.449,1.652 0.45,1.641 0.449,1.656 0.453,1.664 0.449,1.649 0.449,1.664 0.45,1.66 0.898,3.312 0.449,1.649 0.449,1.652 0.454,1.641 0.449,1.629 0.449,1.632 0.449,1.614 0.449,1.605 0.45,1.602 0.449,1.586 0.453,1.574 0.449,1.562 0.449,1.547 0.45,1.535 0.449,1.52 0.449,1.5 0.449,1.492 0.453,1.473 0.45,1.449 0.449,1.441 0.449,1.422 0.449,1.395 0.45,1.39 0.449,1.36 0.453,1.34 0.449,1.332 0.449,1.301 0.45,1.281 0.449,1.269 0.449,1.239 0.449,1.222 0.453,1.207 0.45,1.176 0.449,1.164 0.449,1.141 0.449,1.113 0.449,1.102 0.45,1.074 0.453,1.051 0.449,1.043 0.449,1.003 0.449,0.997 0.45,0.976 0.449,0.945 0.449,0.934 0.453,0.914 0.449,0.887 0.45,0.871 0.449,0.851 0.449,0.833 0.449,0.816 0.449,0.789 0.454,0.777 0.449,0.762 0.449,0.734 0.449,0.719 0.449,0.707 0.45,0.684 0.449,0.672 0.453,0.648 0.449,0.637 0.449,0.621 0.45,0.601 0.449,0.586 0.449,0.575 0.449,0.554 0.453,0.543 0.45,0.532 0.449,0.511 0.449,0.5 0.449,0.489 0.45,0.472 0.449,0.461 0.453,0.449 0.449,0.434 0.449,0.426 0.45,0.41 0.449,0.402 0.449,0.387 0.449,0.379 0.453,0.367 0.45,0.359 0.449,0.344 0.449,0.34 0.449,0.328 0.449,0.317 0.45,0.308 0.453,0.301 0.449,0.293 0.449,0.285 0.449,0.273 0.45,0.266 0.449,0.262 0.449,0.25 0.453,0.246 0.449,0.238 0.45,0.231 0.449,0.226 0.449,0.219 0.449,0.211 0.45,0.203 0.453,0.203 0.449,0.195 0.449,0.188 0.449,0.184 0.899,0.351 0.449,0.168 0.453,0.16 0.449,0.16 0.45,0.157 0.898,0.297 0.449,0.14 0.899,0.274 0.453,0.129 0.449,0.128 0.449,0.125 0.449,0.121 0.45,0.118 0.898,0.226 0.453,0.11 0.449,0.105 0.899,0.203 0.898,0.196 0.45,0.093 0.453,0.09 0.898,0.18 0.449,0.086 0.899,0.164 0.449,0.078 0.4530002,0.078 0.449,0.078 0.899,0.149 1.347,0.211 0.454,0.066 0.898,0.133 1.3480004,0.187 0.449,0.059 0.453,0.062 0.449,0.059 0.449,0.055 0.45,0.058 0.898,0.11 0.44900003,0.05 0.453,0.055 1.79699997,0.203 0.45,0.047 0.449,0.051 0.453,0.047 0.898,0.093 0.45,0.043 0.449,0.047 0.898,0.086 0.453,0.043 0.45,0.043 0.449,0.039 0.449,0.043 0.449,0.039 0.449,0.043 0.45,0.039 0.453,0.039 0.8980004,0.079 0.449,0.035 0.45,0.039 0.898,0.07 0.453,0.039 0.899,0.07 0.449,0.032 0.898,0.07 0.449,0.031 0.454,0.035 2.695,0.188 0.453,0.031 0.449,0.031 0.449,0.028 0.45,0.031 0.449,0.027 0.449,0.032 0.449,0.027 0.453,0.027 0.45,0.028 0.449,0.031 0.449,0.023 1.348,0.082 0.453,0.028 0.449,0.023 0.899,0.055 0.898,0.047 0.449,0.027 0.449,0.023 0.454,0.024 0.449,0.023 0.449,0.028 1.797,0.093 0.453,0.02 1.797,0.094 0.449,0.019 0.449,0.024 0.453,0.019 0.45,0.024 0.449,0.019 0.449,0.024 0.449,0.019 0.45,0.024 0.449,0.019 0.453,0.02 0.449,0.023 1.797,0.078 0.449,0.024 0.453,0.019 2.696,0.117 0.453,0.02 0.898,0.039 0.449,0.016 1.348,0.058 0.453,0.02 0.449,0.019 0.45,0.016 0.898,0.039 0.449,0.016 0.449,0.019 0.454,0.02 0.449,0.015 0.898,0.039 0.449,0.016 0.45,0.019 0.449,0.016 0.453,0.02 0.449,0.015 0.449,0.02 0.45,0.015 0.449,0.02 0.449,0.016 0.449,0.019 0.453,0.016 0.45,0.019 0.449,0.016 0.449,0.019 0.899,0.032 0.449,0.019 0.453,0.016 0.449,0.015 0.449,0.02 0.899,0.031 0.449,0.02 0.449,0.015 0.453,0.016 0.899,0.031 0.449,0.02 0.449,0.015 v 1.793 z" /><path
               inkscape:connector-curvature="0"
               id="path2248"
               style="fill:none;stroke:#000000;stroke-width:0.75;stroke-linecap:round;stroke-linejoin:round;stroke-miterlimit:10;stroke-dasharray:none;stroke-opacity:1"
               d="m -164.926,-121.766 v -0.195 l 1.348,-0.047 0.449,-0.019 0.449,-0.024 0.453,-0.019 0.45,-0.024 0.898,-0.054 0.449,-0.032 0.899,-0.07 0.453,-0.035 0.898,-0.086 0.45,-0.047 0.898,-0.109 0.449,-0.059 0.453,-0.062 0.45,-0.071 0.449,-0.074 0.449,-0.078 0.449,-0.082 0.899,-0.188 0.453,-0.105 0.449,-0.109 0.449,-0.118 0.449,-0.129 0.45,-0.132 0.449,-0.145 0.449,-0.152 0.453,-0.164 0.449,-0.176 0.45,-0.184 0.449,-0.195 0.449,-0.211 0.449,-0.219 0.449,-0.234 0.454,-0.25 0.449,-0.266 0.449,-0.277 0.449,-0.297 0.449,-0.312 0.45,-0.332 0.449,-0.348 0.453,-0.367 0.449,-0.391 0.449,-0.41 0.45,-0.43 0.449,-0.453 0.449,-0.476 0.449,-0.5 0.453,-0.528 0.45,-0.551 0.449,-0.578 0.449,-0.605 0.449,-0.633 0.45,-0.664 0.449,-0.695 0.453,-0.723 0.449,-0.758 0.449,-0.789 0.45,-0.82 0.449,-0.856 0.449,-0.89 0.449,-0.922 0.453,-0.965 0.45,-0.996 0.449,-1.035 0.449,-1.074 0.449,-1.11 0.449,-1.148 0.45,-1.192 0.453,-1.226 0.449,-1.27 0.449,-1.304 0.449,-1.348 0.45,-1.391 0.449,-1.426 0.449,-1.468 0.453,-1.508 0.449,-1.547 0.45,-1.586 0.449,-1.625 0.449,-1.664 0.449,-1.703 0.45,-1.742 0.453,-1.778 0.449,-1.812 0.449,-1.848 0.449,-1.879 0.45,-1.918 0.449,-1.945 0.449,-1.977 0.453,-2.003 0.449,-2.036 0.45,-2.058 0.449,-2.082 0.449,-2.106 0.449,-2.129 0.449,-2.144 0.45,-2.164 0.453,-2.176 0.449,-2.195 0.449,-2.199 0.449,-2.211 0.45,-2.215 0.449,-2.219 0.449,-2.223 0.453,-2.222 0.449,-2.215 0.45,-2.211 0.449,-2.203 0.449,-2.192 0.449,-2.179 0.45,-2.16 0.453,-2.141 0.449,-2.125 0.449,-2.098 0.449,-2.07 0.45,-2.043 0.449,-2.008 0.449,-1.98 0.453,-1.942 0.449,-1.898 0.45,-1.863 0.449,-1.821 0.449,-1.765 0.449,-1.731 0.449,-1.672 0.454,-1.621 0.449,-1.578 0.449,-1.504 0.449,-1.465 0.449,-1.402 0.45,-1.328 0.449,-1.289 0.453,-1.211 0.449,-1.149 0.449,-1.097 0.45,-1.008 0.449,-0.953 0.448999,-0.899 0.449,-0.804 0.453,-0.75 0.45,-0.688 0.449,-0.597 0.449,-0.551 0.449,-0.465 0.45,-0.395 0.449,-0.339 0.453,-0.254 0.449,-0.192 0.449,-0.133 0.45,-0.043 0.449,0.008 0.449,0.078 0.449,0.153 0.453,0.207 0.45,0.277 0.449,0.344 0.449,0.398 0.449,0.465 0.449,0.524 0.45,0.578 0.453,0.64 0.449,0.696 0.449,0.75 0.449,0.804 0.45,0.856 0.449,0.902 0.449,0.953 0.453,1 0.449,1.047 0.45,1.086 0.449,1.137 0.449,1.168 0.449,1.207 0.449,1.254 0.454,1.277 0.449,1.32 0.449,1.352 0.449,1.371 0.449,1.414 0.45,1.434 0.449,1.453 0.453,1.492 0.449,1.504 0.449,1.523 0.45,1.551 0.449,1.559 0.449,1.578 0.449,1.601 0.453,1.598 0.45,1.621 0.898,3.258 0.449,1.652 0.45,1.641 0.449,1.656 0.453,1.664 0.449,1.649 0.449,1.664 0.45,1.66 0.898,3.312 0.449,1.649 0.449,1.652 0.454,1.641 0.449,1.629 0.449,1.632 0.449,1.614 0.449,1.605 0.45,1.602 0.449,1.586 0.453,1.574 0.449,1.562 0.449,1.547 0.45,1.535 0.449,1.52 0.449,1.5 0.449,1.492 0.453,1.473 0.45,1.449 0.449,1.441 0.449,1.422 0.449,1.395 0.45,1.39 0.449,1.36 0.453,1.34 0.449,1.332 0.449,1.301 0.45,1.281 0.449,1.269 0.449,1.239 0.449,1.222 0.453,1.207 0.45,1.176 0.449,1.164 0.449,1.141 0.449,1.113 0.449,1.102 0.45,1.074 0.453,1.051 0.449,1.043 0.449,1.003 0.449,0.997 0.45,0.976 0.449,0.945 0.449,0.934 0.453,0.914 0.449,0.887 0.45,0.871 0.449,0.851 0.449,0.833 0.449,0.816 0.449,0.789 0.454,0.777 0.449,0.762 0.449,0.734 0.449,0.719 0.449,0.707 0.45,0.684 0.449,0.672 0.453,0.648 0.449,0.637 0.449,0.621 0.45,0.601 0.449,0.586 0.449,0.575 0.449,0.554 0.453,0.543 0.45,0.532 0.449,0.511 0.449,0.5 0.449,0.489 0.45,0.472 0.449,0.461 0.453,0.449 0.449,0.434 0.449,0.426 0.45,0.41 0.449,0.402 0.449,0.387 0.449,0.379 0.453,0.367 0.45,0.359 0.449,0.344 0.449,0.34 0.449,0.328 0.449,0.317 0.45,0.308 0.453,0.301 0.449,0.293 0.449,0.285 0.449,0.273 0.45,0.266 0.449,0.262 0.449,0.25 0.453,0.246 0.449,0.238 0.45,0.231 0.449,0.226 0.449,0.219 0.449,0.211 0.45,0.203 0.453,0.203 0.449,0.195 0.449,0.188 0.449,0.184 0.899,0.351 0.449,0.168 0.453,0.16 0.449,0.16 0.45,0.157 0.898,0.297 0.449,0.14 0.899,0.274 0.453,0.129 0.449,0.128 0.449,0.125 0.449,0.121 0.45,0.118 0.898,0.226 0.453,0.11 0.449,0.105 0.899,0.203 0.898,0.196 0.45,0.093 0.453,0.09 0.898,0.18 0.449,0.086 0.899,0.164 0.449,0.078 0.4530002,0.078 0.449,0.078 0.899,0.149 1.347,0.211 0.454,0.066 0.898,0.133 1.3480004,0.187 0.449,0.059 0.453,0.062 0.449,0.059 0.449,0.055 0.45,0.058 0.898,0.11 0.44900003,0.05 0.453,0.055 1.79699997,0.203 0.45,0.047 0.449,0.051 0.453,0.047 0.898,0.093 0.45,0.043 0.449,0.047 0.898,0.086 0.453,0.043 0.45,0.043 0.449,0.039 0.449,0.043 0.449,0.039 0.449,0.043 0.45,0.039 0.453,0.039 0.8980004,0.079 0.449,0.035 0.45,0.039 0.898,0.07 0.453,0.039 0.899,0.07 0.449,0.032 0.898,0.07 0.449,0.031 0.454,0.035 2.695,0.188 0.453,0.031 0.449,0.031 0.449,0.028 0.45,0.031 0.449,0.027 0.449,0.032 0.449,0.027 0.453,0.027 0.45,0.028 0.449,0.031 0.449,0.023 1.348,0.082 0.453,0.028 0.449,0.023 0.899,0.055 0.898,0.047 0.449,0.027 0.449,0.023 0.454,0.024 0.449,0.023 0.449,0.028 1.797,0.093 0.453,0.02 1.797,0.094 0.449,0.019 0.449,0.024 0.453,0.019 0.45,0.024 0.449,0.019 0.449,0.024 0.449,0.019 0.45,0.024 0.449,0.019 0.453,0.02 0.449,0.023 1.797,0.078 0.449,0.024 0.453,0.019 2.696,0.117 0.453,0.02 0.898,0.039 0.449,0.016 1.348,0.058 0.453,0.02 0.449,0.019 0.45,0.016 0.898,0.039 0.449,0.016 0.449,0.019 0.454,0.02 0.449,0.015 0.898,0.039 0.449,0.016 0.45,0.019 0.449,0.016 0.453,0.02 0.449,0.015 0.449,0.02 0.45,0.015 0.449,0.02 0.449,0.016 0.449,0.019 0.453,0.016 0.45,0.019 0.449,0.016 0.449,0.019 0.899,0.032 0.449,0.019 0.453,0.016 0.449,0.015 0.449,0.02 0.899,0.031 0.449,0.02 0.449,0.015 0.453,0.016 0.899,0.031 0.449,0.02 0.449,0.015 v 1.793" /><path
               inkscape:connector-curvature="0"
               id="path2250"
               style="fill:none;stroke:#000000;stroke-width:0.375;stroke-linecap:round;stroke-linejoin:round;stroke-miterlimit:10;stroke-dasharray:none;stroke-opacity:1"
               d="m -109.863,-115.5 v -5.074" /><path
               inkscape:connector-curvature="0"
               id="path2252"
               style="fill:none;stroke:#000000;stroke-width:0.375;stroke-linecap:round;stroke-linejoin:round;stroke-miterlimit:10;stroke-dasharray:none;stroke-opacity:1"
               d="m -104.746,-115.5 v -5.074" /><path
               inkscape:connector-curvature="0"
               id="path2254"
               style="fill:none;stroke:#000000;stroke-width:0.375;stroke-linecap:round;stroke-linejoin:round;stroke-miterlimit:10;stroke-dasharray:none;stroke-opacity:1"
               d="m -104.238,-115.5 v -5.074" /><path
               inkscape:connector-curvature="0"
               id="path2256"
               style="fill:none;stroke:#000000;stroke-width:0.375;stroke-linecap:round;stroke-linejoin:round;stroke-miterlimit:10;stroke-dasharray:none;stroke-opacity:1"
               d="m -104,-115.5 v -5.074" /><path
               inkscape:connector-curvature="0"
               id="path2258"
               style="fill:none;stroke:#000000;stroke-width:0.375;stroke-linecap:round;stroke-linejoin:round;stroke-miterlimit:10;stroke-dasharray:none;stroke-opacity:1"
               d="m -103.715,-115.5 v -5.074" /><path
               inkscape:connector-curvature="0"
               id="path2260"
               style="fill:none;stroke:#000000;stroke-width:0.375;stroke-linecap:round;stroke-linejoin:round;stroke-miterlimit:10;stroke-dasharray:none;stroke-opacity:1"
               d="m -103.707,-115.5 v -5.074" /><path
               inkscape:connector-curvature="0"
               id="path2262"
               style="fill:none;stroke:#000000;stroke-width:0.375;stroke-linecap:round;stroke-linejoin:round;stroke-miterlimit:10;stroke-dasharray:none;stroke-opacity:1"
               d="m -103.16,-115.5 v -5.074" /><path
               inkscape:connector-curvature="0"
               id="path2264"
               style="fill:none;stroke:#000000;stroke-width:0.375;stroke-linecap:round;stroke-linejoin:round;stroke-miterlimit:10;stroke-dasharray:none;stroke-opacity:1"
               d="m -98.273001,-115.5 v -5.074" /><path
               inkscape:connector-curvature="0"
               id="path2266"
               style="fill:none;stroke:#000000;stroke-width:0.375;stroke-linecap:round;stroke-linejoin:round;stroke-miterlimit:10;stroke-dasharray:none;stroke-opacity:1"
               d="m -97.887001,-115.5 v -5.074" /><path
               inkscape:connector-curvature="0"
               id="path2268"
               style="fill:none;stroke:#000000;stroke-width:0.375;stroke-linecap:round;stroke-linejoin:round;stroke-miterlimit:10;stroke-dasharray:none;stroke-opacity:1"
               d="m -93.191001,-115.5 v -5.074" /><path
               inkscape:connector-curvature="0"
               id="path2270"
               style="fill:none;stroke:#000000;stroke-width:0.375;stroke-linecap:round;stroke-linejoin:round;stroke-miterlimit:10;stroke-dasharray:none;stroke-opacity:1"
               d="m -86.754001,-115.5 v -5.074" /><path
               inkscape:connector-curvature="0"
               id="path2272"
               style="fill:none;stroke:#000000;stroke-width:0.375;stroke-linecap:round;stroke-linejoin:round;stroke-miterlimit:10;stroke-dasharray:none;stroke-opacity:1"
               d="m -84.215001,-115.5 v -5.074" /><path
               inkscape:connector-curvature="0"
               id="path2274"
               style="fill:none;stroke:#000000;stroke-width:0.375;stroke-linecap:round;stroke-linejoin:round;stroke-miterlimit:10;stroke-dasharray:none;stroke-opacity:1"
               d="m -82.359001,-115.5 v -5.074" /><path
               inkscape:connector-curvature="0"
               id="path2276"
               style="fill:none;stroke:#000000;stroke-width:0.375;stroke-linecap:round;stroke-linejoin:round;stroke-miterlimit:10;stroke-dasharray:none;stroke-opacity:1"
               d="m -78.840001,-115.5 v -5.074" /><path
               inkscape:connector-curvature="0"
               id="path2278"
               style="fill:none;stroke:#000000;stroke-width:0.375;stroke-linecap:round;stroke-linejoin:round;stroke-miterlimit:10;stroke-dasharray:none;stroke-opacity:1"
               d="m -78.418001,-115.5 v -5.074" /><path
               inkscape:connector-curvature="0"
               id="path2280"
               style="fill:none;stroke:#000000;stroke-width:0.375;stroke-linecap:round;stroke-linejoin:round;stroke-miterlimit:10;stroke-dasharray:none;stroke-opacity:1"
               d="m -72.453001,-115.5 v -5.074" /><path
               inkscape:connector-curvature="0"
               id="path2282"
               style="fill:none;stroke:#000000;stroke-width:0.375;stroke-linecap:round;stroke-linejoin:round;stroke-miterlimit:10;stroke-dasharray:none;stroke-opacity:1"
               d="m -66.785001,-115.5 v -5.074" /><path
               inkscape:connector-curvature="0"
               id="path2284"
               style="fill:none;stroke:#000000;stroke-width:0.375;stroke-linecap:round;stroke-linejoin:round;stroke-miterlimit:10;stroke-dasharray:none;stroke-opacity:1"
               d="m -62.574001,-115.5 v -5.074" /><path
               inkscape:connector-curvature="0"
               id="path2286"
               style="fill:none;stroke:#000000;stroke-width:0.375;stroke-linecap:round;stroke-linejoin:round;stroke-miterlimit:10;stroke-dasharray:none;stroke-opacity:1"
               d="m -45.051001,-115.5 v -5.074" /><path
               inkscape:connector-curvature="0"
               id="path2288"
               style="fill:none;stroke:#000000;stroke-width:0.375;stroke-linecap:round;stroke-linejoin:round;stroke-miterlimit:10;stroke-dasharray:none;stroke-opacity:1"
               d="m 2.1289996,-115.5 v -5.074" /></g></g></g></g></g></svg>