<?xml version="1.0" encoding="UTF-8" standalone="no"?>
<!-- Created with Inkscape (http://www.inkscape.org/) -->

<svg
   xmlns:dc="http://purl.org/dc/elements/1.1/"
   xmlns:cc="http://creativecommons.org/ns#"
   xmlns:rdf="http://www.w3.org/1999/02/22-rdf-syntax-ns#"
   xmlns:svg="http://www.w3.org/2000/svg"
   xmlns="http://www.w3.org/2000/svg"
   xmlns:sodipodi="http://sodipodi.sourceforge.net/DTD/sodipodi-0.dtd"
   xmlns:inkscape="http://www.inkscape.org/namespaces/inkscape"
   version="1.1"
   id="svg2"
   xml:space="preserve"
   width="295.04929"
   height="261.71732"
   viewBox="0 0 295.04929 261.71732"
   sodipodi:docname="ternaryhelium.svg"
   inkscape:version="0.92.5 (2060ec1f9f, 2020-04-08)"><metadata
     id="metadata8"><rdf:RDF><cc:Work
         rdf:about=""><dc:format>image/svg+xml</dc:format><dc:type
           rdf:resource="http://purl.org/dc/dcmitype/StillImage" /><dc:title></dc:title></cc:Work></rdf:RDF></metadata><defs
     id="defs6" /><sodipodi:namedview
     pagecolor="#ffffff"
     bordercolor="#666666"
     borderopacity="1"
     objecttolerance="10"
     gridtolerance="10"
     guidetolerance="10"
     inkscape:pageopacity="0"
     inkscape:pageshadow="2"
     inkscape:window-width="1920"
     inkscape:window-height="1043"
     id="namedview4"
     showgrid="false"
     fit-margin-top="0"
     fit-margin-left="0"
     fit-margin-right="0"
     fit-margin-bottom="0"
     inkscape:zoom="1.4756944"
     inkscape:cx="354.38166"
     inkscape:cy="10.056724"
     inkscape:window-x="0"
     inkscape:window-y="0"
     inkscape:window-maximized="1"
     inkscape:current-layer="g12" /><g
     id="g10"
     inkscape:groupmode="layer"
     inkscape:label="ACNKarithmeticmean"
     transform="matrix(1.3333333,0,0,1.3333333,3.8927518,46.037166)"><g
       id="g12"><text
         style="font-variant:normal;font-weight:normal;font-size:13px;font-family:'Nimbus Roman';-inkscape-font-specification:NimbusRoman-Regular;writing-mode:lr-tb;fill:#000000;fill-opacity:1;fill-rule:nonzero;stroke:none"
         id="text20"
         x="97.398438"
         y="-25.921875"><tspan
           sodipodi:role="line"
           id="tspan18"
           x="97.398438"
           y="-25.921875">He</tspan></text>
<g
         id="g926"
         transform="matrix(0.50023638,0.86588889,0.86588889,-0.50023638,-77.918586,49.54497)"><path
           inkscape:connector-curvature="0"
           id="path16"
           style="fill:none;stroke:#000000;stroke-width:0.75;stroke-linecap:round;stroke-linejoin:round;stroke-miterlimit:10;stroke-dasharray:none;stroke-opacity:1"
           d="M 129.898,22.602 31.289,193.398 H 228.512 L 129.898,22.602" /><path
           inkscape:connector-curvature="0"
           id="path54"
           style="fill:none;stroke:#7f7f7f;stroke-width:0.75;stroke-linecap:round;stroke-linejoin:round;stroke-miterlimit:10;stroke-dasharray:none;stroke-opacity:1"
           d="m 141.699,57.445 c 0,3.899 -5.847,3.899 -5.847,0 0,-3.902 5.847,-3.902 5.847,0" /><path
           inkscape:connector-curvature="0"
           id="path56"
           style="fill:none;stroke:#7f7f7f;stroke-width:0.75;stroke-linecap:round;stroke-linejoin:round;stroke-miterlimit:10;stroke-dasharray:none;stroke-opacity:1"
           d="m 84.898,109.023 c 0,3.903 -5.847,3.903 -5.847,0 0,-3.898 5.847,-3.898 5.847,0" /><path
           inkscape:connector-curvature="0"
           id="path58"
           style="fill:none;stroke:#7f7f7f;stroke-width:0.75;stroke-linecap:round;stroke-linejoin:round;stroke-miterlimit:10;stroke-dasharray:none;stroke-opacity:1"
           d="m 97.422,86.309 c 0,3.898 -5.848,3.898 -5.848,0 0,-3.899 5.848,-3.899 5.848,0" /><path
           inkscape:connector-curvature="0"
           id="path60"
           style="fill:none;stroke:#7f7f7f;stroke-width:0.75;stroke-linecap:round;stroke-linejoin:round;stroke-miterlimit:10;stroke-dasharray:none;stroke-opacity:1"
           d="m 144.066,50.27 c 0,3.898 -5.851,3.898 -5.851,0 0,-3.899 5.851,-3.899 5.851,0" /><path
           inkscape:connector-curvature="0"
           id="path62"
           style="fill:none;stroke:#7f7f7f;stroke-width:0.75;stroke-linecap:round;stroke-linejoin:round;stroke-miterlimit:10;stroke-dasharray:none;stroke-opacity:1"
           d="m 107.875,71.961 c 0,3.898 -5.848,3.898 -5.848,0 0,-3.899 5.848,-3.899 5.848,0" /><path
           inkscape:connector-curvature="0"
           id="path64"
           style="fill:none;stroke:#7f7f7f;stroke-width:0.75;stroke-linecap:round;stroke-linejoin:round;stroke-miterlimit:10;stroke-dasharray:none;stroke-opacity:1"
           d="m 152.746,63.25 c 0,3.902 -5.851,3.902 -5.851,0 0,-3.898 5.851,-3.898 5.851,0" /><path
           inkscape:connector-curvature="0"
           id="path66"
           style="fill:none;stroke:#7f7f7f;stroke-width:0.75;stroke-linecap:round;stroke-linejoin:round;stroke-miterlimit:10;stroke-dasharray:none;stroke-opacity:1"
           d="m 157.676,70.082 c 0,3.902 -5.852,3.902 -5.852,0 0,-3.898 5.852,-3.898 5.852,0" /><path
           inkscape:connector-curvature="0"
           id="path68"
           style="fill:none;stroke:#7f7f7f;stroke-width:0.75;stroke-linecap:round;stroke-linejoin:round;stroke-miterlimit:10;stroke-dasharray:none;stroke-opacity:1"
           d="m 162.871,78.738 c 0,3.899 -5.851,3.899 -5.851,0 0,-3.902 5.851,-3.902 5.851,0" /><path
           inkscape:connector-curvature="0"
           id="path70"
           style="fill:none;stroke:#7f7f7f;stroke-width:0.75;stroke-linecap:round;stroke-linejoin:round;stroke-miterlimit:10;stroke-dasharray:none;stroke-opacity:1"
           d="m 127.895,48.219 c 0,3.902 -5.852,3.902 -5.852,0 0,-3.899 5.852,-3.899 5.852,0" /><path
           inkscape:connector-curvature="0"
           id="path72"
           style="fill:none;stroke:#7f7f7f;stroke-width:0.75;stroke-linecap:round;stroke-linejoin:round;stroke-miterlimit:10;stroke-dasharray:none;stroke-opacity:1"
           d="m 96.043,89.043 c 0,3.898 -5.852,3.898 -5.852,0 0,-3.902 5.852,-3.902 5.852,0" /><path
           inkscape:connector-curvature="0"
           id="path74"
           style="fill:none;stroke:#7f7f7f;stroke-width:0.75;stroke-linecap:round;stroke-linejoin:round;stroke-miterlimit:10;stroke-dasharray:none;stroke-opacity:1"
           d="m 121.484,54.199 c 0,3.899 -5.851,3.899 -5.851,0 0,-3.902 5.851,-3.902 5.851,0" /><path
           inkscape:connector-curvature="0"
           id="path76"
           style="fill:none;stroke:#7f7f7f;stroke-width:0.75;stroke-linecap:round;stroke-linejoin:round;stroke-miterlimit:10;stroke-dasharray:none;stroke-opacity:1"
           d="m 121.891,50.754 c 0,3.898 -5.852,3.898 -5.852,0 0,-3.899 5.852,-3.899 5.852,0" /><path
           inkscape:connector-curvature="0"
           id="path78"
           style="fill:none;stroke:#7f7f7f;stroke-width:0.75;stroke-linecap:round;stroke-linejoin:round;stroke-miterlimit:10;stroke-dasharray:none;stroke-opacity:1"
           d="m 133.812,54.027 c 0,3.899 -5.851,3.899 -5.851,0 0,-3.898 5.851,-3.898 5.851,0" /><path
           inkscape:connector-curvature="0"
           id="path80"
           style="fill:none;stroke:#7f7f7f;stroke-width:0.75;stroke-linecap:round;stroke-linejoin:round;stroke-miterlimit:10;stroke-dasharray:none;stroke-opacity:1"
           d="m 144.461,47.195 c 0,3.899 -5.852,3.899 -5.852,0 0,-3.898 5.852,-3.898 5.852,0" /><path
           inkscape:connector-curvature="0"
           id="path82"
           style="fill:none;stroke:#7f7f7f;stroke-width:0.75;stroke-linecap:round;stroke-linejoin:round;stroke-miterlimit:10;stroke-dasharray:none;stroke-opacity:1"
           d="m 119.02,51.977 c 0,3.902 -5.852,3.902 -5.852,0 0,-3.899 5.852,-3.899 5.852,0" /><path
           inkscape:connector-curvature="0"
           id="path84"
           style="fill:none;stroke:#7f7f7f;stroke-width:0.75;stroke-linecap:round;stroke-linejoin:round;stroke-miterlimit:10;stroke-dasharray:none;stroke-opacity:1"
           d="m 134.996,52.66 c 0,3.902 -5.851,3.902 -5.851,0 0,-3.898 5.851,-3.898 5.851,0" /><path
           inkscape:connector-curvature="0"
           id="path86"
           style="fill:none;stroke:#7f7f7f;stroke-width:0.75;stroke-linecap:round;stroke-linejoin:round;stroke-miterlimit:10;stroke-dasharray:none;stroke-opacity:1"
           d="m 118.441,55.359 c 0,3.903 -5.847,3.903 -5.847,0 0,-3.898 5.847,-3.898 5.847,0" /><path
           inkscape:connector-curvature="0"
           id="path88"
           style="fill:none;stroke:#7f7f7f;stroke-width:0.75;stroke-linecap:round;stroke-linejoin:round;stroke-miterlimit:10;stroke-dasharray:none;stroke-opacity:1"
           d="m 140.715,48.219 c 0,3.902 -5.852,3.902 -5.852,0 0,-3.899 5.852,-3.899 5.852,0" /><path
           inkscape:connector-curvature="0"
           id="path90"
           style="fill:none;stroke:#7f7f7f;stroke-width:0.75;stroke-linecap:round;stroke-linejoin:round;stroke-miterlimit:10;stroke-dasharray:none;stroke-opacity:1"
           d="m 149.195,55.395 c 0,3.898 -5.851,3.898 -5.851,0 0,-3.903 5.851,-3.903 5.851,0" /><path
           inkscape:connector-curvature="0"
           id="path92"
           style="fill:none;stroke:#7f7f7f;stroke-width:0.75;stroke-linecap:round;stroke-linejoin:round;stroke-miterlimit:10;stroke-dasharray:none;stroke-opacity:1"
           d="m 110.91,67.051 c 0,3.902 -5.848,3.902 -5.848,0 0,-3.899 5.848,-3.899 5.848,0" /><path
           inkscape:connector-curvature="0"
           id="path94"
           style="fill:#000000;fill-opacity:1;fill-rule:nonzero;stroke:#000000;stroke-width:0.75;stroke-linecap:round;stroke-linejoin:round;stroke-miterlimit:10;stroke-dasharray:none;stroke-opacity:1"
           d="m 121.92907,62.162957 4.45197,-2.655891 2.65589,4.451977 -4.45197,2.655891 z" /></g><text
         y="161.57812"
         x="-3.1015639"
         id="text930"
         style="font-variant:normal;font-weight:normal;font-size:13px;font-family:'Nimbus Roman';-inkscape-font-specification:NimbusRoman-Regular;writing-mode:lr-tb;fill:#000000;fill-opacity:1;fill-rule:nonzero;stroke:none"><tspan
           y="161.57812"
           x="-3.1015639"
           id="tspan928"
           sodipodi:role="line">U</tspan></text>
<text
         style="font-variant:normal;font-weight:normal;font-size:13px;font-family:'Nimbus Roman';-inkscape-font-specification:NimbusRoman-Regular;writing-mode:lr-tb;fill:#000000;fill-opacity:1;fill-rule:nonzero;stroke:none"
         id="text934"
         x="203.89844"
         y="161.57812"><tspan
           sodipodi:role="line"
           id="tspan932"
           x="203.89844"
           y="161.57812">Th</tspan></text>
</g></g></svg>