<?xml version="1.0" encoding="UTF-8" standalone="no"?>
<!-- Created with Inkscape (http://www.inkscape.org/) -->

<svg
   xmlns:dc="http://purl.org/dc/elements/1.1/"
   xmlns:cc="http://creativecommons.org/ns#"
   xmlns:rdf="http://www.w3.org/1999/02/22-rdf-syntax-ns#"
   xmlns:svg="http://www.w3.org/2000/svg"
   xmlns="http://www.w3.org/2000/svg"
   xmlns:sodipodi="http://sodipodi.sourceforge.net/DTD/sodipodi-0.dtd"
   xmlns:inkscape="http://www.inkscape.org/namespaces/inkscape"
   version="1.1"
   id="svg2"
   xml:space="preserve"
   width="283.08292"
   height="272.85028"
   viewBox="0 0 283.08292 272.85028"
   sodipodi:docname="UPbisochron13.svg"
   inkscape:version="0.92.5 (2060ec1f9f, 2020-04-08)"><metadata
     id="metadata8"><rdf:RDF><cc:Work
         rdf:about=""><dc:format>image/svg+xml</dc:format><dc:type
           rdf:resource="http://purl.org/dc/dcmitype/StillImage" /><dc:title></dc:title></cc:Work></rdf:RDF></metadata><defs
     id="defs6"><marker
       inkscape:isstock="true"
       style="overflow:visible"
       id="marker1426"
       refX="0"
       refY="0"
       orient="auto"
       inkscape:stockid="Arrow2Lend"><path
         transform="matrix(-1.1,0,0,-1.1,-1.1,0)"
         d="M 8.7185878,4.0337352 -2.2072895,0.01601326 8.7185884,-4.0017078 c -1.7454984,2.3720609 -1.7354408,5.6174519 -6e-7,8.035443 z"
         style="fill:#000000;fill-opacity:1;fill-rule:evenodd;stroke:#000000;stroke-width:0.625;stroke-linejoin:round;stroke-opacity:1"
         id="path1424"
         inkscape:connector-curvature="0" /></marker><marker
       inkscape:stockid="Arrow2Lend"
       orient="auto"
       refY="0"
       refX="0"
       id="Arrow2Lend"
       style="overflow:visible"
       inkscape:isstock="true"
       inkscape:collect="always"><path
         id="path1107"
         style="fill:#000000;fill-opacity:1;fill-rule:evenodd;stroke:#000000;stroke-width:0.625;stroke-linejoin:round;stroke-opacity:1"
         d="M 8.7185878,4.0337352 -2.2072895,0.01601326 8.7185884,-4.0017078 c -1.7454984,2.3720609 -1.7354408,5.6174519 -6e-7,8.035443 z"
         transform="matrix(-1.1,0,0,-1.1,-1.1,0)"
         inkscape:connector-curvature="0" /></marker><clipPath
       clipPathUnits="userSpaceOnUse"
       id="clipPath86"><path
         d="M 42,16 H 212.098 V 161 H 42 Z"
         id="path84"
         inkscape:connector-curvature="0" /></clipPath><clipPath
       clipPathUnits="userSpaceOnUse"
       id="clipPath120"><path
         d="M 48,11 H 212.098 V 162 H 48 Z"
         id="path118"
         inkscape:connector-curvature="0" /></clipPath><clipPath
       clipPathUnits="userSpaceOnUse"
       id="clipPath146"><path
         d="M 35.879,140 H 56 v 10 H 35.879 Z"
         id="path144"
         inkscape:connector-curvature="0" /></clipPath><clipPath
       clipPathUnits="userSpaceOnUse"
       id="clipPath162"><path
         d="M 35.879,121 H 48 v 10 H 35.879 Z"
         id="path160"
         inkscape:connector-curvature="0" /></clipPath><clipPath
       clipPathUnits="userSpaceOnUse"
       id="clipPath178"><path
         d="M 35.879,81 H 44 v 10 h -8.121 z"
         id="path176"
         inkscape:connector-curvature="0" /></clipPath><clipPath
       clipPathUnits="userSpaceOnUse"
       id="clipPath190"><path
         d="m 45,7.801 h 7 V 9 h -7 z"
         id="path188"
         inkscape:connector-curvature="0" /></clipPath><clipPath
       clipPathUnits="userSpaceOnUse"
       id="clipPath200"><path
         d="m 45,7.801 h 8 V 9 h -8 z"
         id="path198"
         inkscape:connector-curvature="0" /></clipPath><clipPath
       clipPathUnits="userSpaceOnUse"
       id="clipPath210"><path
         d="M 35.879,7.801 H 42 V 9 h -6.121 z"
         id="path208"
         inkscape:connector-curvature="0" /></clipPath></defs><sodipodi:namedview
     pagecolor="#ffffff"
     bordercolor="#666666"
     borderopacity="1"
     objecttolerance="10"
     gridtolerance="10"
     guidetolerance="10"
     inkscape:pageopacity="0"
     inkscape:pageshadow="2"
     inkscape:window-width="1920"
     inkscape:window-height="1046"
     id="namedview4"
     showgrid="false"
     fit-margin-top="0"
     fit-margin-left="0"
     fit-margin-right="0"
     fit-margin-bottom="0"
     inkscape:zoom="1.5294938"
     inkscape:cx="205.19545"
     inkscape:cy="109.31387"
     inkscape:window-x="0"
     inkscape:window-y="-3"
     inkscape:window-maximized="1"
     inkscape:current-layer="g10" /><g
     id="g10"
     inkscape:groupmode="layer"
     inkscape:label="UPbisochron13"
     transform="matrix(1.3333333,0,0,1.3333333,-0.26189321,-9.0365037)"><path
   inkscape:connector-curvature="0"
   id="path16"
   style="fill:none;stroke:#000000;stroke-width:0.75;stroke-linecap:round;stroke-linejoin:round;stroke-miterlimit:10;stroke-dasharray:none;stroke-opacity:1"
   d="M 42.406,177 H 190.738" /><path
   inkscape:connector-curvature="0"
   id="path18"
   style="fill:none;stroke:#000000;stroke-width:0.75;stroke-linecap:round;stroke-linejoin:round;stroke-miterlimit:10;stroke-dasharray:none;stroke-opacity:1"
   d="m 42.406,177 v 7.801" /><path
   inkscape:connector-curvature="0"
   id="path20"
   style="fill:none;stroke:#000000;stroke-width:0.75;stroke-linecap:round;stroke-linejoin:round;stroke-miterlimit:10;stroke-dasharray:none;stroke-opacity:1"
   d="m 79.488,177 v 7.801" /><path
   inkscape:connector-curvature="0"
   id="path22"
   style="fill:none;stroke:#000000;stroke-width:0.75;stroke-linecap:round;stroke-linejoin:round;stroke-miterlimit:10;stroke-dasharray:none;stroke-opacity:1"
   d="m 116.574,177 v 7.801" /><path
   inkscape:connector-curvature="0"
   id="path24"
   style="fill:none;stroke:#000000;stroke-width:0.75;stroke-linecap:round;stroke-linejoin:round;stroke-miterlimit:10;stroke-dasharray:none;stroke-opacity:1"
   d="m 153.656,177 v 7.801" /><path
   inkscape:connector-curvature="0"
   id="path26"
   style="fill:none;stroke:#000000;stroke-width:0.75;stroke-linecap:round;stroke-linejoin:round;stroke-miterlimit:10;stroke-dasharray:none;stroke-opacity:1"
   d="m 190.738,177 v 7.801" /><text
   id="text30"
   style="font-variant:normal;font-weight:normal;font-size:13px;font-family:'Nimbus Roman';-inkscape-font-specification:NimbusRoman-Regular;writing-mode:lr-tb;fill:#000000;fill-opacity:1;fill-rule:nonzero;stroke:none"
   x="39.40625"
   y="197.16016"><tspan
     id="tspan28"
     sodipodi:role="line"
     y="197.16016"
     x="39.40625 76.482254 110.56825 116.57425 147.65726 153.65025 184.73325 190.73924">05101520</tspan></text>

<path
   inkscape:connector-curvature="0"
   id="path32"
   style="fill:none;stroke:#000000;stroke-width:0.75;stroke-linecap:round;stroke-linejoin:round;stroke-miterlimit:10;stroke-dasharray:none;stroke-opacity:1"
   d="M 35.879,170.734 V 14.066" /><path
   inkscape:connector-curvature="0"
   id="path34"
   style="fill:none;stroke:#000000;stroke-width:0.75;stroke-linecap:round;stroke-linejoin:round;stroke-miterlimit:10;stroke-dasharray:none;stroke-opacity:1"
   d="M 35.879,170.734 H 28.078" /><path
   inkscape:connector-curvature="0"
   id="path36"
   style="fill:none;stroke:#000000;stroke-width:0.75;stroke-linecap:round;stroke-linejoin:round;stroke-miterlimit:10;stroke-dasharray:none;stroke-opacity:1"
   d="M 35.879,131.566 H 28.078" /><path
   inkscape:connector-curvature="0"
   id="path38"
   style="fill:none;stroke:#000000;stroke-width:0.75;stroke-linecap:round;stroke-linejoin:round;stroke-miterlimit:10;stroke-dasharray:none;stroke-opacity:1"
   d="M 35.879,92.398 H 28.078" /><path
   inkscape:connector-curvature="0"
   id="path40"
   style="fill:none;stroke:#000000;stroke-width:0.75;stroke-linecap:round;stroke-linejoin:round;stroke-miterlimit:10;stroke-dasharray:none;stroke-opacity:1"
   d="M 35.879,53.234 H 28.078" /><path
   inkscape:connector-curvature="0"
   id="path42"
   style="fill:none;stroke:#000000;stroke-width:0.75;stroke-linecap:round;stroke-linejoin:round;stroke-miterlimit:10;stroke-dasharray:none;stroke-opacity:1"
   d="M 35.879,14.066 H 28.078" /><text
   id="text46"
   style="font-variant:normal;font-weight:normal;font-size:13px;font-family:'Nimbus Roman';-inkscape-font-specification:NimbusRoman-Regular;writing-mode:lr-tb;fill:#000000;fill-opacity:1;fill-rule:nonzero;stroke:none"
   transform="rotate(-90)"
   x="-178.23438"
   y="24.839846"><tspan
     id="tspan44"
     sodipodi:role="line"
     y="24.839846"
     x="-178.23438 -172.22838 -169.23837 -139.06537 -133.07237 -130.06937 -99.896378 -93.903374 -90.900375 -60.740372 -54.734375 -51.731377 -21.571381 -15.565369 -12.562378">0.00.20.40.60.8</tspan></text>














<path
   d="m 42.406,17.996 5.145,4.664 1.711,1.555 1.715,1.558 5.144,4.665 1.711,1.554 6.859,6.219 1.711,1.555 6.86,6.218 1.711,1.555 6.859,6.219 1.711,1.558 6.859,6.219 1.711,1.555 5.145,4.664 1.715,1.558 1.711,1.555 5.144,4.664 1.715,1.559 1.711,1.555 3.43,3.109 1.714,1.558 1.715,1.555 1.711,1.555 1.715,1.558 1.715,1.555 1.715,1.559 1.715,1.554 1.711,1.559 6.859,6.234 1.711,1.563 3.43,3.125 3.429,3.133 1.711,1.566 1.715,1.574 1.715,1.571 1.715,1.574 1.715,1.578 1.71,1.578 3.43,3.156 5.145,4.746 1.711,1.583 5.144,4.746 1.715,1.586 1.711,1.582 1.715,1.586 1.715,1.582 1.714,1.585 1.715,1.583 1.711,1.585 1.715,1.586 1.715,1.582 3.43,3.172 1.711,1.582 3.429,3.172 1.715,1.582 1.715,1.586 1.711,1.586 1.715,1.582 1.715,0.043 1.714,0.016 1.715,0.011 1.711,0.016 5.145,0.035 1.715,0.016 -1.715,-0.016 -5.145,-0.035 -1.711,-0.016 -1.715,-0.011 -1.714,-0.016 -1.715,-1.043 -1.715,-1.555 -1.711,-1.558 -6.859,-6.219 -1.711,-1.555 -1.715,-1.554 -1.715,-1.559 -3.43,-3.109 -1.711,-1.555 -1.715,-1.559 -3.429,-3.109 -1.715,-1.559 -1.711,-1.554 -1.715,-1.555 -3.43,-3.117 -1.714,-1.555 -1.711,-1.558 -6.86,-6.235 -1.715,-1.562 -1.71,-1.563 -1.715,-1.562 -3.43,-3.133 -1.715,-1.57 -1.711,-1.571 -3.429,-3.148 -3.43,-3.156 -1.711,-1.578 -1.715,-1.583 -1.715,-1.578 -3.429,-3.164 -1.711,-1.582 -1.715,-1.586 -3.43,-3.164 -1.715,-1.586 -1.711,-1.582 -1.715,-1.586 -1.714,-1.582 -1.715,-1.586 -1.715,-1.582 -1.711,-1.586 -1.715,-1.582 -3.43,-3.171 -1.714,-1.583 -1.711,-1.585 -1.715,-1.586 -1.715,-1.582 -3.43,-3.172 -1.711,-1.586 -1.714,-1.582 -5.145,-4.758 -1.711,-1.582 -5.144,-4.758 -1.715,-1.582 -1.711,-1.586 -3.43,-3.172 -1.715,-1.582 -1.715,-1.586 -1.711,-1.586 -3.429,-3.172 -1.715,-1.582 -1.715,-1.585 -1.711,-1.586 -3.43,-3.172 -1.714,-1.582 -1.715,-1.586 -1.711,-1.586 -3.43,-3.172 -1.715,-1.582 z"
   style="fill:#cccccc;fill-opacity:1;fill-rule:nonzero;stroke:none;stroke-width:1.5;stroke-miterlimit:10;stroke-dasharray:none"
   id="path88"
   inkscape:connector-curvature="0" /><path
   d="M 198.969,160.488 42.406,17.082"
   style="fill:none;stroke:#000000;stroke-width:1.5;stroke-linecap:round;stroke-linejoin:round;stroke-miterlimit:10;stroke-dasharray:none;stroke-opacity:1"
   id="path90"
   inkscape:connector-curvature="0" /><path
   d="M 211.74793,160.58808 197.656,160.477 l -15.109,-0.145 -13.672,-0.16 -12.371,-0.184 -11.192,-0.207 -10.128,-0.238 -9.168,-0.266 -8.289,-0.308 -7.504,-0.356 -6.789,-0.406 -6.141,-0.473 -5.555,-0.546 -5.027,-0.645 -4.547,-0.758 -4.113,-0.898 -3.715,-1.075 -3.363,-1.3 -3.043,-1.586 -2.746,-1.957 -2.485,-2.442 -2.242,-3.093 -2.027,-3.985 -1.828,-5.222 -1.653,-6.973 -1.488,-9.535 -1.34,-13.356 L 50.914,85.121 49.828,56.516 48.855,12.48"
   style="fill:none;stroke:#e9967a;stroke-width:1.5;stroke-linecap:round;stroke-linejoin:round;stroke-miterlimit:10;stroke-dasharray:none;stroke-opacity:1"
   id="path122"
   inkscape:connector-curvature="0"
   sodipodi:nodetypes="cccccccccccccccccccccccccccccc" /><path
   inkscape:connector-curvature="0"
   id="path126"
   style="fill:#ffffff;fill-opacity:1;fill-rule:nonzero;stroke:#000000;stroke-width:0.75;stroke-linecap:round;stroke-linejoin:round;stroke-miterlimit:10;stroke-dasharray:none;stroke-opacity:1"
   d="m 137.293,159.523 c 0,3.899 -5.852,3.899 -5.852,0 0,-3.902 5.852,-3.902 5.852,0" /><text
   y="172.83479"
   x="125.24224"
   id="text130"
   style="font-variant:normal;font-weight:normal;font-size:13px;font-family:'Nimbus Roman';-inkscape-font-specification:NimbusRoman-Regular;writing-mode:lr-tb;fill:#000000;fill-opacity:1;fill-rule:nonzero;stroke:none"><tspan
     id="tspan128"
     sodipodi:role="line"
     y="172.83479 172.83479 172.83479"
     x="125.24224">0.5Ga</tspan></text>

<path
   inkscape:connector-curvature="0"
   id="path132"
   style="fill:#ffffff;fill-opacity:1;fill-rule:nonzero;stroke:#000000;stroke-width:0.75;stroke-linecap:round;stroke-linejoin:round;stroke-miterlimit:10;stroke-dasharray:none;stroke-opacity:1"
   d="m 89.531,156.527 c 0,3.903 -5.851,3.903 -5.851,0 0,-3.898 5.851,-3.898 5.851,0" /><text
   y="171.40625"
   x="82.048073"
   id="text136"
   style="font-variant:normal;font-weight:normal;font-size:13px;font-family:'Nimbus Roman';-inkscape-font-specification:NimbusRoman-Regular;writing-mode:lr-tb;fill:#000000;fill-opacity:1;fill-rule:nonzero;stroke:none"><tspan
     id="tspan134"
     sodipodi:role="line"
     y="171.40625"
     x="82.048073">1</tspan></text>

<path
   inkscape:connector-curvature="0"
   id="path138"
   style="fill:#ffffff;fill-opacity:1;fill-rule:nonzero;stroke:#000000;stroke-width:0.75;stroke-linecap:round;stroke-linejoin:round;stroke-miterlimit:10;stroke-dasharray:none;stroke-opacity:1"
   d="m 65.719,146.637 c 0,3.902 -5.848,3.902 -5.848,0 0,-3.899 5.848,-3.899 5.848,0" /><text
   style="font-variant:normal;font-weight:normal;font-size:13px;font-family:'Nimbus Roman';-inkscape-font-specification:NimbusRoman-Regular;writing-mode:lr-tb;fill:#000000;fill-opacity:1;fill-rule:nonzero;stroke:none"
   id="text150"
   x="51.4557"
   y="159.29941"><tspan
     x="51.4557"
     y="159.29941"
     sodipodi:role="line"
     id="tspan148">2</tspan></text>

<path
   inkscape:connector-curvature="0"
   id="path154"
   style="fill:#ffffff;fill-opacity:1;fill-rule:nonzero;stroke:#000000;stroke-width:0.75;stroke-linecap:round;stroke-linejoin:round;stroke-miterlimit:10;stroke-dasharray:none;stroke-opacity:1"
   d="m 57.848,127.109 c 0,3.903 -5.852,3.903 -5.852,0 0,-3.898 5.852,-3.898 5.852,0" /><text
   style="font-variant:normal;font-weight:normal;font-size:13px;font-family:'Nimbus Roman';-inkscape-font-specification:NimbusRoman-Regular;writing-mode:lr-tb;fill:#000000;fill-opacity:1;fill-rule:nonzero;stroke:none"
   id="text166"
   x="42.621094"
   y="131.48828"><tspan
     x="42.621094"
     y="131.48828"
     sodipodi:role="line"
     id="tspan164">3</tspan></text>

<path
   inkscape:connector-curvature="0"
   id="path170"
   style="fill:#ffffff;fill-opacity:1;fill-rule:nonzero;stroke:#000000;stroke-width:0.75;stroke-linecap:round;stroke-linejoin:round;stroke-miterlimit:10;stroke-dasharray:none;stroke-opacity:1"
   d="m 53.957,87.465 c 0,3.898 -5.852,3.898 -5.852,0 0,-3.899 5.852,-3.899 5.852,0" /><text
   style="font-variant:normal;font-weight:normal;font-size:13px;font-family:'Nimbus Roman';-inkscape-font-specification:NimbusRoman-Regular;writing-mode:lr-tb;fill:#000000;fill-opacity:1;fill-rule:nonzero;stroke:none"
   id="text182"
   x="40.210102"
   y="91.776199"><tspan
     x="40.210102"
     y="91.776199"
     sodipodi:role="line"
     id="tspan180">4</tspan></text>

<path
   inkscape:connector-curvature="0"
   id="path218"
   style="fill:none;stroke:#000000;stroke-width:0.75;stroke-linecap:round;stroke-linejoin:round;stroke-miterlimit:10;stroke-dasharray:none;stroke-opacity:1"
   d="M 35.879,7.801 H 212.102 V 177 H 35.879 Z" /><path
   style="fill:none;stroke:#000000;stroke-width:0.75px;stroke-linecap:butt;stroke-linejoin:miter;stroke-opacity:1;marker-end:url(#Arrow2Lend)"
   d="M 85.007807,16.821787 H 47.764088"
   id="path1084"
   inkscape:connector-curvature="0" /><path
   inkscape:connector-curvature="0"
   id="path1422"
   d="M 198.387,117.70928 V 154.953"
   style="fill:none;stroke:#000000;stroke-width:0.75px;stroke-linecap:butt;stroke-linejoin:miter;stroke-opacity:1;marker-end:url(#marker1426)" /><text
   y="112.7762"
   x="196.21011"
   id="text2024"
   style="font-variant:normal;font-weight:normal;font-size:13px;font-family:'Nimbus Roman';-inkscape-font-specification:NimbusRoman-Regular;writing-mode:lr-tb;fill:#000000;fill-opacity:1;fill-rule:nonzero;stroke:none"><tspan
     id="tspan2022"
     sodipodi:role="line"
     y="112.7762"
     x="196.21011">t</tspan></text>

<text
   style="font-variant:normal;font-weight:normal;font-size:13px;font-family:'Nimbus Roman';-inkscape-font-specification:NimbusRoman-Regular;writing-mode:lr-tb;fill:#000000;fill-opacity:1;fill-rule:nonzero;stroke:none"
   id="text934"
   x="-109.59103"
   y="9.0884199"
   transform="rotate(-90)"><tspan
     x="-109.59103"
     y="9.0884199"
     sodipodi:role="line"
     id="tspan932">[07/06]</tspan></text>
<text
   y="209.3871"
   x="96.020485"
   id="text938"
   style="font-variant:normal;font-weight:normal;font-size:13px;font-family:'Nimbus Roman';-inkscape-font-specification:NimbusRoman-Regular;writing-mode:lr-tb;fill:#000000;fill-opacity:1;fill-rule:nonzero;stroke:none"><tspan
     id="tspan936"
     sodipodi:role="line"
     y="209.3871"
     x="96.020485">[38/06]</tspan></text>
<text
   style="font-variant:normal;font-weight:normal;font-size:13px;font-family:'Nimbus Roman';-inkscape-font-specification:NimbusRoman-Regular;writing-mode:lr-tb;fill:#000000;fill-opacity:1;fill-rule:nonzero;stroke:none"
   id="text952"
   x="88.520485"
   y="20.3871"><tspan
     x="88.520485"
     y="20.3871"
     sodipodi:role="line"
     id="tspan950">[07/06]<tspan
   style="font-size:64.99999762%;baseline-shift:sub"
   id="tspan954">o</tspan></tspan></text>
</g></svg>