<?xml version="1.0" encoding="UTF-8" standalone="no"?>
<!-- Created with Inkscape (http://www.inkscape.org/) -->

<svg
   xmlns:dc="http://purl.org/dc/elements/1.1/"
   xmlns:cc="http://creativecommons.org/ns#"
   xmlns:rdf="http://www.w3.org/1999/02/22-rdf-syntax-ns#"
   xmlns:svg="http://www.w3.org/2000/svg"
   xmlns="http://www.w3.org/2000/svg"
   xmlns:sodipodi="http://sodipodi.sourceforge.net/DTD/sodipodi-0.dtd"
   xmlns:inkscape="http://www.inkscape.org/namespaces/inkscape"
   width="52.337563mm"
   height="42.966679mm"
   viewBox="0 0 185.44806 152.24413"
   id="svg4619"
   version="1.1"
   inkscape:version="0.91 r13725"
   sodipodi:docname="wetherill.svg">
  <defs
     id="defs4621">
    <clipPath
       clipPathUnits="userSpaceOnUse"
       id="clipPath172">
      <path
         d="m 14.703,111.787 139,0 0,-102 -139,0 0,102 z"
         id="path174"
         inkscape:connector-curvature="0" />
    </clipPath>
    <clipPath
       clipPathUnits="userSpaceOnUse"
       id="clipPath182">
      <path
         d="m 14,10 140,0 0,102 -140,0 0,-102 z"
         id="path184"
         inkscape:connector-curvature="0" />
    </clipPath>
    <clipPath
       clipPathUnits="userSpaceOnUse"
       id="clipPath192">
      <path
         d="m 14,112 140,0 0,-102 -140,0 0,102 z"
         id="path194"
         inkscape:connector-curvature="0" />
    </clipPath>
    <clipPath
       clipPathUnits="userSpaceOnUse"
       id="clipPath202">
      <path
         d="m 14,10 140,0 0,102 -140,0 0,-102 z"
         id="path204"
         inkscape:connector-curvature="0" />
    </clipPath>
  </defs>
  <sodipodi:namedview
     id="base"
     pagecolor="#ffffff"
     bordercolor="#666666"
     borderopacity="1.0"
     inkscape:pageopacity="0.0"
     inkscape:pageshadow="2"
     inkscape:zoom="6.0363573"
     inkscape:cx="92.558335"
     inkscape:cy="76.710939"
     inkscape:document-units="px"
     inkscape:current-layer="layer1"
     showgrid="false"
     fit-margin-top="0"
     fit-margin-left="0"
     fit-margin-right="0"
     fit-margin-bottom="0"
     inkscape:window-width="1920"
     inkscape:window-height="1056"
     inkscape:window-x="0"
     inkscape:window-y="24"
     inkscape:window-maximized="1" />
  <metadata
     id="metadata4624">
    <rdf:RDF>
      <cc:Work
         rdf:about="">
        <dc:format>image/svg+xml</dc:format>
        <dc:type
           rdf:resource="http://purl.org/dc/dcmitype/StillImage" />
        <dc:title></dc:title>
      </cc:Work>
    </rdf:RDF>
  </metadata>
  <g
     inkscape:label="Layer 1"
     inkscape:groupmode="layer"
     id="layer1"
     transform="translate(1240.8756,-187.7165)">
    <path
       d="m -1227.7658,322.47487 c 11.475,-40.16125 74.5763,-100.395 155.845,-101.83125"
       style="fill:none;stroke:#1266ac;stroke-width:1.875;stroke-linecap:butt;stroke-linejoin:miter;stroke-miterlimit:4;stroke-dasharray:none;stroke-opacity:1"
       id="path14"
       inkscape:connector-curvature="0" />
    <text
       xml:space="preserve"
       style="font-style:normal;font-weight:normal;font-size:40px;line-height:125%;font-family:sans-serif;letter-spacing:0px;word-spacing:0px;fill:#000000;fill-opacity:1;stroke:none;stroke-width:1px;stroke-linecap:butt;stroke-linejoin:miter;stroke-opacity:1"
       x="-1210.4846"
       y="300.65173"
       id="text4615"
       sodipodi:linespacing="125%"><tspan
         sodipodi:role="line"
         id="tspan4617"
         x="-1210.4846"
         y="300.65173"
         style="font-style:normal;font-variant:normal;font-weight:normal;font-stretch:normal;font-size:9px;font-family:serif;-inkscape-font-specification:serif;text-align:start;text-anchor:start">T$_1$</tspan></text>
    <path
       d="m -1214.0771,294.40846 158.2375,-97.52376"
       style="fill:none;stroke:#231f20;stroke-width:0.73500001;stroke-linecap:butt;stroke-linejoin:miter;stroke-miterlimit:4;stroke-dasharray:none;stroke-opacity:1"
       id="path16"
       inkscape:connector-curvature="0" />
    <path
       d="m -1214.0771,297.7872 c 1.865,0 3.3787,-1.51375 3.3787,-3.37874 0,-1.865 -1.5137,-3.37875 -3.3787,-3.37875 -1.865,0 -3.3838,1.51375 -3.3838,3.37875 0,1.86499 1.5188,3.37874 3.3838,3.37874"
       style="fill:#231f20;fill-opacity:1;fill-rule:nonzero;stroke:none"
       id="path18"
       inkscape:connector-curvature="0" />
    <path
       d="m -1214.0771,297.7872 c 1.865,0 3.3787,-1.51375 3.3787,-3.37874 0,-1.865 -1.5137,-3.37875 -3.3787,-3.37875 -1.865,0 -3.3838,1.51375 -3.3838,3.37875 0,1.86499 1.5188,3.37874 3.3838,3.37874 z"
       style="fill:none;stroke:#ffffff;stroke-width:0.36750001;stroke-linecap:butt;stroke-linejoin:miter;stroke-miterlimit:4;stroke-dasharray:none;stroke-opacity:1"
       id="path20"
       inkscape:connector-curvature="0" />
    <path
       d="m -1066.2396,206.81096 c 1.87,0 3.3837,-1.51876 3.3837,-3.38376 0,-1.865 -1.5137,-3.37875 -3.3837,-3.37875 -1.8663,0 -3.38,1.51375 -3.38,3.37875 0,1.865 1.5137,3.38376 3.38,3.38376"
       style="fill:#ffffff;fill-opacity:1;fill-rule:nonzero;stroke:none"
       id="path22"
       inkscape:connector-curvature="0" />
    <path
       d="m -1066.2396,206.81096 c 1.87,0 3.3837,-1.51876 3.3837,-3.38376 0,-1.865 -1.5137,-3.37875 -3.3837,-3.37875 -1.8663,0 -3.38,1.51375 -3.38,3.37875 0,1.865 1.5137,3.38376 3.38,3.38376 z"
       style="fill:none;stroke:#231f20;stroke-width:1.63499999;stroke-linecap:butt;stroke-linejoin:miter;stroke-miterlimit:4;stroke-dasharray:none;stroke-opacity:1"
       id="path24"
       inkscape:connector-curvature="0" />
    <path
       d="m -1188.2321,281.1572 c 1.64,0 2.9687,-1.33374 2.9687,-2.96875 0,-1.64124 -1.3287,-2.96875 -2.9687,-2.96875 -1.6413,0 -2.9688,1.32751 -2.9688,2.96875 0,1.63501 1.3275,2.96875 2.9688,2.96875"
       style="fill:#ffffff;fill-opacity:1;fill-rule:nonzero;stroke:none"
       id="path26"
       inkscape:connector-curvature="0" />
    <path
       d="m -1188.2321,281.1572 c 1.64,0 2.9687,-1.33374 2.9687,-2.96875 0,-1.64124 -1.3287,-2.96875 -2.9687,-2.96875 -1.6413,0 -2.9688,1.32751 -2.9688,2.96875 0,1.63501 1.3275,2.96875 2.9688,2.96875 z"
       style="fill:none;stroke:#231f20;stroke-width:0.40875;stroke-linecap:butt;stroke-linejoin:miter;stroke-miterlimit:4;stroke-dasharray:none;stroke-opacity:1"
       id="path28"
       inkscape:connector-curvature="0" />
    <path
       d="m -1154.7996,261.48846 c 1.64,0 2.9687,-1.3275 2.9687,-2.96375 0,-1.64 -1.3287,-2.97375 -2.9687,-2.97375 -1.6413,0 -2.9688,1.33375 -2.9688,2.97375 0,1.63625 1.3275,2.96375 2.9688,2.96375"
       style="fill:#ffffff;fill-opacity:1;fill-rule:nonzero;stroke:none"
       id="path30"
       inkscape:connector-curvature="0" />
    <path
       d="m -1154.7996,261.48846 c 1.64,0 2.9687,-1.3275 2.9687,-2.96375 0,-1.64 -1.3287,-2.97375 -2.9687,-2.97375 -1.6413,0 -2.9688,1.33375 -2.9688,2.97375 0,1.63625 1.3275,2.96375 2.9688,2.96375 z"
       style="fill:none;stroke:#231f20;stroke-width:0.40875;stroke-linecap:butt;stroke-linejoin:miter;stroke-miterlimit:4;stroke-dasharray:none;stroke-opacity:1"
       id="path32"
       inkscape:connector-curvature="0" />
    <path
       d="m -1121.5034,240.2197 c 1.64,0 2.9688,-1.32875 2.9688,-2.96875 0,-1.64125 -1.3288,-2.96875 -2.9688,-2.96875 -1.6412,0 -2.9687,1.3275 -2.9687,2.96875 0,1.64 1.3275,2.96875 2.9687,2.96875"
       style="fill:#ffffff;fill-opacity:1;fill-rule:nonzero;stroke:none"
       id="path34"
       inkscape:connector-curvature="0" />
    <path
       d="m -1121.7821,240.51721 c 1.6412,0 2.9737,-1.32876 2.9737,-2.96875 0,-1.64126 -1.3325,-2.96875 -2.9737,-2.96875 -1.6363,0 -2.9688,1.32749 -2.9688,2.96875 0,1.63999 1.3325,2.96875 2.9688,2.96875"
       style="fill:#ffffff;fill-opacity:1;fill-rule:nonzero;stroke:none"
       id="path38"
       inkscape:connector-curvature="0" />
    <path
       d="m -1121.7821,240.51721 c 1.6412,0 2.9737,-1.32876 2.9737,-2.96875 0,-1.64126 -1.3325,-2.96875 -2.9737,-2.96875 -1.6363,0 -2.9688,1.32749 -2.9688,2.96875 0,1.63999 1.3325,2.96875 2.9688,2.96875 z"
       style="fill:none;stroke:#231f20;stroke-width:0.40875;stroke-linecap:butt;stroke-linejoin:miter;stroke-miterlimit:4;stroke-dasharray:none;stroke-opacity:1"
       id="path40"
       inkscape:connector-curvature="0" />
    <path
       d="m -1114.7559,233.16846 15.005,-9.365"
       style="fill:none;stroke:#231f20;stroke-width:1.25;stroke-linecap:butt;stroke-linejoin:miter;stroke-miterlimit:4;stroke-dasharray:none;stroke-opacity:1"
       id="path42"
       inkscape:connector-curvature="0" />
    <path
       d="m -1118.0321,235.35096 c 1.1912,-1.5525 2.505,-3.74 3.0512,-5.52751 l 0.6838,3.19376 2.5637,2.01625 c -1.8412,-0.2975 -4.385,-0.0775 -6.2987,0.3175"
       style="fill:#231f20;fill-opacity:1;fill-rule:nonzero;stroke:none"
       id="path44"
       inkscape:connector-curvature="0" />
    <path
       d="m -1081.4896,212.62096 -15.0875,9.23375"
       style="fill:none;stroke:#231f20;stroke-width:1.25;stroke-linecap:butt;stroke-linejoin:miter;stroke-miterlimit:4;stroke-dasharray:none;stroke-opacity:1"
       id="path46"
       inkscape:connector-curvature="0" />
    <path
       d="m -1078.1984,210.46845 c -1.2062,1.5375 -2.5387,3.71501 -3.1,5.49751 l -0.655,-3.1975 -2.5487,-2.03625 c 1.8412,0.3125 4.39,0.11249 6.3037,-0.26376"
       style="fill:#231f20;fill-opacity:1;fill-rule:nonzero;stroke:none"
       id="path48"
       inkscape:connector-curvature="0" />
    <path
       d="m -1144.1546,251.4247 15.005,-9.365"
       style="fill:none;stroke:#231f20;stroke-width:1.25;stroke-linecap:butt;stroke-linejoin:miter;stroke-miterlimit:4;stroke-dasharray:none;stroke-opacity:1"
       id="path50"
       inkscape:connector-curvature="0" />
    <path
       d="m -1147.4359,253.60346 c 1.1963,-1.54876 2.5138,-3.73626 3.0563,-5.52251 l 0.6837,3.1925 2.5675,2.01751 c -1.85,-0.29876 -4.3887,-0.0788 -6.3075,0.3125"
       style="fill:#231f20;fill-opacity:1;fill-rule:nonzero;stroke:none"
       id="path52"
       inkscape:connector-curvature="0" />
    <path
       d="m -1176.7771,271.6797 15,-9.36625"
       style="fill:none;stroke:#231f20;stroke-width:1.25;stroke-linecap:butt;stroke-linejoin:miter;stroke-miterlimit:4;stroke-dasharray:none;stroke-opacity:1"
       id="path54"
       inkscape:connector-curvature="0" />
    <path
       d="m -1180.0584,273.8622 c 1.1963,-1.54875 2.51,-3.74124 3.0563,-5.52749 l 0.6837,3.18874 2.5638,2.01625 c -1.8463,-0.29374 -4.39,-0.0738 -6.3038,0.3225"
       style="fill:#231f20;fill-opacity:1;fill-rule:nonzero;stroke:none"
       id="path56"
       inkscape:connector-curvature="0" />
    <path
       d="m -1083.0571,207.44595 -18.2125,0"
       style="fill:none;stroke:#231f20;stroke-width:0.625;stroke-linecap:butt;stroke-linejoin:miter;stroke-miterlimit:4;stroke-dasharray:none;stroke-opacity:1"
       id="path84"
       inkscape:connector-curvature="0" />
    <path
       d="m -1079.1009,207.44595 c -2.0662,0.76626 -4.62,2.07501 -6.2062,3.45626 l 1.25,-3.45626 -1.25,-3.4475 c 1.5862,1.38125 4.14,2.68501 6.2062,3.4475"
       style="fill:#231f20;fill-opacity:1;fill-rule:nonzero;stroke:none"
       id="path86"
       inkscape:connector-curvature="0" />
    <path
       d="m -1144.0234,258.6122 8.4525,0"
       style="fill:none;stroke:#231f20;stroke-width:0.625;stroke-linecap:butt;stroke-linejoin:miter;stroke-miterlimit:4;stroke-dasharray:none;stroke-opacity:1"
       id="path88"
       inkscape:connector-curvature="0" />
    <path
       d="m -1147.9834,258.6122 c 2.065,-0.76124 4.6238,-2.07 6.2113,-3.45124 l -1.25,3.45124 1.25,3.4525 c -1.5875,-1.37625 -4.1463,-2.68499 -6.2113,-3.4525"
       style="fill:#231f20;fill-opacity:1;fill-rule:nonzero;stroke:none"
       id="path90"
       inkscape:connector-curvature="0" />
    <path
       d="m -1099.7509,227.18221 c 1.865,0 3.3788,-1.51375 3.3788,-3.37875 0,-1.86501 -1.5138,-3.37875 -3.3788,-3.37875 -1.865,0 -3.3787,1.51374 -3.3787,3.37875 0,1.865 1.5137,3.37875 3.3787,3.37875"
       style="fill:#231f20;fill-opacity:1;fill-rule:nonzero;stroke:none"
       id="path158"
       inkscape:connector-curvature="0" />
    <path
       d="m -1099.7509,227.18221 c 1.865,0 3.3788,-1.51375 3.3788,-3.37875 0,-1.86501 -1.5138,-3.37875 -3.3788,-3.37875 -1.865,0 -3.3787,1.51374 -3.3787,3.37875 0,1.865 1.5137,3.37875 3.3787,3.37875 z"
       style="fill:none;stroke:#ffffff;stroke-width:0.36750001;stroke-linecap:butt;stroke-linejoin:miter;stroke-miterlimit:4;stroke-dasharray:none;stroke-opacity:1"
       id="path160"
       inkscape:connector-curvature="0" />
    <g
       transform="matrix(1.25,0,0,-1.25,-1247.4713,335.87663)"
       id="g168">
      <g
         id="g170"
         clip-path="url(#clipPath172)">
        <g
           id="g176"
           transform="translate(0,-0.212997)">
          <g
             id="g178">
            <g
               id="g180"
               clip-path="url(#clipPath182)">
              <g
                 id="g186" />
              <g
                 id="g188">
                <g
                   id="g190"
                   clip-path="url(#clipPath192)">
                  <g
                     id="g196">
                    <g
                       id="g198">
                      <g
                         id="g200"
                         clip-path="url(#clipPath202)">
                        <g
                           id="g206">
                          <path
                             d="m 15.273,111.691 138.062,0 0,-100.969 -138.062,0 0,100.969 z"
                             style="fill:none;stroke:#231f20;stroke-width:0.60000002;stroke-linecap:butt;stroke-linejoin:miter;stroke-miterlimit:4;stroke-dasharray:none;stroke-opacity:1"
                             id="path208"
                             inkscape:connector-curvature="0" />
                        </g>
                      </g>
                    </g>
                  </g>
                </g>
              </g>
            </g>
          </g>
        </g>
      </g>
    </g>
    <text
       sodipodi:linespacing="125%"
       id="text5440"
       y="231.39104"
       x="-1095.2947"
       style="font-style:normal;font-weight:normal;font-size:40px;line-height:125%;font-family:sans-serif;letter-spacing:0px;word-spacing:0px;fill:#000000;fill-opacity:1;stroke:none;stroke-width:1px;stroke-linecap:butt;stroke-linejoin:miter;stroke-opacity:1"
       xml:space="preserve"><tspan
         style="font-style:normal;font-variant:normal;font-weight:normal;font-stretch:normal;font-size:9px;font-family:serif;-inkscape-font-specification:serif;text-align:start;text-anchor:start"
         y="231.39104"
         x="-1095.2947"
         id="tspan5442"
         sodipodi:role="line">T$_0$</tspan></text>
    <text
       xml:space="preserve"
       style="font-style:normal;font-weight:normal;font-size:40px;line-height:125%;font-family:sans-serif;letter-spacing:0px;word-spacing:0px;fill:#000000;fill-opacity:1;stroke:none;stroke-width:1px;stroke-linecap:butt;stroke-linejoin:miter;stroke-opacity:1"
       x="-1155.0173"
       y="211.38022"
       id="text5444"
       sodipodi:linespacing="125%"><tspan
         sodipodi:role="line"
         id="tspan5446"
         x="-1155.0173"
         y="211.38022"
         style="font-style:normal;font-variant:normal;font-weight:normal;font-stretch:normal;font-size:9px;font-family:serif;-inkscape-font-specification:serif;text-align:start;text-anchor:start">U-loss at T$_1$</tspan></text>
    <text
       sodipodi:linespacing="125%"
       id="text5448"
       y="261.38022"
       x="-1133.0173"
       style="font-style:normal;font-weight:normal;font-size:40px;line-height:125%;font-family:sans-serif;letter-spacing:0px;word-spacing:0px;fill:#000000;fill-opacity:1;stroke:none;stroke-width:1px;stroke-linecap:butt;stroke-linejoin:miter;stroke-opacity:1"
       xml:space="preserve"><tspan
         style="font-style:normal;font-variant:normal;font-weight:normal;font-stretch:normal;font-size:9px;font-family:serif;-inkscape-font-specification:serif;text-align:start;text-anchor:start"
         y="261.38022"
         x="-1133.0173"
         id="tspan5450"
         sodipodi:role="line">Pb-loss at T$_1$</tspan></text>
    <text
       xml:space="preserve"
       style="font-style:normal;font-weight:normal;font-size:40px;line-height:125%;font-family:sans-serif;letter-spacing:0px;word-spacing:0px;fill:#000000;fill-opacity:1;stroke:none;stroke-width:1px;stroke-linecap:butt;stroke-linejoin:miter;stroke-opacity:1"
       x="-1139.3998"
       y="-429.12192"
       id="text5452"
       sodipodi:linespacing="125%"
       transform="matrix(0.83828094,-0.54523854,0.54523854,0.83828094,0,0)"><tspan
         sodipodi:role="line"
         id="tspan5454"
         x="-1139.3998"
         y="-429.12192"
         style="font-style:normal;font-variant:normal;font-weight:normal;font-stretch:normal;font-size:9px;font-family:serif;-inkscape-font-specification:serif;text-align:start;text-anchor:start">Concordia</tspan></text>
    <text
       xml:space="preserve"
       style="font-style:normal;font-weight:normal;font-size:40px;line-height:125%;font-family:sans-serif;text-align:center;letter-spacing:0px;word-spacing:0px;text-anchor:middle;fill:#000000;fill-opacity:1;stroke:none;stroke-width:1px;stroke-linecap:butt;stroke-linejoin:miter;stroke-opacity:1"
       x="-1144.8953"
       y="331.38022"
       id="text5456"
       sodipodi:linespacing="125%"><tspan
         sodipodi:role="line"
         id="tspan5458"
         x="-1144.8953"
         y="331.38022"
         style="font-style:normal;font-variant:normal;font-weight:normal;font-stretch:normal;font-size:9px;font-family:serif;-inkscape-font-specification:serif;text-align:center;text-anchor:middle">$^{207}$Pb$^\ast$/$^{235}$U</tspan></text>
    <text
       sodipodi:linespacing="125%"
       id="text5460"
       y="-1234.0377"
       x="-264.01434"
       style="font-style:normal;font-weight:normal;font-size:40px;line-height:125%;font-family:sans-serif;letter-spacing:0px;word-spacing:0px;fill:#000000;fill-opacity:1;stroke:none;stroke-width:1px;stroke-linecap:butt;stroke-linejoin:miter;stroke-opacity:1"
       xml:space="preserve"
       transform="matrix(0,-1,1,0,0,0)"><tspan
         style="font-style:normal;font-variant:normal;font-weight:normal;font-stretch:normal;font-size:9px;font-family:serif;-inkscape-font-specification:serif;text-align:center;text-anchor:middle"
         y="-1234.0377"
         x="-264.01434"
         id="tspan5462"
         sodipodi:role="line">$^{206}$Pb$^\ast$/$^{238}$U</tspan></text>
  </g>
</svg>
